<svg width="1205" height="3010"><g transform="translate(20,20)"><rect width="120" height="24" x="9965" y="518.1818181818181" style="stroke: gray; fill: white; stroke-width: 2;"></rect><rect width="120" height="24" x="9965" y="490.90909090909093" style="stroke: gray; fill: white; stroke-width: 2;"></rect><rect width="120" height="24" x="9965" y="409.0909090909091" style="stroke: gray; fill: white; stroke-width: 2;"></rect><rect width="120" height="24" x="9965" y="381.81818181818176" style="stroke: gray; fill: white; stroke-width: 2;"></rect><rect width="120" height="24" x="9965" y="763.6363636363635" style="stroke: gray; fill: white; stroke-width: 2;"></rect><rect width="120" height="24" x="9965" y="490.90909090909093" style="stroke: gray; fill: white; stroke-width: 2;"></rect><rect width="120" height="24" x="9965" y="463.63636363636357" style="stroke: gray; fill: white; stroke-width: 2;"></rect><rect width="120" height="24" x="9965" y="736.3636363636363" style="stroke: gray; fill: white; stroke-width: 2;"></rect><rect width="120" height="24" x="9965" y="872.7272727272727" style="stroke: gray; fill: white; stroke-width: 2;"></rect><rect width="120" height="24" x="9965" y="845.4545454545454" style="stroke: gray; fill: white; stroke-width: 2;"></rect><rect width="120" height="24" x="9965" y="1200" style="stroke: gray; fill: white; stroke-width: 2;"></rect><rect width="120" height="24" x="9965" y="327.27272727272725" style="stroke: gray; fill: white; stroke-width: 2;"></rect><rect width="120" height="24" x="9965" y="1172.7272727272727" style="stroke: gray; fill: white; stroke-width: 2;"></rect><rect width="120" height="24" x="9965" y="1390.9090909090908" style="stroke: gray; fill: white; stroke-width: 2;"></rect><rect width="120" height="24" x="9965" y="300" style="stroke: gray; fill: white; stroke-width: 2;"></rect><rect width="120" height="24" x="9965" y="736.3636363636363" style="stroke: gray; fill: white; stroke-width: 2;"></rect><rect width="120" height="24" x="9965" y="1527.272727272727" style="stroke: gray; fill: white; stroke-width: 2;"></rect><rect width="120" height="24" x="9965" y="1499.9999999999998" style="stroke: gray; fill: white; stroke-width: 2;"></rect><rect width="120" height="24" x="9965" y="709.090909090909" style="stroke: gray; fill: white; stroke-width: 2;"></rect><rect width="120" height="24" x="9965" y="381.81818181818176" style="stroke: gray; fill: white; stroke-width: 2;"></rect><rect width="120" height="24" x="9965" y="1363.6363636363635" style="stroke: gray; fill: white; stroke-width: 2;"></rect><rect width="120" height="24" x="9965" y="354.5454545454545" style="stroke: gray; fill: white; stroke-width: 2;"></rect><rect width="120" height="24" x="9965" y="709.090909090909" style="stroke: gray; fill: white; stroke-width: 2;"></rect><rect width="120" height="24" x="9965" y="1827.272727272727" style="stroke: gray; fill: white; stroke-width: 2;"></rect><rect width="120" height="24" x="9965" y="1800" style="stroke: gray; fill: white; stroke-width: 2;"></rect><rect width="120" height="24" x="9965" y="136.36363636363635" style="stroke: gray; fill: white; stroke-width: 2;"></rect><rect width="120" height="24" x="9965" y="681.8181818181818" style="stroke: gray; fill: white; stroke-width: 2;"></rect><rect width="120" height="24" x="9965" y="1499.9999999999998" style="stroke: gray; fill: white; stroke-width: 2;"></rect><rect width="120" height="24" x="9965" y="109.0909090909091" style="stroke: gray; fill: white; stroke-width: 2;"></rect><rect width="120" height="24" x="9965" y="1172.7272727272727" style="stroke: gray; fill: white; stroke-width: 2;"></rect><rect width="120" height="24" x="9965" y="1472.7272727272725" style="stroke: gray; fill: white; stroke-width: 2;"></rect><rect width="120" height="24" x="9965" y="1145.4545454545453" style="stroke: gray; fill: white; stroke-width: 2;"></rect><rect width="120" height="24" x="9965" y="1363.6363636363635" style="stroke: gray; fill: white; stroke-width: 2;"></rect><rect width="120" height="24" x="9965" y="2263.6363636363635" style="stroke: gray; fill: white; stroke-width: 2;"></rect><rect width="120" height="24" x="9965" y="2372.7272727272725" style="stroke: gray; fill: white; stroke-width: 2;"></rect><rect width="120" height="24" x="9965" y="2400" style="stroke: gray; fill: white; stroke-width: 2;"></rect><rect width="120" height="24" x="9965" y="2236.3636363636365" style="stroke: gray; fill: white; stroke-width: 2;"></rect><rect width="120" height="24" x="9965" y="2509.090909090909" style="stroke: gray; fill: white; stroke-width: 2;"></rect><rect width="120" height="24" x="9965" y="1336.3636363636363" style="stroke: gray; fill: white; stroke-width: 2;"></rect><rect width="120" height="24" x="9965" y="2481.8181818181815" style="stroke: gray; fill: white; stroke-width: 2;"></rect><rect width="120" height="24" x="9965" y="627.2727272727273" style="stroke: gray; fill: white; stroke-width: 2;"></rect><rect width="120" height="24" x="9965" y="300" style="stroke: gray; fill: white; stroke-width: 2;"></rect><rect width="120" height="24" x="9965" y="272.7272727272727" style="stroke: gray; fill: white; stroke-width: 2;"></rect><rect width="120" height="24" x="9965" y="1063.6363636363635" style="stroke: gray; fill: white; stroke-width: 2;"></rect><rect width="120" height="24" x="9965" y="1036.3636363636363" style="stroke: gray; fill: white; stroke-width: 2;"></rect><rect width="120" height="24" x="9965" y="654.5454545454545" style="stroke: gray; fill: black; stroke-width: 2;"></rect><rect width="120" height="24" x="9965" y="1800" style="stroke: gray; fill: white; stroke-width: 2;"></rect><rect width="120" height="24" x="9965" y="2809.090909090909" style="stroke: gray; fill: white; stroke-width: 2;"></rect><rect width="120" height="24" x="9965" y="2781.8181818181815" style="stroke: gray; fill: white; stroke-width: 2;"></rect><rect width="120" height="24" x="9965" y="2918.181818181818" style="stroke: gray; fill: white; stroke-width: 2;"></rect><rect width="120" height="24" x="9965" y="2890.909090909091" style="stroke: gray; fill: white; stroke-width: 2;"></rect><rect width="120" height="24" x="9965" y="2045.4545454545453" style="stroke: gray; fill: white; stroke-width: 2;"></rect><rect width="120" height="24" x="9965" y="1772.7272727272727" style="stroke: gray; fill: white; stroke-width: 2;"></rect><rect width="120" height="24" x="9965" y="2072.7272727272725" style="stroke: gray; fill: white; stroke-width: 2;"></rect><rect width="120" height="24" x="9965" y="2290.9090909090905" style="stroke: gray; fill: white; stroke-width: 2;"></rect><rect width="120" height="24" x="9965" y="2100" style="stroke: gray; fill: white; stroke-width: 2;"></rect><rect width="120" height="24" x="9965" y="2127.272727272727" style="stroke: gray; fill: white; stroke-width: 2;"></rect><rect width="120" height="24" x="9965" y="2154.5454545454545" style="stroke: gray; fill: black; stroke-width: 2;"></rect><rect width="120" height="24" x="9965" y="2318.181818181818" style="stroke: gray; fill: white; stroke-width: 2;"></rect><rect width="120" height="24" x="9965" y="2181.8181818181815" style="stroke: gray; fill: white; stroke-width: 2;"></rect><rect width="120" height="24" x="9965" y="2345.4545454545455" style="stroke: gray; fill: black; stroke-width: 2;"></rect><rect width="120" height="24" x="9965" y="1036.3636363636363" style="stroke: gray; fill: white; stroke-width: 2;"></rect><rect width="120" height="24" x="9965" y="2454.5454545454545" style="stroke: gray; fill: white; stroke-width: 2;"></rect><rect width="120" height="24" x="9965" y="163.63636363636363" style="stroke: gray; fill: white; stroke-width: 2;"></rect><rect width="120" height="24" x="9965" y="1281.8181818181818" style="stroke: gray; fill: black; stroke-width: 2;"></rect><rect width="120" height="24" x="9965" y="2209.090909090909" style="stroke: gray; fill: white; stroke-width: 2;"></rect><rect width="120" height="24" x="9965" y="1145.4545454545453" style="stroke: gray; fill: white; stroke-width: 2;"></rect><rect width="120" height="24" x="9965" y="2481.8181818181815" style="stroke: gray; fill: white; stroke-width: 2;"></rect><rect width="120" height="24" x="9965" y="1009.090909090909" style="stroke: gray; fill: white; stroke-width: 2;"></rect><rect width="120" height="24" x="9965" y="190.90909090909088" style="stroke: gray; fill: white; stroke-width: 2;"></rect><rect width="120" height="24" x="9965" y="218.1818181818182" style="stroke: gray; fill: white; stroke-width: 2;"></rect><rect width="120" height="24" x="9965" y="1118.1818181818182" style="stroke: gray; fill: white; stroke-width: 2;"></rect><rect width="120" height="24" x="9965" y="2809.090909090909" style="stroke: gray; fill: black; stroke-width: 2;"></rect><rect width="120" height="24" x="9965" y="2672.7272727272725" style="stroke: gray; fill: white; stroke-width: 2;"></rect><rect width="120" height="24" x="9965" y="2836.363636363636" style="stroke: gray; fill: white; stroke-width: 2;"></rect><rect width="120" height="24" x="9965" y="2700" style="stroke: gray; fill: white; stroke-width: 2;"></rect><rect width="120" height="24" x="9965" y="1309.090909090909" style="stroke: gray; fill: white; stroke-width: 2;"></rect><rect width="120" height="24" x="9965" y="245.45454545454547" style="stroke: gray; fill: black; stroke-width: 2;"></rect><rect width="120" height="24" x="9965" y="1772.7272727272727" style="stroke: gray; fill: black; stroke-width: 2;"></rect><rect width="120" height="24" x="9965" y="2863.6363636363635" style="stroke: gray; fill: white; stroke-width: 2;"></rect><rect width="120" height="24" x="9965" y="2727.272727272727" style="stroke: gray; fill: white; stroke-width: 2;"></rect><rect width="120" height="24" x="9965" y="1745.4545454545455" style="stroke: gray; fill: white; stroke-width: 2;"></rect><rect width="120" height="24" x="9965" y="1772.7272727272727" style="stroke: gray; fill: white; stroke-width: 2;"></rect><rect width="120" height="24" x="9965" y="2400" style="stroke: gray; fill: black; stroke-width: 2;"></rect><rect width="120" height="24" x="9965" y="3136.363636363636" style="stroke: gray; fill: white; stroke-width: 2;"></rect><rect width="120" height="24" x="9965" y="872.7272727272727" style="stroke: gray; fill: white; stroke-width: 2;"></rect><rect width="120" height="24" x="9965" y="900" style="stroke: gray; fill: white; stroke-width: 2;"></rect><rect width="120" height="24" x="9965" y="2427.2727272727275" style="stroke: gray; fill: white; stroke-width: 2;"></rect><rect width="120" height="24" x="9965" y="2754.545454545454" style="stroke: gray; fill: black; stroke-width: 2;"></rect><rect width="120" height="24" x="9965" y="1063.6363636363635" style="stroke: gray; fill: black; stroke-width: 2;"></rect><rect width="120" height="24" x="9965" y="927.2727272727271" style="stroke: gray; fill: black; stroke-width: 2;"></rect><rect width="120" height="24" x="9965" y="1090.9090909090908" style="stroke: gray; fill: white; stroke-width: 2;"></rect><rect width="120" height="24" x="9965" y="954.5454545454545" style="stroke: gray; fill: white; stroke-width: 2;"></rect><rect width="120" height="24" x="9965" y="981.8181818181819" style="stroke: gray; fill: white; stroke-width: 2;"></rect><rect width="120" height="24" x="9965" y="1636.3636363636365" style="stroke: gray; fill: white; stroke-width: 2;"></rect><rect width="120" height="24" x="9965" y="1663.6363636363635" style="stroke: gray; fill: black; stroke-width: 2;"></rect><rect width="120" height="24" x="9965" y="1690.9090909090908" style="stroke: gray; fill: white; stroke-width: 2;"></rect><rect width="120" height="24" x="9965" y="3163.6363636363635" style="stroke: gray; fill: white; stroke-width: 2;"></rect><rect width="120" height="24" x="9965" y="1718.181818181818" style="stroke: gray; fill: white; stroke-width: 2;"></rect></g><g transform="translate(170,32)"><path class="edges" d="M852.5,504.5454545454545L825.7796391752578,504.5454545454545C799.0592783505157,504.5454545454545,745.6185567010311,504.5454545454545,718.8981958762889,484.090909090909C692.1778350515466,463.63636363636357,692.1778350515466,422.7272727272727,682.6481958762889,402.2727272727272C673.1185567010311,381.81818181818176,654.0592783505156,381.81818181818176,644.5296391752578,381.81818181818176L635,381.81818181818176" stroke-width="3" style="stroke: rgb(57, 59, 121); fill: none;"></path><path class="edges" d="M852.5,504.5454545454545L821.8148625429554,504.5454545454545C791.1297250859108,504.5454545454545,729.7594501718216,504.5454545454545,699.0743127147771,547.7272727272726C668.3891752577324,590.9090909090909,668.3891752577324,677.2727272727271,661.1576460481103,720.4545454545454C653.9261168384883,763.6363636363635,639.4630584192441,763.6363636363635,632.2315292096221,763.6363636363635L625,763.6363636363635" stroke-width="3" style="stroke: rgb(57, 59, 121); fill: none;"></path><path class="edges" d="M852.5,504.5454545454545L822.0833333333334,504.5454545454545C791.6666666666666,504.5454545454545,730.8333333333334,504.5454545454545,700.4166666666666,497.7272727272727C670,490.9090909090908,670,477.2727272727272,660,470.45454545454544C650,463.63636363636357,630,463.63636363636357,620,463.63636363636357L610,463.63636363636357" stroke-width="3" style="stroke: rgb(57, 59, 121); fill: none;"></path><path class="edges" d="M650,395.45454545454544L634.4072164948454,395.45454545454544C618.8144329896909,395.45454545454544,587.6288659793818,395.45454545454544,572.0360824742272,475C556.4432989690727,554.5454545454545,556.4432989690727,713.6363636363636,553.7027491408938,793.1818181818181C550.9621993127151,872.7272727272726,545.4810996563575,872.7272727272726,542.7405498281788,872.7272727272729L540,872.7272727272727" stroke-width="3" style="stroke: rgb(156, 158, 222); fill: none;"></path><path class="edges" d="M650,395.45454545454544L631.7525773195877,395.45454545454544C613.5051546391753,395.45454545454544,577.0103092783506,395.45454545454544,558.7628865979383,529.5454545454545C540.515463917526,663.6363636363636,540.515463917526,931.8181818181819,538.7628865979383,1065.9090909090908C537.0103092783506,1200,533.5051546391753,1200,531.7525773195877,1200L530,1200" stroke-width="3" style="stroke: rgb(156, 158, 222); fill: none;"></path><path class="edges" d="M607.5,749.9999999999999L589.5038659793814,749.9999999999999C571.5077319587627,749.9999999999999,535.5154639175256,749.9999999999999,517.5193298969069,856.8181818181816C499.52319587628836,963.6363636363635,499.52319587628836,1177.2727272727273,497.1026632302403,1284.090909090909C494.68213058419224,1390.9090909090908,489.8410652920961,1390.9090909090908,487.42053264604806,1390.9090909090908L485,1390.9090909090908" stroke-width="3" style="stroke: rgb(140, 162, 82); fill: none;"></path><path class="edges" d="M650,395.45454545454544L628.9690721649484,395.45454545454544C607.938144329897,395.45454545454544,565.8762886597939,395.45454545454544,544.8453608247424,379.5454545454545C523.8144329896909,363.6363636363637,523.8144329896909,331.8181818181818,516.5120274914091,315.90909090909093C509.20962199312726,300,494.60481099656363,300,487.3024054982818,300L480,300" stroke-width="3" style="stroke: rgb(156, 158, 222); fill: none;"></path><path class="edges" d="M615,477.27272727272725L593.4278350515464,477.2727272727272C571.8556701030926,477.27272727272725,528.7113402061854,477.27272727272725,507.13917525773167,652.2727272727271C485.567010309278,827.2727272727271,485.567010309278,1177.272727272727,484.63917525773167,1352.272727272727C483.7113402061853,1527.272727272727,481.8556701030927,1527.272727272727,480.9278350515463,1527.272727272727L480,1527.272727272727" stroke-width="3" style="stroke: rgb(206, 219, 156); fill: none;"></path><path class="edges" d="M607.5,749.9999999999999L590.8805841924399,749.9999999999999C574.2611683848796,749.9999999999999,541.0223367697594,749.9999999999999,524.4029209621991,743.181818181818C507.783505154639,736.3636363636364,507.783505154639,722.7272727272726,502.3195876288658,715.9090909090909C496.8556701030927,709.090909090909,485.9278350515463,709.090909090909,480.4639175257732,709.090909090909L475,709.090909090909" stroke-width="3" style="stroke: rgb(140, 162, 82); fill: none;"></path><path class="edges" d="M650,395.45454545454544L624.286941580756,395.45454545454544C598.5738831615121,395.45454545454544,547.1477663230243,395.45454545454544,521.4347079037802,388.6363636363637C495.72164948453633,381.8181818181818,495.72164948453633,368.1818181818182,487.26804123711355,361.3636363636363C478.8144329896909,354.5454545454545,461.90721649484544,354.5454545454545,453.45360824742266,354.5454545454545L445,354.5454545454545" stroke-width="3" style="stroke: rgb(156, 158, 222); fill: none;"></path><path class="edges" d="M537.5,859.090909090909L516.6688144329896,859.090909090909C495.83762886597924,859.090909090909,454.1752577319585,859.090909090909,433.3440721649481,1020.4545454545454C412.5128865979378,1181.8181818181818,412.5128865979378,1504.5454545454543,411.26073883161484,1665.9090909090908C410.0085910652919,1827.272727272727,407.504295532646,1827.272727272727,406.25214776632305,1827.2727272727273L405.00000000000006,1827.272727272727" stroke-width="3" style="stroke: rgb(231, 186, 82); fill: none;"></path><path class="edges" d="M477.5,722.7272727272727L465.8977663230241,722.7272727272729C454.29553264604806,722.7272727272726,431.0910652920961,722.7272727272726,419.4888316151202,715.909090909091C407.8865979381442,709.090909090909,407.8865979381442,695.4545454545454,404.0721649484535,688.6363636363636C400.2577319587628,681.8181818181818,392.6288659793814,681.8181818181818,388.8144329896907,681.8181818181819L385,681.8181818181818" stroke-width="3" style="stroke: rgb(231, 203, 148); fill: none;"></path><path class="edges" d="M490,313.6363636363636L476.7697594501719,313.63636363636357C463.5395189003437,313.6363636363636,437.07903780068744,313.6363636363636,423.84879725085926,279.5454545454545C410.61855670103114,245.45454545454547,410.61855670103114,177.27272727272725,405.51546391752595,143.1818181818182C400.41237113402076,109.09090909090908,390.2061855670104,109.09090909090908,385.1030927835052,109.09090909090911L380,109.0909090909091" stroke-width="3" style="stroke: rgb(132, 60, 57); fill: none;"></path><path class="edges" d="M477.5,1513.6363636363635L465.27061855670104,1513.6363636363637C453.04123711340213,1513.6363636363633,428.5824742268043,1513.6363636363633,416.35309278350536,1506.8181818181818C404.1237113402064,1500,404.1237113402064,1486.363636363636,400.10309278350536,1479.5454545454543C396.0824742268043,1472.7272727272727,388.04123711340213,1472.7272727272727,384.0206185567011,1472.7272727272723L380,1472.7272727272725" stroke-width="3" style="stroke: rgb(173, 73, 74); fill: none;"></path><path class="edges" d="M512.5,1186.3636363636363L494.6262886597938,1186.3636363636363C476.7525773195875,1186.3636363636363,441.0051546391749,1186.3636363636363,423.1314432989687,1179.5454545454543C405.2577319587624,1172.7272727272727,405.2577319587624,1159.090909090909,399.3814432989687,1152.272727272727C393.5051546391749,1145.4545454545453,381.7525773195875,1145.4545454545453,375.8762886597938,1145.4545454545453L370,1145.4545454545453" stroke-width="3" style="stroke: rgb(214, 97, 107); fill: none;"></path><path class="edges" d="M490,313.6363636363636L464.6005154639176,313.63636363636357C439.20103092783506,313.6363636363636,388.4020618556701,313.6363636363636,363.0025773195877,638.6363636363636C337.6030927835052,963.6363636363636,337.6030927835052,1613.6363636363637,340.50257731958766,1938.6363636363637C343.4020618556701,2263.6363636363635,349.20103092783506,2263.6363636363635,352.1005154639176,2263.6363636363635L355,2263.6363636363635" stroke-width="3" style="stroke: rgb(132, 60, 57); fill: none;"></path><path class="edges" d="M465,1377.272727272727L446.7225085910654,1377.272727272727C428.4450171821307,1377.272727272727,391.89003436426145,1377.272727272727,373.6125429553268,1547.7272727272727C355.33505154639215,1718.181818181818,355.33505154639215,2059.090909090909,354.44587628866014,2229.5454545454545C353.5567010309281,2400,351.77835051546407,2400,350.889175257732,2400L350,2400" stroke-width="3" style="stroke: rgb(123, 65, 115); fill: none;"></path><path class="edges" d="M457.5,368.18181818181813L435.65721649484544,368.1818181818181C413.8144329896909,368.1818181818182,370.12886597938177,368.1818181818182,348.2860824742272,725C326.44329896907266,1081.8181818181818,326.44329896907266,1795.4545454545453,329.5360824742272,2152.2727272727275C332.62886597938177,2509.090909090909,338.8144329896909,2509.090909090909,341.90721649484544,2509.0909090909086L345,2509.090909090909" stroke-width="3" style="stroke: rgb(165, 81, 148); fill: none;"></path><path class="edges" d="M465,1377.272727272727L449.32130584192447,1377.272727272727C433.6426116838489,1377.272727272727,402.2852233676978,1377.272727272727,386.6065292096223,1370.4545454545453C370.9278350515467,1363.6363636363633,370.9278350515467,1349.9999999999998,365.773195876289,1343.181818181818C360.61855670103114,1336.3636363636363,350.30927835051557,1336.3636363636363,345.15463917525784,1336.3636363636363L340,1336.3636363636363" stroke-width="3" style="stroke: rgb(123, 65, 115); fill: none;"></path><path class="edges" d="M405.00000000000006,695.4545454545454L389.4286941580756,695.4545454545454C373.8573883161512,695.4545454545454,342.7147766323022,695.4545454545454,327.14347079037776,684.090909090909C311.5721649484533,672.7272727272726,311.5721649484533,650,306.3101374570444,638.6363636363636C301.04810996563555,627.2727272727273,290.52405498281774,627.2727272727273,285.2620274914089,627.2727272727271L280,627.2727272727273" stroke-width="3" style="stroke: rgb(222, 158, 214); fill: none;"></path><path class="edges" d="M490,313.6363636363636L463.65979381443293,313.63636363636357C437.3195876288658,313.6363636363636,384.63917525773167,313.6363636363636,358.29896907216454,306.8181818181818C331.95876288659747,300,331.95876288659747,286.3636363636363,323.29896907216454,279.54545454545456C314.63917525773167,272.7272727272727,297.3195876288658,272.7272727272727,288.65979381443293,272.7272727272727L280,272.7272727272727" stroke-width="3" style="stroke: rgb(132, 60, 57); fill: none;"></path><path class="edges" d="M375,1159.090909090909L362.1005154639176,1159.090909090909C349.20103092783506,1159.090909090909,323.4020618556701,1159.090909090909,310.50257731958766,1138.6363636363635C297.6030927835052,1118.181818181818,297.6030927835052,1077.2727272727273,293.00257731958766,1056.8181818181818C288.4020618556701,1036.3636363636363,279.20103092783506,1036.3636363636363,274.60051546391753,1036.3636363636363L270,1036.3636363636363" stroke-width="3" style="stroke: rgb(82, 84, 163); fill: none;"></path><path class="edges" d="M405.00000000000006,695.4545454545454L387.4398625429555,695.4545454545454C369.8797250859108,695.4545454545454,334.7594501718216,695.4545454545454,317.199312714777,688.6363636363636C299.6391752577324,681.8181818181818,299.6391752577324,668.1818181818181,293.86597938144365,661.3636363636364C288.09278350515496,654.5454545454545,276.54639175257745,654.5454545454545,270.77319587628875,654.5454545454545L265,654.5454545454545" stroke-width="3" style="stroke: rgb(222, 158, 214); fill: none;"></path><path class="edges" d="M382.5,1486.3636363636365L361.87285223367707,1486.3636363636363C341.2457044673541,1486.3636363636367,299.9914089347082,1486.3636363636367,279.3642611683852,1706.818181818182C258.7371134020623,1927.2727272727273,258.7371134020623,2368.181818181818,258.9475945017186,2588.6363636363635C259.15807560137483,2809.0909090909095,259.57903780068744,2809.0909090909095,259.7895189003437,2809.0909090909086L260,2809.090909090909" stroke-width="3" style="stroke: rgb(156, 158, 222); fill: none;"></path><path class="edges" d="M385,122.72727272727273L354.9312714776632,122.72727272727273C324.86254295532643,122.72727272727273,264.7250859106528,122.72727272727273,234.65635738831602,588.6363636363636C204.58762886597924,1054.5454545454545,204.58762886597924,1986.3636363636363,211.3230240549827,2452.272727272727C218.05841924398615,2918.181818181818,231.5292096219931,2918.181818181818,238.26460481099653,2918.181818181818L245,2918.181818181818" stroke-width="3" style="stroke: rgb(99, 121, 57); fill: none;"></path><path class="edges" d="M352.5,2250L338.36769759450175,2250C324.23539518900344,2250,295.97079037800694,2250,281.83848797250863,2215.909090909091C267.7061855670104,2181.8181818181815,267.7061855670104,2113.6363636363635,262.2551546391753,2079.5454545454545C256.80412371134025,2045.4545454545453,245.90206185567013,2045.4545454545453,240.45103092783506,2045.4545454545453L235,2045.4545454545453" stroke-width="3" style="stroke: rgb(140, 162, 82); fill: none;"></path><path class="edges" d="M397.5,1813.6363636363633L376.49054982817876,1813.6363636363633C355.48109965635757,1813.6363636363633,313.4621993127151,1813.6363636363633,292.4527491408939,1806.8181818181813C271.44329896907266,1799.9999999999998,271.44329896907266,1786.3636363636363,264.5360824742272,1779.5454545454543C257.62886597938177,1772.7272727272727,243.81443298969089,1772.7272727272727,236.90721649484544,1772.7272727272727L230,1772.7272727272727" stroke-width="3" style="stroke: rgb(181, 207, 107); fill: none;"></path><path class="edges" d="M352.5,2250L337.05541237113397,2250C321.610824742268,2250,290.72164948453593,2250,275.27706185566996,2220.4545454545455C259.8324742268039,2190.9090909090905,259.8324742268039,2131.8181818181815,254.02706185566993,2102.272727272727C248.22164948453596,2072.7272727272725,236.61082474226797,2072.7272727272725,230.805412371134,2072.7272727272725L225,2072.7272727272725" stroke-width="3" style="stroke: rgb(140, 162, 82); fill: none;"></path><path class="edges" d="M350,2386.3636363636365L334.5360824742268,2386.3636363636365C319.0721649484537,2386.3636363636365,288.1443298969073,2386.3636363636365,272.6804123711342,2370.4545454545455C257.216494845361,2354.5454545454545,257.216494845361,2322.7272727272725,251.84707903780085,2306.8181818181815C246.47766323024067,2290.9090909090905,235.73883161512035,2290.9090909090905,230.36941580756016,2290.9090909090905L225,2290.9090909090905" stroke-width="3" style="stroke: rgb(140, 109, 49); fill: none;"></path><path class="edges" d="M352.5,2250L336.335910652921,2250C320.171821305842,2250,287.84364261168395,2250,271.679553264605,2225C255.51546391752595,2200,255.51546391752595,2150,249.59621993127163,2125C243.6769759450173,2100,231.83848797250866,2100,225.91924398625432,2100L220,2100" stroke-width="3" style="stroke: rgb(140, 162, 82); fill: none;"></path><path class="edges" d="M352.5,2250L334.99355670103097,2250C317.4871134020619,2250,282.4742268041238,2250,264.9677835051547,2229.5454545454545C247.4613402061857,2209.090909090909,247.4613402061857,2168.181818181818,241.21778350515476,2147.7272727272725C234.9742268041238,2127.272727272727,222.4871134020619,2127.272727272727,216.24355670103094,2127.2727272727275L210,2127.272727272727" stroke-width="3" style="stroke: rgb(140, 162, 82); fill: none;"></path><path class="edges" d="M352.5,2250L334.25257731958766,2250C316.0051546391753,2250,279.51030927835063,2250,261.2628865979383,2234.090909090909C243.01546391752595,2218.181818181818,243.01546391752595,2186.3636363636365,236.67955326460495,2170.4545454545455C230.34364261168398,2154.5454545454545,217.67182130584197,2154.5454545454545,211.335910652921,2154.5454545454545L205,2154.5454545454545" stroke-width="3" style="stroke: rgb(140, 162, 82); fill: none;"></path><path class="edges" d="M350,2386.3636363636365L331.3144329896907,2386.3636363636365C312.6288659793814,2386.3636363636365,275.2577319587628,2386.3636363636365,256.57216494845346,2375C237.88659793814418,2363.6363636363635,237.88659793814418,2340.9090909090905,231.5721649484535,2329.5454545454545C225.25773195876278,2318.181818181818,212.6288659793814,2318.181818181818,206.3144329896907,2318.181818181818L200,2318.181818181818" stroke-width="3" style="stroke: rgb(140, 109, 49); fill: none;"></path><path class="edges" d="M352.5,2250L332.8801546391753,2250C313.26030927835063,2250,274.02061855670127,2250,254.40077319587658,2238.6363636363635C234.7809278350519,2227.2727272727275,234.7809278350519,2204.5454545454545,228.15077319587658,2193.181818181818C221.52061855670127,2181.8181818181815,208.26030927835063,2181.8181818181815,201.63015463917532,2181.8181818181815L195,2181.8181818181815" stroke-width="3" style="stroke: rgb(140, 162, 82); fill: none;"></path><path class="edges" d="M350,2386.3636363636365L329.9312714776632,2386.3636363636365C309.86254295532643,2386.3636363636365,269.7250859106528,2386.3636363636365,249.65635738831602,2379.5454545454545C229.58762886597924,2372.7272727272725,229.58762886597924,2359.0909090909095,222.98969072164937,2352.2727272727275C216.3917525773195,2345.4545454545455,203.19587628865975,2345.4545454545455,196.59793814432987,2345.4545454545455L190,2345.4545454545455" stroke-width="3" style="stroke: rgb(140, 109, 49); fill: none;"></path><path class="edges" d="M337.5,2495.4545454545455L318.37199312714785,2495.4545454545455C299.24398625429563,2495.4545454545455,260.9879725085913,2495.4545454545455,241.85996563573914,2488.6363636363635C222.73195876288696,2481.818181818182,222.73195876288696,2468.181818181818,216.44329896907246,2461.3636363636365C210.15463917525798,2454.5454545454545,197.57731958762898,2454.5454545454545,191.2886597938145,2454.5454545454545L185,2454.5454545454545" stroke-width="3" style="stroke: rgb(231, 150, 156); fill: none;"></path><path class="edges" d="M280,286.3636363636363L268.3290378006872,286.3636363636363C256.6580756013745,286.3636363636363,233.31615120274896,286.3636363636363,221.64518900343617,265.9090909090908C209.97422680412342,245.4545454545454,209.97422680412342,204.5454545454545,205.81185567010286,184.0909090909091C201.64948453608227,163.63636363636363,193.32474226804115,163.63636363636363,189.16237113402056,163.63636363636363L185,163.63636363636363" stroke-width="3" style="stroke: rgb(123, 65, 115); fill: none;"></path><path class="edges" d="M350,1350L329.44587628865975,1350C308.8917525773195,1350,267.783505154639,1350,247.22938144329873,1338.6363636363637C226.67525773195848,1327.2727272727273,226.67525773195848,1304.5454545454545,219.72938144329873,1293.1818181818182C212.783505154639,1281.8181818181818,198.8917525773195,1281.8181818181818,191.94587628865975,1281.8181818181818L185,1281.8181818181818" stroke-width="3" style="stroke: rgb(165, 81, 148); fill: none;"></path><path class="edges" d="M352.5,2250L331.49054982817876,2250C310.48109965635757,2250,268.4621993127151,2250,247.45274914089387,2243.181818181818C226.44329896907266,2236.3636363636365,226.44329896907266,2222.7272727272725,219.53608247422721,2215.9090909090905C212.62886597938177,2209.090909090909,198.81443298969089,2209.090909090909,191.90721649484544,2209.0909090909086L185,2209.090909090909" stroke-width="3" style="stroke: rgb(140, 162, 82); fill: none;"></path><path class="edges" d="M275,1050L263.08419243986253,1050C251.1683848797251,1050,227.33676975945022,1050,215.42096219931275,1043.1818181818182C203.50515463917532,1036.3636363636363,203.50515463917532,1022.7272727272726,199.58762886597944,1015.9090909090909C195.67010309278353,1009.090909090909,187.83505154639178,1009.090909090909,183.91752577319588,1009.090909090909L180,1009.090909090909" stroke-width="3" style="stroke: rgb(222, 158, 214); fill: none;"></path><path class="edges" d="M280,286.3636363636363L267.01030927835046,286.3636363636363C254.0206185567009,286.3636363636363,228.04123711340176,286.3636363636363,215.05154639175223,270.45454545454544C202.06185567010266,254.5454545454545,202.06185567010266,222.72727272727266,197.55154639175223,206.81818181818176C193.04123711340176,190.90909090909088,184.0206185567009,190.90909090909088,179.51030927835043,190.90909090909088L175,190.90909090909088" stroke-width="3" style="stroke: rgb(123, 65, 115); fill: none;"></path><path class="edges" d="M280,286.3636363636363L265.67439862542966,286.3636363636363C251.3487972508593,286.3636363636363,222.69759450171856,286.3636363636363,208.37199312714822,274.99999999999994C194.04639175257785,263.63636363636357,194.04639175257785,240.9090909090909,189.20532646048153,229.54545454545453C184.36426116838524,218.18181818181816,174.6821305841926,218.18181818181816,169.84106529209632,218.18181818181822L165,218.1818181818182" stroke-width="3" style="stroke: rgb(123, 65, 115); fill: none;"></path><path class="edges" d="M375,1159.090909090909L348.65979381443293,1159.090909090909C322.3195876288658,1159.090909090909,269.63917525773167,1159.090909090909,243.29896907216457,1152.2727272727273C216.95876288659747,1145.4545454545453,216.95876288659747,1131.8181818181818,208.29896907216457,1125C199.63917525773164,1118.1818181818182,182.31958762886583,1118.1818181818182,173.6597938144329,1118.1818181818182L165,1118.1818181818182" stroke-width="3" style="stroke: rgb(82, 84, 163); fill: none;"></path><path class="edges" d="M242.5,2904.5454545454545L231.0567010309279,2904.5454545454545C219.61340206185582,2904.5454545454545,196.72680412371164,2904.5454545454545,185.28350515463956,2888.6363636363635C173.84020618556747,2872.7272727272725,173.84020618556747,2840.9090909090905,169.8668384879729,2825C165.8934707903783,2809.0909090909095,157.94673539518917,2809.0909090909095,153.97336769759457,2809.0909090909086L150,2809.090909090909" stroke-width="3" style="stroke: rgb(156, 158, 222); fill: none;"></path><path class="edges" d="M252.5,2795.454545454545L239.2933848797251,2795.4545454545446C226.08676975945022,2795.4545454545455,199.6735395189004,2795.4545454545455,186.46692439862554,2774.9999999999995C173.26030927835063,2754.545454545454,173.26030927835063,2713.6363636363635,168.55025773195885,2693.181818181818C163.8402061855671,2672.7272727272725,154.42010309278353,2672.7272727272725,149.71005154639178,2672.7272727272725L145,2672.7272727272725" stroke-width="3" style="stroke: rgb(156, 158, 222); fill: none;"></path><path class="edges" d="M242.5,2904.5454545454545L229.73152920962207,2904.5454545454545C216.96305841924413,2904.5454545454545,191.42611683848827,2904.5454545454545,178.65764604811034,2893.181818181818C165.8891752577324,2881.8181818181815,165.8891752577324,2859.0909090909086,161.574312714777,2847.727272727272C157.2594501718216,2836.363636363636,148.6297250859108,2836.363636363636,144.3148625429554,2836.363636363636L140,2836.363636363636" stroke-width="3" style="stroke: rgb(156, 158, 222); fill: none;"></path><path class="edges" d="M252.5,2795.454545454545L237.96391752577316,2795.4545454545446C223.42783505154634,2795.4545454545455,194.35567010309265,2795.4545454545455,179.81958762886583,2779.545454545454C165.283505154639,2763.6363636363635,165.283505154639,2731.8181818181815,160.2362542955325,2715.9090909090905C155.189003436426,2700,145.094501718213,2700,140.0472508591065,2700L135,2700" stroke-width="3" style="stroke: rgb(156, 158, 222); fill: none;"></path><path class="edges" d="M350,1350L323.03264604810994,1350C296.06529209621993,1350,242.13058419243984,1350,215.16323024054978,1343.1818181818182C188.19587628865975,1336.3636363636363,188.19587628865975,1322.7272727272727,179.32989690721647,1315.9090909090908C170.46391752577316,1309.090909090909,152.7319587628866,1309.090909090909,143.86597938144328,1309.090909090909L135,1309.090909090909" stroke-width="3" style="stroke: rgb(165, 81, 148); fill: none;"></path><path class="edges" d="M280,286.3636363636363L261.1855670103093,286.3636363636363C242.3711340206186,286.3636363636363,204.74226804123722,286.3636363636363,185.9278350515465,279.5454545454545C167.11340206185582,272.7272727272727,167.11340206185582,259.09090909090907,160.9278350515465,252.27272727272728C154.74226804123722,245.45454545454547,142.3711340206186,245.45454545454547,136.1855670103093,245.45454545454547L130,245.45454545454547" stroke-width="3" style="stroke: rgb(123, 65, 115); fill: none;"></path><path class="edges" d="M242.5,2904.5454545454545L227.13487972508594,2904.5454545454545C211.76975945017185,2904.5454545454545,181.03951890034372,2904.5454545454545,165.67439862542963,2897.7272727272725C150.30927835051557,2890.9090909090905,150.30927835051557,2877.2727272727275,145.25773195876297,2870.4545454545455C140.20618556701038,2863.6363636363635,130.1030927835052,2863.6363636363635,125.0515463917526,2863.6363636363635L120,2863.6363636363635" stroke-width="3" style="stroke: rgb(156, 158, 222); fill: none;"></path><path class="edges" d="M252.5,2795.454545454545L235.99441580756016,2795.4545454545446C219.48883161512035,2795.4545454545455,186.47766323024067,2795.4545454545455,169.97207903780085,2784.0909090909086C153.466494845361,2772.727272727272,153.466494845361,2750,147.8887457044675,2738.6363636363635C142.310996563574,2727.272727272727,131.155498281787,2727.272727272727,125.5777491408935,2727.2727272727275L120,2727.272727272727" stroke-width="3" style="stroke: rgb(156, 158, 222); fill: none;"></path><path class="edges" d="M245,1786.3636363636365L228.6941580756013,1786.3636363636363C212.38831615120262,1786.3636363636367,179.77663230240523,1786.3636363636367,163.47079037800654,1779.5454545454547C147.16494845360785,1772.7272727272727,147.16494845360785,1759.0909090909092,141.80412371133988,1752.2727272727273C136.4432989690719,1745.4545454545453,125.72164948453594,1745.4545454545453,120.36082474226798,1745.4545454545457L115,1745.4545454545455" stroke-width="3" style="stroke: rgb(231, 186, 82); fill: none;"></path><path class="edges" d="M182.5,2468.181818181818L171.60008591065284,2468.181818181818C160.70017182130564,2468.181818181818,138.90034364261132,2468.181818181818,128.00042955326413,2456.8181818181815C117.10051546391696,2445.4545454545455,117.10051546391696,2422.7272727272725,113.4170962199308,2411.3636363636365C109.73367697594465,2400,102.36683848797232,2400,98.68341924398617,2400L95,2400" stroke-width="3" style="stroke: rgb(123, 65, 115); fill: none;"></path><path class="edges" d="M182.5,1022.7272727272726L169.9957044673539,1022.7272727272726C157.4914089347078,1022.7272727272726,132.4828178694156,1022.7272727272726,119.97852233676952,997.7272727272726C107.47422680412342,972.7272727272726,107.47422680412342,922.7272727272726,102.89518900343619,897.7272727272729C98.31615120274894,872.7272727272726,89.15807560137448,872.7272727272726,84.57903780068723,872.7272727272729L80,872.7272727272727" stroke-width="3" style="stroke: rgb(156, 158, 222); fill: none;"></path><path class="edges" d="M182.5,1022.7272727272726L169.2933848797251,1022.7272727272726C156.08676975945022,1022.7272727272726,129.6735395189004,1022.7272727272726,116.46692439862552,1002.2727272727271C103.26030927835063,981.8181818181816,103.26030927835063,940.9090909090909,98.55025773195887,920.4545454545455C93.84020618556708,900,84.42010309278355,900,79.71005154639177,900L75,900" stroke-width="3" style="stroke: rgb(156, 158, 222); fill: none;"></path><path class="edges" d="M182.5,2468.181818181818L168.38917525773203,2468.181818181818C154.27835051546404,2468.181818181818,126.0567010309281,2468.181818181818,111.94587628866013,2461.3636363636365C97.83505154639215,2454.5454545454545,97.83505154639215,2440.909090909091,93.19587628866013,2434.0909090909095C88.5567010309281,2427.2727272727275,79.27835051546406,2427.2727272727275,74.63917525773202,2427.2727272727275L70,2427.2727272727275" stroke-width="3" style="stroke: rgb(123, 65, 115); fill: none;"></path><path class="edges" d="M252.5,2795.454545454545L229.60910652920953,2795.4545454545446C206.71821305841908,2795.4545454545455,160.93642611683813,2795.4545454545455,138.0455326460477,2788.6363636363626C115.15463917525722,2781.8181818181815,115.15463917525722,2768.1818181818176,107.62886597938102,2761.363636363636C100.1030927835048,2754.545454545454,85.05154639175241,2754.545454545454,77.5257731958762,2754.545454545454L70,2754.545454545454" stroke-width="3" style="stroke: rgb(156, 158, 222); fill: none;"></path><path class="edges" d="M172.5,1131.8181818181818L159.10867697594503,1131.8181818181818C145.71735395189003,1131.8181818181818,118.93470790378008,1131.8181818181818,105.54338487972511,1120.4545454545453C92.15206185567013,1109.090909090909,92.15206185567013,1086.3636363636363,87.62671821305844,1075C83.10137457044675,1063.6363636363635,74.05068728522338,1063.6363636363635,69.52534364261169,1063.6363636363637L65,1063.6363636363635" stroke-width="3" style="stroke: rgb(214, 97, 107); fill: none;"></path><path class="edges" d="M182.5,1022.7272727272726L167.34536082474222,1022.7272727272726C152.19072164948443,1022.7272727272726,121.88144329896886,1022.7272727272726,106.72680412371108,1006.8181818181816C91.57216494845329,990.9090909090909,91.57216494845329,959.090909090909,86.3101374570444,943.181818181818C81.04810996563553,927.2727272727271,70.52405498281776,927.2727272727271,65.26202749140889,927.2727272727271L60,927.2727272727271" stroke-width="3" style="stroke: rgb(156, 158, 222); fill: none;"></path><path class="edges" d="M172.5,1131.8181818181818L157.76202749140887,1131.8181818181818C143.02405498281777,1131.8181818181818,113.54810996563553,1131.8181818181818,98.8101374570444,1125C84.07216494845329,1118.181818181818,84.07216494845329,1104.5454545454543,79.22680412371108,1097.7272727272727C74.38144329896886,1090.9090909090908,64.69072164948443,1090.9090909090908,59.845360824742215,1090.9090909090908L55,1090.9090909090908" stroke-width="3" style="stroke: rgb(214, 97, 107); fill: none;"></path><path class="edges" d="M182.5,1022.7272727272726L165.37156357388312,1022.7272727272726C148.24312714776624,1022.7272727272726,113.98625429553249,1022.7272727272726,96.85781786941561,1011.3636363636364C79.72938144329873,1000,79.72938144329873,977.2727272727271,73.94115120274894,965.909090909091C68.15292096219916,954.5454545454545,56.57646048109958,954.5454545454545,50.78823024054979,954.5454545454544L45,954.5454545454545" stroke-width="3" style="stroke: rgb(156, 158, 222); fill: none;"></path><path class="edges" d="M182.5,1022.7272727272726L163.99914089347078,1022.7272727272726C145.49828178694156,1022.7272727272726,108.49656357388312,1022.7272727272726,89.9957044673539,1015.9090909090909C71.49484536082468,1009.090909090909,71.49484536082468,995.4545454545455,65.41237113402057,988.6363636363636C59.32989690721646,981.8181818181819,47.164948453608226,981.8181818181819,41.082474226804116,981.8181818181819L35,981.8181818181819" stroke-width="3" style="stroke: rgb(156, 158, 222); fill: none;"></path><path class="edges" d="M115,1759.090909090909L104.55756013745713,1759.0909090909088C94.11512027491426,1759.090909090909,73.23024054982852,1759.090909090909,62.78780068728565,1738.6363636363633C52.345360824742784,1718.181818181818,52.345360824742784,1677.2727272727273,48.62113402061899,1656.818181818182C44.89690721649519,1636.3636363636367,37.4484536082476,1636.3636363636367,33.724226804123795,1636.3636363636363L30,1636.3636363636365" stroke-width="3" style="stroke: rgb(222, 158, 214); fill: none;"></path><path class="edges" d="M117.5,1759.090909090909L106.05670103092791,1759.0909090909088C94.61340206185582,1759.090909090909,71.72680412371164,1759.090909090909,60.283505154639556,1743.181818181818C48.84020618556747,1727.2727272727273,48.84020618556747,1695.4545454545453,44.86683848797289,1679.5454545454547C40.89347079037831,1663.6363636363633,32.94673539518916,1663.6363636363633,28.97336769759458,1663.6363636363637L25,1663.6363636363635" stroke-width="3" style="stroke: rgb(222, 158, 214); fill: none;"></path><path class="edges" d="M117.5,1759.090909090909L104.73152920962207,1759.0909090909088C91.96305841924413,1759.090909090909,66.42611683848827,1759.090909090909,53.65764604811034,1747.7272727272723C40.889175257732404,1736.3636363636363,40.889175257732404,1713.6363636363633,36.574312714777,1702.272727272727C32.259450171821605,1690.9090909090908,23.629725085910803,1690.9090909090908,19.3148625429554,1690.9090909090908L15,1690.9090909090908" stroke-width="3" style="stroke: rgb(222, 158, 214); fill: none;"></path><path class="edges" d="M117.5,1759.090909090909L102.76202749140889,1759.0909090909088C88.02405498281776,1759.090909090909,58.548109965635525,1759.090909090909,43.81013745704441,1752.272727272727C29.072164948453292,1745.4545454545453,29.072164948453292,1731.8181818181818,24.226804123711076,1724.9999999999998C19.38144329896886,1718.181818181818,9.69072164948443,1718.181818181818,4.845360824742215,1718.181818181818L0,1718.181818181818" stroke-width="3" style="stroke: rgb(222, 158, 214); fill: none;"></path><path class="parentEdges" d="M790,490.90909090909093L915,518.1818181818181" style="stroke: rgb(57, 59, 121); stroke-width: 4; fill: none;"></path><path class="parentEdges" d="M790,490.90909090909093L915,518.1818181818181" style="stroke: rgb(57, 59, 121); stroke-width: 4; fill: none;"></path><path class="parentEdges" d="M790,490.90909090909093L915,518.1818181818181" style="stroke: rgb(57, 59, 121); stroke-width: 4; fill: none;"></path><path class="parentEdges" d="M635,381.81818181818176L665,409.0909090909091" style="stroke: rgb(156, 158, 222); stroke-width: 4; fill: none;"></path><path class="parentEdges" d="M635,381.81818181818176L665,409.0909090909091" style="stroke: rgb(156, 158, 222); stroke-width: 4; fill: none;"></path><path class="parentEdges" d="M590,736.3636363636363L625,763.6363636363635" style="stroke: rgb(140, 162, 82); stroke-width: 4; fill: none;"></path><path class="parentEdges" d="M635,381.81818181818176L665,409.0909090909091" style="stroke: rgb(156, 158, 222); stroke-width: 4; fill: none;"></path><path class="parentEdges" d="M610,463.63636363636357L620,490.90909090909093" style="stroke: rgb(206, 219, 156); stroke-width: 4; fill: none;"></path><path class="parentEdges" d="M590,736.3636363636363L625,763.6363636363635" style="stroke: rgb(140, 162, 82); stroke-width: 4; fill: none;"></path><path class="parentEdges" d="M635,381.81818181818176L665,409.0909090909091" style="stroke: rgb(156, 158, 222); stroke-width: 4; fill: none;"></path><path class="parentEdges" d="M535,845.4545454545454L540,872.7272727272727" style="stroke: rgb(231, 186, 82); stroke-width: 4; fill: none;"></path><path class="parentEdges" d="M475,709.090909090909L480,736.3636363636363" style="stroke: rgb(231, 203, 148); stroke-width: 4; fill: none;"></path><path class="parentEdges" d="M480,300L500,327.27272727272725" style="stroke: rgb(132, 60, 57); stroke-width: 4; fill: none;"></path><path class="parentEdges" d="M475,1499.9999999999998L480,1527.272727272727" style="stroke: rgb(173, 73, 74); stroke-width: 4; fill: none;"></path><path class="parentEdges" d="M495,1172.7272727272727L530,1200" style="stroke: rgb(214, 97, 107); stroke-width: 4; fill: none;"></path><path class="parentEdges" d="M480,300L500,327.27272727272725" style="stroke: rgb(132, 60, 57); stroke-width: 4; fill: none;"></path><path class="parentEdges" d="M445,1363.6363636363635L485,1390.9090909090908" style="stroke: rgb(123, 65, 115); stroke-width: 4; fill: none;"></path><path class="parentEdges" d="M445,354.5454545454545L470,381.81818181818176" style="stroke: rgb(165, 81, 148); stroke-width: 4; fill: none;"></path><path class="parentEdges" d="M445,1363.6363636363635L485,1390.9090909090908" style="stroke: rgb(123, 65, 115); stroke-width: 4; fill: none;"></path><path class="parentEdges" d="M385,681.8181818181818L424.99999999999994,709.090909090909" style="stroke: rgb(222, 158, 214); stroke-width: 4; fill: none;"></path><path class="parentEdges" d="M480,300L500,327.27272727272725" style="stroke: rgb(132, 60, 57); stroke-width: 4; fill: none;"></path><path class="parentEdges" d="M370,1145.4545454545453L380,1172.7272727272727" style="stroke: rgb(82, 84, 163); stroke-width: 4; fill: none;"></path><path class="parentEdges" d="M385,681.8181818181818L424.99999999999994,709.090909090909" style="stroke: rgb(222, 158, 214); stroke-width: 4; fill: none;"></path><path class="parentEdges" d="M380,1472.7272727272725L385,1499.9999999999998" style="stroke: rgb(156, 158, 222); stroke-width: 4; fill: none;"></path><path class="parentEdges" d="M380,109.0909090909091L390,136.36363636363635" style="stroke: rgb(99, 121, 57); stroke-width: 4; fill: none;"></path><path class="parentEdges" d="M350,2236.3636363636365L355,2263.6363636363635" style="stroke: rgb(140, 162, 82); stroke-width: 4; fill: none;"></path><path class="parentEdges" d="M390,1800L405.00000000000006,1827.272727272727" style="stroke: rgb(181, 207, 107); stroke-width: 4; fill: none;"></path><path class="parentEdges" d="M350,2236.3636363636365L355,2263.6363636363635" style="stroke: rgb(140, 162, 82); stroke-width: 4; fill: none;"></path><path class="parentEdges" d="M350,2372.7272727272725L350,2400" style="stroke: rgb(140, 109, 49); stroke-width: 4; fill: none;"></path><path class="parentEdges" d="M350,2236.3636363636365L355,2263.6363636363635" style="stroke: rgb(140, 162, 82); stroke-width: 4; fill: none;"></path><path class="parentEdges" d="M350,2236.3636363636365L355,2263.6363636363635" style="stroke: rgb(140, 162, 82); stroke-width: 4; fill: none;"></path><path class="parentEdges" d="M350,2236.3636363636365L355,2263.6363636363635" style="stroke: rgb(140, 162, 82); stroke-width: 4; fill: none;"></path><path class="parentEdges" d="M350,2372.7272727272725L350,2400" style="stroke: rgb(140, 109, 49); stroke-width: 4; fill: none;"></path><path class="parentEdges" d="M350,2236.3636363636365L355,2263.6363636363635" style="stroke: rgb(140, 162, 82); stroke-width: 4; fill: none;"></path><path class="parentEdges" d="M350,2372.7272727272725L350,2400" style="stroke: rgb(140, 109, 49); stroke-width: 4; fill: none;"></path><path class="parentEdges" d="M330,2481.8181818181815L345,2509.090909090909" style="stroke: rgb(231, 150, 156); stroke-width: 4; fill: none;"></path><path class="parentEdges" d="M280,272.7272727272727L280,300" style="stroke: rgb(123, 65, 115); stroke-width: 4; fill: none;"></path><path class="parentEdges" d="M340,1336.3636363636363L360,1363.6363636363635" style="stroke: rgb(165, 81, 148); stroke-width: 4; fill: none;"></path><path class="parentEdges" d="M350,2236.3636363636365L355,2263.6363636363635" style="stroke: rgb(140, 162, 82); stroke-width: 4; fill: none;"></path><path class="parentEdges" d="M270,1036.3636363636363L280,1063.6363636363635" style="stroke: rgb(222, 158, 214); stroke-width: 4; fill: none;"></path><path class="parentEdges" d="M280,272.7272727272727L280,300" style="stroke: rgb(123, 65, 115); stroke-width: 4; fill: none;"></path><path class="parentEdges" d="M280,272.7272727272727L280,300" style="stroke: rgb(123, 65, 115); stroke-width: 4; fill: none;"></path><path class="parentEdges" d="M370,1145.4545454545453L380,1172.7272727272727" style="stroke: rgb(82, 84, 163); stroke-width: 4; fill: none;"></path><path class="parentEdges" d="M240,2890.909090909091L245,2918.181818181818" style="stroke: rgb(156, 158, 222); stroke-width: 4; fill: none;"></path><path class="parentEdges" d="M245,2781.8181818181815L260,2809.090909090909" style="stroke: rgb(156, 158, 222); stroke-width: 4; fill: none;"></path><path class="parentEdges" d="M240,2890.909090909091L245,2918.181818181818" style="stroke: rgb(156, 158, 222); stroke-width: 4; fill: none;"></path><path class="parentEdges" d="M245,2781.8181818181815L260,2809.090909090909" style="stroke: rgb(156, 158, 222); stroke-width: 4; fill: none;"></path><path class="parentEdges" d="M340,1336.3636363636363L360,1363.6363636363635" style="stroke: rgb(165, 81, 148); stroke-width: 4; fill: none;"></path><path class="parentEdges" d="M280,272.7272727272727L280,300" style="stroke: rgb(123, 65, 115); stroke-width: 4; fill: none;"></path><path class="parentEdges" d="M240,2890.909090909091L245,2918.181818181818" style="stroke: rgb(156, 158, 222); stroke-width: 4; fill: none;"></path><path class="parentEdges" d="M245,2781.8181818181815L260,2809.090909090909" style="stroke: rgb(156, 158, 222); stroke-width: 4; fill: none;"></path><path class="parentEdges" d="M230,1772.7272727272727L260,1800" style="stroke: rgb(231, 186, 82); stroke-width: 4; fill: none;"></path><path class="parentEdges" d="M185,2454.5454545454545L180,2481.8181818181815" style="stroke: rgb(123, 65, 115); stroke-width: 4; fill: none;"></path><path class="parentEdges" d="M180,1009.090909090909L185,1036.3636363636363" style="stroke: rgb(156, 158, 222); stroke-width: 4; fill: none;"></path><path class="parentEdges" d="M180,1009.090909090909L185,1036.3636363636363" style="stroke: rgb(156, 158, 222); stroke-width: 4; fill: none;"></path><path class="parentEdges" d="M185,2454.5454545454545L180,2481.8181818181815" style="stroke: rgb(123, 65, 115); stroke-width: 4; fill: none;"></path><path class="parentEdges" d="M245,2781.8181818181815L260,2809.090909090909" style="stroke: rgb(156, 158, 222); stroke-width: 4; fill: none;"></path><path class="parentEdges" d="M165,1118.1818181818182L180,1145.4545454545453" style="stroke: rgb(214, 97, 107); stroke-width: 4; fill: none;"></path><path class="parentEdges" d="M180,1009.090909090909L185,1036.3636363636363" style="stroke: rgb(156, 158, 222); stroke-width: 4; fill: none;"></path><path class="parentEdges" d="M165,1118.1818181818182L180,1145.4545454545453" style="stroke: rgb(214, 97, 107); stroke-width: 4; fill: none;"></path><path class="parentEdges" d="M180,1009.090909090909L185,1036.3636363636363" style="stroke: rgb(156, 158, 222); stroke-width: 4; fill: none;"></path><path class="parentEdges" d="M180,1009.090909090909L185,1036.3636363636363" style="stroke: rgb(156, 158, 222); stroke-width: 4; fill: none;"></path><path class="parentEdges" d="M115,1745.4545454545455L115,1772.7272727272727" style="stroke: rgb(222, 158, 214); stroke-width: 4; fill: none;"></path><path class="parentEdges" d="M115,1745.4545454545455L120,1772.7272727272727" style="stroke: rgb(222, 158, 214); stroke-width: 4; fill: none;"></path><path class="parentEdges" d="M115,1745.4545454545455L120,1772.7272727272727" style="stroke: rgb(222, 158, 214); stroke-width: 4; fill: none;"></path><path class="parentEdges" d="M115,1745.4545454545455L120,1772.7272727272727" style="stroke: rgb(222, 158, 214); stroke-width: 4; fill: none;"></path><g class="node" transform="translate(903,506.18181818181813)" style="fill: white; stroke: rgb(57, 59, 121); stroke-width: 3;"><rect width="24" height="24"></rect><text dx="6" dy="18" fill="black" stroke="none">19</text></g><g class="node" transform="translate(653,397.0909090909091)" style="fill: white; stroke: rgb(156, 158, 222); stroke-width: 3;"><rect width="24" height="24"></rect><text dx="6" dy="18" fill="black" stroke="none">15</text></g><g class="node" transform="translate(613,751.6363636363635)" style="fill: white; stroke: rgb(140, 162, 82); stroke-width: 3;"><rect width="24" height="24"></rect><text dx="6" dy="18" fill="black" stroke="none">28</text></g><g class="node" transform="translate(608,478.90909090909093)" style="fill: white; stroke: rgb(206, 219, 156); stroke-width: 3;"><rect width="24" height="24"></rect><text dx="6" dy="18" fill="black" stroke="none">18</text></g><g class="node" transform="translate(528,860.7272727272727)" style="fill: white; stroke: rgb(231, 186, 82); stroke-width: 3;"><rect width="24" height="24"></rect><text dx="6" dy="18" fill="black" stroke="none">32</text></g><g class="node" transform="translate(518,1188)" style="fill: white; stroke: rgb(214, 97, 107); stroke-width: 3;"><rect width="24" height="24"></rect><text dx="6" dy="18" fill="black" stroke="none">44</text></g><g class="node" transform="translate(488,315.27272727272725)" style="fill: white; stroke: rgb(132, 60, 57); stroke-width: 3;"><rect width="24" height="24"></rect><text dx="6" dy="18" fill="black" stroke="none">12</text></g><g class="node" transform="translate(473,1378.9090909090908)" style="fill: white; stroke: rgb(123, 65, 115); stroke-width: 3;"><rect width="24" height="24"></rect><text dx="6" dy="18" fill="black" stroke="none">51</text></g><g class="node" transform="translate(468,724.3636363636363)" style="fill: white; stroke: rgb(231, 203, 148); stroke-width: 3;"><rect width="24" height="24"></rect><text dx="6" dy="18" fill="black" stroke="none">27</text></g><g class="node" transform="translate(468,1515.272727272727)" style="fill: white; stroke: rgb(173, 73, 74); stroke-width: 3;"><rect width="24" height="24"></rect><text dx="6" dy="18" fill="black" stroke="none">56</text></g><g class="node" transform="translate(458,369.81818181818176)" style="fill: white; stroke: rgb(165, 81, 148); stroke-width: 3;"><rect width="24" height="24"></rect><text dx="6" dy="18" fill="black" stroke="none">14</text></g><g class="node" transform="translate(412.99999999999994,697.090909090909)" style="fill: white; stroke: rgb(222, 158, 214); stroke-width: 3;"><rect width="24" height="24"></rect><text dx="6" dy="18" fill="black" stroke="none">26</text></g><g class="node" transform="translate(393.00000000000006,1815.272727272727)" style="fill: white; stroke: rgb(181, 207, 107); stroke-width: 3;"><rect width="24" height="24"></rect><text dx="6" dy="18" fill="black" stroke="none">67</text></g><g class="node" transform="translate(378,124.36363636363635)" style="fill: white; stroke: rgb(99, 121, 57); stroke-width: 3;"><rect width="24" height="24"></rect><text dx="6" dy="18" fill="black" stroke="none">5</text></g><g class="node" transform="translate(373,1487.9999999999998)" style="fill: white; stroke: rgb(156, 158, 222); stroke-width: 3;"><rect width="24" height="24"></rect><text dx="6" dy="18" fill="black" stroke="none">55</text></g><g class="node" transform="translate(368,1160.7272727272727)" style="fill: white; stroke: rgb(82, 84, 163); stroke-width: 3;"><rect width="24" height="24"></rect><text dx="6" dy="18" fill="black" stroke="none">43</text></g><g class="node" transform="translate(348,1351.6363636363635)" style="fill: white; stroke: rgb(165, 81, 148); stroke-width: 3;"><rect width="24" height="24"></rect><text dx="6" dy="18" fill="black" stroke="none">50</text></g><g class="node" transform="translate(343,2251.6363636363635)" style="fill: white; stroke: rgb(140, 162, 82); stroke-width: 3;"><rect width="24" height="24"></rect><text dx="6" dy="18" fill="black" stroke="none">83</text></g><g class="node" transform="translate(338,2388)" style="fill: white; stroke: rgb(140, 109, 49); stroke-width: 3;"><rect width="24" height="24"></rect><text dx="6" dy="18" fill="black" stroke="none">88</text></g><g class="node" transform="translate(333,2497.090909090909)" style="fill: white; stroke: rgb(231, 150, 156); stroke-width: 3;"><rect width="24" height="24"></rect><text dx="6" dy="18" fill="black" stroke="none">92</text></g><g class="node" transform="translate(268,288)" style="fill: white; stroke: rgb(123, 65, 115); stroke-width: 3;"><rect width="24" height="24"></rect><text dx="6" dy="18" fill="black" stroke="none">11</text></g><g class="node" transform="translate(268,1051.6363636363635)" style="fill: white; stroke: rgb(222, 158, 214); stroke-width: 3;"><rect width="24" height="24"></rect><text dx="6" dy="18" fill="black" stroke="none">39</text></g><g class="node" transform="translate(248,1788)" style="fill: white; stroke: rgb(231, 186, 82); stroke-width: 3;"><rect width="24" height="24"></rect><text dx="6" dy="18" fill="black" stroke="none">66</text></g><g class="node" transform="translate(248,2797.090909090909)" style="fill: white; stroke: rgb(156, 158, 222); stroke-width: 3;"><rect width="24" height="24"></rect><text dx="6" dy="18" fill="black" stroke="none">103</text></g><g class="node" transform="translate(233,2906.181818181818)" style="fill: white; stroke: rgb(156, 158, 222); stroke-width: 3;"><rect width="24" height="24"></rect><text dx="6" dy="18" fill="black" stroke="none">107</text></g><g class="node" transform="translate(223,2033.4545454545453)" style="fill: white; stroke: black; stroke-width: 3;"><rect width="24" height="24"></rect><text dx="6" dy="18" fill="black" stroke="none">75</text></g><g class="node" transform="translate(213,2060.7272727272725)" style="fill: white; stroke: black; stroke-width: 3;"><rect width="24" height="24"></rect><text dx="6" dy="18" fill="black" stroke="none">76</text></g><g class="node" transform="translate(213,2278.9090909090905)" style="fill: white; stroke: black; stroke-width: 3;"><rect width="24" height="24"></rect><text dx="6" dy="18" fill="black" stroke="none">84</text></g><g class="node" transform="translate(193,2142.5454545454545)" style="fill: black; stroke: black; stroke-width: 3;"><rect width="24" height="24"></rect><text dx="6" dy="18" fill="white" stroke="none">79</text></g><g class="node" transform="translate(178,2333.4545454545455)" style="fill: black; stroke: black; stroke-width: 3;"><rect width="24" height="24"></rect><text dx="6" dy="18" fill="white" stroke="none">86</text></g><g class="node" transform="translate(173,1024.3636363636363)" style="fill: white; stroke: rgb(156, 158, 222); stroke-width: 3;"><rect width="24" height="24"></rect><text dx="6" dy="18" fill="black" stroke="none">38</text></g><g class="node" transform="translate(168,1133.4545454545453)" style="fill: white; stroke: rgb(214, 97, 107); stroke-width: 3;"><rect width="24" height="24"></rect><text dx="6" dy="18" fill="black" stroke="none">42</text></g><g class="node" transform="translate(168,2469.8181818181815)" style="fill: white; stroke: rgb(123, 65, 115); stroke-width: 3;"><rect width="24" height="24"></rect><text dx="6" dy="18" fill="black" stroke="none">91</text></g><g class="node" transform="translate(163,178.90909090909088)" style="fill: white; stroke: black; stroke-width: 3;"><rect width="24" height="24"></rect><text dx="6" dy="18" fill="black" stroke="none">7</text></g><g class="node" transform="translate(138,2797.090909090909)" style="fill: black; stroke: black; stroke-width: 3;"><rect width="24" height="24"></rect><text dx="6" dy="18" fill="white" stroke="none">103</text></g><g class="node" transform="translate(123,2688)" style="fill: white; stroke: black; stroke-width: 3;"><rect width="24" height="24"></rect><text dx="6" dy="18" fill="black" stroke="none">99</text></g><g class="node" transform="translate(118,233.45454545454547)" style="fill: black; stroke: black; stroke-width: 3;"><rect width="24" height="24"></rect><text dx="6" dy="18" fill="white" stroke="none">9</text></g><g class="node" transform="translate(108,1760.7272727272727)" style="fill: black; stroke: black; stroke-width: 3;"><rect width="24" height="24"></rect><text dx="6" dy="18" fill="white" stroke="none">65</text></g><g class="node" transform="translate(108,2715.272727272727)" style="fill: white; stroke: black; stroke-width: 3;"><rect width="24" height="24"></rect><text dx="6" dy="18" fill="black" stroke="none">100</text></g><g class="node" transform="translate(103,1760.7272727272727)" style="fill: white; stroke: rgb(222, 158, 214); stroke-width: 3;"><rect width="24" height="24"></rect><text dx="6" dy="18" fill="black" stroke="none">65</text></g><g class="node" transform="translate(83,2388)" style="fill: black; stroke: black; stroke-width: 3;"><rect width="24" height="24"></rect><text dx="6" dy="18" fill="white" stroke="none">88</text></g><g class="node" transform="translate(68,3124.363636363636)" style="fill: white; stroke: black; stroke-width: 3;"><rect width="24" height="24"></rect><text dx="6" dy="18" fill="black" stroke="none">115</text></g><g class="node" transform="translate(58,2742.545454545454)" style="fill: black; stroke: black; stroke-width: 3;"><rect width="24" height="24"></rect><text dx="6" dy="18" fill="white" stroke="none">101</text></g><g class="node" transform="translate(53,1051.6363636363635)" style="fill: black; stroke: black; stroke-width: 3;"><rect width="24" height="24"></rect><text dx="6" dy="18" fill="white" stroke="none">39</text></g><g class="node" transform="translate(48,915.2727272727271)" style="fill: black; stroke: black; stroke-width: 3;"><rect width="24" height="24"></rect><text dx="6" dy="18" fill="white" stroke="none">34</text></g><g class="node" transform="translate(43,1078.9090909090908)" style="fill: white; stroke: black; stroke-width: 3;"><rect width="24" height="24"></rect><text dx="6" dy="18" fill="black" stroke="none">40</text></g><g class="node" transform="translate(33,942.5454545454545)" style="fill: white; stroke: black; stroke-width: 3;"><rect width="24" height="24"></rect><text dx="6" dy="18" fill="black" stroke="none">35</text></g><g class="node" transform="translate(23,969.8181818181819)" style="fill: white; stroke: black; stroke-width: 3;"><rect width="24" height="24"></rect><text dx="6" dy="18" fill="black" stroke="none">36</text></g><g class="node" transform="translate(13,1651.6363636363635)" style="fill: black; stroke: black; stroke-width: 3;"><rect width="24" height="24"></rect><text dx="6" dy="18" fill="white" stroke="none">61</text></g><g class="node" transform="translate(3,1678.9090909090908)" style="fill: white; stroke: black; stroke-width: 3;"><rect width="24" height="24"></rect><text dx="6" dy="18" fill="black" stroke="none">62</text></g><g class="node" transform="translate(-12,1706.181818181818)" style="fill: white; stroke: black; stroke-width: 3;"><rect width="24" height="24"></rect><text dx="6" dy="18" fill="black" stroke="none">63</text></g><g class="node" transform="translate(790,490.90909090909093)" style="fill: white; stroke: rgb(57, 59, 121); stroke-width: 3;"><circle r="12"></circle><text dx="-6" dy="6" fill="black" stroke="none">18</text></g><g class="node" transform="translate(635,381.81818181818176)" style="fill: white; stroke: rgb(156, 158, 222); stroke-width: 3;"><circle r="12"></circle><text dx="-6" dy="6" fill="black" stroke="none">14</text></g><g class="node" transform="translate(610,463.63636363636357)" style="fill: white; stroke: rgb(206, 219, 156); stroke-width: 3;"><circle r="12"></circle><text dx="-6" dy="6" fill="black" stroke="none">17</text></g><g class="node" transform="translate(590,736.3636363636363)" style="fill: white; stroke: rgb(140, 162, 82); stroke-width: 3;"><circle r="12"></circle><text dx="-6" dy="6" fill="black" stroke="none">27</text></g><g class="node" transform="translate(535,845.4545454545454)" style="fill: white; stroke: rgb(231, 186, 82); stroke-width: 3;"><circle r="12"></circle><text dx="-6" dy="6" fill="black" stroke="none">31</text></g><g class="node" transform="translate(495,1172.7272727272727)" style="fill: white; stroke: rgb(214, 97, 107); stroke-width: 3;"><circle r="12"></circle><text dx="-6" dy="6" fill="black" stroke="none">43</text></g><g class="node" transform="translate(480,300)" style="fill: white; stroke: rgb(132, 60, 57); stroke-width: 3;"><circle r="12"></circle><text dx="-6" dy="6" fill="black" stroke="none">11</text></g><g class="node" transform="translate(475,1499.9999999999998)" style="fill: white; stroke: rgb(173, 73, 74); stroke-width: 3;"><circle r="12"></circle><text dx="-6" dy="6" fill="black" stroke="none">55</text></g><g class="node" transform="translate(475,709.090909090909)" style="fill: white; stroke: rgb(231, 203, 148); stroke-width: 3;"><circle r="12"></circle><text dx="-6" dy="6" fill="black" stroke="none">26</text></g><g class="node" transform="translate(445,1363.6363636363635)" style="fill: white; stroke: rgb(123, 65, 115); stroke-width: 3;"><circle r="12"></circle><text dx="-6" dy="6" fill="black" stroke="none">50</text></g><g class="node" transform="translate(445,354.5454545454545)" style="fill: white; stroke: rgb(165, 81, 148); stroke-width: 3;"><circle r="12"></circle><text dx="-6" dy="6" fill="black" stroke="none">13</text></g><g class="node" transform="translate(390,1800)" style="fill: white; stroke: rgb(181, 207, 107); stroke-width: 3;"><circle r="12"></circle><text dx="-6" dy="6" fill="black" stroke="none">66</text></g><g class="node" transform="translate(385,681.8181818181818)" style="fill: white; stroke: rgb(222, 158, 214); stroke-width: 3;"><circle r="12"></circle><text dx="-6" dy="6" fill="black" stroke="none">25</text></g><g class="node" transform="translate(380,109.0909090909091)" style="fill: white; stroke: rgb(99, 121, 57); stroke-width: 3;"><circle r="12"></circle><text dx="-6" dy="6" fill="black" stroke="none">4</text></g><g class="node" transform="translate(380,1472.7272727272725)" style="fill: white; stroke: rgb(156, 158, 222); stroke-width: 3;"><circle r="12"></circle><text dx="-6" dy="6" fill="black" stroke="none">54</text></g><g class="node" transform="translate(370,1145.4545454545453)" style="fill: white; stroke: rgb(82, 84, 163); stroke-width: 3;"><circle r="12"></circle><text dx="-6" dy="6" fill="black" stroke="none">42</text></g><g class="node" transform="translate(350,2372.7272727272725)" style="fill: white; stroke: rgb(140, 109, 49); stroke-width: 3;"><circle r="12"></circle><text dx="-6" dy="6" fill="black" stroke="none">87</text></g><g class="node" transform="translate(350,2236.3636363636365)" style="fill: white; stroke: rgb(140, 162, 82); stroke-width: 3;"><circle r="12"></circle><text dx="-6" dy="6" fill="black" stroke="none">82</text></g><g class="node" transform="translate(340,1336.3636363636363)" style="fill: white; stroke: rgb(165, 81, 148); stroke-width: 3;"><circle r="12"></circle><text dx="-6" dy="6" fill="black" stroke="none">49</text></g><g class="node" transform="translate(330,2481.8181818181815)" style="fill: white; stroke: rgb(231, 150, 156); stroke-width: 3;"><circle r="12"></circle><text dx="-6" dy="6" fill="black" stroke="none">91</text></g><g class="node" transform="translate(280,627.2727272727273)" style="fill: white; stroke: black; stroke-width: 3;"><circle r="12"></circle><text dx="-6" dy="6" fill="black" stroke="none">23</text></g><g class="node" transform="translate(280,272.7272727272727)" style="fill: white; stroke: rgb(123, 65, 115); stroke-width: 3;"><circle r="12"></circle><text dx="-6" dy="6" fill="black" stroke="none">10</text></g><g class="node" transform="translate(270,1036.3636363636363)" style="fill: white; stroke: rgb(222, 158, 214); stroke-width: 3;"><circle r="12"></circle><text dx="-6" dy="6" fill="black" stroke="none">38</text></g><g class="node" transform="translate(265,654.5454545454545)" style="fill: black; stroke: black; stroke-width: 3;"><circle r="12"></circle><text dx="-6" dy="6" fill="white" stroke="none">24</text></g><g class="node" transform="translate(245,2781.8181818181815)" style="fill: white; stroke: rgb(156, 158, 222); stroke-width: 3;"><circle r="12"></circle><text dx="-6" dy="6" fill="black" stroke="none">102</text></g><g class="node" transform="translate(240,2890.909090909091)" style="fill: white; stroke: rgb(156, 158, 222); stroke-width: 3;"><circle r="12"></circle><text dx="-6" dy="6" fill="black" stroke="none">106</text></g><g class="node" transform="translate(230,1772.7272727272727)" style="fill: white; stroke: rgb(231, 186, 82); stroke-width: 3;"><circle r="12"></circle><text dx="-6" dy="6" fill="black" stroke="none">65</text></g><g class="node" transform="translate(220,2100)" style="fill: white; stroke: black; stroke-width: 3;"><circle r="12"></circle><text dx="-6" dy="6" fill="black" stroke="none">77</text></g><g class="node" transform="translate(210,2127.272727272727)" style="fill: white; stroke: black; stroke-width: 3;"><circle r="12"></circle><text dx="-6" dy="6" fill="black" stroke="none">78</text></g><g class="node" transform="translate(200,2318.181818181818)" style="fill: white; stroke: black; stroke-width: 3;"><circle r="12"></circle><text dx="-6" dy="6" fill="black" stroke="none">85</text></g><g class="node" transform="translate(195,2181.8181818181815)" style="fill: white; stroke: black; stroke-width: 3;"><circle r="12"></circle><text dx="-6" dy="6" fill="black" stroke="none">80</text></g><g class="node" transform="translate(185,2454.5454545454545)" style="fill: white; stroke: rgb(123, 65, 115); stroke-width: 3;"><circle r="12"></circle><text dx="-6" dy="6" fill="black" stroke="none">90</text></g><g class="node" transform="translate(185,163.63636363636363)" style="fill: white; stroke: black; stroke-width: 3;"><circle r="12"></circle><text dx="-6" dy="6" fill="black" stroke="none">6</text></g><g class="node" transform="translate(185,1281.8181818181818)" style="fill: black; stroke: black; stroke-width: 3;"><circle r="12"></circle><text dx="-6" dy="6" fill="white" stroke="none">47</text></g><g class="node" transform="translate(185,2209.090909090909)" style="fill: white; stroke: black; stroke-width: 3;"><circle r="12"></circle><text dx="-6" dy="6" fill="black" stroke="none">81</text></g><g class="node" transform="translate(180,1009.090909090909)" style="fill: white; stroke: rgb(156, 158, 222); stroke-width: 3;"><circle r="12"></circle><text dx="-6" dy="6" fill="black" stroke="none">37</text></g><g class="node" transform="translate(165,218.1818181818182)" style="fill: white; stroke: black; stroke-width: 3;"><circle r="12"></circle><text dx="-6" dy="6" fill="black" stroke="none">8</text></g><g class="node" transform="translate(165,1118.1818181818182)" style="fill: white; stroke: rgb(214, 97, 107); stroke-width: 3;"><circle r="12"></circle><text dx="-6" dy="6" fill="black" stroke="none">41</text></g><g class="node" transform="translate(145,2672.7272727272725)" style="fill: white; stroke: black; stroke-width: 3;"><circle r="12"></circle><text dx="-6" dy="6" fill="black" stroke="none">98</text></g><g class="node" transform="translate(140,2836.363636363636)" style="fill: white; stroke: black; stroke-width: 3;"><circle r="12"></circle><text dx="-6" dy="6" fill="black" stroke="none">104</text></g><g class="node" transform="translate(135,1309.090909090909)" style="fill: white; stroke: black; stroke-width: 3;"><circle r="12"></circle><text dx="-6" dy="6" fill="black" stroke="none">48</text></g><g class="node" transform="translate(120,2863.6363636363635)" style="fill: white; stroke: black; stroke-width: 3;"><circle r="12"></circle><text dx="-6" dy="6" fill="black" stroke="none">105</text></g><g class="node" transform="translate(115,1745.4545454545455)" style="fill: white; stroke: rgb(222, 158, 214); stroke-width: 3;"><circle r="12"></circle><text dx="-6" dy="6" fill="black" stroke="none">64</text></g><g class="node" transform="translate(80,872.7272727272727)" style="fill: white; stroke: black; stroke-width: 3;"><circle r="12"></circle><text dx="-6" dy="6" fill="black" stroke="none">32</text></g><g class="node" transform="translate(75,900)" style="fill: white; stroke: black; stroke-width: 3;"><circle r="12"></circle><text dx="-6" dy="6" fill="black" stroke="none">33</text></g><g class="node" transform="translate(70,2427.2727272727275)" style="fill: white; stroke: black; stroke-width: 3;"><circle r="12"></circle><text dx="-6" dy="6" fill="black" stroke="none">89</text></g><g class="node" transform="translate(30,1636.3636363636365)" style="fill: white; stroke: black; stroke-width: 3;"><circle r="12"></circle><text dx="-6" dy="6" fill="black" stroke="none">60</text></g><g class="node" transform="translate(10,3163.6363636363635)" style="fill: white; stroke: black; stroke-width: 3;"><circle r="12"></circle><text dx="-6" dy="6" fill="black" stroke="none">116</text></g></g></svg>