<?xml version="1.0" encoding="utf-8"?>
<!-- Generator: Adobe Illustrator 16.0.0, SVG Export Plug-In . SVG Version: 6.00 Build 0)  -->
<!DOCTYPE svg PUBLIC "-//W3C//DTD SVG 1.1//EN" "http://www.w3.org/Graphics/SVG/1.1/DTD/svg11.dtd">
<svg version="1.1" id="Layer_1" xmlns="http://www.w3.org/2000/svg" xmlns:xlink="http://www.w3.org/1999/xlink" x="0px" y="0px"
	 width="3010px" height="1040px" viewBox="-985 985 3010 1040" enable-background="new -985 985 3010 1040" xml:space="preserve">
<g transform="translate(20,20)">
	<path fill="none" stroke="#393B79" stroke-width="3" d="M-870.149,1797v18.557c0,18.557,0,55.67-16.659,74.228
		c-16.659,18.557-49.976,18.557-66.635,25c-16.659,6.442-16.659,19.329-16.659,25.772V1947"/>
	<path fill="none" stroke="#5254A3" stroke-width="3" d="M-556.014,1797v18.041c0,18.042,0,54.124-35.697,72.165
		c-35.697,18.042-107.091,18.042-142.789,25c-35.697,6.959-35.697,20.877-35.697,27.835V1947"/>
	<path fill="none" stroke="#5254A3" stroke-width="3" d="M-556.014,1797v18.17c0,18.171,0,54.511-30.938,72.681
		s-92.813,18.17-123.75,25s-30.938,20.49-30.938,27.319v6.83"/>
	<path fill="none" stroke="#5254A3" stroke-width="3" d="M-556.014,1797v18.299c0,18.3,0,54.897-26.178,73.196
		c-26.179,18.299-78.534,18.299-104.712,25s-26.178,20.104-26.178,26.804V1947"/>
	<path fill="none" stroke="#637939" stroke-width="3" d="M-241.879,1797v18.17c0,18.171,0,54.511-30.938,72.681
		s-92.812,18.17-123.75,25s-30.938,20.49-30.938,27.319v6.83"/>
	<path fill="none" stroke="#637939" stroke-width="3" d="M-241.879,1797v18.299c0,18.3,0,54.897-26.179,73.196
		c-26.178,18.299-78.533,18.299-104.711,25s-26.178,20.104-26.178,26.804V1947"/>
	<path fill="none" stroke="#B5CF6B" stroke-width="3" d="M-41.976,1797v18.428c0,18.428,0,55.284-21.418,73.712
		c-21.419,18.428-64.255,18.428-85.673,25c-21.419,6.572-21.419,19.716-21.419,26.288V1947"/>
	<path fill="none" stroke="#637939" stroke-width="3" d="M-241.879,1797v18.428c0,18.428,0,55.284-21.419,73.712
		c-21.418,18.428-64.255,18.428-85.673,25s-21.418,19.716-21.418,26.288V1947"/>
	<path fill="none" stroke="#B5CF6B" stroke-width="3" d="M-41.976,1797v18.557c0,18.557,0,55.67-16.658,74.228
		c-16.659,18.557-49.977,18.557-66.635,25c-16.659,6.442-16.659,19.329-16.659,25.772V1947"/>
	<path fill="none" stroke="#BD9E39" stroke-width="3" d="M229.322,1797v18.234c0,18.234,0,54.703-28.558,72.938
		c-28.558,18.234-85.673,18.234-114.23,25c-28.558,6.765-28.558,20.296-28.558,27.062V1947"/>
	<path fill="none" stroke="#E7BA52" stroke-width="3" d="M500.621,1797v18.428c0,18.428,0,55.283-21.419,73.711
		c-21.418,18.428-64.255,18.428-85.673,25s-21.418,19.717-21.418,26.289V1947"/>
	<path fill="none" stroke="#637939" stroke-width="3" d="M-241.879,1797v18.557c0,18.557,0,55.67-16.659,74.228
		c-16.658,18.557-49.976,18.557-66.635,25c-16.658,6.442-16.658,19.329-16.658,25.772V1947"/>
	<path fill="none" stroke="#637939" stroke-width="3" d="M-241.879,1797v18.686c0,18.686,0,56.057-11.899,74.742
		s-35.697,18.686-47.597,25c-11.898,6.314-11.898,18.943-11.898,25.258V1947"/>
	<path fill="none" stroke="#BD9E39" stroke-width="3" d="M229.322,1797v18.363c0,18.363,0,55.09-23.798,73.453
		s-71.395,18.363-95.192,25s-23.798,19.91-23.798,26.547V1947"/>
	<path fill="none" stroke="#E7BA52" stroke-width="3" d="M500.621,1797v18.557c0,18.557,0,55.67-16.66,74.227
		c-16.658,18.557-49.976,18.557-66.635,25c-16.658,6.443-16.658,19.33-16.658,25.773V1947"/>
	<path fill="none" stroke="#5254A3" stroke-width="3" d="M-556.014,1797v18.428c0,18.428,0,55.284-21.419,73.712
		c-21.418,18.428-64.254,18.428-85.673,25c-21.418,6.572-21.418,19.716-21.418,26.288V1947"/>
	<path fill="none" stroke="#7B4173" stroke-width="3" d="M914.707,1797v18.234c0,18.234,0,54.703-28.559,72.938
		c-28.557,18.234-85.672,18.234-114.23,25c-28.557,6.765-28.557,20.296-28.557,27.062V1947"/>
	<path fill="none" stroke="#E7BA52" stroke-width="3" d="M500.621,1797v18.686c0,18.686,0,56.057-11.9,74.742
		c-11.899,18.686-35.697,18.686-47.597,25c-11.898,6.314-11.898,18.943-11.898,25.258V1947"/>
	<path fill="none" stroke="#CE6DBD" stroke-width="3" d="M1186.006,1797v18.17c0,18.17,0,54.51-30.938,72.681
		c-30.938,18.17-92.812,18.17-123.752,25c-30.938,6.829-30.938,20.489-30.938,27.319v6.83"/>
	<path fill="none" stroke="#393B79" stroke-width="3" d="M-870.149,1797v18.686c0,18.686,0,56.057-11.899,74.742
		c-11.899,18.686-35.697,18.686-47.596,25c-11.899,6.314-11.899,18.943-11.899,25.258V1947"/>
	<path fill="none" stroke="#E7BA52" stroke-width="3" d="M500.621,1797v18.814c0,18.814,0,56.443-7.14,75.258
		c-7.14,18.814-21.419,18.814-28.558,25c-7.14,6.186-7.14,18.557-7.14,24.742V1947"/>
	<path fill="none" stroke="#393B79" stroke-width="3" d="M-870.149,1797v18.814c0,18.814,0,56.443-7.14,75.258
		c-7.139,18.814-21.418,18.814-28.558,25s-7.14,18.557-7.14,24.742V1947"/>
	<path fill="none" stroke="#7B4173" stroke-width="3" d="M914.707,1797v18.363c0,18.363,0,55.09-23.799,73.453
		c-23.797,18.363-71.395,18.363-95.191,25c-23.799,6.637-23.799,19.91-23.799,26.547V1947"/>
	<path fill="none" stroke="#7B4173" stroke-width="3" d="M914.707,1797v18.492c0,18.492,0,55.477-19.039,73.969
		s-57.115,18.492-76.154,25c-19.037,6.508-19.037,19.523-19.037,26.031V1947"/>
	<path fill="none" stroke="#CE6DBD" stroke-width="3" d="M1186.006,1797v18.299c0,18.299,0,54.896-26.18,73.195
		c-26.178,18.3-78.533,18.3-104.711,25c-26.178,6.701-26.178,20.104-26.178,26.805V1947"/>
	<path fill="none" stroke="#7B4173" stroke-width="3" d="M914.707,1797v18.621c0,18.621,0,55.863-14.279,74.484
		s-42.836,18.621-57.115,25s-14.279,19.137-14.279,25.516V1947"/>
	<path fill="none" stroke="#B5CF6B" stroke-width="3" d="M1443.023,1797v18.557c0,18.557,0,55.67-16.658,74.227
		s-49.977,18.557-66.635,25s-16.658,19.33-16.658,25.773V1947"/>
	<path fill="none" stroke="#B5CF6B" stroke-width="3" d="M1443.023,1797v18.686c0,18.686,0,56.057-11.898,74.742
		s-35.697,18.686-47.596,25s-11.898,18.943-11.898,25.258V1947"/>
	<path fill="none" stroke="#8C6D31" stroke-width="3" d="M1357.352,1722v19.846c0,19.846,0,59.535,30.938,79.381
		s92.812,19.846,123.75,25s30.938,15.465,30.938,20.619V1872"/>
	<path fill="none" stroke="#8C6D31" stroke-width="3" d="M1357.352,1722v19.975c0,19.974,0,59.922,35.697,79.896
		s107.09,19.975,142.787,25s35.697,15.077,35.697,20.104V1872"/>
	<path fill="none" stroke="#8C6D31" stroke-width="3" d="M1357.352,1722v20.104c0,20.103,0,60.309,40.457,80.412
		c40.455,20.104,121.369,20.104,161.826,25s40.457,14.69,40.457,19.588V1872"/>
	<path fill="none" stroke="#E7CB94" stroke-width="3" d="M-556.014,1647v18.557c0,18.557,0,55.67-16.659,74.228
		c-16.658,18.557-49.976,18.557-66.634,25c-16.659,6.442-16.659,19.329-16.659,25.772V1797"/>
	<path fill="none" stroke="#843C39" stroke-width="3" d="M157.928,1647v18.814c0,18.814,0,56.443-7.14,75.258
		s-21.418,18.814-28.558,25s-7.14,18.557-7.14,24.742V1797"/>
	<path fill="none" stroke="#AD494A" stroke-width="3" d="M-41.976,1497v37.371c0,37.371,0,112.113-11.899,149.484
		c-11.898,37.371-35.696,37.371-47.596,50s-11.899,37.887-11.899,50.516V1797"/>
	<path fill="none" stroke="#D6616B" stroke-width="3" d="M1314.514,1647v19.395c0,19.395,0,58.183,14.279,77.577
		s42.838,19.395,57.115,25c14.279,5.605,14.279,16.817,14.279,22.423V1797"/>
	<path fill="none" stroke="#E7969C" stroke-width="3" d="M1128.889,1647v18.686c0,18.686,0,56.057-11.898,74.742
		s-35.697,18.686-47.596,25s-11.898,18.943-11.898,25.258V1797"/>
	<path fill="none" stroke="#7B4173" stroke-width="3" d="M-241.879,1647v18.814c0,18.814,0,56.443-7.14,75.258
		s-21.419,18.814-28.558,25c-7.14,6.186-7.14,18.557-7.14,24.742V1797"/>
	<path fill="none" stroke="#A55194" stroke-width="3" d="M586.293,1497v40.464c0,40.464,0,121.392,45.217,161.855
		s135.648,40.464,180.865,50s45.217,28.608,45.217,38.145V1797"/>
	<path fill="none" stroke="#CE6DBD" stroke-width="3" d="M-813.034,1647v18.814c0,18.814,0,56.443-7.14,75.258
		c-7.139,18.814-21.418,18.814-28.558,25c-7.139,6.186-7.139,18.557-7.139,24.742V1797"/>
	<path fill="none" stroke="#DE9ED6" stroke-width="3" d="M614.852,1647v18.557c0,18.557,0,55.67-16.66,74.227
		c-16.658,18.557-49.975,18.557-66.633,25c-16.66,6.443-16.66,19.33-16.66,25.773V1797"/>
	<path fill="none" stroke="#393B79" stroke-width="3" d="M1385.908,1572v20.361c0,20.36,0,61.082,49.977,81.443
		c49.977,20.36,149.928,20.36,199.904,24.999c49.975,4.64,49.975,13.918,49.975,18.557v4.64"/>
	<path fill="none" stroke="#393B79" stroke-width="3" d="M1385.908,1572v20.489c0,20.49,0,61.47,54.736,81.959
		s164.207,20.489,218.941,25c54.736,4.511,54.736,13.531,54.736,18.041V1722"/>
	<path fill="none" stroke="#393B79" stroke-width="3" d="M1385.908,1572v20.618c0,20.619,0,61.856,59.496,82.475
		c59.494,20.618,178.484,20.618,237.98,25c59.496,4.381,59.496,13.145,59.496,17.525V1722"/>
	<path fill="none" stroke="#E7969C" stroke-width="3" d="M1128.889,1647v9.407c0,9.407,0,28.222-7.139,37.629
		s-21.418,9.407-28.557,12.5c-7.141,3.093-7.141,9.278-7.141,12.371V1722"/>
	<path fill="none" stroke="#393B79" stroke-width="3" d="M1385.908,1572v20.747c0,20.748,0,62.242,64.256,82.99
		c64.254,20.747,192.764,20.747,257.02,25c64.254,4.252,64.254,12.757,64.254,17.01V1722"/>
	<path fill="none" stroke="#393B79" stroke-width="3" d="M1385.908,1572v20.876c0,20.877,0,62.629,69.016,83.505
		c69.014,20.877,207.043,20.877,276.057,25c69.016,4.124,69.016,12.371,69.016,16.495V1722"/>
	<path fill="none" stroke="#393B79" stroke-width="3" d="M1385.908,1572v21.005c0,21.006,0,63.016,73.775,84.021
		c73.773,21.006,221.322,21.005,295.096,25s73.773,11.984,73.773,15.979V1722"/>
	<path fill="none" stroke="#393B79" stroke-width="3" d="M1385.908,1572v21.134c0,21.134,0,63.402,78.535,84.536
		c78.533,21.135,235.6,21.134,314.133,25c78.535,3.866,78.535,11.598,78.535,15.464V1722"/>
	<path fill="none" stroke="#8C6D31" stroke-width="3" d="M1214.562,1497v18.686c0,18.686,0,56.057-11.898,74.742
		c-11.9,18.686-35.697,18.686-47.596,25c-11.9,6.314-11.9,18.943-11.9,25.258V1647"/>
	<path fill="none" stroke="#AD494A" stroke-width="3" d="M-41.976,1497v18.041c0,18.041,0,54.124-35.697,72.165
		s-107.091,18.041-142.788,25s-35.697,20.876-35.697,27.835V1647"/>
	<path fill="none" stroke="#A55194" stroke-width="3" d="M586.293,1497v12.629c0,12.629,0,37.887-235.601,50.516
		c-235.601,12.629-706.803,12.629-942.403,25c-235.601,12.371-235.601,37.113-235.601,49.484V1647"/>
	<path fill="none" stroke="#E7CB94" stroke-width="3" d="M586.293,1497v18.814c0,18.814,0,56.443-7.139,75.258
		c-7.141,18.814-21.418,18.814-28.559,25c-7.139,6.186-7.139,18.557-7.139,24.742V1647"/>
	<path fill="none" stroke="#843C39" stroke-width="3" d="M-584.572,1497v18.814c0,18.814,0,56.443-7.14,75.258
		s-21.418,18.814-28.558,25s-7.14,18.557-7.14,24.742V1647"/>
	<path fill="none" stroke="#AD494A" stroke-width="3" d="M257.879,1497v18.621c0,18.621,0,55.863-14.278,74.484
		c-14.279,18.621-42.837,18.621-57.115,25c-14.279,6.379-14.279,19.137-14.279,25.516V1647"/>
	<path fill="none" stroke="#8C6D31" stroke-width="3" d="M1214.562,1497v18.814c0,18.814,0,56.443-7.139,75.258
		c-7.141,18.814-21.418,18.814-28.559,25c-7.139,6.186-7.139,18.557-7.139,24.742V1647"/>
	<path fill="none" stroke="#A55194" stroke-width="3" d="M586.293,1497v10.181c0,10.181,0,30.541,49.977,40.722
		c49.977,10.18,149.928,10.18,199.904,12.5c49.975,2.319,49.975,6.959,49.975,9.278V1572"/>
	<path fill="none" stroke="#7B4173" stroke-width="3" d="M272.159,1197v37.371c0,37.371,0,112.113-11.899,149.484
		c-11.898,37.371-35.697,37.371-47.596,50c-11.899,12.629-11.899,37.887-11.899,50.516V1497"/>
	<path fill="none" stroke="#A55194" stroke-width="3" d="M-41.976,1347v18.814c0,18.814,0,56.443-7.14,75.258
		c-7.139,18.814-21.418,18.814-28.558,25s-7.14,18.557-7.14,24.742V1497"/>
	<path fill="none" stroke="#7B4173" stroke-width="3" d="M272.159,1197v37.629c0,37.629,0,112.887-7.14,150.516
		s-21.418,37.629-28.558,50s-7.14,37.113-7.14,49.484V1497"/>
	<path fill="none" stroke="#DE9ED6" stroke-width="3" d="M643.408,1347v18.814c0,18.814,0,56.443-7.139,75.258
		c-7.141,18.814-21.418,18.814-28.559,25c-7.139,6.186-7.139,18.557-7.139,24.742V1497"/>
	<path fill="none" stroke="#393B79" stroke-width="3" d="M-527.457,1347v18.814c0,18.814,0,56.443-7.14,75.258
		s-21.418,18.814-28.558,25s-7.14,18.557-7.14,24.742V1497"/>
	<path fill="none" stroke="#5254A3" stroke-width="3" d="M1271.678,1047v56.443c0,56.443,0,169.33-7.139,225.773
		c-7.141,56.443-21.418,56.443-28.559,75c-7.139,18.557-7.139,55.67-7.139,74.227V1497"/>
	<path fill="none" stroke="#7B4173" stroke-width="3" d="M272.159,1197v15.464c0,15.464,0,46.392-130.89,61.855
		s-392.668,15.464-523.558,25s-130.89,28.608-130.89,38.145V1347"/>
	<path fill="none" stroke="#7B4173" stroke-width="3" d="M272.159,1197v17.654c0,17.655,0,52.964-49.976,70.619
		c-49.977,17.654-149.929,17.654-199.904,25c-49.976,7.345-49.976,22.036-49.976,29.381V1347"/>
	<path fill="none" stroke="#5254A3" stroke-width="3" d="M1271.678,1047v32.217c0,32.216,0,96.649-107.092,128.865
		c-107.09,32.217-321.273,32.217-428.365,50c-107.092,17.784-107.092,53.351-107.092,71.135V1347"/>
	<path fill="none" stroke="#5254A3" stroke-width="3" d="M1271.678,1047v14.433c0,14.434,0,43.3-168.967,57.732
		c-168.965,14.433-506.898,14.433-675.865,25c-168.967,10.567-168.967,31.701-168.967,42.268V1197"/>
	<path fill="none" stroke="#393B79" stroke-width="4" d="M-884.428,1797h28.558"/>
	<path fill="none" stroke="#5254A3" stroke-width="4" d="M-655.966,1797h199.903"/>
	<path fill="none" stroke="#5254A3" stroke-width="4" d="M-655.966,1797h199.903"/>
	<path fill="none" stroke="#5254A3" stroke-width="4" d="M-655.966,1797h199.903"/>
	<path fill="none" stroke="#637939" stroke-width="4" d="M-284.716,1797h85.673"/>
	<path fill="none" stroke="#637939" stroke-width="4" d="M-284.716,1797h85.673"/>
	<path fill="none" stroke="#B5CF6B" stroke-width="4" d="M-113.371,1797H29.418"/>
	<path fill="none" stroke="#637939" stroke-width="4" d="M-284.716,1797h85.673"/>
	<path fill="none" stroke="#B5CF6B" stroke-width="4" d="M-113.371,1797H29.418"/>
	<path fill="none" stroke="#BD9E39" stroke-width="4" d="M115.091,1797h228.462"/>
	<path fill="none" stroke="#E7BA52" stroke-width="4" d="M486.341,1797h28.557"/>
	<path fill="none" stroke="#637939" stroke-width="4" d="M-284.716,1797h85.673"/>
	<path fill="none" stroke="#637939" stroke-width="4" d="M-284.716,1797h85.673"/>
	<path fill="none" stroke="#BD9E39" stroke-width="4" d="M115.091,1797h228.462"/>
	<path fill="none" stroke="#E7BA52" stroke-width="4" d="M486.341,1797h28.557"/>
	<path fill="none" stroke="#5254A3" stroke-width="4" d="M-655.966,1797h199.903"/>
	<path fill="none" stroke="#7B4173" stroke-width="4" d="M857.592,1797h114.23"/>
	<path fill="none" stroke="#E7BA52" stroke-width="4" d="M486.341,1797h28.557"/>
	<path fill="none" stroke="#CE6DBD" stroke-width="4" d="M1057.496,1797h257.018"/>
	<path fill="none" stroke="#393B79" stroke-width="4" d="M-884.428,1797h28.558"/>
	<path fill="none" stroke="#E7BA52" stroke-width="4" d="M486.341,1797h28.557"/>
	<path fill="none" stroke="#393B79" stroke-width="4" d="M-884.428,1797h28.558"/>
	<path fill="none" stroke="#7B4173" stroke-width="4" d="M857.592,1797h114.23"/>
	<path fill="none" stroke="#7B4173" stroke-width="4" d="M857.592,1797h114.23"/>
	<path fill="none" stroke="#CE6DBD" stroke-width="4" d="M1057.496,1797h257.018"/>
	<path fill="none" stroke="#7B4173" stroke-width="4" d="M857.592,1797h114.23"/>
	<path fill="none" stroke="#B5CF6B" stroke-width="4" d="M1400.188,1797h85.674"/>
	<path fill="none" stroke="#B5CF6B" stroke-width="4" d="M1400.188,1797h85.674"/>
	<path fill="none" stroke="#8C6D31" stroke-width="4" d="M1628.648,1722h-542.596"/>
	<path fill="none" stroke="#8C6D31" stroke-width="4" d="M1628.648,1722h-542.596"/>
	<path fill="none" stroke="#8C6D31" stroke-width="4" d="M1628.648,1722h-542.596"/>
	<path fill="none" stroke="#E7CB94" stroke-width="4" d="M-627.409,1647h142.788"/>
	<path fill="none" stroke="#843C39" stroke-width="4" d="M143.649,1647h28.558"/>
	<path fill="none" stroke="#AD494A" stroke-width="4" d="M-84.813,1497H0.861"/>
	<path fill="none" stroke="#D6616B" stroke-width="4" d="M1171.727,1647h285.576"/>
	<path fill="none" stroke="#E7969C" stroke-width="4" d="M1114.611,1647h28.557"/>
	<path fill="none" stroke="#7B4173" stroke-width="4" d="M-256.159,1647h28.558"/>
	<path fill="none" stroke="#A55194" stroke-width="4" d="M229.322,1497h713.942"/>
	<path fill="none" stroke="#CE6DBD" stroke-width="4" d="M-827.312,1647h28.558"/>
	<path fill="none" stroke="#DE9ED6" stroke-width="4" d="M543.457,1647h142.789"/>
	<path fill="none" stroke="#393B79" stroke-width="4" d="M1885.668,1572h-999.52"/>
	<path fill="none" stroke="#393B79" stroke-width="4" d="M1885.668,1572h-999.52"/>
	<path fill="none" stroke="#393B79" stroke-width="4" d="M1885.668,1572h-999.52"/>
	<path fill="none" stroke="#E7969C" stroke-width="4" d="M1114.611,1647h28.557"/>
	<path fill="none" stroke="#393B79" stroke-width="4" d="M1885.668,1572h-999.52"/>
	<path fill="none" stroke="#393B79" stroke-width="4" d="M1885.668,1572h-999.52"/>
	<path fill="none" stroke="#393B79" stroke-width="4" d="M1885.668,1572h-999.52"/>
	<path fill="none" stroke="#393B79" stroke-width="4" d="M1885.668,1572h-999.52"/>
	<path fill="none" stroke="#8C6D31" stroke-width="4" d="M1200.283,1497h28.559"/>
	<path fill="none" stroke="#AD494A" stroke-width="4" d="M-84.813,1497H0.861"/>
	<path fill="none" stroke="#A55194" stroke-width="4" d="M229.322,1497h713.942"/>
	<path fill="none" stroke="#E7CB94" stroke-width="4" d="M572.014,1497h28.559"/>
	<path fill="none" stroke="#843C39" stroke-width="4" d="M-598.851,1497h28.558"/>
	<path fill="none" stroke="#AD494A" stroke-width="4" d="M200.764,1497h114.231"/>
	<path fill="none" stroke="#8C6D31" stroke-width="4" d="M1200.283,1497h28.559"/>
	<path fill="none" stroke="#A55194" stroke-width="4" d="M229.322,1497h713.942"/>
	<path fill="none" stroke="#7B4173" stroke-width="4" d="M257.879,1197h28.558"/>
	<path fill="none" stroke="#A55194" stroke-width="4" d="M-56.254,1347h28.558"/>
	<path fill="none" stroke="#7B4173" stroke-width="4" d="M257.879,1197h28.558"/>
	<path fill="none" stroke="#DE9ED6" stroke-width="4" d="M629.129,1347h28.559"/>
	<path fill="none" stroke="#393B79" stroke-width="4" d="M-541.736,1347h28.558"/>
	<path fill="none" stroke="#5254A3" stroke-width="4" d="M1257.398,1047h28.559"/>
	<path fill="none" stroke="#7B4173" stroke-width="4" d="M257.879,1197h28.558"/>
	<path fill="none" stroke="#7B4173" stroke-width="4" d="M257.879,1197h28.558"/>
	<path fill="none" stroke="#5254A3" stroke-width="4" d="M1257.398,1047h28.559"/>
	<path fill="none" stroke="#5254A3" stroke-width="4" d="M1257.398,1047h28.559"/>
	<g transform="translate(0,28.55769230769231)">
		<circle fill="#FFFFFF" stroke="#000000" stroke-width="3" cx="-970.101" cy="1918.442" r="12"/>
		
			<text transform="matrix(-4.371139e-08 -1 1 -4.371139e-08 -958.1011 1882.4423)" fill="#FFFFFF" font-family="'ArialMT'" font-size="12">1</text>
		
			<text transform="matrix(-4.371139e-08 -1 1 -4.371139e-08 -958.1011 1882.4423)" fill="none" stroke="#000000" stroke-width="2" font-family="'ArialMT'" font-size="12">1</text>
	</g>
	<g transform="translate(0,285.5769230769231)">
		<circle fill="#FFFFFF" stroke="#000000" stroke-width="3" cx="-713.082" cy="1661.423" r="12"/>
		
			<text transform="matrix(-4.371139e-08 -1 1 -4.371139e-08 -701.0815 1625.4231)" fill="#FFFFFF" font-family="'ArialMT'" font-size="12">10</text>
		
			<text transform="matrix(-4.371139e-08 -1 1 -4.371139e-08 -701.0815 1625.4231)" fill="none" stroke="#000000" stroke-width="2" font-family="'ArialMT'" font-size="12">10</text>
	</g>
	<g transform="translate(0,1056.6346153846155)">
		<circle fill="#FFFFFF" stroke="#000000" stroke-width="3" cx="57.976" cy="890.365" r="12"/>
		
			<text transform="matrix(-4.371139e-08 -1 1 -4.371139e-08 69.9761 854.3654)" fill="#FFFFFF" font-family="'ArialMT'" font-size="12">37</text>
		
			<text transform="matrix(-4.371139e-08 -1 1 -4.371139e-08 69.9761 854.3654)" fill="none" stroke="#000000" stroke-width="2" font-family="'ArialMT'" font-size="12">37</text>
	</g>
	<g transform="translate(0,656.8269230769231)">
		<circle fill="#FFFFFF" stroke="#000000" stroke-width="3" cx="-341.832" cy="1290.173" r="12"/>
		
			<text transform="matrix(-4.371139e-08 -1 1 -4.371139e-08 -329.8315 1254.1731)" fill="#FFFFFF" font-family="'ArialMT'" font-size="12">23</text>
		
			<text transform="matrix(-4.371139e-08 -1 1 -4.371139e-08 -329.8315 1254.1731)" fill="none" stroke="#000000" stroke-width="2" font-family="'ArialMT'" font-size="12">23</text>
	</g>
	<g transform="translate(0,685.3846153846155)">
		<circle fill="#FFFFFF" stroke="#000000" stroke-width="3" cx="-313.274" cy="1261.615" r="12"/>
		
			<text transform="matrix(-4.371139e-08 -1 1 -4.371139e-08 -301.2739 1225.6154)" fill="#FFFFFF" font-family="'ArialMT'" font-size="12">24</text>
		
			<text transform="matrix(-4.371139e-08 -1 1 -4.371139e-08 -301.2739 1225.6154)" fill="none" stroke="#000000" stroke-width="2" font-family="'ArialMT'" font-size="12">24</text>
	</g>
	<g transform="translate(0,1999.0384615384617)">
		<circle fill="#FFFFFF" stroke="#000000" stroke-width="3" cx="1000.379" cy="-52.038" r="12"/>
		
			<text transform="matrix(-4.371139e-08 -1 1 -4.371139e-08 1012.3799 -88.0385)" fill="#FFFFFF" font-family="'ArialMT'" font-size="12">70</text>
		
			<text transform="matrix(-4.371139e-08 -1 1 -4.371139e-08 1012.3799 -88.0385)" fill="none" stroke="#000000" stroke-width="2" font-family="'ArialMT'" font-size="12">70</text>
	</g>
	<g transform="translate(0,57.11538461538462)">
		<circle fill="#FFFFFF" stroke="#000000" stroke-width="3" cx="-941.543" cy="1889.885" r="12"/>
		
			<text transform="matrix(-4.371139e-08 -1 1 -4.371139e-08 -929.5435 1853.8846)" fill="#FFFFFF" font-family="'ArialMT'" font-size="12">2</text>
		
			<text transform="matrix(-4.371139e-08 -1 1 -4.371139e-08 -929.5435 1853.8846)" fill="none" stroke="#000000" stroke-width="2" font-family="'ArialMT'" font-size="12">2</text>
	</g>
	<g transform="translate(0,1456.4423076923076)">
		<circle fill="#FFFFFF" stroke="#000000" stroke-width="3" cx="457.784" cy="490.558" r="12"/>
		
			<text transform="matrix(-4.371139e-08 -1 1 -4.371139e-08 469.7837 454.5577)" fill="#FFFFFF" font-family="'ArialMT'" font-size="12">51</text>
		
			<text transform="matrix(-4.371139e-08 -1 1 -4.371139e-08 469.7837 454.5577)" fill="none" stroke="#000000" stroke-width="2" font-family="'ArialMT'" font-size="12">51</text>
	</g>
	<g transform="translate(0,1770.576923076923)">
		<circle fill="#FFFFFF" stroke="#000000" stroke-width="3" cx="771.918" cy="176.423" r="12"/>
		
			<text transform="matrix(-4.371139e-08 -1 1 -4.371139e-08 783.918 140.4231)" fill="#FFFFFF" font-family="'ArialMT'" font-size="12">62</text>
		
			<text transform="matrix(-4.371139e-08 -1 1 -4.371139e-08 783.918 140.4231)" fill="none" stroke="#000000" stroke-width="2" font-family="'ArialMT'" font-size="12">62</text>
	</g>
	<g transform="translate(0,2027.5961538461538)">
		<circle stroke="#000000" stroke-width="3" cx="1028.938" cy="-80.596" r="12"/>
		<text transform="matrix(-4.371139e-08 -1 1 -4.371139e-08 1040.9375 -116.5962)" font-family="'ArialMT'" font-size="12">71</text>
		
			<text transform="matrix(-4.371139e-08 -1 1 -4.371139e-08 1040.9375 -116.5962)" fill="none" stroke="#000000" stroke-width="2" font-family="'ArialMT'" font-size="12">71</text>
	</g>
	<g transform="translate(0,1827.6923076923078)">
		<circle fill="#FFFFFF" stroke="#000000" stroke-width="3" cx="829.033" cy="119.308" r="12"/>
		
			<text transform="matrix(-4.371139e-08 -1 1 -4.371139e-08 841.0332 83.3077)" fill="#FFFFFF" font-family="'ArialMT'" font-size="12">64</text>
		
			<text transform="matrix(-4.371139e-08 -1 1 -4.371139e-08 841.0332 83.3077)" fill="none" stroke="#000000" stroke-width="2" font-family="'ArialMT'" font-size="12">64</text>
	</g>
	<g transform="translate(0,2341.730769230769)">
		<circle stroke="#000000" stroke-width="3" cx="1343.072" cy="-394.731" r="12"/>
		<text transform="matrix(-4.371139e-08 -1 1 -4.371139e-08 1355.0723 -430.7307)" font-family="'ArialMT'" font-size="12">82</text>
		
			<text transform="matrix(-4.371139e-08 -1 1 -4.371139e-08 1355.0723 -430.7307)" fill="none" stroke="#000000" stroke-width="2" font-family="'ArialMT'" font-size="12">82</text>
	</g>
	<g transform="translate(0,2370.288461538462)">
		<circle fill="#FFFFFF" stroke="#000000" stroke-width="3" cx="1371.631" cy="-423.289" r="12"/>
		
			<text transform="matrix(-4.371139e-08 -1 1 -4.371139e-08 1383.6299 -459.2886)" fill="#FFFFFF" font-family="'ArialMT'" font-size="12">83</text>
		
			<text transform="matrix(-4.371139e-08 -1 1 -4.371139e-08 1383.6299 -459.2886)" fill="none" stroke="#000000" stroke-width="2" font-family="'ArialMT'" font-size="12">83</text>
	</g>
	<g transform="translate(0,2513.076923076923)">
		<circle fill="#FFFFFF" stroke="#000000" stroke-width="3" cx="1514.418" cy="-566.077" r="12"/>
		
			<text transform="matrix(-4.371139e-08 -1 1 -4.371139e-08 1526.418 -602.0769)" fill="#FFFFFF" font-family="'ArialMT'" font-size="12">88</text>
		
			<text transform="matrix(-4.371139e-08 -1 1 -4.371139e-08 1526.418 -602.0769)" fill="none" stroke="#000000" stroke-width="2" font-family="'ArialMT'" font-size="12">88</text>
	</g>
	<g transform="translate(75,2541.6346153846152)">
		<circle fill="#FFFFFF" stroke="#000000" stroke-width="3" cx="1467.977" cy="-669.635" r="12"/>
		
			<text transform="matrix(-4.371139e-08 -1 1 -4.371139e-08 1479.9766 -705.6345)" fill="#FFFFFF" font-family="'ArialMT'" font-size="12">89</text>
		
			<text transform="matrix(-4.371139e-08 -1 1 -4.371139e-08 1479.9766 -705.6345)" fill="none" stroke="#000000" stroke-width="2" font-family="'ArialMT'" font-size="12">89</text>
	</g>
	<g transform="translate(150,342.69230769230774)">
		<circle fill="#FFFFFF" stroke="#5254A3" stroke-width="3" cx="-805.966" cy="1454.308" r="12"/>
		
			<text transform="matrix(-4.371139e-08 -1 1 -4.371139e-08 -793.9663 1418.3076)" fill="#FFFFFF" font-family="'ArialMT'" font-size="12">12</text>
		
			<text transform="matrix(-4.371139e-08 -1 1 -4.371139e-08 -793.9663 1418.3076)" fill="none" stroke="#000000" stroke-width="2" font-family="'ArialMT'" font-size="12">12</text>
	</g>
	<g transform="translate(150,1485)">
		<circle fill="#FFFFFF" stroke="#E7BA52" stroke-width="3" cx="336.341" cy="312" r="12"/>
		<text transform="matrix(-4.371139e-08 -1 1 -4.371139e-08 348.3413 276)" fill="#FFFFFF" font-family="'ArialMT'" font-size="12">52</text>
		
			<text transform="matrix(-4.371139e-08 -1 1 -4.371139e-08 348.3413 276)" fill="none" stroke="#000000" stroke-width="2" font-family="'ArialMT'" font-size="12">52</text>
	</g>
	<g transform="translate(150,1113.75)">
		<circle fill="#FFFFFF" stroke="#BD9E39" stroke-width="3" cx="-34.909" cy="683.25" r="12"/>
		
			<text transform="matrix(-4.371139e-08 -1 1 -4.371139e-08 -22.9087 647.25)" fill="#FFFFFF" font-family="'ArialMT'" font-size="12">39</text>
		
			<text transform="matrix(-4.371139e-08 -1 1 -4.371139e-08 -22.9087 647.25)" fill="none" stroke="#000000" stroke-width="2" font-family="'ArialMT'" font-size="12">39</text>
	</g>
	<g transform="translate(150,885.2884615384615)">
		<circle fill="#FFFFFF" stroke="#B5CF6B" stroke-width="3" cx="-263.371" cy="911.712" r="12"/>
		
			<text transform="matrix(-4.371139e-08 -1 1 -4.371139e-08 -251.3706 875.7115)" fill="#FFFFFF" font-family="'ArialMT'" font-size="12">31</text>
		
			<text transform="matrix(-4.371139e-08 -1 1 -4.371139e-08 -251.3706 875.7115)" fill="none" stroke="#000000" stroke-width="2" font-family="'ArialMT'" font-size="12">31</text>
	</g>
	<g transform="translate(150,2398.846153846154)">
		<circle fill="#FFFFFF" stroke="#B5CF6B" stroke-width="3" cx="1250.188" cy="-601.846" r="12"/>
		
			<text transform="matrix(-4.371139e-08 -1 1 -4.371139e-08 1262.1875 -637.8462)" fill="#FFFFFF" font-family="'ArialMT'" font-size="12">84</text>
		
			<text transform="matrix(-4.371139e-08 -1 1 -4.371139e-08 1262.1875 -637.8462)" fill="none" stroke="#000000" stroke-width="2" font-family="'ArialMT'" font-size="12">84</text>
	</g>
	<g transform="translate(150,2056.153846153846)">
		<circle fill="#FFFFFF" stroke="#CE6DBD" stroke-width="3" cx="907.496" cy="-259.154" r="12"/>
		
			<text transform="matrix(-4.371139e-08 -1 1 -4.371139e-08 919.4951 -295.1538)" fill="#FFFFFF" font-family="'ArialMT'" font-size="12">72</text>
		
			<text transform="matrix(-4.371139e-08 -1 1 -4.371139e-08 919.4951 -295.1538)" fill="none" stroke="#000000" stroke-width="2" font-family="'ArialMT'" font-size="12">72</text>
	</g>
	<g transform="translate(150,713.9423076923077)">
		<circle fill="#FFFFFF" stroke="#637939" stroke-width="3" cx="-434.716" cy="1083.058" r="12"/>
		
			<text transform="matrix(-4.371139e-08 -1 1 -4.371139e-08 -422.7163 1047.0576)" fill="#FFFFFF" font-family="'ArialMT'" font-size="12">25</text>
		
			<text transform="matrix(-4.371139e-08 -1 1 -4.371139e-08 -422.7163 1047.0576)" fill="none" stroke="#000000" stroke-width="2" font-family="'ArialMT'" font-size="12">25</text>
	</g>
	<g transform="translate(150,1856.25)">
		<circle fill="#FFFFFF" stroke="#7B4173" stroke-width="3" cx="707.592" cy="-59.25" r="12"/>
		
			<text transform="matrix(-4.371139e-08 -1 1 -4.371139e-08 719.5918 -95.25)" fill="#FFFFFF" font-family="'ArialMT'" font-size="12">65</text>
		
			<text transform="matrix(-4.371139e-08 -1 1 -4.371139e-08 719.5918 -95.25)" fill="none" stroke="#000000" stroke-width="2" font-family="'ArialMT'" font-size="12">65</text>
	</g>
	<g transform="translate(150,114.23076923076924)">
		<circle fill="#FFFFFF" stroke="#393B79" stroke-width="3" cx="-1034.428" cy="1682.769" r="12"/>
		
			<text transform="matrix(-4.371139e-08 -1 1 -4.371139e-08 -1022.4282 1646.7693)" fill="#FFFFFF" font-family="'ArialMT'" font-size="12">4</text>
		
			<text transform="matrix(-4.371139e-08 -1 1 -4.371139e-08 -1022.4282 1646.7693)" fill="none" stroke="#000000" stroke-width="2" font-family="'ArialMT'" font-size="12">4</text>
	</g>
	<g transform="translate(225,2712.980769230769)">
		<circle fill="#FFFFFF" stroke="#000000" stroke-width="3" cx="1489.322" cy="-990.981" r="12"/>
		
			<text transform="matrix(-4.371139e-08 -1 1 -4.371139e-08 1501.3223 -1026.9807)" fill="#FFFFFF" font-family="'ArialMT'" font-size="12">95</text>
		
			<text transform="matrix(-4.371139e-08 -1 1 -4.371139e-08 1501.3223 -1026.9807)" fill="none" stroke="#000000" stroke-width="2" font-family="'ArialMT'" font-size="12">95</text>
	</g>
	<g transform="translate(225,2741.538461538462)">
		<circle fill="#FFFFFF" stroke="#000000" stroke-width="3" cx="1517.881" cy="-1019.539" r="12"/>
		
			<text transform="matrix(-4.371139e-08 -1 1 -4.371139e-08 1529.8799 -1055.5386)" fill="#FFFFFF" font-family="'ArialMT'" font-size="12">96</text>
		
			<text transform="matrix(-4.371139e-08 -1 1 -4.371139e-08 1529.8799 -1055.5386)" fill="none" stroke="#000000" stroke-width="2" font-family="'ArialMT'" font-size="12">96</text>
	</g>
	<g transform="translate(225,2627.3076923076924)">
		<circle fill="#FFFFFF" stroke="#8C6D31" stroke-width="3" cx="1403.648" cy="-905.308" r="12"/>
		
			<text transform="matrix(-4.371139e-08 -1 1 -4.371139e-08 1415.6484 -941.3076)" fill="#FFFFFF" font-family="'ArialMT'" font-size="12">92</text>
		
			<text transform="matrix(-4.371139e-08 -1 1 -4.371139e-08 1415.6484 -941.3076)" fill="none" stroke="#000000" stroke-width="2" font-family="'ArialMT'" font-size="12">92</text>
	</g>
	<g transform="translate(225,2798.653846153846)">
		<circle fill="#FFFFFF" stroke="#000000" stroke-width="3" cx="1574.996" cy="-1076.654" r="12"/>
		
			<text transform="matrix(-4.371139e-08 -1 1 -4.371139e-08 1586.9951 -1112.6538)" fill="#FFFFFF" font-family="'ArialMT'" font-size="12">98</text>
		
			<text transform="matrix(-4.371139e-08 -1 1 -4.371139e-08 1586.9951 -1112.6538)" fill="none" stroke="#000000" stroke-width="2" font-family="'ArialMT'" font-size="12">98</text>
	</g>
	<g transform="translate(225,2855.769230769231)">
		<circle fill="#FFFFFF" stroke="#000000" stroke-width="3" cx="1632.111" cy="-1133.769" r="12"/>
		
			<text transform="matrix(-4.371139e-08 -1 1 -4.371139e-08 1644.1113 -1169.7693)" fill="#FFFFFF" font-family="'ArialMT'" font-size="12">100</text>
		
			<text transform="matrix(-4.371139e-08 -1 1 -4.371139e-08 1644.1113 -1169.7693)" fill="none" stroke="#000000" stroke-width="2" font-family="'ArialMT'" font-size="12">100</text>
	</g>
	<g transform="translate(300,742.5)">
		<circle fill="#FFFFFF" stroke="#7B4173" stroke-width="3" cx="-556.159" cy="904.5" r="12"/>
		
			<text transform="matrix(-4.371139e-08 -1 1 -4.371139e-08 -544.1587 868.5)" fill="#FFFFFF" font-family="'ArialMT'" font-size="12">26</text>
		
			<text transform="matrix(-4.371139e-08 -1 1 -4.371139e-08 -544.1587 868.5)" fill="none" stroke="#000000" stroke-width="2" font-family="'ArialMT'" font-size="12">26</text>
	</g>
	<g transform="translate(300,1142.3076923076924)">
		<circle fill="#FFFFFF" stroke="#843C39" stroke-width="3" cx="-156.351" cy="504.692" r="12"/>
		
			<text transform="matrix(-4.371139e-08 -1 1 -4.371139e-08 -144.3511 468.6923)" fill="#FFFFFF" font-family="'ArialMT'" font-size="12">40</text>
		
			<text transform="matrix(-4.371139e-08 -1 1 -4.371139e-08 -144.3511 468.6923)" fill="none" stroke="#000000" stroke-width="2" font-family="'ArialMT'" font-size="12">40</text>
	</g>
	<g transform="translate(300,171.34615384615387)">
		<circle fill="#FFFFFF" stroke="#CE6DBD" stroke-width="3" cx="-1127.312" cy="1475.654" r="12"/>
		
			<text transform="matrix(-4.371139e-08 -1 1 -4.371139e-08 -1115.313 1439.6538)" fill="#FFFFFF" font-family="'ArialMT'" font-size="12">6</text>
		
			<text transform="matrix(-4.371139e-08 -1 1 -4.371139e-08 -1115.313 1439.6538)" fill="none" stroke="#000000" stroke-width="2" font-family="'ArialMT'" font-size="12">6</text>
	</g>
	<g transform="translate(300,1542.1153846153848)">
		<circle fill="#FFFFFF" stroke="#DE9ED6" stroke-width="3" cx="243.457" cy="104.885" r="12"/>
		
			<text transform="matrix(-4.371139e-08 -1 1 -4.371139e-08 255.457 68.8846)" fill="#FFFFFF" font-family="'ArialMT'" font-size="12">54</text>
		
			<text transform="matrix(-4.371139e-08 -1 1 -4.371139e-08 255.457 68.8846)" fill="none" stroke="#000000" stroke-width="2" font-family="'ArialMT'" font-size="12">54</text>
	</g>
	<g transform="translate(300,371.25)">
		<circle fill="#FFFFFF" stroke="#E7CB94" stroke-width="3" cx="-927.409" cy="1275.75" r="12"/>
		
			<text transform="matrix(-4.371139e-08 -1 1 -4.371139e-08 -915.4087 1239.75)" fill="#FFFFFF" font-family="'ArialMT'" font-size="12">13</text>
		
			<text transform="matrix(-4.371139e-08 -1 1 -4.371139e-08 -915.4087 1239.75)" fill="none" stroke="#000000" stroke-width="2" font-family="'ArialMT'" font-size="12">13</text>
	</g>
	<g transform="translate(300,2113.269230769231)">
		<circle fill="#FFFFFF" stroke="#E7969C" stroke-width="3" cx="814.611" cy="-466.269" r="12"/>
		
			<text transform="matrix(-4.371139e-08 -1 1 -4.371139e-08 826.6113 -502.2693)" fill="#FFFFFF" font-family="'ArialMT'" font-size="12">74</text>
		
			<text transform="matrix(-4.371139e-08 -1 1 -4.371139e-08 826.6113 -502.2693)" fill="none" stroke="#000000" stroke-width="2" font-family="'ArialMT'" font-size="12">74</text>
	</g>
	<g transform="translate(300,2170.3846153846152)">
		<circle fill="#FFFFFF" stroke="#D6616B" stroke-width="3" cx="871.727" cy="-523.385" r="12"/>
		
			<text transform="matrix(-4.371139e-08 -1 1 -4.371139e-08 883.7266 -559.3845)" fill="#FFFFFF" font-family="'ArialMT'" font-size="12">76</text>
		
			<text transform="matrix(-4.371139e-08 -1 1 -4.371139e-08 883.7266 -559.3845)" fill="none" stroke="#000000" stroke-width="2" font-family="'ArialMT'" font-size="12">76</text>
	</g>
	<g transform="translate(375,2884.326923076923)">
		<circle fill="#FFFFFF" stroke="#393B79" stroke-width="3" cx="1510.668" cy="-1312.327" r="12"/>
		
			<text transform="matrix(-4.371139e-08 -1 1 -4.371139e-08 1522.668 -1348.3269)" fill="#FFFFFF" font-family="'ArialMT'" font-size="12">101</text>
		
			<text transform="matrix(-4.371139e-08 -1 1 -4.371139e-08 1522.668 -1348.3269)" fill="none" stroke="#000000" stroke-width="2" font-family="'ArialMT'" font-size="12">101</text>
	</g>
	<g transform="translate(450,1199.423076923077)">
		<circle fill="#FFFFFF" stroke="#AD494A" stroke-width="3" cx="-249.236" cy="297.577" r="12"/>
		
			<text transform="matrix(-4.371139e-08 -1 1 -4.371139e-08 -237.2358 261.5764)" fill="#FFFFFF" font-family="'ArialMT'" font-size="12">42</text>
		
			<text transform="matrix(-4.371139e-08 -1 1 -4.371139e-08 -237.2358 261.5764)" fill="none" stroke="#000000" stroke-width="2" font-family="'ArialMT'" font-size="12">42</text>
	</g>
	<g transform="translate(450,913.8461538461539)">
		<circle fill="#FFFFFF" stroke="#AD494A" stroke-width="3" cx="-534.813" cy="583.154" r="12"/>
		
			<text transform="matrix(-4.371139e-08 -1 1 -4.371139e-08 -522.813 547.1534)" fill="#FFFFFF" font-family="'ArialMT'" font-size="12">32</text>
		
			<text transform="matrix(-4.371139e-08 -1 1 -4.371139e-08 -522.813 547.1534)" fill="none" stroke="#000000" stroke-width="2" font-family="'ArialMT'" font-size="12">32</text>
	</g>
	<g transform="translate(450,399.80769230769226)">
		<circle fill="#FFFFFF" stroke="#843C39" stroke-width="3" cx="-1048.851" cy="1097.192" r="12"/>
		
			<text transform="matrix(-4.371139e-08 -1 1 -4.371139e-08 -1036.8511 1061.1919)" fill="#FFFFFF" font-family="'ArialMT'" font-size="12">14</text>
		
			<text transform="matrix(-4.371139e-08 -1 1 -4.371139e-08 -1036.8511 1061.1919)" fill="none" stroke="#000000" stroke-width="2" font-family="'ArialMT'" font-size="12">14</text>
	</g>
	<g transform="translate(450,1570.673076923077)">
		<circle fill="#FFFFFF" stroke="#E7CB94" stroke-width="3" cx="122.014" cy="-73.673" r="12"/>
		
			<text transform="matrix(-4.371139e-08 -1 1 -4.371139e-08 134.0137 -109.6736)" fill="#FFFFFF" font-family="'ArialMT'" font-size="12">55</text>
		
			<text transform="matrix(-4.371139e-08 -1 1 -4.371139e-08 134.0137 -109.6736)" fill="none" stroke="#000000" stroke-width="2" font-family="'ArialMT'" font-size="12">55</text>
	</g>
	<g transform="translate(450,1227.980769230769)">
		<circle fill="#FFFFFF" stroke="#A55194" stroke-width="3" cx="-220.678" cy="269.019" r="12"/>
		
			<text transform="matrix(-4.371139e-08 -1 1 -4.371139e-08 -208.6782 233.0188)" fill="#FFFFFF" font-family="'ArialMT'" font-size="12">43</text>
		
			<text transform="matrix(-4.371139e-08 -1 1 -4.371139e-08 -208.6782 233.0188)" fill="none" stroke="#000000" stroke-width="2" font-family="'ArialMT'" font-size="12">43</text>
	</g>
	<g transform="translate(450,2198.9423076923076)">
		<circle fill="#FFFFFF" stroke="#8C6D31" stroke-width="3" cx="750.283" cy="-701.942" r="12"/>
		
			<text transform="matrix(-4.371139e-08 -1 1 -4.371139e-08 762.2832 -737.9429)" fill="#FFFFFF" font-family="'ArialMT'" font-size="12">77</text>
		
			<text transform="matrix(-4.371139e-08 -1 1 -4.371139e-08 762.2832 -737.9429)" fill="none" stroke="#000000" stroke-width="2" font-family="'ArialMT'" font-size="12">77</text>
	</g>
	<g transform="translate(600,456.92307692307696)">
		<circle fill="#FFFFFF" stroke="#393B79" stroke-width="3" cx="-1141.736" cy="890.077" r="12"/>
		
			<text transform="matrix(-4.371139e-08 -1 1 -4.371139e-08 -1129.7358 854.0764)" fill="#FFFFFF" font-family="'ArialMT'" font-size="12">16</text>
		
			<text transform="matrix(-4.371139e-08 -1 1 -4.371139e-08 -1129.7358 854.0764)" fill="none" stroke="#000000" stroke-width="2" font-family="'ArialMT'" font-size="12">16</text>
	</g>
	<g transform="translate(600,1627.7884615384617)">
		<circle fill="#FFFFFF" stroke="#DE9ED6" stroke-width="3" cx="29.129" cy="-280.788" r="12"/>
		
			<text transform="matrix(-4.371139e-08 -1 1 -4.371139e-08 41.1299 -316.7889)" fill="#FFFFFF" font-family="'ArialMT'" font-size="12">57</text>
		
			<text transform="matrix(-4.371139e-08 -1 1 -4.371139e-08 41.1299 -316.7889)" fill="none" stroke="#000000" stroke-width="2" font-family="'ArialMT'" font-size="12">57</text>
	</g>
	<g transform="translate(600,942.4038461538461)">
		<circle fill="#FFFFFF" stroke="#A55194" stroke-width="3" cx="-656.254" cy="404.596" r="12"/>
		
			<text transform="matrix(-4.371139e-08 -1 1 -4.371139e-08 -644.2544 368.5956)" fill="#FFFFFF" font-family="'ArialMT'" font-size="12">33</text>
		
			<text transform="matrix(-4.371139e-08 -1 1 -4.371139e-08 -644.2544 368.5956)" fill="none" stroke="#000000" stroke-width="2" font-family="'ArialMT'" font-size="12">33</text>
	</g>
	<g transform="translate(750,1256.5384615384614)">
		<circle fill="#FFFFFF" stroke="#7B4173" stroke-width="3" cx="-492.121" cy="-59.538" r="12"/>
		
			<text transform="matrix(-4.371139e-08 -1 1 -4.371139e-08 -480.1201 -95.5389)" fill="#FFFFFF" font-family="'ArialMT'" font-size="12">44</text>
		
			<text transform="matrix(-4.371139e-08 -1 1 -4.371139e-08 -480.1201 -95.5389)" fill="none" stroke="#000000" stroke-width="2" font-family="'ArialMT'" font-size="12">44</text>
	</g>
	<g transform="translate(900,2256.0576923076924)">
		<circle fill="#FFFFFF" stroke="#5254A3" stroke-width="3" cx="357.398" cy="-1209.058" r="12"/>
		
			<text transform="matrix(-4.371139e-08 -1 1 -4.371139e-08 369.3984 -1245.0581)" fill="#FFFFFF" font-family="'ArialMT'" font-size="12">79</text>
		
			<text transform="matrix(-4.371139e-08 -1 1 -4.371139e-08 369.3984 -1245.0581)" fill="none" stroke="#000000" stroke-width="2" font-family="'ArialMT'" font-size="12">79</text>
	</g>
	<g transform="translate(-12,216.46153846153848)">
		<rect x="-770.197" y="1718.538" fill="#FFFFFF" stroke="#000000" stroke-width="3" width="24" height="24"/>
		
			<text transform="matrix(-4.371139e-08 -1 1 -4.371139e-08 -758.1968 1706.5385)" fill="#FFFFFF" font-family="'ArialMT'" font-size="12">8</text>
		
			<text transform="matrix(-4.371139e-08 -1 1 -4.371139e-08 -758.1968 1706.5385)" fill="none" stroke="#000000" stroke-width="2" font-family="'ArialMT'" font-size="12">8</text>
	</g>
	<g transform="translate(-12,245.01923076923077)">
		<rect x="-741.64" y="1689.981" stroke="#000000" stroke-width="3" width="24" height="24"/>
		<text transform="matrix(-4.371139e-08 -1 1 -4.371139e-08 -729.6392 1677.9807)" font-family="'ArialMT'" font-size="12">9</text>
		
			<text transform="matrix(-4.371139e-08 -1 1 -4.371139e-08 -729.6392 1677.9807)" fill="none" stroke="#000000" stroke-width="2" font-family="'ArialMT'" font-size="12">9</text>
	</g>
	<g transform="translate(-12,559.1538461538462)">
		<rect x="-427.504" y="1375.846" fill="#FFFFFF" stroke="#000000" stroke-width="3" width="24" height="24"/>
		
			<text transform="matrix(-4.371139e-08 -1 1 -4.371139e-08 -415.5044 1363.8462)" fill="#FFFFFF" font-family="'ArialMT'" font-size="12">20</text>
		
			<text transform="matrix(-4.371139e-08 -1 1 -4.371139e-08 -415.5044 1363.8462)" fill="none" stroke="#000000" stroke-width="2" font-family="'ArialMT'" font-size="12">20</text>
	</g>
	<g transform="translate(-12,587.7115384615385)">
		<rect x="-398.947" y="1347.288" fill="#FFFFFF" stroke="#000000" stroke-width="3" width="24" height="24"/>
		
			<text transform="matrix(-4.371139e-08 -1 1 -4.371139e-08 -386.9468 1335.2885)" fill="#FFFFFF" font-family="'ArialMT'" font-size="12">21</text>
		
			<text transform="matrix(-4.371139e-08 -1 1 -4.371139e-08 -386.9468 1335.2885)" fill="none" stroke="#000000" stroke-width="2" font-family="'ArialMT'" font-size="12">21</text>
	</g>
	<g transform="translate(-12,816.1730769230769)">
		<rect x="-170.486" y="1118.827" fill="#FFFFFF" stroke="#000000" stroke-width="3" width="24" height="24"/>
		
			<text transform="matrix(-4.371139e-08 -1 1 -4.371139e-08 -158.4858 1106.8269)" fill="#FFFFFF" font-family="'ArialMT'" font-size="12">29</text>
		
			<text transform="matrix(-4.371139e-08 -1 1 -4.371139e-08 -158.4858 1106.8269)" fill="none" stroke="#000000" stroke-width="2" font-family="'ArialMT'" font-size="12">29</text>
	</g>
	<g transform="translate(-12,616.2692307692307)">
		<rect x="-370.389" y="1318.731" stroke="#000000" stroke-width="3" width="24" height="24"/>
		<text transform="matrix(-4.371139e-08 -1 1 -4.371139e-08 -358.3892 1306.7307)" font-family="'ArialMT'" font-size="12">22</text>
		
			<text transform="matrix(-4.371139e-08 -1 1 -4.371139e-08 -358.3892 1306.7307)" fill="none" stroke="#000000" stroke-width="2" font-family="'ArialMT'" font-size="12">22</text>
	</g>
	<g transform="translate(-12,844.7307692307692)">
		<rect x="-141.928" y="1090.269" stroke="#000000" stroke-width="3" width="24" height="24"/>
		<text transform="matrix(-4.371139e-08 -1 1 -4.371139e-08 -129.9282 1078.2693)" font-family="'ArialMT'" font-size="12">30</text>
		
			<text transform="matrix(-4.371139e-08 -1 1 -4.371139e-08 -129.9282 1078.2693)" fill="none" stroke="#000000" stroke-width="2" font-family="'ArialMT'" font-size="12">30</text>
	</g>
	<g transform="translate(-12,1358.769230769231)">
		<rect x="372.111" y="576.231" stroke="#000000" stroke-width="3" width="24" height="24"/>
		<text transform="matrix(-4.371139e-08 -1 1 -4.371139e-08 384.1108 564.2307)" font-family="'ArialMT'" font-size="12">48</text>
		
			<text transform="matrix(-4.371139e-08 -1 1 -4.371139e-08 384.1108 564.2307)" fill="none" stroke="#000000" stroke-width="2" font-family="'ArialMT'" font-size="12">48</text>
	</g>
	<g transform="translate(-12,1701.4615384615383)">
		<rect x="714.803" y="233.538" fill="#FFFFFF" stroke="#000000" stroke-width="3" width="24" height="24"/>
		
			<text transform="matrix(-4.371139e-08 -1 1 -4.371139e-08 726.8027 221.5385)" fill="#FFFFFF" font-family="'ArialMT'" font-size="12">60</text>
		
			<text transform="matrix(-4.371139e-08 -1 1 -4.371139e-08 726.8027 221.5385)" fill="none" stroke="#000000" stroke-width="2" font-family="'ArialMT'" font-size="12">60</text>
	</g>
	<g transform="translate(-12,1073.1923076923076)">
		<rect x="86.534" y="861.808" stroke="#000000" stroke-width="3" width="24" height="24"/>
		<text transform="matrix(-4.371139e-08 -1 1 -4.371139e-08 98.5337 849.8077)" font-family="'ArialMT'" font-size="12">38</text>
		
			<text transform="matrix(-4.371139e-08 -1 1 -4.371139e-08 98.5337 849.8077)" fill="none" stroke="#000000" stroke-width="2" font-family="'ArialMT'" font-size="12">38</text>
	</g>
	<g transform="translate(-12,1387.326923076923)">
		<rect x="400.668" y="547.673" fill="#FFFFFF" stroke="#000000" stroke-width="3" width="24" height="24"/>
		
			<text transform="matrix(-4.371139e-08 -1 1 -4.371139e-08 412.6685 535.6731)" fill="#FFFFFF" font-family="'ArialMT'" font-size="12">49</text>
		
			<text transform="matrix(-4.371139e-08 -1 1 -4.371139e-08 412.6685 535.6731)" fill="none" stroke="#000000" stroke-width="2" font-family="'ArialMT'" font-size="12">49</text>
	</g>
	<g transform="translate(-12,302.13461538461536)">
		<rect x="-684.524" y="1632.865" fill="#FFFFFF" stroke="#000000" stroke-width="3" width="24" height="24"/>
		
			<text transform="matrix(-4.371139e-08 -1 1 -4.371139e-08 -672.5239 1620.8654)" fill="#FFFFFF" font-family="'ArialMT'" font-size="12">11</text>
		
			<text transform="matrix(-4.371139e-08 -1 1 -4.371139e-08 -672.5239 1620.8654)" fill="none" stroke="#000000" stroke-width="2" font-family="'ArialMT'" font-size="12">11</text>
	</g>
	<g transform="translate(-12,1730.019230769231)">
		<rect x="743.361" y="204.981" stroke="#000000" stroke-width="3" width="24" height="24"/>
		<text transform="matrix(-4.371139e-08 -1 1 -4.371139e-08 755.3613 192.9807)" font-family="'ArialMT'" font-size="12">61</text>
		
			<text transform="matrix(-4.371139e-08 -1 1 -4.371139e-08 755.3613 192.9807)" fill="none" stroke="#000000" stroke-width="2" font-family="'ArialMT'" font-size="12">61</text>
	</g>
	<g transform="translate(-12,1415.8846153846155)">
		<rect x="429.226" y="519.115" fill="#FFFFFF" stroke="#000000" stroke-width="3" width="24" height="24"/>
		
			<text transform="matrix(-4.371139e-08 -1 1 -4.371139e-08 441.2261 507.1154)" fill="#FFFFFF" font-family="'ArialMT'" font-size="12">50</text>
		
			<text transform="matrix(-4.371139e-08 -1 1 -4.371139e-08 441.2261 507.1154)" fill="none" stroke="#000000" stroke-width="2" font-family="'ArialMT'" font-size="12">50</text>
	</g>
	<g transform="translate(-12,73.67307692307693)">
		<rect x="-912.986" y="1861.327" stroke="#000000" stroke-width="3" width="24" height="24"/>
		<text transform="matrix(-4.371139e-08 -1 1 -4.371139e-08 -900.9858 1849.3269)" font-family="'ArialMT'" font-size="12">3</text>
		
			<text transform="matrix(-4.371139e-08 -1 1 -4.371139e-08 -900.9858 1849.3269)" fill="none" stroke="#000000" stroke-width="2" font-family="'ArialMT'" font-size="12">3</text>
	</g>
	<g transform="translate(-12,1787.1346153846152)">
		<rect x="800.477" y="147.865" fill="#FFFFFF" stroke="#000000" stroke-width="3" width="24" height="24"/>
		
			<text transform="matrix(-4.371139e-08 -1 1 -4.371139e-08 812.4766 135.8654)" fill="#FFFFFF" font-family="'ArialMT'" font-size="12">63</text>
		
			<text transform="matrix(-4.371139e-08 -1 1 -4.371139e-08 812.4766 135.8654)" fill="none" stroke="#000000" stroke-width="2" font-family="'ArialMT'" font-size="12">63</text>
	</g>
	<g transform="translate(63,2558.1923076923076)">
		<rect x="1496.533" y="-698.192" fill="#FFFFFF" stroke="#000000" stroke-width="3" width="24" height="24"/>
		
			<text transform="matrix(-4.371139e-08 -1 1 -4.371139e-08 1508.5332 -710.1924)" fill="#FFFFFF" font-family="'ArialMT'" font-size="12">90</text>
		
			<text transform="matrix(-4.371139e-08 -1 1 -4.371139e-08 1508.5332 -710.1924)" fill="none" stroke="#000000" stroke-width="2" font-family="'ArialMT'" font-size="12">90</text>
	</g>
	<g transform="translate(63,2586.75)">
		<rect x="1525.092" y="-726.75" stroke="#000000" stroke-width="3" width="24" height="24"/>
		<text transform="matrix(-4.371139e-08 -1 1 -4.371139e-08 1537.0918 -738.75)" font-family="'ArialMT'" font-size="12">91</text>
		
			<text transform="matrix(-4.371139e-08 -1 1 -4.371139e-08 1537.0918 -738.75)" fill="none" stroke="#000000" stroke-width="2" font-family="'ArialMT'" font-size="12">91</text>
	</g>
	<g transform="translate(138,2472.519230769231)">
		<rect x="1335.861" y="-687.519" fill="#FFFFFF" stroke="#B5CF6B" stroke-width="3" width="24" height="24"/>
		
			<text transform="matrix(-4.371139e-08 -1 1 -4.371139e-08 1347.8613 -699.5193)" fill="#FFFFFF" font-family="'ArialMT'" font-size="12">87</text>
		
			<text transform="matrix(-4.371139e-08 -1 1 -4.371139e-08 1347.8613 -699.5193)" fill="none" stroke="#000000" stroke-width="2" font-family="'ArialMT'" font-size="12">87</text>
	</g>
	<g transform="translate(138,787.6153846153845)">
		<rect x="-349.043" y="997.385" fill="#FFFFFF" stroke="#637939" stroke-width="3" width="24" height="24"/>
		
			<text transform="matrix(-4.371139e-08 -1 1 -4.371139e-08 -337.0435 985.3846)" fill="#FFFFFF" font-family="'ArialMT'" font-size="12">28</text>
		
			<text transform="matrix(-4.371139e-08 -1 1 -4.371139e-08 -337.0435 985.3846)" fill="none" stroke="#000000" stroke-width="2" font-family="'ArialMT'" font-size="12">28</text>
	</g>
	<g transform="translate(138,530.5961538461538)">
		<rect x="-606.063" y="1254.404" fill="#FFFFFF" stroke="#000000" stroke-width="3" width="24" height="24"/>
		
			<text transform="matrix(-4.371139e-08 -1 1 -4.371139e-08 -594.063 1242.4038)" fill="#FFFFFF" font-family="'ArialMT'" font-size="12">19</text>
		
			<text transform="matrix(-4.371139e-08 -1 1 -4.371139e-08 -594.063 1242.4038)" fill="none" stroke="#000000" stroke-width="2" font-family="'ArialMT'" font-size="12">19</text>
	</g>
	<g transform="translate(138,2301.173076923077)">
		<rect x="1164.514" y="-516.173" fill="#FFFFFF" stroke="#CE6DBD" stroke-width="3" width="24" height="24"/>
		
			<text transform="matrix(-4.371139e-08 -1 1 -4.371139e-08 1176.5137 -528.1731)" fill="#FFFFFF" font-family="'ArialMT'" font-size="12">81</text>
		
			<text transform="matrix(-4.371139e-08 -1 1 -4.371139e-08 1176.5137 -528.1731)" fill="none" stroke="#000000" stroke-width="2" font-family="'ArialMT'" font-size="12">81</text>
	</g>
	<g transform="translate(138,530.5961538461538)">
		<rect x="-606.063" y="1254.404" stroke="#5254A3" stroke-width="3" width="24" height="24"/>
		<text transform="matrix(-4.371139e-08 -1 1 -4.371139e-08 -594.063 1242.4038)" font-family="'ArialMT'" font-size="12">19</text>
		
			<text transform="matrix(-4.371139e-08 -1 1 -4.371139e-08 -594.063 1242.4038)" fill="none" stroke="#000000" stroke-width="2" font-family="'ArialMT'" font-size="12">19</text>
	</g>
	<g transform="translate(138,1958.480769230769)">
		<rect x="821.822" y="-173.481" fill="#FFFFFF" stroke="#7B4173" stroke-width="3" width="24" height="24"/>
		
			<text transform="matrix(-4.371139e-08 -1 1 -4.371139e-08 833.8223 -185.4807)" fill="#FFFFFF" font-family="'ArialMT'" font-size="12">69</text>
		
			<text transform="matrix(-4.371139e-08 -1 1 -4.371139e-08 833.8223 -185.4807)" fill="none" stroke="#000000" stroke-width="2" font-family="'ArialMT'" font-size="12">69</text>
	</g>
	<g transform="translate(138,1330.2115384615386)">
		<rect x="193.553" y="454.788" fill="#FFFFFF" stroke="#BD9E39" stroke-width="3" width="24" height="24"/>
		
			<text transform="matrix(-4.371139e-08 -1 1 -4.371139e-08 205.5527 442.7885)" fill="#FFFFFF" font-family="'ArialMT'" font-size="12">47</text>
		
			<text transform="matrix(-4.371139e-08 -1 1 -4.371139e-08 205.5527 442.7885)" fill="none" stroke="#000000" stroke-width="2" font-family="'ArialMT'" font-size="12">47</text>
	</g>
	<g transform="translate(138,1016.0769230769231)">
		<rect x="-120.582" y="768.923" fill="#FFFFFF" stroke="#B5CF6B" stroke-width="3" width="24" height="24"/>
		
			<text transform="matrix(-4.371139e-08 -1 1 -4.371139e-08 -108.5815 756.9231)" fill="#FFFFFF" font-family="'ArialMT'" font-size="12">36</text>
		
			<text transform="matrix(-4.371139e-08 -1 1 -4.371139e-08 -108.5815 756.9231)" fill="none" stroke="#000000" stroke-width="2" font-family="'ArialMT'" font-size="12">36</text>
	</g>
	<g transform="translate(138,130.78846153846155)">
		<rect x="-1005.87" y="1654.212" fill="#FFFFFF" stroke="#393B79" stroke-width="3" width="24" height="24"/>
		
			<text transform="matrix(-4.371139e-08 -1 1 -4.371139e-08 -993.8706 1642.2115)" fill="#FFFFFF" font-family="'ArialMT'" font-size="12">5</text>
		
			<text transform="matrix(-4.371139e-08 -1 1 -4.371139e-08 -993.8706 1642.2115)" fill="none" stroke="#000000" stroke-width="2" font-family="'ArialMT'" font-size="12">5</text>
	</g>
	<g transform="translate(138,1501.5576923076922)">
		<rect x="364.898" y="283.442" fill="#FFFFFF" stroke="#E7BA52" stroke-width="3" width="24" height="24"/>
		
			<text transform="matrix(-4.371139e-08 -1 1 -4.371139e-08 376.8984 271.4423)" fill="#FFFFFF" font-family="'ArialMT'" font-size="12">53</text>
		
			<text transform="matrix(-4.371139e-08 -1 1 -4.371139e-08 376.8984 271.4423)" fill="none" stroke="#000000" stroke-width="2" font-family="'ArialMT'" font-size="12">53</text>
	</g>
	<g transform="translate(213,2672.423076923077)">
		<rect x="1460.764" y="-962.423" fill="#FFFFFF" stroke="#000000" stroke-width="3" width="24" height="24"/>
		
			<text transform="matrix(-4.371139e-08 -1 1 -4.371139e-08 1472.7637 -974.4231)" fill="#FFFFFF" font-family="'ArialMT'" font-size="12">94</text>
		
			<text transform="matrix(-4.371139e-08 -1 1 -4.371139e-08 1472.7637 -974.4231)" fill="none" stroke="#000000" stroke-width="2" font-family="'ArialMT'" font-size="12">94</text>
	</g>
	<g transform="translate(213,2072.711538461538)">
		<rect x="861.053" y="-362.711" fill="#FFFFFF" stroke="#8C6D31" stroke-width="3" width="24" height="24"/>
		
			<text transform="matrix(-4.371139e-08 -1 1 -4.371139e-08 873.0527 -374.7114)" fill="#FFFFFF" font-family="'ArialMT'" font-size="12">73</text>
		
			<text transform="matrix(-4.371139e-08 -1 1 -4.371139e-08 873.0527 -374.7114)" fill="none" stroke="#000000" stroke-width="2" font-family="'ArialMT'" font-size="12">73</text>
	</g>
	<g transform="translate(213,2758.096153846154)">
		<rect x="1546.438" y="-1048.096" stroke="#000000" stroke-width="3" width="24" height="24"/>
		<text transform="matrix(-4.371139e-08 -1 1 -4.371139e-08 1558.4375 -1060.0962)" font-family="'ArialMT'" font-size="12">97</text>
		
			<text transform="matrix(-4.371139e-08 -1 1 -4.371139e-08 1558.4375 -1060.0962)" fill="none" stroke="#000000" stroke-width="2" font-family="'ArialMT'" font-size="12">97</text>
	</g>
	<g transform="translate(213,2815.211538461538)">
		<rect x="1603.553" y="-1105.211" fill="#FFFFFF" stroke="#000000" stroke-width="3" width="24" height="24"/>
		
			<text transform="matrix(-4.371139e-08 -1 1 -4.371139e-08 1615.5527 -1117.2114)" fill="#FFFFFF" font-family="'ArialMT'" font-size="12">99</text>
		
			<text transform="matrix(-4.371139e-08 -1 1 -4.371139e-08 1615.5527 -1117.2114)" fill="none" stroke="#000000" stroke-width="2" font-family="'ArialMT'" font-size="12">99</text>
	</g>
	<g transform="translate(288,502.03846153846155)">
		<rect x="-784.621" y="1132.962" fill="#FFFFFF" stroke="#E7CB94" stroke-width="3" width="24" height="24"/>
		
			<text transform="matrix(-4.371139e-08 -1 1 -4.371139e-08 -772.6206 1120.9615)" fill="#FFFFFF" font-family="'ArialMT'" font-size="12">18</text>
		
			<text transform="matrix(-4.371139e-08 -1 1 -4.371139e-08 -772.6206 1120.9615)" fill="none" stroke="#000000" stroke-width="2" font-family="'ArialMT'" font-size="12">18</text>
	</g>
	<g transform="translate(288,2129.826923076923)">
		<rect x="843.168" y="-494.827" fill="#FFFFFF" stroke="#E7969C" stroke-width="3" width="24" height="24"/>
		
			<text transform="matrix(-4.371139e-08 -1 1 -4.371139e-08 855.168 -506.8269)" fill="#FFFFFF" font-family="'ArialMT'" font-size="12">75</text>
		
			<text transform="matrix(-4.371139e-08 -1 1 -4.371139e-08 855.168 -506.8269)" fill="none" stroke="#000000" stroke-width="2" font-family="'ArialMT'" font-size="12">75</text>
	</g>
	<g transform="translate(288,759.0576923076924)">
		<rect x="-527.601" y="875.942" fill="#FFFFFF" stroke="#7B4173" stroke-width="3" width="24" height="24"/>
		
			<text transform="matrix(-4.371139e-08 -1 1 -4.371139e-08 -515.6011 863.9424)" fill="#FFFFFF" font-family="'ArialMT'" font-size="12">27</text>
		
			<text transform="matrix(-4.371139e-08 -1 1 -4.371139e-08 -515.6011 863.9424)" fill="none" stroke="#000000" stroke-width="2" font-family="'ArialMT'" font-size="12">27</text>
	</g>
	<g transform="translate(288,1672.9038461538462)">
		<rect x="386.246" y="-37.904" fill="#FFFFFF" stroke="#DE9ED6" stroke-width="3" width="24" height="24"/>
		
			<text transform="matrix(-4.371139e-08 -1 1 -4.371139e-08 398.2451 -49.9038)" fill="#FFFFFF" font-family="'ArialMT'" font-size="12">59</text>
		
			<text transform="matrix(-4.371139e-08 -1 1 -4.371139e-08 398.2451 -49.9038)" fill="none" stroke="#000000" stroke-width="2" font-family="'ArialMT'" font-size="12">59</text>
	</g>
	<g transform="translate(288,187.90384615384613)">
		<rect x="-1098.755" y="1447.096" fill="#FFFFFF" stroke="#CE6DBD" stroke-width="3" width="24" height="24"/>
		
			<text transform="matrix(-4.371139e-08 -1 1 -4.371139e-08 -1086.7544 1435.0962)" fill="#FFFFFF" font-family="'ArialMT'" font-size="12">7</text>
		
			<text transform="matrix(-4.371139e-08 -1 1 -4.371139e-08 -1086.7544 1435.0962)" fill="none" stroke="#000000" stroke-width="2" font-family="'ArialMT'" font-size="12">7</text>
	</g>
	<g transform="translate(288,1158.8653846153845)">
		<rect x="-127.793" y="476.135" fill="#FFFFFF" stroke="#843C39" stroke-width="3" width="24" height="24"/>
		
			<text transform="matrix(-4.371139e-08 -1 1 -4.371139e-08 -115.7935 464.1346)" fill="#FFFFFF" font-family="'ArialMT'" font-size="12">41</text>
		
			<text transform="matrix(-4.371139e-08 -1 1 -4.371139e-08 -115.7935 464.1346)" fill="none" stroke="#000000" stroke-width="2" font-family="'ArialMT'" font-size="12">41</text>
	</g>
	<g transform="translate(288,2443.961538461538)">
		<rect x="1157.303" y="-808.961" fill="#FFFFFF" stroke="#D6616B" stroke-width="3" width="24" height="24"/>
		
			<text transform="matrix(-4.371139e-08 -1 1 -4.371139e-08 1169.3027 -820.9614)" fill="#FFFFFF" font-family="'ArialMT'" font-size="12">86</text>
		
			<text transform="matrix(-4.371139e-08 -1 1 -4.371139e-08 1169.3027 -820.9614)" fill="none" stroke="#000000" stroke-width="2" font-family="'ArialMT'" font-size="12">86</text>
	</g>
	<g transform="translate(363,1872.8076923076922)">
		<rect x="511.148" y="-312.808" fill="#FFFFFF" stroke="#393B79" stroke-width="3" width="24" height="24"/>
		
			<text transform="matrix(-4.371139e-08 -1 1 -4.371139e-08 523.1484 -324.8077)" fill="#FFFFFF" font-family="'ArialMT'" font-size="12">66</text>
		
			<text transform="matrix(-4.371139e-08 -1 1 -4.371139e-08 523.1484 -324.8077)" fill="none" stroke="#000000" stroke-width="2" font-family="'ArialMT'" font-size="12">66</text>
	</g>
	<g transform="translate(438,1301.6538461538462)">
		<rect x="-135.004" y="183.346" fill="#FFFFFF" stroke="#AD494A" stroke-width="3" width="24" height="24"/>
		
			<text transform="matrix(-4.371139e-08 -1 1 -4.371139e-08 -123.0049 171.3457)" fill="#FFFFFF" font-family="'ArialMT'" font-size="12">46</text>
		
			<text transform="matrix(-4.371139e-08 -1 1 -4.371139e-08 -123.0049 171.3457)" fill="none" stroke="#000000" stroke-width="2" font-family="'ArialMT'" font-size="12">46</text>
	</g>
	<g transform="translate(438,987.5192307692308)">
		<rect x="-449.139" y="497.481" fill="#FFFFFF" stroke="#AD494A" stroke-width="3" width="24" height="24"/>
		
			<text transform="matrix(-4.371139e-08 -1 1 -4.371139e-08 -437.1392 485.4803)" fill="#FFFFFF" font-family="'ArialMT'" font-size="12">35</text>
		
			<text transform="matrix(-4.371139e-08 -1 1 -4.371139e-08 -437.1392 485.4803)" fill="none" stroke="#000000" stroke-width="2" font-family="'ArialMT'" font-size="12">35</text>
	</g>
	<g transform="translate(438,1587.230769230769)">
		<rect x="150.572" y="-102.231" fill="#FFFFFF" stroke="#E7CB94" stroke-width="3" width="24" height="24"/>
		
			<text transform="matrix(-4.371139e-08 -1 1 -4.371139e-08 162.5723 -114.2312)" fill="#FFFFFF" font-family="'ArialMT'" font-size="12">56</text>
		
			<text transform="matrix(-4.371139e-08 -1 1 -4.371139e-08 162.5723 -114.2312)" fill="none" stroke="#000000" stroke-width="2" font-family="'ArialMT'" font-size="12">56</text>
	</g>
	<g transform="translate(438,416.3653846153846)">
		<rect x="-1020.293" y="1068.635" fill="#FFFFFF" stroke="#843C39" stroke-width="3" width="24" height="24"/>
		
			<text transform="matrix(-4.371139e-08 -1 1 -4.371139e-08 -1008.2935 1056.6342)" fill="#FFFFFF" font-family="'ArialMT'" font-size="12">15</text>
		
			<text transform="matrix(-4.371139e-08 -1 1 -4.371139e-08 -1008.2935 1056.6342)" fill="none" stroke="#000000" stroke-width="2" font-family="'ArialMT'" font-size="12">15</text>
	</g>
	<g transform="translate(438,2215.5)">
		<rect x="778.842" y="-730.5" fill="#FFFFFF" stroke="#8C6D31" stroke-width="3" width="24" height="24"/>
		
			<text transform="matrix(-4.371139e-08 -1 1 -4.371139e-08 790.8418 -742.5005)" fill="#FFFFFF" font-family="'ArialMT'" font-size="12">78</text>
		
			<text transform="matrix(-4.371139e-08 -1 1 -4.371139e-08 790.8418 -742.5005)" fill="none" stroke="#000000" stroke-width="2" font-family="'ArialMT'" font-size="12">78</text>
	</g>
	<g transform="translate(438,1929.923076923077)">
		<rect x="493.264" y="-444.923" fill="#FFFFFF" stroke="#A55194" stroke-width="3" width="24" height="24"/>
		
			<text transform="matrix(-4.371139e-08 -1 1 -4.371139e-08 505.2637 -456.9236)" fill="#FFFFFF" font-family="'ArialMT'" font-size="12">68</text>
		
			<text transform="matrix(-4.371139e-08 -1 1 -4.371139e-08 505.2637 -456.9236)" fill="none" stroke="#000000" stroke-width="2" font-family="'ArialMT'" font-size="12">68</text>
	</g>
	<g transform="translate(588,473.4807692307692)">
		<rect x="-1113.178" y="861.519" fill="#FFFFFF" stroke="#393B79" stroke-width="3" width="24" height="24"/>
		
			<text transform="matrix(-4.371139e-08 -1 1 -4.371139e-08 -1101.1782 849.5188)" fill="#FFFFFF" font-family="'ArialMT'" font-size="12">17</text>
		
			<text transform="matrix(-4.371139e-08 -1 1 -4.371139e-08 -1101.1782 849.5188)" fill="none" stroke="#000000" stroke-width="2" font-family="'ArialMT'" font-size="12">17</text>
	</g>
	<g transform="translate(588,958.9615384615385)">
		<rect x="-627.697" y="376.038" fill="#FFFFFF" stroke="#A55194" stroke-width="3" width="24" height="24"/>
		
			<text transform="matrix(-4.371139e-08 -1 1 -4.371139e-08 -615.6968 364.038)" fill="#FFFFFF" font-family="'ArialMT'" font-size="12">34</text>
		
			<text transform="matrix(-4.371139e-08 -1 1 -4.371139e-08 -615.6968 364.038)" fill="none" stroke="#000000" stroke-width="2" font-family="'ArialMT'" font-size="12">34</text>
	</g>
	<g transform="translate(588,1644.3461538461538)">
		<rect x="57.688" y="-309.346" fill="#FFFFFF" stroke="#DE9ED6" stroke-width="3" width="24" height="24"/>
		
			<text transform="matrix(-4.371139e-08 -1 1 -4.371139e-08 69.6875 -321.3467)" fill="#FFFFFF" font-family="'ArialMT'" font-size="12">58</text>
		
			<text transform="matrix(-4.371139e-08 -1 1 -4.371139e-08 69.6875 -321.3467)" fill="none" stroke="#000000" stroke-width="2" font-family="'ArialMT'" font-size="12">58</text>
	</g>
	<g transform="translate(738,1273.0961538461538)">
		<rect x="-463.563" y="-88.096" fill="#FFFFFF" stroke="#7B4173" stroke-width="3" width="24" height="24"/>
		
			<text transform="matrix(-4.371139e-08 -1 1 -4.371139e-08 -451.5625 -100.0967)" fill="#FFFFFF" font-family="'ArialMT'" font-size="12">45</text>
		
			<text transform="matrix(-4.371139e-08 -1 1 -4.371139e-08 -451.5625 -100.0967)" fill="none" stroke="#000000" stroke-width="2" font-family="'ArialMT'" font-size="12">45</text>
	</g>
	<g transform="translate(888,2272.6153846153848)">
		<rect x="385.957" y="-1237.615" fill="#FFFFFF" stroke="#5254A3" stroke-width="3" width="24" height="24"/>
		
			<text transform="matrix(-4.371139e-08 -1 1 -4.371139e-08 397.9561 -1249.616)" fill="#FFFFFF" font-family="'ArialMT'" font-size="12">80</text>
		
			<text transform="matrix(-4.371139e-08 -1 1 -4.371139e-08 397.9561 -1249.616)" fill="none" stroke="#000000" stroke-width="2" font-family="'ArialMT'" font-size="12">80</text>
	</g>
</g>
</svg>
