<svg width="1190" height="3010"><g transform="translate(20,20)"><rect width="120" height="24" x="0" y="27.272727272727273" style="stroke: black; fill: white; stroke-width: 2;"></rect><rect width="120" height="24" x="0" y="218.1818181818182" style="stroke: black; fill: white; stroke-width: 2;"></rect><rect width="120" height="24" x="0" y="245.45454545454547" style="stroke: red; fill: black; stroke-width: 2;"></rect><rect width="120" height="24" x="0" y="272.7272727272727" style="stroke: black; fill: white; stroke-width: 2;"></rect><rect width="120" height="24" x="0" y="545.4545454545454" style="stroke: black; fill: white; stroke-width: 2;"></rect><rect width="120" height="24" x="0" y="572.7272727272726" style="stroke: black; fill: white; stroke-width: 2;"></rect><rect width="120" height="24" x="0" y="790.9090909090909" style="stroke: black; fill: white; stroke-width: 2;"></rect><rect width="120" height="24" x="0" y="600" style="stroke: red; fill: black; stroke-width: 2;"></rect><rect width="120" height="24" x="0" y="818.1818181818182" style="stroke: red; fill: black; stroke-width: 2;"></rect><rect width="120" height="24" x="0" y="1009.090909090909" style="stroke: black; fill: white; stroke-width: 2;"></rect><rect width="120" height="24" x="0" y="1309.090909090909" style="stroke: red; fill: black; stroke-width: 2;"></rect><rect width="120" height="24" x="0" y="627.2727272727273" style="stroke: black; fill: white; stroke-width: 2;"></rect><rect width="120" height="24" x="0" y="654.5454545454545" style="stroke: black; fill: white; stroke-width: 2;"></rect><rect width="120" height="24" x="0" y="1636.3636363636365" style="stroke: black; fill: white; stroke-width: 2;"></rect><rect width="120" height="24" x="0" y="1036.3636363636363" style="stroke: red; fill: black; stroke-width: 2;"></rect><rect width="120" height="24" x="0" y="1336.3636363636363" style="stroke: black; fill: white; stroke-width: 2;"></rect><rect width="120" height="24" x="0" y="300" style="stroke: black; fill: white; stroke-width: 2;"></rect><rect width="120" height="24" x="0" y="1663.6363636363635" style="stroke: red; fill: black; stroke-width: 2;"></rect><rect width="120" height="24" x="0" y="1363.6363636363635" style="stroke: black; fill: white; stroke-width: 2;"></rect><rect width="120" height="24" x="0" y="1909.090909090909" style="stroke: black; fill: white; stroke-width: 2;"></rect><rect width="120" height="24" x="0" y="54.54545454545455" style="stroke: black; fill: white; stroke-width: 2;"></rect><rect width="120" height="24" x="0" y="1390.9090909090908" style="stroke: black; fill: white; stroke-width: 2;"></rect><rect width="120" height="24" x="0" y="81.81818181818181" style="stroke: red; fill: black; stroke-width: 2;"></rect><rect width="120" height="24" x="0" y="1690.9090909090908" style="stroke: black; fill: white; stroke-width: 2;"></rect><rect width="120" height="24" x="0" y="1718.181818181818" style="stroke: black; fill: white; stroke-width: 2;"></rect><rect width="120" height="24" x="0" y="1936.3636363636363" style="stroke: red; fill: black; stroke-width: 2;"></rect><rect width="120" height="24" x="0" y="1745.4545454545455" style="stroke: black; fill: white; stroke-width: 2;"></rect><rect width="120" height="24" x="0" y="2236.3636363636365" style="stroke: red; fill: black; stroke-width: 2;"></rect><rect width="120" height="24" x="0" y="2263.6363636363635" style="stroke: black; fill: white; stroke-width: 2;"></rect><rect width="120" height="24" x="0" y="2400" style="stroke: black; fill: white; stroke-width: 2;"></rect><rect width="120" height="24" x="0" y="2427.2727272727275" style="stroke: black; fill: white; stroke-width: 2;"></rect><rect width="120" height="24" x="0" y="2454.5454545454545" style="stroke: black; fill: white; stroke-width: 2;"></rect><rect width="120" height="24" x="0" y="2481.8181818181815" style="stroke: red; fill: black; stroke-width: 2;"></rect><rect width="120" height="24" x="0" y="327.27272727272725" style="stroke: black; fill: white; stroke-width: 2;"></rect><rect width="120" height="24" x="0" y="1418.181818181818" style="stroke: black; fill: white; stroke-width: 2;"></rect><rect width="120" height="24" x="0" y="2372.7272727272725" style="stroke: black; fill: white; stroke-width: 2;"></rect><rect width="120" height="24" x="0" y="763.6363636363635" style="stroke: black; fill: white; stroke-width: 2;"></rect><rect width="120" height="24" x="0" y="1063.6363636363635" style="stroke: black; fill: white; stroke-width: 2;"></rect><rect width="120" height="24" x="0" y="845.4545454545454" style="stroke: black; fill: white; stroke-width: 2;"></rect><rect width="120" height="24" x="0" y="2290.9090909090905" style="stroke: black; fill: white; stroke-width: 2;"></rect><rect width="120" height="24" x="0" y="518.1818181818181" style="stroke: black; fill: white; stroke-width: 2;"></rect><rect width="120" height="24" x="0" y="2209.090909090909" style="stroke: black; fill: white; stroke-width: 2;"></rect><rect width="120" height="24" x="0" y="1963.6363636363637" style="stroke: black; fill: white; stroke-width: 2;"></rect><rect width="120" height="24" x="0" y="518.1818181818181" style="stroke: red; fill: black; stroke-width: 2;"></rect><rect width="120" height="24" x="0" y="681.8181818181818" style="stroke: black; fill: white; stroke-width: 2;"></rect><rect width="120" height="24" x="0" y="1881.8181818181818" style="stroke: black; fill: white; stroke-width: 2;"></rect><rect width="120" height="24" x="0" y="1772.7272727272727" style="stroke: black; fill: white; stroke-width: 2;"></rect><rect width="120" height="24" x="0" y="1281.8181818181818" style="stroke: black; fill: white; stroke-width: 2;"></rect><rect width="120" height="24" x="0" y="109.0909090909091" style="stroke: black; fill: white; stroke-width: 2;"></rect><rect width="120" height="24" x="0" y="981.8181818181819" style="stroke: black; fill: white; stroke-width: 2;"></rect><rect width="120" height="24" x="0" y="136.36363636363635" style="stroke: black; fill: white; stroke-width: 2;"></rect><rect width="120" height="24" x="0" y="1445.4545454545455" style="stroke: black; fill: white; stroke-width: 2;"></rect><rect width="120" height="24" x="0" y="2563.6363636363635" style="stroke: black; fill: white; stroke-width: 2;"></rect><rect width="120" height="24" x="0" y="2590.909090909091" style="stroke: black; fill: white; stroke-width: 2;"></rect><rect width="120" height="24" x="0" y="2618.181818181818" style="stroke: black; fill: white; stroke-width: 2;"></rect><rect width="120" height="24" x="0" y="1990.9090909090908" style="stroke: black; fill: white; stroke-width: 2;"></rect><rect width="120" height="24" x="0" y="2509.090909090909" style="stroke: black; fill: white; stroke-width: 2;"></rect><rect width="120" height="24" x="0" y="2645.454545454545" style="stroke: red; fill: black; stroke-width: 2;"></rect><rect width="120" height="24" x="0" y="2672.7272727272725" style="stroke: black; fill: white; stroke-width: 2;"></rect><rect width="120" height="24" x="0" y="2700" style="stroke: black; fill: white; stroke-width: 2;"></rect><rect width="120" height="24" x="0" y="2727.272727272727" style="stroke: black; fill: white; stroke-width: 2;"></rect><rect width="120" height="24" x="0" y="490.90909090909093" style="stroke: black; fill: white; stroke-width: 2;"></rect><rect width="120" height="24" x="0" y="2045.4545454545453" style="stroke: black; fill: white; stroke-width: 2;"></rect><rect width="120" height="24" x="0" y="736.3636363636363" style="stroke: black; fill: white; stroke-width: 2;"></rect><rect width="120" height="24" x="0" y="709.090909090909" style="stroke: black; fill: white; stroke-width: 2;"></rect><rect width="120" height="24" x="0" y="1090.9090909090908" style="stroke: black; fill: white; stroke-width: 2;"></rect><rect width="120" height="24" x="0" y="163.63636363636363" style="stroke: black; fill: white; stroke-width: 2;"></rect><rect width="120" height="24" x="0" y="1472.7272727272725" style="stroke: black; fill: white; stroke-width: 2;"></rect><rect width="120" height="24" x="0" y="1609.090909090909" style="stroke: black; fill: white; stroke-width: 2;"></rect><rect width="120" height="24" x="0" y="354.5454545454545" style="stroke: black; fill: white; stroke-width: 2;"></rect><rect width="120" height="24" x="0" y="190.90909090909088" style="stroke: black; fill: white; stroke-width: 2;"></rect><rect width="120" height="24" x="0" y="1118.1818181818182" style="stroke: black; fill: white; stroke-width: 2;"></rect><rect width="120" height="24" x="0" y="2345.4545454545455" style="stroke: black; fill: white; stroke-width: 2;"></rect><rect width="120" height="24" x="0" y="2018.181818181818" style="stroke: black; fill: white; stroke-width: 2;"></rect><rect width="120" height="24" x="0" y="2072.7272727272725" style="stroke: black; fill: white; stroke-width: 2;"></rect><rect width="120" height="24" x="0" y="2754.545454545454" style="stroke: black; fill: white; stroke-width: 2;"></rect><rect width="120" height="24" x="0" y="1800" style="stroke: black; fill: white; stroke-width: 2;"></rect><rect width="120" height="24" x="0" y="1145.4545454545453" style="stroke: black; fill: white; stroke-width: 2;"></rect><rect width="120" height="24" x="0" y="872.7272727272727" style="stroke: black; fill: white; stroke-width: 2;"></rect><rect width="120" height="24" x="0" y="1254.5454545454545" style="stroke: black; fill: white; stroke-width: 2;"></rect><rect width="120" height="24" x="0" y="381.81818181818176" style="stroke: black; fill: white; stroke-width: 2;"></rect><rect width="120" height="24" x="0" y="1499.9999999999998" style="stroke: black; fill: white; stroke-width: 2;"></rect><rect width="120" height="24" x="0" y="954.5454545454545" style="stroke: black; fill: white; stroke-width: 2;"></rect><rect width="120" height="24" x="0" y="1172.7272727272727" style="stroke: black; fill: white; stroke-width: 2;"></rect><rect width="120" height="24" x="0" y="1527.272727272727" style="stroke: black; fill: white; stroke-width: 2;"></rect><rect width="120" height="24" x="0" y="409.0909090909091" style="stroke: black; fill: white; stroke-width: 2;"></rect><rect width="120" height="24" x="0" y="2127.272727272727" style="stroke: black; fill: white; stroke-width: 2;"></rect><rect width="120" height="24" x="0" y="1854.5454545454543" style="stroke: black; fill: white; stroke-width: 2;"></rect><rect width="120" height="24" x="0" y="2100" style="stroke: black; fill: white; stroke-width: 2;"></rect><rect width="120" height="24" x="0" y="436.3636363636364" style="stroke: black; fill: white; stroke-width: 2;"></rect><rect width="120" height="24" x="0" y="463.63636363636357" style="stroke: black; fill: white; stroke-width: 2;"></rect><rect width="120" height="24" x="0" y="927.2727272727271" style="stroke: black; fill: white; stroke-width: 2;"></rect><rect width="120" height="24" x="0" y="1554.5454545454545" style="stroke: black; fill: white; stroke-width: 2;"></rect><rect width="120" height="24" x="0" y="1581.8181818181818" style="stroke: black; fill: white; stroke-width: 2;"></rect><rect width="120" height="24" x="0" y="900" style="stroke: black; fill: white; stroke-width: 2;"></rect><rect width="120" height="24" x="0" y="1200" style="stroke: black; fill: white; stroke-width: 2;"></rect><rect width="120" height="24" x="0" y="1227.2727272727273" style="stroke: black; fill: white; stroke-width: 2;"></rect><rect width="120" height="24" x="0" y="2154.5454545454545" style="stroke: black; fill: white; stroke-width: 2;"></rect><rect width="120" height="24" x="0" y="2181.8181818181815" style="stroke: black; fill: white; stroke-width: 2;"></rect></g><g transform="translate(170,32)"><path class="edges" d="M150,122.72727272727273L131.44329896907217,122.72727272727273C112.88659793814433,122.72727272727273,75.77319587628865,122.72727272727273,57.21649484536082,106.81818181818181C38.65979381443298,90.90909090909092,38.65979381443298,59.09090909090909,32.21649484536082,43.18181818181818C25.773195876288653,27.27272727272727,12.886597938144327,27.27272727272727,6.443298969072163,27.272727272727277L0,27.272727272727273" stroke-width="3" style="stroke: rgb(57, 59, 121); fill: none;"></path><path class="edges" d="M150,422.7272727272727L131.95876288659795,422.7272727272727C113.91752577319586,422.7272727272727,77.83505154639174,422.7272727272727,59.79381443298967,388.63636363636357C41.75257731958761,354.5454545454545,41.75257731958761,286.3636363636363,34.79381443298967,252.27272727272728C27.83505154639174,218.18181818181816,13.91752577319587,218.18181818181816,6.958762886597935,218.18181818181822L0,218.1818181818182" stroke-width="3" style="stroke: rgb(82, 84, 163); fill: none;"></path><path class="edges" d="M150,422.7272727272727L131.8298969072165,422.7272727272727C113.65979381443299,422.7272727272727,77.31958762886597,422.7272727272727,59.14948453608247,393.1818181818182C40.979381443298955,363.63636363636357,40.979381443298955,304.54545454545456,34.14948453608246,275C27.31958762886597,245.45454545454547,13.659793814432986,245.45454545454547,6.829896907216493,245.45454545454547L0,245.45454545454547" stroke-width="3" style="stroke: rgb(82, 84, 163); fill: none;"></path><path class="edges" d="M150,422.7272727272727L131.70103092783503,422.7272727272727C113.40206185567008,422.7272727272727,76.8041237113402,422.7272727272727,58.50515463917524,397.7272727272727C40.206185567010294,372.7272727272727,40.206185567010294,322.7272727272727,33.505154639175245,297.7272727272727C26.804123711340196,272.7272727272727,13.402061855670098,272.7272727272727,6.701030927835049,272.7272727272727L0,272.7272727272727" stroke-width="3" style="stroke: rgb(82, 84, 163); fill: none;"></path><path class="edges" d="M150,722.7272727272727L131.8298969072165,722.7272727272729C113.65979381443299,722.7272727272726,77.31958762886597,722.7272727272726,59.14948453608247,693.1818181818181C40.979381443298955,663.6363636363636,40.979381443298955,604.5454545454545,34.14948453608246,574.9999999999999C27.31958762886597,545.4545454545454,13.659793814432986,545.4545454545454,6.829896907216493,545.4545454545454L0,545.4545454545454" stroke-width="3" style="stroke: rgb(99, 121, 57); fill: none;"></path><path class="edges" d="M150,722.7272727272727L131.70103092783503,722.7272727272729C113.40206185567008,722.7272727272726,76.8041237113402,722.7272727272726,58.50515463917524,697.7272727272729C40.206185567010294,672.7272727272726,40.206185567010294,622.7272727272726,33.505154639175245,597.7272727272726C26.804123711340196,572.7272727272726,13.402061855670098,572.7272727272726,6.701030927835049,572.7272727272726L0,572.7272727272726" stroke-width="3" style="stroke: rgb(99, 121, 57); fill: none;"></path><path class="edges" d="M150,913.6363636363635L131.5721649484536,913.6363636363636C113.14432989690721,913.6363636363635,76.28865979381443,913.6363636363635,57.86082474226803,893.1818181818181C39.43298969072164,872.7272727272726,39.43298969072164,831.8181818181816,32.86082474226803,811.3636363636364C26.28865979381443,790.9090909090909,13.144329896907214,790.9090909090909,6.572164948453607,790.9090909090909L0,790.9090909090909" stroke-width="3" style="stroke: rgb(181, 207, 107); fill: none;"></path><path class="edges" d="M150,722.7272727272727L131.5721649484536,722.7272727272729C113.14432989690721,722.7272727272726,76.28865979381443,722.7272727272726,57.86082474226803,702.2727272727274C39.43298969072164,681.8181818181819,39.43298969072164,640.9090909090909,32.86082474226803,620.4545454545455C26.28865979381443,600,13.144329896907214,600,6.572164948453607,600L0,600" stroke-width="3" style="stroke: rgb(99, 121, 57); fill: none;"></path><path class="edges" d="M150,913.6363636363635L131.44329896907217,913.6363636363636C112.88659793814433,913.6363636363635,75.77319587628865,913.6363636363635,57.21649484536082,897.7272727272726C38.65979381443298,881.8181818181816,38.65979381443298,850,32.21649484536082,834.090909090909C25.773195876288653,818.1818181818184,12.886597938144327,818.1818181818184,6.443298969072163,818.1818181818181L0,818.1818181818182" stroke-width="3" style="stroke: rgb(181, 207, 107); fill: none;"></path><path class="edges" d="M150,1172.7272727272727L131.76546391752578,1172.7272727272727C113.53092783505154,1172.7272727272727,77.06185567010309,1172.7272727272727,58.82731958762886,1145.4545454545455C40.59278350515463,1118.1818181818182,40.59278350515463,1063.6363636363637,33.82731958762886,1036.3636363636363C27.061855670103085,1009.090909090909,13.530927835051543,1009.090909090909,6.765463917525771,1009.090909090909L0,1009.090909090909" stroke-width="3" style="stroke: rgb(189, 158, 57); fill: none;"></path><path class="edges" d="M150,1431.8181818181818L131.5721649484536,1431.8181818181818C113.14432989690721,1431.8181818181818,76.28865979381443,1431.8181818181818,57.86082474226803,1411.3636363636363C39.43298969072164,1390.9090909090908,39.43298969072164,1350,32.86082474226803,1329.5454545454545C26.28865979381443,1309.090909090909,13.144329896907214,1309.090909090909,6.572164948453607,1309.090909090909L0,1309.090909090909" stroke-width="3" style="stroke: rgb(231, 186, 82); fill: none;"></path><path class="edges" d="M150,722.7272727272727L131.44329896907217,722.7272727272729C112.88659793814433,722.7272727272726,75.77319587628865,722.7272727272726,57.21649484536082,706.8181818181819C38.65979381443298,690.909090909091,38.65979381443298,659.0909090909091,32.21649484536082,643.1818181818181C25.773195876288653,627.2727272727273,12.886597938144327,627.2727272727273,6.443298969072163,627.2727272727271L0,627.2727272727273" stroke-width="3" style="stroke: rgb(99, 121, 57); fill: none;"></path><path class="edges" d="M150,722.7272727272727L131.31443298969072,722.7272727272729C112.62886597938144,722.7272727272726,75.25773195876288,722.7272727272726,56.572164948453604,711.3636363636364C37.88659793814433,700,37.88659793814433,677.2727272727273,31.572164948453604,665.9090909090909C25.257731958762886,654.5454545454545,12.628865979381443,654.5454545454545,6.314432989690721,654.5454545454545L0,654.5454545454545" stroke-width="3" style="stroke: rgb(99, 121, 57); fill: none;"></path><path class="edges" d="M150,1172.7272727272727L131.63659793814432,1172.7272727272727C113.27319587628865,1172.7272727272727,76.54639175257732,1172.7272727272727,58.18298969072165,1150C39.81958762886597,1127.2727272727273,39.81958762886597,1081.8181818181818,33.18298969072164,1059.090909090909C26.54639175257731,1036.3636363636363,13.273195876288655,1036.3636363636363,6.636597938144328,1036.3636363636363L0,1036.3636363636363" stroke-width="3" style="stroke: rgb(189, 158, 57); fill: none;"></path><path class="edges" d="M150,1431.8181818181818L131.44329896907217,1431.8181818181818C112.88659793814433,1431.8181818181818,75.77319587628865,1431.8181818181818,57.21649484536082,1415.909090909091C38.65979381443298,1400,38.65979381443298,1368.181818181818,32.21649484536082,1352.2727272727273C25.773195876288653,1336.3636363636363,12.886597938144327,1336.3636363636363,6.443298969072163,1336.3636363636363L0,1336.3636363636363" stroke-width="3" style="stroke: rgb(231, 186, 82); fill: none;"></path><path class="edges" d="M150,422.7272727272727L131.5721649484536,422.7272727272727C113.14432989690721,422.7272727272727,76.28865979381443,422.7272727272727,57.86082474226803,402.27272727272725C39.43298969072164,381.8181818181818,39.43298969072164,340.90909090909093,32.86082474226803,320.45454545454544C26.28865979381443,300,13.144329896907214,300,6.572164948453607,300L0,300" stroke-width="3" style="stroke: rgb(82, 84, 163); fill: none;"></path><path class="edges" d="M150,1827.272727272727L131.76546391752578,1827.2727272727273C113.53092783505154,1827.272727272727,77.06185567010309,1827.272727272727,58.82731958762886,1800C40.59278350515463,1772.7272727272727,40.59278350515463,1718.181818181818,33.82731958762886,1690.9090909090908C27.061855670103085,1663.6363636363633,13.530927835051543,1663.6363636363633,6.765463917525771,1663.6363636363637L0,1663.6363636363635" stroke-width="3" style="stroke: rgb(123, 65, 115); fill: none;"></path><path class="edges" d="M150,1431.8181818181818L131.31443298969072,1431.8181818181818C112.62886597938144,1431.8181818181818,75.25773195876288,1431.8181818181818,56.572164948453604,1420.4545454545453C37.88659793814433,1409.090909090909,37.88659793814433,1386.3636363636363,31.572164948453604,1375C25.257731958762886,1363.6363636363635,12.628865979381443,1363.6363636363635,6.314432989690721,1363.6363636363637L0,1363.6363636363635" stroke-width="3" style="stroke: rgb(231, 186, 82); fill: none;"></path><path class="edges" d="M150,2086.3636363636365L131.8298969072165,2086.3636363636365C113.65979381443299,2086.3636363636365,77.31958762886597,2086.3636363636365,59.14948453608247,2056.818181818182C40.979381443298955,2027.2727272727273,40.979381443298955,1968.181818181818,34.14948453608246,1938.6363636363633C27.31958762886597,1909.090909090909,13.659793814432986,1909.090909090909,6.829896907216493,1909.0909090909088L0,1909.090909090909" stroke-width="3" style="stroke: rgb(206, 109, 189); fill: none;"></path><path class="edges" d="M150,122.72727272727273L131.31443298969072,122.72727272727273C112.62886597938144,122.72727272727273,75.25773195876288,122.72727272727273,56.572164948453604,111.36363636363636C37.88659793814433,100,37.88659793814433,77.27272727272727,31.572164948453604,65.90909090909092C25.257731958762886,54.54545454545454,12.628865979381443,54.54545454545454,6.314432989690721,54.545454545454554L0,54.54545454545455" stroke-width="3" style="stroke: rgb(57, 59, 121); fill: none;"></path><path class="edges" d="M150,1431.8181818181818L131.18556701030928,1431.8181818181818C112.37113402061856,1431.8181818181818,74.74226804123711,1431.8181818181818,55.92783505154639,1425C37.113402061855666,1418.181818181818,37.113402061855666,1404.5454545454543,30.927835051546385,1397.7272727272727C24.74226804123711,1390.9090909090908,12.371134020618555,1390.9090909090908,6.185567010309278,1390.9090909090908L0,1390.9090909090908" stroke-width="3" style="stroke: rgb(231, 186, 82); fill: none;"></path><path class="edges" d="M150,122.72727272727273L131.18556701030928,122.72727272727273C112.37113402061856,122.72727272727273,74.74226804123711,122.72727272727273,55.92783505154639,115.90909090909092C37.113402061855666,109.09090909090908,37.113402061855666,95.45454545454545,30.927835051546385,88.63636363636363C24.74226804123711,81.81818181818181,12.371134020618555,81.81818181818181,6.185567010309278,81.81818181818181L0,81.81818181818181" stroke-width="3" style="stroke: rgb(57, 59, 121); fill: none;"></path><path class="edges" d="M150,1827.272727272727L131.63659793814432,1827.2727272727273C113.27319587628865,1827.272727272727,76.54639175257732,1827.272727272727,58.18298969072165,1804.5454545454543C39.81958762886597,1781.8181818181818,39.81958762886597,1736.363636363636,33.18298969072164,1713.6363636363633C26.54639175257731,1690.9090909090908,13.273195876288655,1690.9090909090908,6.636597938144328,1690.9090909090908L0,1690.9090909090908" stroke-width="3" style="stroke: rgb(123, 65, 115); fill: none;"></path><path class="edges" d="M150,1827.272727272727L131.5077319587629,1827.2727272727273C113.01546391752578,1827.272727272727,76.03092783505154,1827.272727272727,57.538659793814425,1809.090909090909C39.046391752577314,1790.9090909090908,39.046391752577314,1754.5454545454543,32.538659793814425,1736.3636363636363C26.030927835051543,1718.181818181818,13.015463917525771,1718.181818181818,6.507731958762886,1718.181818181818L0,1718.181818181818" stroke-width="3" style="stroke: rgb(123, 65, 115); fill: none;"></path><path class="edges" d="M150,2086.3636363636365L131.70103092783503,2086.3636363636365C113.40206185567008,2086.3636363636365,76.8041237113402,2086.3636363636365,58.50515463917524,2061.3636363636365C40.206185567010294,2036.3636363636363,40.206185567010294,1986.3636363636363,33.505154639175245,1961.3636363636363C26.804123711340196,1936.3636363636363,13.402061855670098,1936.3636363636363,6.701030927835049,1936.3636363636363L0,1936.3636363636363" stroke-width="3" style="stroke: rgb(206, 109, 189); fill: none;"></path><path class="edges" d="M150,1827.272727272727L131.37886597938146,1827.2727272727273C112.75773195876288,1827.272727272727,75.51546391752576,1827.272727272727,56.89432989690721,1813.6363636363637C38.27319587628865,1800,38.27319587628865,1772.7272727272727,31.89432989690721,1759.090909090909C25.515463917525768,1745.4545454545453,12.757731958762884,1745.4545454545453,6.378865979381442,1745.4545454545457L0,1745.4545454545455" stroke-width="3" style="stroke: rgb(123, 65, 115); fill: none;"></path><path class="edges" d="M150,2331.8181818181815L131.44329896907217,2331.8181818181815C112.88659793814433,2331.8181818181815,75.77319587628865,2331.8181818181815,57.21649484536082,2315.9090909090905C38.65979381443298,2300,38.65979381443298,2268.181818181818,32.21649484536082,2252.2727272727275C25.773195876288653,2236.3636363636365,12.886597938144327,2236.3636363636365,6.443298969072163,2236.3636363636365L0,2236.3636363636365" stroke-width="3" style="stroke: rgb(181, 207, 107); fill: none;"></path><path class="edges" d="M150,2331.8181818181815L131.31443298969072,2331.8181818181815C112.62886597938144,2331.8181818181815,75.25773195876288,2331.8181818181815,56.572164948453604,2320.4545454545455C37.88659793814433,2309.0909090909086,37.88659793814433,2286.363636363636,31.572164948453604,2275C25.257731958762886,2263.6363636363635,12.628865979381443,2263.6363636363635,6.314432989690721,2263.6363636363635L0,2263.6363636363635" stroke-width="3" style="stroke: rgb(181, 207, 107); fill: none;"></path><path class="edges" d="M225,2250L205.15463917525776,2250C185.30927835051546,2250,145.61855670103094,2250,125.77319587628868,2279.5454545454545C105.92783505154641,2309.0909090909095,105.92783505154641,2368.1818181818185,100.77319587628868,2397.727272727273C95.61855670103095,2427.2727272727275,85.30927835051547,2427.2727272727275,80.15463917525774,2427.2727272727275L75,2427.2727272727275" stroke-width="3" style="stroke: rgb(140, 109, 49); fill: none;"></path><path class="edges" d="M225,2250L205.02577319587627,2250C185.05154639175257,2250,145.10309278350516,2250,125.12886597938143,2284.090909090909C105.15463917525771,2318.181818181818,105.15463917525771,2386.3636363636365,100.12886597938143,2420.4545454545455C95.10309278350515,2454.5454545454545,85.05154639175258,2454.5454545454545,80.02577319587628,2454.5454545454545L75,2454.5454545454545" stroke-width="3" style="stroke: rgb(140, 109, 49); fill: none;"></path><path class="edges" d="M225,2250L204.89690721649484,2250C184.7938144329897,2250,144.58762886597938,2250,124.48453608247422,2288.6363636363635C104.38144329896905,2327.2727272727275,104.38144329896905,2404.5454545454545,99.48453608247422,2443.181818181818C94.58762886597937,2481.8181818181815,84.79381443298969,2481.8181818181815,79.89690721649485,2481.8181818181815L75,2481.8181818181815" stroke-width="3" style="stroke: rgb(140, 109, 49); fill: none;"></path><path class="edges" d="M300,422.7272727272727L280.9922680412371,422.7272727272727C261.9845360824742,422.7272727272727,223.96907216494847,422.7272727272727,204.96134020618558,422.7272727272727C185.9536082474227,422.7272727272727,185.9536082474227,422.7272727272727,179.96134020618558,422.7272727272727C173.96907216494847,422.7272727272727,161.98453608247425,422.7272727272727,155.9922680412371,422.7272727272727L150,422.7272727272727" stroke-width="3" style="stroke: rgb(231, 203, 148); fill: none;"></path><path class="edges" d="M300,1104.5454545454545L280.6701030927835,1104.5454545454543C261.340206185567,1104.5454545454545,222.68041237113403,1104.5454545454545,203.35051546391753,1115.9090909090908C184.02061855670104,1127.2727272727273,184.02061855670104,1150,178.35051546391753,1161.3636363636365C172.68041237113403,1172.7272727272727,161.340206185567,1172.7272727272727,155.6701030927835,1172.7272727272727L150,1172.7272727272727" stroke-width="3" style="stroke: rgb(132, 60, 57); fill: none;"></path><path class="edges" d="M450,913.6363636363635L411.9845360824742,913.6363636363636C373.9690721649485,913.6363636363635,297.93814432989694,913.6363636363635,259.92268041237116,913.6363636363636C221.90721649484536,913.6363636363635,221.90721649484536,913.6363636363635,209.92268041237116,913.6363636363636C197.93814432989691,913.6363636363635,173.96907216494847,913.6363636363635,161.98453608247425,913.6363636363636L150,913.6363636363635" stroke-width="3" style="stroke: rgb(173, 73, 74); fill: none;"></path><path class="edges" d="M300,2209.090909090909L280.4123711340206,2209.0909090909086C260.82474226804123,2209.090909090909,221.6494845360825,2209.090909090909,202.0618556701031,2229.5454545454545C182.47422680412373,2250,182.47422680412373,2290.9090909090905,177.0618556701031,2311.3636363636365C171.6494845360825,2331.8181818181815,160.82474226804126,2331.8181818181815,155.41237113402062,2331.8181818181815L150,2331.8181818181815" stroke-width="3" style="stroke: rgb(214, 97, 107); fill: none;"></path><path class="edges" d="M300,2031.8181818181818L280.7345360824742,2031.8181818181818C261.4690721649485,2031.8181818181818,222.93814432989691,2031.8181818181818,203.67268041237116,2040.9090909090908C184.40721649484536,2050,184.40721649484536,2068.1818181818185,178.67268041237116,2077.2727272727275C172.93814432989691,2086.3636363636365,161.46907216494847,2086.3636363636365,155.73453608247425,2086.3636363636365L150,2086.3636363636365" stroke-width="3" style="stroke: rgb(231, 150, 156); fill: none;"></path><path class="edges" d="M300,722.7272727272727L280.9922680412371,722.7272727272729C261.9845360824742,722.7272727272726,223.96907216494847,722.7272727272726,204.96134020618558,722.7272727272729C185.9536082474227,722.7272727272726,185.9536082474227,722.7272727272726,179.96134020618558,722.7272727272729C173.96907216494847,722.7272727272726,161.98453608247425,722.7272727272726,155.9922680412371,722.7272727272729L150,722.7272727272727" stroke-width="3" style="stroke: rgb(123, 65, 115); fill: none;"></path><path class="edges" d="M450,1513.6363636363635L409.02061855670104,1513.6363636363637C368.0412371134021,1513.6363636363633,286.0824742268041,1513.6363636363633,245.10309278350516,1565.9090909090908C204.12371134020614,1618.181818181818,204.12371134020614,1722.7272727272727,195.10309278350516,1775C186.08247422680412,1827.272727272727,168.04123711340205,1827.272727272727,159.02061855670104,1827.2727272727273L150,1827.272727272727" stroke-width="3" style="stroke: rgb(165, 81, 148); fill: none;"></path><path class="edges" d="M300,177.27272727272725L281.25,177.27272727272725C262.5,177.27272727272725,225,177.27272727272725,206.25,168.18181818181816C187.5,159.0909090909091,187.5,140.9090909090909,181.25,131.81818181818184C175,122.72727272727273,162.5,122.72727272727273,156.25,122.72727272727273L150,122.72727272727273" stroke-width="3" style="stroke: rgb(206, 109, 189); fill: none;"></path><path class="edges" d="M300,1540.9090909090908L281.5077319587629,1540.9090909090908C263.0154639175258,1540.9090909090908,226.03092783505156,1540.9090909090908,207.53865979381445,1522.7272727272727C189.0463917525773,1504.5454545454543,189.0463917525773,1468.181818181818,182.53865979381445,1450C176.03092783505156,1431.8181818181818,163.01546391752578,1431.8181818181818,156.5077319587629,1431.8181818181818L150,1431.8181818181818" stroke-width="3" style="stroke: rgb(222, 158, 214); fill: none;"></path><path class="edges" d="M375,2277.2727272727275L354.63917525773195,2277.2727272727275C334.27835051546396,2277.2727272727275,293.55670103092785,2277.2727272727275,273.1958762886598,2325.0000000000005C252.8350515463918,2372.7272727272725,252.8350515463918,2468.181818181818,248.19587628865983,2515.909090909091C243.55670103092788,2563.6363636363635,234.27835051546393,2563.6363636363635,229.63917525773195,2563.6363636363635L225,2563.6363636363635" stroke-width="3" style="stroke: rgb(57, 59, 121); fill: none;"></path><path class="edges" d="M375,2277.2727272727275L354.5103092783506,2277.2727272727275C334.02061855670104,2277.2727272727275,293.0412371134021,2277.2727272727275,272.5515463917526,2329.5454545454545C252.06185567010314,2381.818181818182,252.06185567010314,2486.3636363636365,247.55154639175262,2538.636363636364C243.04123711340208,2590.909090909091,234.02061855670104,2590.909090909091,229.51030927835052,2590.9090909090914L225,2590.909090909091" stroke-width="3" style="stroke: rgb(57, 59, 121); fill: none;"></path><path class="edges" d="M375,2277.2727272727275L354.3814432989691,2277.2727272727275C333.7628865979382,2277.2727272727275,292.52577319587635,2277.2727272727275,271.90721649484544,2334.0909090909095C251.2886597938145,2390.909090909091,251.2886597938145,2504.5454545454545,246.90721649484541,2561.3636363636365C242.52577319587635,2618.181818181818,233.76288659793818,2618.181818181818,229.3814432989691,2618.181818181818L225,2618.181818181818" stroke-width="3" style="stroke: rgb(57, 59, 121); fill: none;"></path><path class="edges" d="M300,2031.8181818181818L289.9806701030928,2031.8181818181818C279.9613402061855,2031.8181818181818,259.9226804123711,2031.8181818181818,249.9033505154639,2068.181818181818C239.88402061855672,2104.5454545454545,239.88402061855672,2177.2727272727275,237.4033505154639,2213.6363636363635C234.92268041237114,2250,229.96134020618555,2250,227.48067010309276,2250L225,2250" stroke-width="3" style="stroke: rgb(231, 150, 156); fill: none;"></path><path class="edges" d="M375,2277.2727272727275L354.2525773195876,2277.2727272727275C333.50515463917526,2277.2727272727275,292.0103092783506,2277.2727272727275,271.2628865979382,2338.636363636364C250.51546391752584,2400,250.51546391752584,2522.7272727272725,246.26288659793818,2584.0909090909086C242.01030927835055,2645.454545454545,233.5051546391753,2645.454545454545,229.25257731958763,2645.4545454545446L225,2645.454545454545" stroke-width="3" style="stroke: rgb(57, 59, 121); fill: none;"></path><path class="edges" d="M375,2277.2727272727275L354.12371134020617,2277.2727272727275C333.2474226804124,2277.2727272727275,291.49484536082474,2277.2727272727275,270.6185567010309,2343.1818181818185C249.74226804123705,2409.0909090909095,249.74226804123705,2540.9090909090905,245.6185567010309,2606.8181818181815C241.4948453608247,2672.7272727272725,233.24742268041237,2672.7272727272725,229.1237113402062,2672.7272727272725L225,2672.7272727272725" stroke-width="3" style="stroke: rgb(57, 59, 121); fill: none;"></path><path class="edges" d="M375,2277.2727272727275L353.99484536082474,2277.2727272727275C332.9896907216495,2277.2727272727275,290.97938144329896,2277.2727272727275,269.9742268041237,2347.727272727273C248.96907216494841,2418.1818181818185,248.96907216494841,2559.0909090909095,244.97422680412367,2629.5454545454545C240.97938144329896,2700,232.98969072164948,2700,228.9948453608247,2700L225,2700" stroke-width="3" style="stroke: rgb(57, 59, 121); fill: none;"></path><path class="edges" d="M375,2277.2727272727275L353.8659793814433,2277.2727272727275C332.73195876288656,2277.2727272727275,290.4639175257732,2277.2727272727275,269.32989690721644,2352.2727272727275C248.19587628865978,2427.2727272727275,248.19587628865978,2577.2727272727275,244.3298969072165,2652.2727272727275C240.46391752577316,2727.272727272727,232.7319587628866,2727.272727272727,228.86597938144328,2727.2727272727275L225,2727.272727272727" stroke-width="3" style="stroke: rgb(57, 59, 121); fill: none;"></path><path class="edges" d="M450,2113.6363636363635L431.3788659793815,2113.6363636363635C412.75773195876286,2113.6363636363635,375.5154639175257,2113.6363636363635,356.8943298969072,2100C338.27319587628864,2086.3636363636365,338.27319587628864,2059.090909090909,331.8943298969072,2045.4545454545453C325.5154639175258,2031.8181818181818,312.75773195876286,2031.8181818181818,306.37886597938143,2031.8181818181818L300,2031.8181818181818" stroke-width="3" style="stroke: rgb(140, 109, 49); fill: none;"></path><path class="edges" d="M450,913.6363636363635L431.8943298969072,913.6363636363636C413.7886597938145,913.6363636363635,377.5773195876289,913.6363636363635,359.4716494845361,881.8181818181819C341.3659793814433,850,341.3659793814433,786.3636363636364,334.4716494845361,754.5454545454545C327.5773195876289,722.7272727272726,313.7886597938145,722.7272727272726,306.8943298969072,722.7272727272729L300,722.7272727272727" stroke-width="3" style="stroke: rgb(173, 73, 74); fill: none;"></path><path class="edges" d="M450,1513.6363636363635L437.3067010309278,1513.6363636363637C424.61340206185565,1513.6363636363633,399.22680412371136,1513.6363636363633,386.53350515463916,1290.9090909090908C373.840206185567,1068.181818181818,373.840206185567,622.7272727272726,361.53350515463916,400C349.22680412371136,177.27272727272725,324.61340206185565,177.27272727272725,312.30670103092785,177.27272727272725L300,177.27272727272725" stroke-width="3" style="stroke: rgb(165, 81, 148); fill: none;"></path><path class="edges" d="M450,1513.6363636363635L430.86340206185565,1513.6363636363637C411.72680412371136,1513.6363636363633,373.45360824742266,1513.6363636363633,354.3170103092784,1518.181818181818C335.180412371134,1522.7272727272727,335.180412371134,1531.8181818181818,329.3170103092784,1536.363636363636C323.45360824742266,1540.9090909090908,311.72680412371136,1540.9090909090908,305.86340206185565,1540.9090909090908L300,1540.9090909090908" stroke-width="3" style="stroke: rgb(231, 203, 148); fill: none;"></path><path class="edges" d="M450,395.45454545454544L430.86340206185565,395.45454545454544C411.72680412371136,395.45454545454544,373.45360824742266,395.45454545454544,354.3170103092784,400C335.180412371134,404.5454545454545,335.180412371134,413.63636363636357,329.3170103092784,418.1818181818181C323.45360824742266,422.7272727272727,311.72680412371136,422.7272727272727,305.86340206185565,422.7272727272727L300,422.7272727272727" stroke-width="3" style="stroke: rgb(132, 60, 57); fill: none;"></path><path class="edges" d="M450,1200L431.4432989690722,1200C412.88659793814435,1200,375.77319587628864,1200,357.21649484536084,1184.090909090909C338.659793814433,1168.1818181818182,338.659793814433,1136.3636363636363,332.21649484536084,1120.4545454545453C325.77319587628864,1104.5454545454545,312.88659793814435,1104.5454545454545,306.44329896907215,1104.5454545454543L300,1104.5454545454545" stroke-width="3" style="stroke: rgb(173, 73, 74); fill: none;"></path><path class="edges" d="M450,2113.6363636363635L430.5412371134021,2113.6363636363635C411.08247422680415,2113.6363636363635,372.1649484536083,2113.6363636363635,352.7061855670103,2129.5454545454545C333.2474226804124,2145.4545454545455,333.2474226804124,2177.2727272727275,327.7061855670103,2193.181818181818C322.16494845360825,2209.090909090909,311.08247422680415,2209.090909090909,305.5412371134021,2209.0909090909086L300,2209.090909090909" stroke-width="3" style="stroke: rgb(140, 109, 49); fill: none;"></path><path class="edges" d="M450,1513.6363636363635L438.6920103092784,1513.6363636363637C427.3840206185567,1513.6363636363633,404.76804123711344,1513.6363636363633,393.4600515463917,1640.909090909091C382.15206185567007,1768.181818181818,382.15206185567007,2022.7272727272727,380.9600515463917,2150.0000000000005C379.76804123711344,2277.2727272727275,377.3840206185567,2277.2727272727275,376.1920103092784,2277.2727272727275L375,2277.2727272727275" stroke-width="3" style="stroke: rgb(165, 81, 148); fill: none;"></path><path class="edges" d="M750,1213.6363636363637L712.1134020618556,1213.6363636363637C674.2268041237113,1213.6363636363637,598.4536082474227,1213.6363636363637,560.5670103092783,1211.3636363636365C522.680412371134,1209.0909090909092,522.680412371134,1204.5454545454547,510.5670103092784,1202.2727272727273C498.45360824742266,1200,474.22680412371136,1200,462.11340206185565,1200L450,1200" stroke-width="3" style="stroke: rgb(123, 65, 115); fill: none;"></path><path class="edges" d="M600,913.6363636363635L580.9922680412371,913.6363636363636C561.9845360824742,913.6363636363635,523.9690721649484,913.6363636363635,504.9613402061855,913.6363636363636C485.95360824742266,913.6363636363635,485.95360824742266,913.6363636363635,479.9613402061855,913.6363636363636C473.9690721649484,913.6363636363635,461.9845360824742,913.6363636363635,455.99226804123714,913.6363636363636L450,913.6363636363635" stroke-width="3" style="stroke: rgb(165, 81, 148); fill: none;"></path><path class="edges" d="M750,1213.6363636363637L709.1494845360825,1213.6363636363637C668.298969072165,1213.6363636363637,586.59793814433,1213.6363636363637,545.7474226804125,1263.6363636363637C504.89690721649487,1313.6363636363637,504.89690721649487,1413.6363636363637,495.74742268041246,1463.6363636363637C486.59793814432993,1513.6363636363633,468.298969072165,1513.6363636363633,459.1494845360825,1513.6363636363637L450,1513.6363636363635" stroke-width="3" style="stroke: rgb(123, 65, 115); fill: none;"></path><path class="edges" d="M600,1568.181818181818L581.25,1568.181818181818C562.5,1568.181818181818,525,1568.181818181818,506.25,1559.090909090909C487.49999999999994,1550,487.49999999999994,1531.8181818181818,481.24999999999994,1522.7272727272727C475,1513.6363636363633,462.5,1513.6363636363633,456.25,1513.6363636363637L450,1513.6363636363635" stroke-width="3" style="stroke: rgb(222, 158, 214); fill: none;"></path><path class="edges" d="M600,450L581.25,450C562.5,450,525,450,506.25,440.90909090909093C487.49999999999994,431.8181818181818,487.49999999999994,413.6363636363637,481.24999999999994,404.5454545454545C475,395.45454545454544,462.5,395.45454545454544,456.25,395.45454545454544L450,395.45454545454544" stroke-width="3" style="stroke: rgb(57, 59, 121); fill: none;"></path><path class="edges" d="M900,2168.181818181818L843.75,2168.181818181818C787.5,2168.181818181818,675,2168.181818181818,618.75,2159.090909090909C562.5,2150,562.5,2131.8181818181815,543.75,2122.7272727272725C525,2113.6363636363635,487.5,2113.6363636363635,468.75,2113.6363636363635L450,2113.6363636363635" stroke-width="3" style="stroke: rgb(82, 84, 163); fill: none;"></path><path class="edges" d="M750,1213.6363636363637L734.6005154639175,1213.6363636363637C719.201030927835,1213.6363636363637,688.40206185567,1213.6363636363637,673.0025773195875,1086.3636363636365C657.6030927835051,959.0909090909091,657.6030927835051,704.5454545454546,648.0025773195875,577.2727272727274C638.40206185567,450,619.201030927835,450,609.6005154639175,450L600,450" stroke-width="3" style="stroke: rgb(123, 65, 115); fill: none;"></path><path class="edges" d="M750,1213.6363636363637L732.4097938144329,1213.6363636363637C714.819587628866,1213.6363636363637,679.639175257732,1213.6363636363637,662.0489690721649,1163.6363636363637C644.4587628865979,1113.6363636363637,644.4587628865979,1013.6363636363636,637.0489690721649,963.6363636363636C629.639175257732,913.6363636363635,614.819587628866,913.6363636363635,607.409793814433,913.6363636363636L600,913.6363636363635" stroke-width="3" style="stroke: rgb(123, 65, 115); fill: none;"></path><path class="edges" d="M900,2168.181818181818L867.6546391752577,2168.181818181818C835.3092783505155,2168.181818181818,770.618556701031,2168.181818181818,738.2731958762887,2068.181818181818C705.9278350515464,1968.181818181818,705.9278350515464,1768.181818181818,688.2731958762887,1668.181818181818C670.6185567010309,1568.181818181818,635.3092783505155,1568.181818181818,617.6546391752578,1568.181818181818L600,1568.181818181818" stroke-width="3" style="stroke: rgb(82, 84, 163); fill: none;"></path><path class="edges" d="M900,2168.181818181818L885.5025773195877,2168.181818181818C871.0051546391752,2168.181818181818,842.0103092783505,2168.181818181818,827.5128865979382,2009.090909090909C813.0154639175258,1850,813.0154639175258,1531.818181818182,802.5128865979382,1372.7272727272727C792.0103092783505,1213.6363636363637,771.0051546391752,1213.6363636363637,760.5025773195875,1213.6363636363637L750,1213.6363636363637" stroke-width="3" style="stroke: rgb(82, 84, 163); fill: none;"></path><path class="parentEdges" d="M150,109.0909090909091L150,136.36363636363635" style="stroke: rgb(57, 59, 121); stroke-width: 4; fill: none;"></path><path class="parentEdges" d="M150,327.27272727272725L150,518.1818181818181" style="stroke: rgb(82, 84, 163); stroke-width: 4; fill: none;"></path><path class="parentEdges" d="M150,327.27272727272725L150,518.1818181818181" style="stroke: rgb(82, 84, 163); stroke-width: 4; fill: none;"></path><path class="parentEdges" d="M150,327.27272727272725L150,518.1818181818181" style="stroke: rgb(82, 84, 163); stroke-width: 4; fill: none;"></path><path class="parentEdges" d="M150,681.8181818181818L150,763.6363636363635" style="stroke: rgb(99, 121, 57); stroke-width: 4; fill: none;"></path><path class="parentEdges" d="M150,681.8181818181818L150,763.6363636363635" style="stroke: rgb(99, 121, 57); stroke-width: 4; fill: none;"></path><path class="parentEdges" d="M150,845.4545454545454L150,981.8181818181819" style="stroke: rgb(181, 207, 107); stroke-width: 4; fill: none;"></path><path class="parentEdges" d="M150,681.8181818181818L150,763.6363636363635" style="stroke: rgb(99, 121, 57); stroke-width: 4; fill: none;"></path><path class="parentEdges" d="M150,845.4545454545454L150,981.8181818181819" style="stroke: rgb(181, 207, 107); stroke-width: 4; fill: none;"></path><path class="parentEdges" d="M150,1063.6363636363635L150,1281.8181818181818" style="stroke: rgb(189, 158, 57); stroke-width: 4; fill: none;"></path><path class="parentEdges" d="M150,1418.181818181818L150,1445.4545454545455" style="stroke: rgb(231, 186, 82); stroke-width: 4; fill: none;"></path><path class="parentEdges" d="M150,681.8181818181818L150,763.6363636363635" style="stroke: rgb(99, 121, 57); stroke-width: 4; fill: none;"></path><path class="parentEdges" d="M150,681.8181818181818L150,763.6363636363635" style="stroke: rgb(99, 121, 57); stroke-width: 4; fill: none;"></path><path class="parentEdges" d="M150,1063.6363636363635L150,1281.8181818181818" style="stroke: rgb(189, 158, 57); stroke-width: 4; fill: none;"></path><path class="parentEdges" d="M150,1418.181818181818L150,1445.4545454545455" style="stroke: rgb(231, 186, 82); stroke-width: 4; fill: none;"></path><path class="parentEdges" d="M150,327.27272727272725L150,518.1818181818181" style="stroke: rgb(82, 84, 163); stroke-width: 4; fill: none;"></path><path class="parentEdges" d="M150,1772.7272727272727L150,1881.8181818181818" style="stroke: rgb(123, 65, 115); stroke-width: 4; fill: none;"></path><path class="parentEdges" d="M150,1418.181818181818L150,1445.4545454545455" style="stroke: rgb(231, 186, 82); stroke-width: 4; fill: none;"></path><path class="parentEdges" d="M150,1963.6363636363637L150,2209.090909090909" style="stroke: rgb(206, 109, 189); stroke-width: 4; fill: none;"></path><path class="parentEdges" d="M150,109.0909090909091L150,136.36363636363635" style="stroke: rgb(57, 59, 121); stroke-width: 4; fill: none;"></path><path class="parentEdges" d="M150,1418.181818181818L150,1445.4545454545455" style="stroke: rgb(231, 186, 82); stroke-width: 4; fill: none;"></path><path class="parentEdges" d="M150,109.0909090909091L150,136.36363636363635" style="stroke: rgb(57, 59, 121); stroke-width: 4; fill: none;"></path><path class="parentEdges" d="M150,1772.7272727272727L150,1881.8181818181818" style="stroke: rgb(123, 65, 115); stroke-width: 4; fill: none;"></path><path class="parentEdges" d="M150,1772.7272727272727L150,1881.8181818181818" style="stroke: rgb(123, 65, 115); stroke-width: 4; fill: none;"></path><path class="parentEdges" d="M150,1963.6363636363637L150,2209.090909090909" style="stroke: rgb(206, 109, 189); stroke-width: 4; fill: none;"></path><path class="parentEdges" d="M150,1772.7272727272727L150,1881.8181818181818" style="stroke: rgb(123, 65, 115); stroke-width: 4; fill: none;"></path><path class="parentEdges" d="M150,2290.9090909090905L150,2372.7272727272725" style="stroke: rgb(181, 207, 107); stroke-width: 4; fill: none;"></path><path class="parentEdges" d="M150,2290.9090909090905L150,2372.7272727272725" style="stroke: rgb(181, 207, 107); stroke-width: 4; fill: none;"></path><path class="parentEdges" d="M225,2509.090909090909L225,1990.9090909090908" style="stroke: rgb(140, 109, 49); stroke-width: 4; fill: none;"></path><path class="parentEdges" d="M225,2509.090909090909L225,1990.9090909090908" style="stroke: rgb(140, 109, 49); stroke-width: 4; fill: none;"></path><path class="parentEdges" d="M225,2509.090909090909L225,1990.9090909090908" style="stroke: rgb(140, 109, 49); stroke-width: 4; fill: none;"></path><path class="parentEdges" d="M300,354.5454545454545L300,490.90909090909093" style="stroke: rgb(231, 203, 148); stroke-width: 4; fill: none;"></path><path class="parentEdges" d="M300,1090.9090909090908L300,1118.1818181818182" style="stroke: rgb(132, 60, 57); stroke-width: 4; fill: none;"></path><path class="parentEdges" d="M450,872.7272727272727L450,954.5454545454545" style="stroke: rgb(173, 73, 74); stroke-width: 4; fill: none;"></path><path class="parentEdges" d="M300,2072.7272727272725L300,2345.4545454545455" style="stroke: rgb(214, 97, 107); stroke-width: 4; fill: none;"></path><path class="parentEdges" d="M300,2018.181818181818L300,2045.4545454545453" style="stroke: rgb(231, 150, 156); stroke-width: 4; fill: none;"></path><path class="parentEdges" d="M300,709.090909090909L300,736.3636363636363" style="stroke: rgb(123, 65, 115); stroke-width: 4; fill: none;"></path><path class="parentEdges" d="M450,1172.7272727272727L450,1854.5454545454543" style="stroke: rgb(165, 81, 148); stroke-width: 4; fill: none;"></path><path class="parentEdges" d="M300,163.63636363636363L300,190.90909090909088" style="stroke: rgb(206, 109, 189); stroke-width: 4; fill: none;"></path><path class="parentEdges" d="M300,1472.7272727272725L300,1609.090909090909" style="stroke: rgb(222, 158, 214); stroke-width: 4; fill: none;"></path><path class="parentEdges" d="M375,2754.545454545454L375,1800" style="stroke: rgb(57, 59, 121); stroke-width: 4; fill: none;"></path><path class="parentEdges" d="M375,2754.545454545454L375,1800" style="stroke: rgb(57, 59, 121); stroke-width: 4; fill: none;"></path><path class="parentEdges" d="M375,2754.545454545454L375,1800" style="stroke: rgb(57, 59, 121); stroke-width: 4; fill: none;"></path><path class="parentEdges" d="M300,2018.181818181818L300,2045.4545454545453" style="stroke: rgb(231, 150, 156); stroke-width: 4; fill: none;"></path><path class="parentEdges" d="M375,2754.545454545454L375,1800" style="stroke: rgb(57, 59, 121); stroke-width: 4; fill: none;"></path><path class="parentEdges" d="M375,2754.545454545454L375,1800" style="stroke: rgb(57, 59, 121); stroke-width: 4; fill: none;"></path><path class="parentEdges" d="M375,2754.545454545454L375,1800" style="stroke: rgb(57, 59, 121); stroke-width: 4; fill: none;"></path><path class="parentEdges" d="M375,2754.545454545454L375,1800" style="stroke: rgb(57, 59, 121); stroke-width: 4; fill: none;"></path><path class="parentEdges" d="M450,2100L450,2127.272727272727" style="stroke: rgb(140, 109, 49); stroke-width: 4; fill: none;"></path><path class="parentEdges" d="M450,872.7272727272727L450,954.5454545454545" style="stroke: rgb(173, 73, 74); stroke-width: 4; fill: none;"></path><path class="parentEdges" d="M450,1172.7272727272727L450,1854.5454545454543" style="stroke: rgb(165, 81, 148); stroke-width: 4; fill: none;"></path><path class="parentEdges" d="M450,1499.9999999999998L450,1527.272727272727" style="stroke: rgb(231, 203, 148); stroke-width: 4; fill: none;"></path><path class="parentEdges" d="M450,381.81818181818176L450,409.0909090909091" style="stroke: rgb(132, 60, 57); stroke-width: 4; fill: none;"></path><path class="parentEdges" d="M450,1145.4545454545453L450,1254.5454545454545" style="stroke: rgb(173, 73, 74); stroke-width: 4; fill: none;"></path><path class="parentEdges" d="M450,2100L450,2127.272727272727" style="stroke: rgb(140, 109, 49); stroke-width: 4; fill: none;"></path><path class="parentEdges" d="M450,1172.7272727272727L450,1854.5454545454543" style="stroke: rgb(165, 81, 148); stroke-width: 4; fill: none;"></path><path class="parentEdges" d="M750,1200L750,1227.2727272727273" style="stroke: rgb(123, 65, 115); stroke-width: 4; fill: none;"></path><path class="parentEdges" d="M600,900L600,927.2727272727271" style="stroke: rgb(165, 81, 148); stroke-width: 4; fill: none;"></path><path class="parentEdges" d="M750,1200L750,1227.2727272727273" style="stroke: rgb(123, 65, 115); stroke-width: 4; fill: none;"></path><path class="parentEdges" d="M600,1554.5454545454545L600,1581.8181818181818" style="stroke: rgb(222, 158, 214); stroke-width: 4; fill: none;"></path><path class="parentEdges" d="M600,436.3636363636364L600,463.63636363636357" style="stroke: rgb(57, 59, 121); stroke-width: 4; fill: none;"></path><path class="parentEdges" d="M900,2154.5454545454545L900,2181.8181818181815" style="stroke: rgb(82, 84, 163); stroke-width: 4; fill: none;"></path><path class="parentEdges" d="M750,1200L750,1227.2727272727273" style="stroke: rgb(123, 65, 115); stroke-width: 4; fill: none;"></path><path class="parentEdges" d="M750,1200L750,1227.2727272727273" style="stroke: rgb(123, 65, 115); stroke-width: 4; fill: none;"></path><path class="parentEdges" d="M900,2154.5454545454545L900,2181.8181818181815" style="stroke: rgb(82, 84, 163); stroke-width: 4; fill: none;"></path><path class="parentEdges" d="M900,2154.5454545454545L900,2181.8181818181815" style="stroke: rgb(82, 84, 163); stroke-width: 4; fill: none;"></path><g class="node" transform="translate(-12,206.1818181818182)" style="fill: white; stroke: black; stroke-width: 2;"><rect width="24" height="24"></rect><text dx="6" dy="18" fill="black" stroke="none">8</text></g><g class="node" transform="translate(-12,233.45454545454547)" style="fill: black; stroke: black; stroke-width: 2;"><rect width="24" height="24"></rect><text dx="6" dy="18" fill="white" stroke="none">9</text></g><g class="node" transform="translate(-12,533.4545454545454)" style="fill: white; stroke: black; stroke-width: 2;"><rect width="24" height="24"></rect><text dx="6" dy="18" fill="black" stroke="none">20</text></g><g class="node" transform="translate(-12,560.7272727272726)" style="fill: white; stroke: black; stroke-width: 2;"><rect width="24" height="24"></rect><text dx="6" dy="18" fill="black" stroke="none">21</text></g><g class="node" transform="translate(-12,778.9090909090909)" style="fill: white; stroke: black; stroke-width: 2;"><rect width="24" height="24"></rect><text dx="6" dy="18" fill="black" stroke="none">29</text></g><g class="node" transform="translate(-12,588)" style="fill: black; stroke: black; stroke-width: 2;"><rect width="24" height="24"></rect><text dx="6" dy="18" fill="white" stroke="none">22</text></g><g class="node" transform="translate(-12,806.1818181818182)" style="fill: black; stroke: black; stroke-width: 2;"><rect width="24" height="24"></rect><text dx="6" dy="18" fill="white" stroke="none">30</text></g><g class="node" transform="translate(-12,1297.090909090909)" style="fill: black; stroke: black; stroke-width: 2;"><rect width="24" height="24"></rect><text dx="6" dy="18" fill="white" stroke="none">48</text></g><g class="node" transform="translate(-12,1624.3636363636365)" style="fill: white; stroke: black; stroke-width: 2;"><rect width="24" height="24"></rect><text dx="6" dy="18" fill="black" stroke="none">60</text></g><g class="node" transform="translate(-12,1024.3636363636363)" style="fill: black; stroke: black; stroke-width: 2;"><rect width="24" height="24"></rect><text dx="6" dy="18" fill="white" stroke="none">38</text></g><g class="node" transform="translate(-12,1324.3636363636363)" style="fill: white; stroke: black; stroke-width: 2;"><rect width="24" height="24"></rect><text dx="6" dy="18" fill="black" stroke="none">49</text></g><g class="node" transform="translate(-12,288)" style="fill: white; stroke: black; stroke-width: 2;"><rect width="24" height="24"></rect><text dx="6" dy="18" fill="black" stroke="none">11</text></g><g class="node" transform="translate(-12,1651.6363636363635)" style="fill: black; stroke: black; stroke-width: 2;"><rect width="24" height="24"></rect><text dx="6" dy="18" fill="white" stroke="none">61</text></g><g class="node" transform="translate(-12,1351.6363636363635)" style="fill: white; stroke: black; stroke-width: 2;"><rect width="24" height="24"></rect><text dx="6" dy="18" fill="black" stroke="none">50</text></g><g class="node" transform="translate(-12,69.81818181818181)" style="fill: black; stroke: black; stroke-width: 2;"><rect width="24" height="24"></rect><text dx="6" dy="18" fill="white" stroke="none">3</text></g><g class="node" transform="translate(-12,1706.181818181818)" style="fill: white; stroke: black; stroke-width: 2;"><rect width="24" height="24"></rect><text dx="6" dy="18" fill="black" stroke="none">63</text></g><g class="node" transform="translate(63,2442.5454545454545)" style="fill: white; stroke: black; stroke-width: 2;"><rect width="24" height="24"></rect><text dx="6" dy="18" fill="black" stroke="none">90</text></g><g class="node" transform="translate(63,2469.8181818181815)" style="fill: black; stroke: black; stroke-width: 2;"><rect width="24" height="24"></rect><text dx="6" dy="18" fill="white" stroke="none">91</text></g><g class="node" transform="translate(138,2360.7272727272725)" style="fill: white; stroke: rgb(181, 207, 107); stroke-width: 2;"><rect width="24" height="24"></rect><text dx="6" dy="18" fill="black" stroke="none">87</text></g><g class="node" transform="translate(138,751.6363636363635)" style="fill: white; stroke: rgb(99, 121, 57); stroke-width: 2;"><rect width="24" height="24"></rect><text dx="6" dy="18" fill="black" stroke="none">28</text></g><g class="node" transform="translate(138,506.18181818181813)" style="fill: white; stroke: black; stroke-width: 2;"><rect width="24" height="24"></rect><text dx="6" dy="18" fill="black" stroke="none">19</text></g><g class="node" transform="translate(138,2197.090909090909)" style="fill: white; stroke: rgb(206, 109, 189); stroke-width: 2;"><rect width="24" height="24"></rect><text dx="6" dy="18" fill="black" stroke="none">81</text></g><g class="node" transform="translate(138,506.18181818181813)" style="fill: black; stroke: rgb(82, 84, 163); stroke-width: 2;"><rect width="24" height="24"></rect><text dx="6" dy="18" fill="white" stroke="none">19</text></g><g class="node" transform="translate(138,1869.8181818181818)" style="fill: white; stroke: rgb(123, 65, 115); stroke-width: 2;"><rect width="24" height="24"></rect><text dx="6" dy="18" fill="black" stroke="none">69</text></g><g class="node" transform="translate(138,1269.8181818181818)" style="fill: white; stroke: rgb(189, 158, 57); stroke-width: 2;"><rect width="24" height="24"></rect><text dx="6" dy="18" fill="black" stroke="none">47</text></g><g class="node" transform="translate(138,969.8181818181819)" style="fill: white; stroke: rgb(181, 207, 107); stroke-width: 2;"><rect width="24" height="24"></rect><text dx="6" dy="18" fill="black" stroke="none">36</text></g><g class="node" transform="translate(138,124.36363636363635)" style="fill: white; stroke: rgb(57, 59, 121); stroke-width: 2;"><rect width="24" height="24"></rect><text dx="6" dy="18" fill="black" stroke="none">5</text></g><g class="node" transform="translate(138,1433.4545454545455)" style="fill: white; stroke: rgb(231, 186, 82); stroke-width: 2;"><rect width="24" height="24"></rect><text dx="6" dy="18" fill="black" stroke="none">53</text></g><g class="node" transform="translate(213,2551.6363636363635)" style="fill: white; stroke: black; stroke-width: 2;"><rect width="24" height="24"></rect><text dx="6" dy="18" fill="black" stroke="none">94</text></g><g class="node" transform="translate(213,1978.9090909090908)" style="fill: white; stroke: rgb(140, 109, 49); stroke-width: 2;"><rect width="24" height="24"></rect><text dx="6" dy="18" fill="black" stroke="none">73</text></g><g class="node" transform="translate(213,2633.454545454545)" style="fill: black; stroke: black; stroke-width: 2;"><rect width="24" height="24"></rect><text dx="6" dy="18" fill="white" stroke="none">97</text></g><g class="node" transform="translate(213,2688)" style="fill: white; stroke: black; stroke-width: 2;"><rect width="24" height="24"></rect><text dx="6" dy="18" fill="black" stroke="none">99</text></g><g class="node" transform="translate(288,478.90909090909093)" style="fill: white; stroke: rgb(231, 203, 148); stroke-width: 2;"><rect width="24" height="24"></rect><text dx="6" dy="18" fill="black" stroke="none">18</text></g><g class="node" transform="translate(288,2033.4545454545453)" style="fill: white; stroke: rgb(231, 150, 156); stroke-width: 2;"><rect width="24" height="24"></rect><text dx="6" dy="18" fill="black" stroke="none">75</text></g><g class="node" transform="translate(288,724.3636363636363)" style="fill: white; stroke: rgb(123, 65, 115); stroke-width: 2;"><rect width="24" height="24"></rect><text dx="6" dy="18" fill="black" stroke="none">27</text></g><g class="node" transform="translate(288,1597.090909090909)" style="fill: white; stroke: rgb(222, 158, 214); stroke-width: 2;"><rect width="24" height="24"></rect><text dx="6" dy="18" fill="black" stroke="none">59</text></g><g class="node" transform="translate(288,178.90909090909088)" style="fill: white; stroke: rgb(206, 109, 189); stroke-width: 2;"><rect width="24" height="24"></rect><text dx="6" dy="18" fill="black" stroke="none">7</text></g><g class="node" transform="translate(288,1106.1818181818182)" style="fill: white; stroke: rgb(132, 60, 57); stroke-width: 2;"><rect width="24" height="24"></rect><text dx="6" dy="18" fill="black" stroke="none">41</text></g><g class="node" transform="translate(288,2333.4545454545455)" style="fill: white; stroke: rgb(214, 97, 107); stroke-width: 2;"><rect width="24" height="24"></rect><text dx="6" dy="18" fill="black" stroke="none">86</text></g><g class="node" transform="translate(363,1788)" style="fill: white; stroke: rgb(57, 59, 121); stroke-width: 2;"><rect width="24" height="24"></rect><text dx="6" dy="18" fill="black" stroke="none">66</text></g><g class="node" transform="translate(438,1242.5454545454545)" style="fill: white; stroke: rgb(173, 73, 74); stroke-width: 2;"><rect width="24" height="24"></rect><text dx="6" dy="18" fill="black" stroke="none">46</text></g><g class="node" transform="translate(438,942.5454545454545)" style="fill: white; stroke: rgb(173, 73, 74); stroke-width: 2;"><rect width="24" height="24"></rect><text dx="6" dy="18" fill="black" stroke="none">35</text></g><g class="node" transform="translate(438,1515.272727272727)" style="fill: white; stroke: rgb(231, 203, 148); stroke-width: 2;"><rect width="24" height="24"></rect><text dx="6" dy="18" fill="black" stroke="none">56</text></g><g class="node" transform="translate(438,397.0909090909091)" style="fill: white; stroke: rgb(132, 60, 57); stroke-width: 2;"><rect width="24" height="24"></rect><text dx="6" dy="18" fill="black" stroke="none">15</text></g><g class="node" transform="translate(438,2115.272727272727)" style="fill: white; stroke: rgb(140, 109, 49); stroke-width: 2;"><rect width="24" height="24"></rect><text dx="6" dy="18" fill="black" stroke="none">78</text></g><g class="node" transform="translate(438,1842.5454545454543)" style="fill: white; stroke: rgb(165, 81, 148); stroke-width: 2;"><rect width="24" height="24"></rect><text dx="6" dy="18" fill="black" stroke="none">68</text></g><g class="node" transform="translate(588,451.63636363636357)" style="fill: white; stroke: rgb(57, 59, 121); stroke-width: 2;"><rect width="24" height="24"></rect><text dx="6" dy="18" fill="black" stroke="none">17</text></g><g class="node" transform="translate(588,915.2727272727271)" style="fill: white; stroke: rgb(165, 81, 148); stroke-width: 2;"><rect width="24" height="24"></rect><text dx="6" dy="18" fill="black" stroke="none">34</text></g><g class="node" transform="translate(588,1569.8181818181818)" style="fill: white; stroke: rgb(222, 158, 214); stroke-width: 2;"><rect width="24" height="24"></rect><text dx="6" dy="18" fill="black" stroke="none">58</text></g><g class="node" transform="translate(738,1215.2727272727273)" style="fill: white; stroke: rgb(123, 65, 115); stroke-width: 2;"><rect width="24" height="24"></rect><text dx="6" dy="18" fill="black" stroke="none">45</text></g><g class="node" transform="translate(888,2169.8181818181815)" style="fill: white; stroke: rgb(82, 84, 163); stroke-width: 2;"><rect width="24" height="24"></rect><text dx="6" dy="18" fill="black" stroke="none">80</text></g><g class="node" transform="translate(0,27.272727272727273)" style="fill: white; stroke: black; stroke-width: 2;"><circle r="12"></circle><text dx="-6" dy="6" fill="black" stroke="none">1</text></g><g class="node" transform="translate(0,272.7272727272727)" style="fill: white; stroke: black; stroke-width: 2;"><circle r="12"></circle><text dx="-6" dy="6" fill="black" stroke="none">10</text></g><g class="node" transform="translate(0,1009.090909090909)" style="fill: white; stroke: black; stroke-width: 2;"><circle r="12"></circle><text dx="-6" dy="6" fill="black" stroke="none">37</text></g><g class="node" transform="translate(0,627.2727272727273)" style="fill: white; stroke: black; stroke-width: 2;"><circle r="12"></circle><text dx="-6" dy="6" fill="black" stroke="none">23</text></g><g class="node" transform="translate(0,654.5454545454545)" style="fill: white; stroke: black; stroke-width: 2;"><circle r="12"></circle><text dx="-6" dy="6" fill="black" stroke="none">24</text></g><g class="node" transform="translate(0,1909.090909090909)" style="fill: white; stroke: black; stroke-width: 2;"><circle r="12"></circle><text dx="-6" dy="6" fill="black" stroke="none">70</text></g><g class="node" transform="translate(0,54.54545454545455)" style="fill: white; stroke: black; stroke-width: 2;"><circle r="12"></circle><text dx="-6" dy="6" fill="black" stroke="none">2</text></g><g class="node" transform="translate(0,1390.9090909090908)" style="fill: white; stroke: black; stroke-width: 2;"><circle r="12"></circle><text dx="-6" dy="6" fill="black" stroke="none">51</text></g><g class="node" transform="translate(0,1690.9090909090908)" style="fill: white; stroke: black; stroke-width: 2;"><circle r="12"></circle><text dx="-6" dy="6" fill="black" stroke="none">62</text></g><g class="node" transform="translate(0,1936.3636363636363)" style="fill: black; stroke: black; stroke-width: 2;"><circle r="12"></circle><text dx="-6" dy="6" fill="white" stroke="none">71</text></g><g class="node" transform="translate(0,1745.4545454545455)" style="fill: white; stroke: black; stroke-width: 2;"><circle r="12"></circle><text dx="-6" dy="6" fill="black" stroke="none">64</text></g><g class="node" transform="translate(0,2236.3636363636365)" style="fill: black; stroke: black; stroke-width: 2;"><circle r="12"></circle><text dx="-6" dy="6" fill="white" stroke="none">82</text></g><g class="node" transform="translate(0,2263.6363636363635)" style="fill: white; stroke: black; stroke-width: 2;"><circle r="12"></circle><text dx="-6" dy="6" fill="black" stroke="none">83</text></g><g class="node" transform="translate(0,2400)" style="fill: white; stroke: black; stroke-width: 2;"><circle r="12"></circle><text dx="-6" dy="6" fill="black" stroke="none">88</text></g><g class="node" transform="translate(75,2427.2727272727275)" style="fill: white; stroke: black; stroke-width: 2;"><circle r="12"></circle><text dx="-6" dy="6" fill="black" stroke="none">89</text></g><g class="node" transform="translate(150,327.27272727272725)" style="fill: white; stroke: rgb(82, 84, 163); stroke-width: 2;"><circle r="12"></circle><text dx="-6" dy="6" fill="black" stroke="none">12</text></g><g class="node" transform="translate(150,1418.181818181818)" style="fill: white; stroke: rgb(231, 186, 82); stroke-width: 2;"><circle r="12"></circle><text dx="-6" dy="6" fill="black" stroke="none">52</text></g><g class="node" transform="translate(150,1063.6363636363635)" style="fill: white; stroke: rgb(189, 158, 57); stroke-width: 2;"><circle r="12"></circle><text dx="-6" dy="6" fill="black" stroke="none">39</text></g><g class="node" transform="translate(150,845.4545454545454)" style="fill: white; stroke: rgb(181, 207, 107); stroke-width: 2;"><circle r="12"></circle><text dx="-6" dy="6" fill="black" stroke="none">31</text></g><g class="node" transform="translate(150,2290.9090909090905)" style="fill: white; stroke: rgb(181, 207, 107); stroke-width: 2;"><circle r="12"></circle><text dx="-6" dy="6" fill="black" stroke="none">84</text></g><g class="node" transform="translate(150,1963.6363636363637)" style="fill: white; stroke: rgb(206, 109, 189); stroke-width: 2;"><circle r="12"></circle><text dx="-6" dy="6" fill="black" stroke="none">72</text></g><g class="node" transform="translate(150,681.8181818181818)" style="fill: white; stroke: rgb(99, 121, 57); stroke-width: 2;"><circle r="12"></circle><text dx="-6" dy="6" fill="black" stroke="none">25</text></g><g class="node" transform="translate(150,1772.7272727272727)" style="fill: white; stroke: rgb(123, 65, 115); stroke-width: 2;"><circle r="12"></circle><text dx="-6" dy="6" fill="black" stroke="none">65</text></g><g class="node" transform="translate(150,109.0909090909091)" style="fill: white; stroke: rgb(57, 59, 121); stroke-width: 2;"><circle r="12"></circle><text dx="-6" dy="6" fill="black" stroke="none">4</text></g><g class="node" transform="translate(225,2590.909090909091)" style="fill: white; stroke: black; stroke-width: 2;"><circle r="12"></circle><text dx="-6" dy="6" fill="black" stroke="none">95</text></g><g class="node" transform="translate(225,2618.181818181818)" style="fill: white; stroke: black; stroke-width: 2;"><circle r="12"></circle><text dx="-6" dy="6" fill="black" stroke="none">96</text></g><g class="node" transform="translate(225,2509.090909090909)" style="fill: white; stroke: rgb(140, 109, 49); stroke-width: 2;"><circle r="12"></circle><text dx="-6" dy="6" fill="black" stroke="none">92</text></g><g class="node" transform="translate(225,2672.7272727272725)" style="fill: white; stroke: black; stroke-width: 2;"><circle r="12"></circle><text dx="-6" dy="6" fill="black" stroke="none">98</text></g><g class="node" transform="translate(225,2727.272727272727)" style="fill: white; stroke: black; stroke-width: 2;"><circle r="12"></circle><text dx="-6" dy="6" fill="black" stroke="none">100</text></g><g class="node" transform="translate(300,709.090909090909)" style="fill: white; stroke: rgb(123, 65, 115); stroke-width: 2;"><circle r="12"></circle><text dx="-6" dy="6" fill="black" stroke="none">26</text></g><g class="node" transform="translate(300,1090.9090909090908)" style="fill: white; stroke: rgb(132, 60, 57); stroke-width: 2;"><circle r="12"></circle><text dx="-6" dy="6" fill="black" stroke="none">40</text></g><g class="node" transform="translate(300,163.63636363636363)" style="fill: white; stroke: rgb(206, 109, 189); stroke-width: 2;"><circle r="12"></circle><text dx="-6" dy="6" fill="black" stroke="none">6</text></g><g class="node" transform="translate(300,1472.7272727272725)" style="fill: white; stroke: rgb(222, 158, 214); stroke-width: 2;"><circle r="12"></circle><text dx="-6" dy="6" fill="black" stroke="none">54</text></g><g class="node" transform="translate(300,354.5454545454545)" style="fill: white; stroke: rgb(231, 203, 148); stroke-width: 2;"><circle r="12"></circle><text dx="-6" dy="6" fill="black" stroke="none">13</text></g><g class="node" transform="translate(300,2018.181818181818)" style="fill: white; stroke: rgb(231, 150, 156); stroke-width: 2;"><circle r="12"></circle><text dx="-6" dy="6" fill="black" stroke="none">74</text></g><g class="node" transform="translate(300,2072.7272727272725)" style="fill: white; stroke: rgb(214, 97, 107); stroke-width: 2;"><circle r="12"></circle><text dx="-6" dy="6" fill="black" stroke="none">76</text></g><g class="node" transform="translate(375,2754.545454545454)" style="fill: white; stroke: rgb(57, 59, 121); stroke-width: 2;"><circle r="12"></circle><text dx="-6" dy="6" fill="black" stroke="none">101</text></g><g class="node" transform="translate(450,1145.4545454545453)" style="fill: white; stroke: rgb(173, 73, 74); stroke-width: 2;"><circle r="12"></circle><text dx="-6" dy="6" fill="black" stroke="none">42</text></g><g class="node" transform="translate(450,872.7272727272727)" style="fill: white; stroke: rgb(173, 73, 74); stroke-width: 2;"><circle r="12"></circle><text dx="-6" dy="6" fill="black" stroke="none">32</text></g><g class="node" transform="translate(450,381.81818181818176)" style="fill: white; stroke: rgb(132, 60, 57); stroke-width: 2;"><circle r="12"></circle><text dx="-6" dy="6" fill="black" stroke="none">14</text></g><g class="node" transform="translate(450,1499.9999999999998)" style="fill: white; stroke: rgb(231, 203, 148); stroke-width: 2;"><circle r="12"></circle><text dx="-6" dy="6" fill="black" stroke="none">55</text></g><g class="node" transform="translate(450,1172.7272727272727)" style="fill: white; stroke: rgb(165, 81, 148); stroke-width: 2;"><circle r="12"></circle><text dx="-6" dy="6" fill="black" stroke="none">43</text></g><g class="node" transform="translate(450,2100)" style="fill: white; stroke: rgb(140, 109, 49); stroke-width: 2;"><circle r="12"></circle><text dx="-6" dy="6" fill="black" stroke="none">77</text></g><g class="node" transform="translate(600,436.3636363636364)" style="fill: white; stroke: rgb(57, 59, 121); stroke-width: 2;"><circle r="12"></circle><text dx="-6" dy="6" fill="black" stroke="none">16</text></g><g class="node" transform="translate(600,1554.5454545454545)" style="fill: white; stroke: rgb(222, 158, 214); stroke-width: 2;"><circle r="12"></circle><text dx="-6" dy="6" fill="black" stroke="none">57</text></g><g class="node" transform="translate(600,900)" style="fill: white; stroke: rgb(165, 81, 148); stroke-width: 2;"><circle r="12"></circle><text dx="-6" dy="6" fill="black" stroke="none">33</text></g><g class="node" transform="translate(750,1200)" style="fill: white; stroke: rgb(123, 65, 115); stroke-width: 2;"><circle r="12"></circle><text dx="-6" dy="6" fill="black" stroke="none">44</text></g><g class="node" transform="translate(900,2154.5454545454545)" style="fill: white; stroke: rgb(82, 84, 163); stroke-width: 2;"><circle r="12"></circle><text dx="-6" dy="6" fill="black" stroke="none">79</text></g></g></svg>