<svg width="1205" height="3010"><g transform="translate(20,20)"><rect width="120" height="24" x="9965" y="1745.4545454545455" style="stroke: gray; fill: white; stroke-width: 2;"></rect><rect width="120" height="24" x="9965" y="1745.4545454545455" style="stroke: gray; fill: white; stroke-width: 2;"></rect><rect width="120" height="24" x="9965" y="1227.2727272727273" style="stroke: gray; fill: white; stroke-width: 2;"></rect><rect width="120" height="24" x="9965" y="1227.2727272727273" style="stroke: gray; fill: white; stroke-width: 2;"></rect><rect width="120" height="24" x="9965" y="1499.9999999999998" style="stroke: gray; fill: white; stroke-width: 2;"></rect><rect width="120" height="24" x="9965" y="1718.181818181818" style="stroke: gray; fill: white; stroke-width: 2;"></rect><rect width="120" height="24" x="9965" y="1718.181818181818" style="stroke: gray; fill: white; stroke-width: 2;"></rect><rect width="120" height="24" x="9965" y="1499.9999999999998" style="stroke: gray; fill: white; stroke-width: 2;"></rect><rect width="120" height="24" x="9965" y="218.1818181818182" style="stroke: gray; fill: white; stroke-width: 2;"></rect><rect width="120" height="24" x="9965" y="218.1818181818182" style="stroke: gray; fill: white; stroke-width: 2;"></rect><rect width="120" height="24" x="9965" y="545.4545454545454" style="stroke: gray; fill: white; stroke-width: 2;"></rect><rect width="120" height="24" x="9965" y="1063.6363636363635" style="stroke: gray; fill: white; stroke-width: 2;"></rect><rect width="120" height="24" x="9965" y="545.4545454545454" style="stroke: gray; fill: white; stroke-width: 2;"></rect><rect width="120" height="24" x="9965" y="1363.6363636363635" style="stroke: gray; fill: white; stroke-width: 2;"></rect><rect width="120" height="24" x="9965" y="1063.6363636363635" style="stroke: gray; fill: white; stroke-width: 2;"></rect><rect width="120" height="24" x="9965" y="1472.7272727272725" style="stroke: gray; fill: white; stroke-width: 2;"></rect><rect width="120" height="24" x="9965" y="1690.9090909090908" style="stroke: gray; fill: white; stroke-width: 2;"></rect><rect width="120" height="24" x="9965" y="1690.9090909090908" style="stroke: gray; fill: white; stroke-width: 2;"></rect><rect width="120" height="24" x="9965" y="1472.7272727272725" style="stroke: gray; fill: white; stroke-width: 2;"></rect><rect width="120" height="24" x="9965" y="1200" style="stroke: gray; fill: white; stroke-width: 2;"></rect><rect width="120" height="24" x="9965" y="1363.6363636363635" style="stroke: gray; fill: white; stroke-width: 2;"></rect><rect width="120" height="24" x="9965" y="1200" style="stroke: gray; fill: white; stroke-width: 2;"></rect><rect width="120" height="24" x="9965" y="1445.4545454545455" style="stroke: gray; fill: white; stroke-width: 2;"></rect><rect width="120" height="24" x="9965" y="190.90909090909088" style="stroke: gray; fill: white; stroke-width: 2;"></rect><rect width="120" height="24" x="9965" y="190.90909090909088" style="stroke: gray; fill: white; stroke-width: 2;"></rect><rect width="120" height="24" x="9965" y="681.8181818181818" style="stroke: gray; fill: white; stroke-width: 2;"></rect><rect width="120" height="24" x="9965" y="1445.4545454545455" style="stroke: gray; fill: white; stroke-width: 2;"></rect><rect width="120" height="24" x="9965" y="1663.6363636363635" style="stroke: gray; fill: white; stroke-width: 2;"></rect><rect width="120" height="24" x="9965" y="681.8181818181818" style="stroke: gray; fill: white; stroke-width: 2;"></rect><rect width="120" height="24" x="9965" y="518.1818181818181" style="stroke: gray; fill: white; stroke-width: 2;"></rect><rect width="120" height="24" x="9965" y="1663.6363636363635" style="stroke: gray; fill: white; stroke-width: 2;"></rect><rect width="120" height="24" x="9965" y="518.1818181818181" style="stroke: gray; fill: white; stroke-width: 2;"></rect><rect width="120" height="24" x="9965" y="1336.3636363636363" style="stroke: gray; fill: white; stroke-width: 2;"></rect><rect width="120" height="24" x="9965" y="900" style="stroke: gray; fill: white; stroke-width: 2;"></rect><rect width="120" height="24" x="9965" y="2236.3636363636365" style="stroke: gray; fill: white; stroke-width: 2;"></rect><rect width="120" height="24" x="9965" y="2236.3636363636365" style="stroke: gray; fill: white; stroke-width: 2;"></rect><rect width="120" height="24" x="9965" y="900" style="stroke: gray; fill: white; stroke-width: 2;"></rect><rect width="120" height="24" x="9965" y="1172.7272727272727" style="stroke: gray; fill: white; stroke-width: 2;"></rect><rect width="120" height="24" x="9965" y="1336.3636363636363" style="stroke: gray; fill: white; stroke-width: 2;"></rect><rect width="120" height="24" x="9965" y="1172.7272727272727" style="stroke: gray; fill: white; stroke-width: 2;"></rect><rect width="120" height="24" x="9965" y="1390.9090909090908" style="stroke: gray; fill: white; stroke-width: 2;"></rect><rect width="120" height="24" x="9965" y="1036.3636363636363" style="stroke: gray; fill: white; stroke-width: 2;"></rect><rect width="120" height="24" x="9965" y="1036.3636363636363" style="stroke: gray; fill: white; stroke-width: 2;"></rect><rect width="120" height="24" x="9965" y="409.0909090909091" style="stroke: gray; fill: white; stroke-width: 2;"></rect><rect width="120" height="24" x="9965" y="409.0909090909091" style="stroke: gray; fill: white; stroke-width: 2;"></rect><rect width="120" height="24" x="9965" y="1418.181818181818" style="stroke: gray; fill: black; stroke-width: 2;"></rect><rect width="120" height="24" x="9965" y="163.63636363636363" style="stroke: gray; fill: white; stroke-width: 2;"></rect><rect width="120" height="24" x="9965" y="1636.3636363636365" style="stroke: gray; fill: white; stroke-width: 2;"></rect><rect width="120" height="24" x="9965" y="1636.3636363636365" style="stroke: gray; fill: white; stroke-width: 2;"></rect><rect width="120" height="24" x="9965" y="654.5454545454545" style="stroke: gray; fill: white; stroke-width: 2;"></rect><rect width="120" height="24" x="9965" y="654.5454545454545" style="stroke: gray; fill: white; stroke-width: 2;"></rect><rect width="120" height="24" x="9965" y="709.090909090909" style="stroke: gray; fill: white; stroke-width: 2;"></rect><rect width="120" height="24" x="9965" y="163.63636363636363" style="stroke: gray; fill: white; stroke-width: 2;"></rect><rect width="120" height="24" x="9965" y="736.3636363636363" style="stroke: gray; fill: white; stroke-width: 2;"></rect><rect width="120" height="24" x="9965" y="2154.5454545454545" style="stroke: gray; fill: white; stroke-width: 2;"></rect><rect width="120" height="24" x="9965" y="763.6363636363635" style="stroke: gray; fill: white; stroke-width: 2;"></rect><rect width="120" height="24" x="9965" y="790.9090909090909" style="stroke: gray; fill: white; stroke-width: 2;"></rect><rect width="120" height="24" x="9965" y="818.1818181818182" style="stroke: gray; fill: black; stroke-width: 2;"></rect><rect width="120" height="24" x="9965" y="2181.8181818181815" style="stroke: gray; fill: white; stroke-width: 2;"></rect><rect width="120" height="24" x="9965" y="845.4545454545454" style="stroke: gray; fill: white; stroke-width: 2;"></rect><rect width="120" height="24" x="9965" y="2209.090909090909" style="stroke: gray; fill: black; stroke-width: 2;"></rect><rect width="120" height="24" x="9965" y="381.81818181818176" style="stroke: gray; fill: white; stroke-width: 2;"></rect><rect width="120" height="24" x="9965" y="1145.4545454545453" style="stroke: gray; fill: white; stroke-width: 2;"></rect><rect width="120" height="24" x="9965" y="927.2727272727271" style="stroke: gray; fill: white; stroke-width: 2;"></rect><rect width="120" height="24" x="9965" y="1281.8181818181818" style="stroke: gray; fill: black; stroke-width: 2;"></rect><rect width="120" height="24" x="9965" y="872.7272727272727" style="stroke: gray; fill: white; stroke-width: 2;"></rect><rect width="120" height="24" x="9965" y="490.90909090909093" style="stroke: gray; fill: white; stroke-width: 2;"></rect><rect width="120" height="24" x="9965" y="1145.4545454545453" style="stroke: gray; fill: white; stroke-width: 2;"></rect><rect width="120" height="24" x="9965" y="381.81818181818176" style="stroke: gray; fill: white; stroke-width: 2;"></rect><rect width="120" height="24" x="9965" y="954.5454545454545" style="stroke: gray; fill: white; stroke-width: 2;"></rect><rect width="120" height="24" x="9965" y="981.8181818181819" style="stroke: gray; fill: white; stroke-width: 2;"></rect><rect width="120" height="24" x="9965" y="490.90909090909093" style="stroke: gray; fill: white; stroke-width: 2;"></rect><rect width="120" height="24" x="9965" y="572.7272727272726" style="stroke: gray; fill: black; stroke-width: 2;"></rect><rect width="120" height="24" x="9965" y="1527.272727272727" style="stroke: gray; fill: white; stroke-width: 2;"></rect><rect width="120" height="24" x="9965" y="600" style="stroke: gray; fill: white; stroke-width: 2;"></rect><rect width="120" height="24" x="9965" y="1554.5454545454545" style="stroke: gray; fill: white; stroke-width: 2;"></rect><rect width="120" height="24" x="9965" y="1309.090909090909" style="stroke: gray; fill: white; stroke-width: 2;"></rect><rect width="120" height="24" x="9965" y="1009.090909090909" style="stroke: gray; fill: black; stroke-width: 2;"></rect><rect width="120" height="24" x="9965" y="136.36363636363635" style="stroke: gray; fill: black; stroke-width: 2;"></rect><rect width="120" height="24" x="9965" y="627.2727272727273" style="stroke: gray; fill: white; stroke-width: 2;"></rect><rect width="120" height="24" x="9965" y="1581.8181818181818" style="stroke: gray; fill: white; stroke-width: 2;"></rect><rect width="120" height="24" x="9965" y="136.36363636363635" style="stroke: gray; fill: white; stroke-width: 2;"></rect><rect width="120" height="24" x="9965" y="54.54545454545455" style="stroke: gray; fill: white; stroke-width: 2;"></rect><rect width="120" height="24" x="9965" y="1090.9090909090908" style="stroke: gray; fill: black; stroke-width: 2;"></rect><rect width="120" height="24" x="9965" y="2454.5454545454545" style="stroke: gray; fill: white; stroke-width: 2;"></rect><rect width="120" height="24" x="9965" y="245.45454545454547" style="stroke: gray; fill: white; stroke-width: 2;"></rect><rect width="120" height="24" x="9965" y="272.7272727272727" style="stroke: gray; fill: white; stroke-width: 2;"></rect><rect width="120" height="24" x="9965" y="1118.1818181818182" style="stroke: gray; fill: white; stroke-width: 2;"></rect><rect width="120" height="24" x="9965" y="1609.090909090909" style="stroke: gray; fill: black; stroke-width: 2;"></rect><rect width="120" height="24" x="9965" y="436.3636363636364" style="stroke: gray; fill: black; stroke-width: 2;"></rect><rect width="120" height="24" x="9965" y="300" style="stroke: gray; fill: black; stroke-width: 2;"></rect><rect width="120" height="24" x="9965" y="463.63636363636357" style="stroke: gray; fill: white; stroke-width: 2;"></rect><rect width="120" height="24" x="9965" y="327.27272727272725" style="stroke: gray; fill: white; stroke-width: 2;"></rect><rect width="120" height="24" x="9965" y="354.5454545454545" style="stroke: gray; fill: white; stroke-width: 2;"></rect><rect width="120" height="24" x="9965" y="27.272727272727273" style="stroke: gray; fill: white; stroke-width: 2;"></rect><rect width="120" height="24" x="9965" y="54.54545454545455" style="stroke: gray; fill: black; stroke-width: 2;"></rect><rect width="120" height="24" x="9965" y="81.81818181818181" style="stroke: gray; fill: white; stroke-width: 2;"></rect><rect width="120" height="24" x="9965" y="2481.8181818181815" style="stroke: gray; fill: white; stroke-width: 2;"></rect><rect width="120" height="24" x="9965" y="109.0909090909091" style="stroke: gray; fill: white; stroke-width: 2;"></rect></g><g transform="translate(170,32)"><path class="edges" d="M852.5,1745.4545454545455L828.4890463917526,1745.4545454545457C804.4780927835051,1745.4545454545453,756.4561855670104,1745.4545454545453,732.445231958763,1659.0909090909092C708.4342783505157,1572.7272727272727,708.4342783505157,1400,696.195231958763,1313.6363636363635C683.9561855670104,1227.2727272727273,659.4780927835052,1227.2727272727273,647.2390463917526,1227.2727272727273L635,1227.2727272727273" stroke-width="3" style="stroke: rgb(57, 59, 121); fill: none;"></path><path class="edges" d="M852.5,1745.4545454545455L825.4306271477662,1745.4545454545457C798.3612542955325,1745.4545454545453,744.222508591065,1745.4545454545453,717.1531357388312,1704.5454545454547C690.0837628865975,1663.6363636363637,690.0837628865975,1581.8181818181818,679.2364690721646,1540.9090909090908C668.3891752577316,1499.9999999999998,646.6945876288659,1499.9999999999998,635.8472938144329,1499.9999999999998L625,1499.9999999999998" stroke-width="3" style="stroke: rgb(57, 59, 121); fill: none;"></path><path class="edges" d="M852.5,1745.4545454545455L821.9791666666666,1745.4545454545457C791.4583333333334,1745.4545454545453,730.4166666666666,1745.4545454545453,699.8958333333334,1740.909090909091C669.375,1736.3636363636363,669.375,1727.2727272727273,659.4791666666666,1722.7272727272727C649.5833333333334,1718.181818181818,629.7916666666666,1718.181818181818,619.8958333333334,1718.181818181818L610,1718.181818181818" stroke-width="3" style="stroke: rgb(57, 59, 121); fill: none;"></path><path class="edges" d="M650,1227.2727272727273L639.5575601374571,1227.2727272727273C629.1151202749143,1227.2727272727273,608.2302405498285,1227.2727272727273,597.7878006872857,1059.090909090909C587.3453608247428,890.9090909090909,587.3453608247428,554.5454545454545,579.4544673539523,386.3636363636363C571.5635738831619,218.18181818181816,555.7817869415809,218.18181818181816,547.8908934707905,218.18181818181822L540,218.1818181818182" stroke-width="3" style="stroke: rgb(156, 158, 222); fill: none;"></path><path class="edges" d="M650,1227.2727272727273L637.3711340206186,1227.2727272727273C624.7422680412373,1227.2727272727273,599.4845360824744,1227.2727272727273,586.8556701030931,1113.6363636363635C574.2268041237116,1000,574.2268041237116,772.7272727272726,566.8556701030931,659.0909090909091C559.4845360824744,545.4545454545454,544.7422680412373,545.4545454545454,537.3711340206186,545.4545454545454L530,545.4545454545454" stroke-width="3" style="stroke: rgb(156, 158, 222); fill: none;"></path><path class="edges" d="M607.5,1499.9999999999998L592.5032216494847,1499.9999999999998C577.5064432989692,1499.9999999999998,547.5128865979385,1499.9999999999998,532.5161082474232,1477.272727272727C517.5193298969077,1454.5454545454543,517.5193298969077,1409.090909090909,512.0994415807564,1386.3636363636363C506.67955326460515,1363.6363636363635,495.8397766323026,1363.6363636363635,490.41988831615134,1363.6363636363637L485,1363.6363636363635" stroke-width="3" style="stroke: rgb(140, 162, 82); fill: none;"></path><path class="edges" d="M650,1227.2727272727273L629.3341924398625,1227.2727272727273C608.6683848797251,1227.2727272727273,567.3367697594502,1227.2727272727273,546.6709621993127,1200C526.0051546391753,1172.7272727272727,526.0051546391753,1118.181818181818,518.3376288659794,1090.9090909090908C510.67010309278356,1063.6363636363635,495.33505154639175,1063.6363636363635,487.66752577319585,1063.6363636363637L480,1063.6363636363635" stroke-width="3" style="stroke: rgb(156, 158, 222); fill: none;"></path><path class="edges" d="M615,1718.181818181818L598.0090206185567,1718.181818181818C581.0180412371134,1718.181818181818,547.0360824742269,1718.181818181818,530.0451030927835,1713.6363636363633C513.0541237113403,1709.090909090909,513.0541237113403,1700,507.54510309278356,1695.454545454545C502.0360824742268,1690.9090909090908,491.01804123711344,1690.9090909090908,485.5090206185567,1690.9090909090908L480,1690.9090909090908" stroke-width="3" style="stroke: rgb(206, 219, 156); fill: none;"></path><path class="edges" d="M607.5,1499.9999999999998L590.8236683848796,1499.9999999999998C574.1473367697594,1499.9999999999998,540.7946735395186,1499.9999999999998,524.1183419243984,1495.4545454545453C507.442010309278,1490.9090909090908,507.442010309278,1481.8181818181818,502.035008591065,1477.272727272727C496.628006872852,1472.7272727272727,485.814003436426,1472.7272727272727,480.407001718213,1472.7272727272723L475,1472.7272727272725" stroke-width="3" style="stroke: rgb(140, 162, 82); fill: none;"></path><path class="edges" d="M650,1227.2727272727273L624.1988831615121,1227.2727272727273C598.3977663230243,1227.2727272727273,546.7955326460484,1227.2727272727273,520.9944158075606,1222.7272727272727C495.19329896907266,1218.1818181818182,495.19329896907266,1209.090909090909,486.8277491408939,1204.5454545454545C478.4621993127151,1200,461.73109965635757,1200,453.36554982817876,1200L445,1200" stroke-width="3" style="stroke: rgb(156, 158, 222); fill: none;"></path><path class="edges" d="M537.5,218.1818181818182L520.8236683848796,218.18181818181822C504.1473367697593,218.18181818181816,470.79467353951867,218.18181818181816,454.1183419243983,213.63636363636365C437.4420103092779,209.0909090909091,437.4420103092779,200,432.0350085910649,195.4545454545454C426.628006872852,190.90909090909088,415.814003436426,190.90909090909088,410.407001718213,190.90909090909088L405.00000000000006,190.90909090909088" stroke-width="3" style="stroke: rgb(231, 186, 82); fill: none;"></path><path class="edges" d="M477.5,1472.7272727272725L465.85803264604806,1472.7272727272723C454.2160652920961,1472.7272727272727,430.93213058419224,1472.7272727272727,419.2901632302403,1468.181818181818C407.6481958762884,1463.6363636363633,407.6481958762884,1454.5454545454547,403.8734965635737,1450C400.0987972508589,1445.4545454545453,392.54939862542943,1445.4545454545453,388.77469931271474,1445.4545454545457L385,1445.4545454545455" stroke-width="3" style="stroke: rgb(231, 203, 148); fill: none;"></path><path class="edges" d="M490,1063.6363636363635L477.3840206185567,1063.6363636363637C464.76804123711344,1063.6363636363635,439.5360824742268,1063.6363636363635,426.92010309278356,1000C414.30412371134025,936.3636363636364,414.30412371134025,809.090909090909,408.5867697594502,745.4545454545454C402.8694158075602,681.8181818181818,391.43470790378007,681.8181818181818,385.71735395189006,681.8181818181819L380,681.8181818181818" stroke-width="3" style="stroke: rgb(132, 60, 57); fill: none;"></path><path class="edges" d="M477.5,1690.9090909090908L465.22873711340213,1690.9090909090908C452.9574742268043,1690.9090909090908,428.4149484536086,1690.9090909090908,416.1436855670108,1686.3636363636363C403.8724226804129,1681.8181818181818,403.8724226804129,1672.7272727272727,399.8936855670108,1668.181818181818C395.9149484536086,1663.6363636363633,387.9574742268043,1663.6363636363633,383.97873711340213,1663.6363636363637L380,1663.6363636363635" stroke-width="3" style="stroke: rgb(173, 73, 74); fill: none;"></path><path class="edges" d="M512.5,545.4545454545454L494.5650773195877,545.4545454545454C476.6301546391753,545.4545454545454,440.76030927835063,545.4545454545454,422.82538659793835,540.9090909090909C404.89046391752595,536.3636363636364,404.89046391752595,527.2727272727271,399.07538659793835,522.7272727272726C393.26030927835063,518.1818181818181,381.6301546391753,518.1818181818181,375.8150773195877,518.1818181818181L370,518.1818181818181" stroke-width="3" style="stroke: rgb(214, 97, 107); fill: none;"></path><path class="edges" d="M490,1063.6363636363635L473.5889175257732,1063.6363636363637C457.1778350515463,1063.6363636363635,424.3556701030927,1063.6363636363635,407.9445876288658,1036.3636363636363C391.533505154639,1009.090909090909,391.533505154639,954.5454545454545,385.4445876288658,927.2727272727274C379.3556701030927,900,367.1778350515463,900,361.0889175257732,900L355,900" stroke-width="3" style="stroke: rgb(132, 60, 57); fill: none;"></path><path class="edges" d="M465,1363.6363636363635L447.26589347079045,1363.6363636363637C429.53178694158095,1363.6363636363635,394.06357388316184,1363.6363636363635,376.32946735395234,1509.090909090909C358.5953608247428,1654.5454545454547,358.5953608247428,1945.4545454545453,357.16280068728565,2090.909090909091C355.7302405498285,2236.3636363636365,352.86512027491426,2236.3636363636365,351.43256013745713,2236.3636363636365L350,2236.3636363636365" stroke-width="3" style="stroke: rgb(123, 65, 115); fill: none;"></path><path class="edges" d="M457.5,1200L443.3408505154639,1200C429.18170103092774,1200,400.8634020618554,1200,386.7042525773193,1195.4545454545455C372.54510309278317,1190.909090909091,372.54510309278317,1181.8181818181818,367.9542525773193,1177.2727272727273C363.3634020618554,1172.7272727272727,354.18170103092774,1172.7272727272727,349.5908505154639,1172.7272727272727L345,1172.7272727272727" stroke-width="3" style="stroke: rgb(165, 81, 148); fill: none;"></path><path class="edges" d="M465,1363.6363636363635L449.26761168384866,1363.6363636363637C433.5352233676974,1363.6363636363635,402.07044673539485,1363.6363636363635,386.3380584192435,1359.090909090909C370.6056701030923,1354.5454545454543,370.6056701030923,1345.4545454545453,365.5047250859102,1340.9090909090908C360.40378006872817,1336.3636363636363,350.2018900343641,1336.3636363636363,345.100945017182,1336.3636363636363L340,1336.3636363636363" stroke-width="3" style="stroke: rgb(123, 65, 115); fill: none;"></path><path class="edges" d="M405.00000000000006,1445.4545454545455L389.375,1445.4545454545457C373.75,1445.4545454545453,342.5,1445.4545454545453,326.875,1436.3636363636363C311.25,1427.2727272727273,311.25,1409.090909090909,306.0416666666667,1399.9999999999998C300.8333333333333,1390.9090909090908,290.4166666666667,1390.9090909090908,285.2083333333333,1390.9090909090908L280,1390.9090909090908" stroke-width="3" style="stroke: rgb(222, 158, 214); fill: none;"></path><path class="edges" d="M490,1063.6363636363635L463.569587628866,1063.6363636363637C437.139175257732,1063.6363636363635,384.27835051546407,1063.6363636363635,357.84793814433004,1059.090909090909C331.4175257731961,1054.5454545454543,331.4175257731961,1045.4545454545453,322.84793814433004,1040.9090909090908C314.27835051546407,1036.3636363636363,297.139175257732,1036.3636363636363,288.56958762886603,1036.3636363636363L280,1036.3636363636363" stroke-width="3" style="stroke: rgb(132, 60, 57); fill: none;"></path><path class="edges" d="M375,518.1818181818181L362.055412371134,518.1818181818181C349.110824742268,518.1818181818181,323.22164948453593,518.1818181818181,310.27706185566996,499.99999999999994C297.3324742268039,481.8181818181818,297.3324742268039,445.4545454545455,292.77706185566996,427.27272727272725C288.22164948453593,409.0909090909092,279.110824742268,409.0909090909092,274.55541237113397,409.09090909090907L270,409.0909090909091" stroke-width="3" style="stroke: rgb(82, 84, 163); fill: none;"></path><path class="edges" d="M405.00000000000006,1445.4545454545455L387.37972508591065,1445.4545454545457C369.7594501718213,1445.4545454545453,334.51890034364243,1445.4545454545453,316.8986254295531,1440.909090909091C299.27835051546367,1436.3636363636363,299.27835051546367,1427.2727272727273,293.5652920962197,1422.7272727272727C287.8522336769758,1418.181818181818,276.42611683848787,1418.181818181818,270.71305841924396,1418.181818181818L265,1418.181818181818" stroke-width="3" style="stroke: rgb(222, 158, 214); fill: none;"></path><path class="edges" d="M382.5,1663.6363636363635L367.0822594501719,1663.6363636363637C351.6645189003437,1663.6363636363633,320.82903780068744,1663.6363636363633,305.41129725085926,1659.090909090909C289.99355670103114,1654.5454545454547,289.99355670103114,1645.4545454545453,284.99463058419263,1640.909090909091C279.9957044673541,1636.3636363636367,269.99785223367707,1636.3636363636367,264.9989261168385,1636.3636363636363L260,1636.3636363636365" stroke-width="3" style="stroke: rgb(156, 158, 222); fill: none;"></path><path class="edges" d="M385,681.8181818181818L367.37972508591065,681.8181818181819C349.75945017182124,681.8181818181818,314.51890034364243,681.8181818181818,296.8986254295531,677.2727272727273C279.27835051546367,672.7272727272726,279.27835051546367,663.6363636363636,273.5652920962197,659.0909090909091C267.8522336769758,654.5454545454545,256.42611683848787,654.5454545454545,250.71305841924394,654.5454545454545L245,654.5454545454545" stroke-width="3" style="stroke: rgb(99, 121, 57); fill: none;"></path><path class="edges" d="M352.5,900L338.3172250859106,900C324.13445017182124,900,295.76890034364243,900,281.5861254295531,868.1818181818181C267.40335051546367,836.3636363636364,267.40335051546367,772.7272727272726,262.0027920962197,740.9090909090909C256.6022336769758,709.090909090909,245.8011168384879,709.090909090909,240.40055841924394,709.090909090909L235,709.090909090909" stroke-width="3" style="stroke: rgb(140, 162, 82); fill: none;"></path><path class="edges" d="M397.5,190.90909090909088L376.4185996563574,190.90909090909088C355.33719931271474,190.90909090909088,313.17439862542943,190.90909090909088,292.09299828178683,186.36363636363635C271.0115979381442,181.81818181818178,271.0115979381442,172.72727272727272,264.17633161512015,168.18181818181816C257.3410652920961,163.63636363636363,243.67053264604806,163.63636363636363,236.83526632302403,163.63636363636363L230,163.63636363636363" stroke-width="3" style="stroke: rgb(181, 207, 107); fill: none;"></path><path class="edges" d="M352.5,900L337.00064432989694,900C321.50128865979394,900,290.50257731958783,900,275.00322164948483,872.7272727272726C259.50386597938177,845.4545454545454,259.50386597938177,790.9090909090909,253.7532216494848,763.6363636363635C248.00257731958786,736.3636363636364,236.50128865979391,736.3636363636364,230.75064432989697,736.3636363636361L225,736.3636363636363" stroke-width="3" style="stroke: rgb(140, 162, 82); fill: none;"></path><path class="edges" d="M350,2236.3636363636365L334.4823883161513,2236.3636363636365C318.9647766323026,2236.3636363636365,287.92955326460515,2236.3636363636365,272.41194158075643,2222.7272727272725C256.8943298969077,2209.0909090909095,256.8943298969077,2181.818181818182,251.5786082474231,2168.181818181818C246.2628865979385,2154.5454545454545,235.63144329896923,2154.5454545454545,230.31572164948463,2154.5454545454545L225,2154.5454545454545" stroke-width="3" style="stroke: rgb(140, 109, 49); fill: none;"></path><path class="edges" d="M352.5,900L336.27899484536084,900C320.0579896907216,900,287.6159793814433,900,271.3949742268041,877.2727272727274C255.17396907216494,854.5454545454545,255.17396907216494,809.090909090909,249.31164089347078,786.3636363636364C243.44931271477662,763.6363636363635,231.7246563573883,763.6363636363635,225.86232817869416,763.6363636363635L220,763.6363636363635" stroke-width="3" style="stroke: rgb(140, 162, 82); fill: none;"></path><path class="edges" d="M352.5,900L334.9323453608247,900C317.36469072164937,900,282.22938144329873,900,264.6617268041234,881.8181818181819C247.0940721649481,863.6363636363636,247.0940721649481,827.2727272727274,240.91172680412342,809.090909090909C234.72938144329873,790.9090909090909,222.36469072164937,790.9090909090909,216.18234536082468,790.9090909090909L210,790.9090909090909" stroke-width="3" style="stroke: rgb(140, 162, 82); fill: none;"></path><path class="edges" d="M352.5,900L334.18921821305844,900C315.8784364261169,900,279.25687285223376,900,260.9460910652922,886.3636363636364C242.63530927835063,872.7272727272726,242.63530927835063,845.4545454545455,236.36275773195885,831.8181818181819C230.0902061855671,818.1818181818184,217.54510309278353,818.1818181818184,211.27255154639178,818.1818181818181L205,818.1818181818182" stroke-width="3" style="stroke: rgb(140, 162, 82); fill: none;"></path><path class="edges" d="M350,2236.3636363636365L331.25,2236.3636363636365C312.5,2236.3636363636365,275,2236.3636363636365,256.25,2227.2727272727275C237.5,2218.181818181818,237.5,2200,231.25,2190.9090909090905C225,2181.8181818181815,212.5,2181.8181818181815,206.25,2181.8181818181815L200,2181.8181818181815" stroke-width="3" style="stroke: rgb(140, 109, 49); fill: none;"></path><path class="edges" d="M352.5,900L332.8125,900C313.125,900,273.75,900,254.0625,890.9090909090909C234.375,881.8181818181819,234.375,863.6363636363636,227.8125,854.5454545454545C221.25,845.4545454545454,208.125,845.4545454545454,201.5625,845.4545454545454L195,845.4545454545454" stroke-width="3" style="stroke: rgb(140, 162, 82); fill: none;"></path><path class="edges" d="M350,2236.3636363636365L329.86254295532643,2236.3636363636365C309.7250859106528,2236.3636363636365,269.4501718213057,2236.3636363636365,249.31271477663208,2231.818181818182C229.17525773195848,2227.2727272727275,229.17525773195848,2218.181818181818,222.6460481099654,2213.6363636363635C216.11683848797233,2209.090909090909,203.05841924398615,2209.090909090909,196.5292096219931,2209.0909090909086L190,2209.090909090909" stroke-width="3" style="stroke: rgb(140, 109, 49); fill: none;"></path><path class="edges" d="M337.5,1172.7272727272727L318.30648625429546,1172.7272727272727C299.11297250859093,1172.7272727272727,260.72594501718186,1172.7272727272727,241.53243127147732,1168.1818181818182C222.33891752577279,1163.6363636363637,222.33891752577279,1154.5454545454543,216.11576460481066,1149.9999999999998C209.89261168384851,1145.4545454545453,197.44630584192427,1145.4545454545453,191.22315292096212,1145.4545454545453L185,1145.4545454545453" stroke-width="3" style="stroke: rgb(231, 150, 156); fill: none;"></path><path class="edges" d="M280,1036.3636363636363L268.2882302405498,1036.3636363636363C256.57646048109956,1036.3636363636363,233.15292096219915,1036.3636363636363,221.44115120274896,1018.181818181818C209.72938144329873,999.9999999999999,209.72938144329873,963.6363636363635,205.6078178694156,945.4545454545454C201.4862542955325,927.2727272727271,193.24312714776624,927.2727272727271,189.12156357388312,927.2727272727271L185,927.2727272727271" stroke-width="3" style="stroke: rgb(123, 65, 115); fill: none;"></path><path class="edges" d="M350,1336.3636363636363L329.375,1336.3636363636363C308.75,1336.3636363636363,267.5,1336.3636363636363,246.875,1327.2727272727273C226.25,1318.181818181818,226.25,1300,219.375,1290.9090909090908C212.5,1281.8181818181818,198.75,1281.8181818181818,191.875,1281.8181818181818L185,1281.8181818181818" stroke-width="3" style="stroke: rgb(165, 81, 148); fill: none;"></path><path class="edges" d="M352.5,900L331.41859965635734,900C310.33719931271474,900,268.17439862542943,900,247.0929982817868,895.4545454545455C226.01159793814418,890.909090909091,226.01159793814418,881.8181818181819,219.17633161512015,877.2727272727274C212.34106529209612,872.7272727272726,198.67053264604806,872.7272727272726,191.83526632302403,872.7272727272729L185,872.7272727272727" stroke-width="3" style="stroke: rgb(140, 162, 82); fill: none;"></path><path class="edges" d="M275,409.0909090909091L263.0433848797251,409.09090909090907C251.08676975945022,409.0909090909092,227.1735395189004,409.0909090909092,215.21692439862554,404.5454545454545C203.26030927835063,400,203.26030927835063,390.9090909090908,199.3835910652922,386.3636363636363C195.50687285223376,381.81818181818176,187.75343642611688,381.81818181818176,183.87671821305844,381.81818181818176L180,381.81818181818176" stroke-width="3" style="stroke: rgb(222, 158, 214); fill: none;"></path><path class="edges" d="M280,1036.3636363636363L266.96520618556707,1036.3636363636363C253.93041237113417,1036.3636363636363,227.86082474226836,1036.3636363636363,214.82603092783543,1022.7272727272726C201.79123711340253,1009.090909090909,201.79123711340253,981.8181818181816,197.32603092783543,968.181818181818C192.86082474226836,954.5454545454545,183.93041237113417,954.5454545454545,179.4652061855671,954.5454545454544L175,954.5454545454545" stroke-width="3" style="stroke: rgb(123, 65, 115); fill: none;"></path><path class="edges" d="M280,1036.3636363636363L265.625,1036.3636363636363C251.25,1036.3636363636363,222.5,1036.3636363636363,208.125,1027.2727272727273C193.75,1018.1818181818181,193.75,1000,188.95833333333334,990.909090909091C184.16666666666666,981.8181818181819,174.58333333333334,981.8181818181819,169.79166666666666,981.8181818181819L165,981.8181818181819" stroke-width="3" style="stroke: rgb(123, 65, 115); fill: none;"></path><path class="edges" d="M375,518.1818181818181L348.569587628866,518.1818181818181C322.139175257732,518.1818181818181,269.27835051546407,518.1818181818181,242.84793814433007,513.6363636363636C216.41752577319608,509.09090909090907,216.41752577319608,500,207.84793814433007,495.4545454545455C199.27835051546404,490.90909090909093,182.13917525773203,490.90909090909093,173.569587628866,490.90909090909093L165,490.90909090909093" stroke-width="3" style="stroke: rgb(82, 84, 163); fill: none;"></path><path class="edges" d="M242.5,654.5454545454545L231.01696735395194,654.5454545454545C219.53393470790388,654.5454545454545,196.56786941580776,654.5454545454545,185.0848367697597,640.9090909090909C173.60180412371164,627.2727272727271,173.60180412371164,599.9999999999999,169.66817010309305,586.3636363636363C165.73453608247442,572.7272727272726,157.86726804123722,572.7272727272726,153.9336340206186,572.7272727272726L150,572.7272727272726" stroke-width="3" style="stroke: rgb(156, 158, 222); fill: none;"></path><path class="edges" d="M252.5,1636.3636363636365L239.2472079037801,1636.3636363636363C225.99441580756016,1636.3636363636367,199.48883161512035,1636.3636363636367,186.2360395189004,1618.181818181818C172.9832474226805,1600,172.9832474226805,1563.6363636363633,168.31937285223376,1545.4545454545453C163.655498281787,1527.272727272727,154.3277491408935,1527.272727272727,149.66387457044675,1527.272727272727L145,1527.272727272727" stroke-width="3" style="stroke: rgb(99, 121, 57); fill: none;"></path><path class="edges" d="M242.5,654.5454545454545L229.6875,654.5454545454545C216.875,654.5454545454545,191.25,654.5454545454545,178.4375,645.4545454545454C165.625,636.3636363636364,165.625,618.1818181818181,161.35416666666666,609.0909090909091C157.08333333333334,600,148.54166666666666,600,144.27083333333334,600L140,600" stroke-width="3" style="stroke: rgb(156, 158, 222); fill: none;"></path><path class="edges" d="M252.5,1636.3636363636365L237.91344501718206,1636.3636363636363C223.32689003436408,1636.3636363636367,194.1537800687282,1636.3636363636367,179.56722508591022,1622.7272727272727C164.98067010309228,1609.0909090909092,164.98067010309228,1581.818181818182,159.9838917525769,1568.181818181818C154.9871134020615,1554.5454545454547,144.99355670103077,1554.5454545454547,139.99677835051537,1554.5454545454543L135,1554.5454545454545" stroke-width="3" style="stroke: rgb(99, 121, 57); fill: none;"></path><path class="edges" d="M350,1336.3636363636363L322.94029209621993,1336.3636363636363C295.8805841924398,1336.3636363636363,241.76116838487965,1336.3636363636363,214.7014604810996,1331.8181818181818C187.6417525773195,1327.2727272727273,187.6417525773195,1318.181818181818,178.86812714776624,1313.6363636363635C170.094501718213,1309.090909090909,152.5472508591065,1309.090909090909,143.77362542955325,1309.090909090909L135,1309.090909090909" stroke-width="3" style="stroke: rgb(165, 81, 148); fill: none;"></path><path class="edges" d="M280,1036.3636363636363L261.1211340206186,1036.3636363636363C242.24226804123722,1036.3636363636363,204.48453608247442,1036.3636363636363,185.60567010309305,1031.8181818181818C166.72680412371164,1027.2727272727273,166.72680412371164,1018.181818181818,160.60567010309305,1013.6363636363635C154.48453608247442,1009.090909090909,142.24226804123722,1009.090909090909,136.1211340206186,1009.090909090909L130,1009.090909090909" stroke-width="3" style="stroke: rgb(123, 65, 115); fill: none;"></path><path class="edges" d="M242.5,654.5454545454545L227.08225945017185,654.5454545454545C211.66451890034372,654.5454545454545,180.82903780068742,654.5454545454545,165.4112972508593,650C149.99355670103114,645.4545454545454,149.99355670103114,636.3636363636364,144.9946305841926,631.8181818181819C139.9957044673541,627.2727272727273,129.99785223367704,627.2727272727273,124.99892611683852,627.2727272727271L120,627.2727272727273" stroke-width="3" style="stroke: rgb(156, 158, 222); fill: none;"></path><path class="edges" d="M252.5,1636.3636363636365L235.9375,1636.3636363636363C219.375,1636.3636363636367,186.25,1636.3636363636367,169.6875,1627.2727272727273C153.125,1618.1818181818182,153.125,1600,147.60416666666666,1590.909090909091C142.08333333333334,1581.8181818181818,131.04166666666666,1581.8181818181818,125.52083333333333,1581.8181818181818L120,1581.8181818181818" stroke-width="3" style="stroke: rgb(99, 121, 57); fill: none;"></path><path class="edges" d="M245,163.63636363636363L228.63831615120282,163.63636363636363C212.2766323024056,163.63636363636363,179.55326460481123,163.63636363636363,163.19158075601402,159.0909090909091C146.82989690721683,154.54545454545453,146.82989690721683,145.45454545454544,141.52491408934736,140.9090909090909C136.2199312714779,136.36363636363635,125.60996563573894,136.36363636363635,120.30498281786947,136.36363636363635L115,136.36363636363635" stroke-width="3" style="stroke: rgb(231, 203, 148); fill: none;"></path><path class="edges" d="M182.5,1145.4545454545453L171.5625,1145.4545454545453C160.625,1145.4545454545453,138.75,1145.4545454545453,127.8125,1136.3636363636363C116.875,1127.272727272727,116.875,1109.090909090909,113.22916666666667,1099.9999999999998C109.58333333333333,1090.9090909090908,102.29166666666667,1090.9090909090908,98.64583333333333,1090.9090909090908L95,1090.9090909090908" stroke-width="3" style="stroke: rgb(132, 60, 57); fill: none;"></path><path class="edges" d="M182.5,381.81818181818176L169.95167525773203,381.81818181818176C157.40335051546404,381.81818181818176,132.3067010309281,381.81818181818176,119.75837628866013,359.090909090909C107.21005154639215,336.3636363636363,107.21005154639215,290.90909090909093,102.67504295532679,268.1818181818182C98.14003436426144,245.45454545454547,89.07001718213071,245.45454545454547,84.53500859106536,245.45454545454547L80,245.45454545454547" stroke-width="3" style="stroke: rgb(173, 73, 74); fill: none;"></path><path class="edges" d="M182.5,381.81818181818176L169.2472079037801,381.81818181818176C155.99441580756016,381.81818181818176,129.48883161512035,381.81818181818176,116.23603951890043,363.63636363636357C102.9832474226805,345.45454545454544,102.9832474226805,309.09090909090907,98.31937285223376,290.9090909090909C93.655498281787,272.7272727272727,84.3277491408935,272.7272727272727,79.66387457044675,272.7272727272727L75,272.7272727272727" stroke-width="3" style="stroke: rgb(173, 73, 74); fill: none;"></path><path class="edges" d="M182.5,1145.4545454545453L168.34085051546387,1145.4545454545453C154.1817010309277,1145.4545454545453,125.86340206185544,1145.4545454545453,111.70425257731931,1140.9090909090908C97.54510309278317,1136.3636363636363,97.54510309278317,1127.2727272727273,92.95425257731931,1122.7272727272727C88.36340206185544,1118.1818181818182,79.18170103092773,1118.1818181818182,74.59085051546386,1118.1818181818182L70,1118.1818181818182" stroke-width="3" style="stroke: rgb(132, 60, 57); fill: none;"></path><path class="edges" d="M252.5,1636.3636363636365L229.53071305841925,1636.3636363636363C206.56142611683853,1636.3636363636367,160.62285223367704,1636.3636363636367,137.65356529209632,1631.818181818182C114.68427835051557,1627.2727272727273,114.68427835051557,1618.181818181818,107.23689862542965,1613.6363636363633C99.78951890034371,1609.090909090909,84.89475945017186,1609.090909090909,77.44737972508592,1609.090909090909L70,1609.090909090909" stroke-width="3" style="stroke: rgb(99, 121, 57); fill: none;"></path><path class="edges" d="M172.5,490.90909090909093L159.0625,490.90909090909093C145.625,490.90909090909093,118.75,490.90909090909093,105.3125,481.8181818181818C91.875,472.72727272727275,91.875,454.54545454545456,87.39583333333333,445.4545454545455C82.91666666666667,436.3636363636363,73.95833333333333,436.3636363636363,69.47916666666667,436.36363636363643L65,436.3636363636364" stroke-width="3" style="stroke: rgb(165, 81, 148); fill: none;"></path><path class="edges" d="M182.5,381.81818181818176L167.29274054982815,381.81818181818176C152.08548109965628,381.81818181818176,121.67096219931257,381.81818181818176,106.46370274914072,368.1818181818182C91.25644329896886,354.5454545454545,91.25644329896886,327.27272727272725,86.04703608247405,313.6363636363636C80.83762886597924,300,70.41881443298962,300,65.20940721649481,300L60,300" stroke-width="3" style="stroke: rgb(173, 73, 74); fill: none;"></path><path class="edges" d="M172.5,490.90909090909093L157.71155498281794,490.90909090909093C142.92310996563592,490.90909090909093,113.34621993127182,490.90909090909093,98.55777491408976,486.3636363636363C83.76932989690772,481.8181818181818,83.76932989690772,472.7272727272727,78.97444158075643,468.1818181818181C74.17955326460515,463.63636363636357,64.58977663230257,463.63636363636357,59.79488831615129,463.63636363636357L55,463.63636363636357" stroke-width="3" style="stroke: rgb(165, 81, 148); fill: none;"></path><path class="edges" d="M182.5,381.81818181818176L165.3125,381.81818181818176C148.125,381.81818181818176,113.75,381.81818181818176,96.5625,372.7272727272727C79.375,363.63636363636357,79.375,345.45454545454544,73.64583333333333,336.3636363636363C67.91666666666667,327.27272727272725,56.458333333333336,327.27272727272725,50.729166666666664,327.27272727272725L45,327.27272727272725" stroke-width="3" style="stroke: rgb(173, 73, 74); fill: none;"></path><path class="edges" d="M182.5,381.81818181818176L163.93578178694156,381.81818181818176C145.37156357388312,381.81818181818176,108.24312714776624,381.81818181818176,89.6789089347078,377.2727272727272C71.11469072164937,372.7272727272727,71.11469072164937,363.63636363636357,65.09557560137448,359.090909090909C59.07646048109958,354.5454545454545,47.03823024054979,354.5454545454545,41.0191151202749,354.5454545454545L35,354.5454545454545" stroke-width="3" style="stroke: rgb(173, 73, 74); fill: none;"></path><path class="edges" d="M115,95.45454545454544L104.41151202749136,95.45454545454544C93.8230240549827,95.45454545454544,72.6460481099654,95.45454545454544,62.057560137456754,84.09090909090908C51.4690721649481,72.72727272727272,51.4690721649481,50,47.89089347079008,38.63636363636363C44.31271477663207,27.27272727272727,37.15635738831603,27.27272727272727,33.57817869415802,27.272727272727277L30,27.272727272727273" stroke-width="3" style="stroke: rgb(107, 110, 207); fill: none;"></path><path class="edges" d="M117.5,136.36363636363635L106.01696735395194,136.36363636363635C94.53393470790388,136.36363636363635,71.56786941580776,136.36363636363635,60.084836769759704,122.7272727272727C48.601804123711645,109.09090909090908,48.601804123711645,81.81818181818181,44.66817010309304,68.18181818181817C40.73453608247443,54.54545454545454,32.86726804123722,54.54545454545454,28.93363402061861,54.545454545454554L25,54.54545454545455" stroke-width="3" style="stroke: rgb(107, 110, 207); fill: none;"></path><path class="edges" d="M117.5,136.36363636363635L104.6875,136.36363636363635C91.875,136.36363636363635,66.25,136.36363636363635,53.4375,127.27272727272725C40.625,118.18181818181817,40.625,100,36.354166666666664,90.90909090909092C32.083333333333336,81.81818181818181,23.541666666666668,81.81818181818181,19.270833333333332,81.81818181818181L15,81.81818181818181" stroke-width="3" style="stroke: rgb(107, 110, 207); fill: none;"></path><path class="edges" d="M117.5,136.36363636363635L102.71155498281796,136.36363636363635C87.9231099656359,136.36363636363635,58.34621993127181,136.36363636363635,43.55777491408977,131.8181818181818C28.76932989690772,127.27272727272725,28.76932989690772,118.18181818181817,23.974441580756434,113.63636363636364C19.179553264605147,109.09090909090908,9.589776632302573,109.09090909090908,4.794888316151287,109.09090909090911L0,109.0909090909091" stroke-width="3" style="stroke: rgb(107, 110, 207); fill: none;"></path><path class="parentEdges" d="M790,1745.4545454545455L915,1745.4545454545455" style="stroke: rgb(57, 59, 121); stroke-width: 4; fill: none;"></path><path class="parentEdges" d="M790,1745.4545454545455L915,1745.4545454545455" style="stroke: rgb(57, 59, 121); stroke-width: 4; fill: none;"></path><path class="parentEdges" d="M790,1745.4545454545455L915,1745.4545454545455" style="stroke: rgb(57, 59, 121); stroke-width: 4; fill: none;"></path><path class="parentEdges" d="M635,1227.2727272727273L665,1227.2727272727273" style="stroke: rgb(156, 158, 222); stroke-width: 4; fill: none;"></path><path class="parentEdges" d="M635,1227.2727272727273L665,1227.2727272727273" style="stroke: rgb(156, 158, 222); stroke-width: 4; fill: none;"></path><path class="parentEdges" d="M590,1499.9999999999998L625,1499.9999999999998" style="stroke: rgb(140, 162, 82); stroke-width: 4; fill: none;"></path><path class="parentEdges" d="M635,1227.2727272727273L665,1227.2727272727273" style="stroke: rgb(156, 158, 222); stroke-width: 4; fill: none;"></path><path class="parentEdges" d="M610,1718.181818181818L620,1718.181818181818" style="stroke: rgb(206, 219, 156); stroke-width: 4; fill: none;"></path><path class="parentEdges" d="M590,1499.9999999999998L625,1499.9999999999998" style="stroke: rgb(140, 162, 82); stroke-width: 4; fill: none;"></path><path class="parentEdges" d="M635,1227.2727272727273L665,1227.2727272727273" style="stroke: rgb(156, 158, 222); stroke-width: 4; fill: none;"></path><path class="parentEdges" d="M535,218.1818181818182L540,218.1818181818182" style="stroke: rgb(231, 186, 82); stroke-width: 4; fill: none;"></path><path class="parentEdges" d="M475,1472.7272727272725L480,1472.7272727272725" style="stroke: rgb(231, 203, 148); stroke-width: 4; fill: none;"></path><path class="parentEdges" d="M480,1063.6363636363635L500,1063.6363636363635" style="stroke: rgb(132, 60, 57); stroke-width: 4; fill: none;"></path><path class="parentEdges" d="M475,1690.9090909090908L480,1690.9090909090908" style="stroke: rgb(173, 73, 74); stroke-width: 4; fill: none;"></path><path class="parentEdges" d="M495,545.4545454545454L530,545.4545454545454" style="stroke: rgb(214, 97, 107); stroke-width: 4; fill: none;"></path><path class="parentEdges" d="M480,1063.6363636363635L500,1063.6363636363635" style="stroke: rgb(132, 60, 57); stroke-width: 4; fill: none;"></path><path class="parentEdges" d="M445,1363.6363636363635L485,1363.6363636363635" style="stroke: rgb(123, 65, 115); stroke-width: 4; fill: none;"></path><path class="parentEdges" d="M445,1200L470,1200" style="stroke: rgb(165, 81, 148); stroke-width: 4; fill: none;"></path><path class="parentEdges" d="M445,1363.6363636363635L485,1363.6363636363635" style="stroke: rgb(123, 65, 115); stroke-width: 4; fill: none;"></path><path class="parentEdges" d="M385,1445.4545454545455L424.99999999999994,1445.4545454545455" style="stroke: rgb(222, 158, 214); stroke-width: 4; fill: none;"></path><path class="parentEdges" d="M480,1063.6363636363635L500,1063.6363636363635" style="stroke: rgb(132, 60, 57); stroke-width: 4; fill: none;"></path><path class="parentEdges" d="M370,518.1818181818181L380,518.1818181818181" style="stroke: rgb(82, 84, 163); stroke-width: 4; fill: none;"></path><path class="parentEdges" d="M385,1445.4545454545455L424.99999999999994,1445.4545454545455" style="stroke: rgb(222, 158, 214); stroke-width: 4; fill: none;"></path><path class="parentEdges" d="M380,1663.6363636363635L385,1663.6363636363635" style="stroke: rgb(156, 158, 222); stroke-width: 4; fill: none;"></path><path class="parentEdges" d="M380,681.8181818181818L390,681.8181818181818" style="stroke: rgb(99, 121, 57); stroke-width: 4; fill: none;"></path><path class="parentEdges" d="M350,900L355,900" style="stroke: rgb(140, 162, 82); stroke-width: 4; fill: none;"></path><path class="parentEdges" d="M390,190.90909090909088L405.00000000000006,190.90909090909088" style="stroke: rgb(181, 207, 107); stroke-width: 4; fill: none;"></path><path class="parentEdges" d="M350,900L355,900" style="stroke: rgb(140, 162, 82); stroke-width: 4; fill: none;"></path><path class="parentEdges" d="M350,2236.3636363636365L350,2236.3636363636365" style="stroke: rgb(140, 109, 49); stroke-width: 4; fill: none;"></path><path class="parentEdges" d="M350,900L355,900" style="stroke: rgb(140, 162, 82); stroke-width: 4; fill: none;"></path><path class="parentEdges" d="M350,900L355,900" style="stroke: rgb(140, 162, 82); stroke-width: 4; fill: none;"></path><path class="parentEdges" d="M350,900L355,900" style="stroke: rgb(140, 162, 82); stroke-width: 4; fill: none;"></path><path class="parentEdges" d="M350,2236.3636363636365L350,2236.3636363636365" style="stroke: rgb(140, 109, 49); stroke-width: 4; fill: none;"></path><path class="parentEdges" d="M350,900L355,900" style="stroke: rgb(140, 162, 82); stroke-width: 4; fill: none;"></path><path class="parentEdges" d="M350,2236.3636363636365L350,2236.3636363636365" style="stroke: rgb(140, 109, 49); stroke-width: 4; fill: none;"></path><path class="parentEdges" d="M330,1172.7272727272727L345,1172.7272727272727" style="stroke: rgb(231, 150, 156); stroke-width: 4; fill: none;"></path><path class="parentEdges" d="M280,1036.3636363636363L280,1036.3636363636363" style="stroke: rgb(123, 65, 115); stroke-width: 4; fill: none;"></path><path class="parentEdges" d="M340,1336.3636363636363L360,1336.3636363636363" style="stroke: rgb(165, 81, 148); stroke-width: 4; fill: none;"></path><path class="parentEdges" d="M350,900L355,900" style="stroke: rgb(140, 162, 82); stroke-width: 4; fill: none;"></path><path class="parentEdges" d="M270,409.0909090909091L280,409.0909090909091" style="stroke: rgb(222, 158, 214); stroke-width: 4; fill: none;"></path><path class="parentEdges" d="M280,1036.3636363636363L280,1036.3636363636363" style="stroke: rgb(123, 65, 115); stroke-width: 4; fill: none;"></path><path class="parentEdges" d="M280,1036.3636363636363L280,1036.3636363636363" style="stroke: rgb(123, 65, 115); stroke-width: 4; fill: none;"></path><path class="parentEdges" d="M370,518.1818181818181L380,518.1818181818181" style="stroke: rgb(82, 84, 163); stroke-width: 4; fill: none;"></path><path class="parentEdges" d="M240,654.5454545454545L245,654.5454545454545" style="stroke: rgb(156, 158, 222); stroke-width: 4; fill: none;"></path><path class="parentEdges" d="M245,1636.3636363636365L260,1636.3636363636365" style="stroke: rgb(99, 121, 57); stroke-width: 4; fill: none;"></path><path class="parentEdges" d="M240,654.5454545454545L245,654.5454545454545" style="stroke: rgb(156, 158, 222); stroke-width: 4; fill: none;"></path><path class="parentEdges" d="M245,1636.3636363636365L260,1636.3636363636365" style="stroke: rgb(99, 121, 57); stroke-width: 4; fill: none;"></path><path class="parentEdges" d="M340,1336.3636363636363L360,1336.3636363636363" style="stroke: rgb(165, 81, 148); stroke-width: 4; fill: none;"></path><path class="parentEdges" d="M280,1036.3636363636363L280,1036.3636363636363" style="stroke: rgb(123, 65, 115); stroke-width: 4; fill: none;"></path><path class="parentEdges" d="M240,654.5454545454545L245,654.5454545454545" style="stroke: rgb(156, 158, 222); stroke-width: 4; fill: none;"></path><path class="parentEdges" d="M245,1636.3636363636365L260,1636.3636363636365" style="stroke: rgb(99, 121, 57); stroke-width: 4; fill: none;"></path><path class="parentEdges" d="M230,163.63636363636363L260,163.63636363636363" style="stroke: rgb(231, 203, 148); stroke-width: 4; fill: none;"></path><path class="parentEdges" d="M185,1145.4545454545453L180,1145.4545454545453" style="stroke: rgb(132, 60, 57); stroke-width: 4; fill: none;"></path><path class="parentEdges" d="M180,381.81818181818176L185,381.81818181818176" style="stroke: rgb(173, 73, 74); stroke-width: 4; fill: none;"></path><path class="parentEdges" d="M180,381.81818181818176L185,381.81818181818176" style="stroke: rgb(173, 73, 74); stroke-width: 4; fill: none;"></path><path class="parentEdges" d="M185,1145.4545454545453L180,1145.4545454545453" style="stroke: rgb(132, 60, 57); stroke-width: 4; fill: none;"></path><path class="parentEdges" d="M245,1636.3636363636365L260,1636.3636363636365" style="stroke: rgb(99, 121, 57); stroke-width: 4; fill: none;"></path><path class="parentEdges" d="M165,490.90909090909093L180,490.90909090909093" style="stroke: rgb(165, 81, 148); stroke-width: 4; fill: none;"></path><path class="parentEdges" d="M180,381.81818181818176L185,381.81818181818176" style="stroke: rgb(173, 73, 74); stroke-width: 4; fill: none;"></path><path class="parentEdges" d="M165,490.90909090909093L180,490.90909090909093" style="stroke: rgb(165, 81, 148); stroke-width: 4; fill: none;"></path><path class="parentEdges" d="M180,381.81818181818176L185,381.81818181818176" style="stroke: rgb(173, 73, 74); stroke-width: 4; fill: none;"></path><path class="parentEdges" d="M180,381.81818181818176L185,381.81818181818176" style="stroke: rgb(173, 73, 74); stroke-width: 4; fill: none;"></path><path class="parentEdges" d="M115,136.36363636363635L115,54.54545454545455" style="stroke: rgb(107, 110, 207); stroke-width: 4; fill: none;"></path><path class="parentEdges" d="M115,136.36363636363635L120,136.36363636363635" style="stroke: rgb(107, 110, 207); stroke-width: 4; fill: none;"></path><path class="parentEdges" d="M115,136.36363636363635L120,136.36363636363635" style="stroke: rgb(107, 110, 207); stroke-width: 4; fill: none;"></path><path class="parentEdges" d="M115,136.36363636363635L120,136.36363636363635" style="stroke: rgb(107, 110, 207); stroke-width: 4; fill: none;"></path><g class="node" transform="translate(903,1733.4545454545455)" style="fill: white; stroke: rgb(57, 59, 121); stroke-width: 3;"><rect width="24" height="24"></rect><text dx="6" dy="18" fill="black" stroke="none">64</text></g><g class="node" transform="translate(653,1215.2727272727273)" style="fill: white; stroke: rgb(156, 158, 222); stroke-width: 3;"><rect width="24" height="24"></rect><text dx="6" dy="18" fill="black" stroke="none">45</text></g><g class="node" transform="translate(613,1487.9999999999998)" style="fill: white; stroke: rgb(140, 162, 82); stroke-width: 3;"><rect width="24" height="24"></rect><text dx="6" dy="18" fill="black" stroke="none">55</text></g><g class="node" transform="translate(608,1706.181818181818)" style="fill: white; stroke: rgb(206, 219, 156); stroke-width: 3;"><rect width="24" height="24"></rect><text dx="6" dy="18" fill="black" stroke="none">63</text></g><g class="node" transform="translate(528,206.1818181818182)" style="fill: white; stroke: rgb(231, 186, 82); stroke-width: 3;"><rect width="24" height="24"></rect><text dx="6" dy="18" fill="black" stroke="none">8</text></g><g class="node" transform="translate(518,533.4545454545454)" style="fill: white; stroke: rgb(214, 97, 107); stroke-width: 3;"><rect width="24" height="24"></rect><text dx="6" dy="18" fill="black" stroke="none">20</text></g><g class="node" transform="translate(488,1051.6363636363635)" style="fill: white; stroke: rgb(132, 60, 57); stroke-width: 3;"><rect width="24" height="24"></rect><text dx="6" dy="18" fill="black" stroke="none">39</text></g><g class="node" transform="translate(473,1351.6363636363635)" style="fill: white; stroke: rgb(123, 65, 115); stroke-width: 3;"><rect width="24" height="24"></rect><text dx="6" dy="18" fill="black" stroke="none">50</text></g><g class="node" transform="translate(468,1460.7272727272725)" style="fill: white; stroke: rgb(231, 203, 148); stroke-width: 3;"><rect width="24" height="24"></rect><text dx="6" dy="18" fill="black" stroke="none">54</text></g><g class="node" transform="translate(468,1678.9090909090908)" style="fill: white; stroke: rgb(173, 73, 74); stroke-width: 3;"><rect width="24" height="24"></rect><text dx="6" dy="18" fill="black" stroke="none">62</text></g><g class="node" transform="translate(458,1188)" style="fill: white; stroke: rgb(165, 81, 148); stroke-width: 3;"><rect width="24" height="24"></rect><text dx="6" dy="18" fill="black" stroke="none">44</text></g><g class="node" transform="translate(412.99999999999994,1433.4545454545455)" style="fill: white; stroke: rgb(222, 158, 214); stroke-width: 3;"><rect width="24" height="24"></rect><text dx="6" dy="18" fill="black" stroke="none">53</text></g><g class="node" transform="translate(393.00000000000006,178.90909090909088)" style="fill: white; stroke: rgb(181, 207, 107); stroke-width: 3;"><rect width="24" height="24"></rect><text dx="6" dy="18" fill="black" stroke="none">7</text></g><g class="node" transform="translate(378,669.8181818181818)" style="fill: white; stroke: rgb(99, 121, 57); stroke-width: 3;"><rect width="24" height="24"></rect><text dx="6" dy="18" fill="black" stroke="none">25</text></g><g class="node" transform="translate(373,1651.6363636363635)" style="fill: white; stroke: rgb(156, 158, 222); stroke-width: 3;"><rect width="24" height="24"></rect><text dx="6" dy="18" fill="black" stroke="none">61</text></g><g class="node" transform="translate(368,506.18181818181813)" style="fill: white; stroke: rgb(82, 84, 163); stroke-width: 3;"><rect width="24" height="24"></rect><text dx="6" dy="18" fill="black" stroke="none">19</text></g><g class="node" transform="translate(348,1324.3636363636363)" style="fill: white; stroke: rgb(165, 81, 148); stroke-width: 3;"><rect width="24" height="24"></rect><text dx="6" dy="18" fill="black" stroke="none">49</text></g><g class="node" transform="translate(343,888)" style="fill: white; stroke: rgb(140, 162, 82); stroke-width: 3;"><rect width="24" height="24"></rect><text dx="6" dy="18" fill="black" stroke="none">33</text></g><g class="node" transform="translate(338,2224.3636363636365)" style="fill: white; stroke: rgb(140, 109, 49); stroke-width: 3;"><rect width="24" height="24"></rect><text dx="6" dy="18" fill="black" stroke="none">82</text></g><g class="node" transform="translate(333,1160.7272727272727)" style="fill: white; stroke: rgb(231, 150, 156); stroke-width: 3;"><rect width="24" height="24"></rect><text dx="6" dy="18" fill="black" stroke="none">43</text></g><g class="node" transform="translate(268,1024.3636363636363)" style="fill: white; stroke: rgb(123, 65, 115); stroke-width: 3;"><rect width="24" height="24"></rect><text dx="6" dy="18" fill="black" stroke="none">38</text></g><g class="node" transform="translate(268,397.0909090909091)" style="fill: white; stroke: rgb(222, 158, 214); stroke-width: 3;"><rect width="24" height="24"></rect><text dx="6" dy="18" fill="black" stroke="none">15</text></g><g class="node" transform="translate(248,151.63636363636363)" style="fill: white; stroke: rgb(231, 203, 148); stroke-width: 3;"><rect width="24" height="24"></rect><text dx="6" dy="18" fill="black" stroke="none">6</text></g><g class="node" transform="translate(248,1624.3636363636365)" style="fill: white; stroke: rgb(99, 121, 57); stroke-width: 3;"><rect width="24" height="24"></rect><text dx="6" dy="18" fill="black" stroke="none">60</text></g><g class="node" transform="translate(233,642.5454545454545)" style="fill: white; stroke: rgb(156, 158, 222); stroke-width: 3;"><rect width="24" height="24"></rect><text dx="6" dy="18" fill="black" stroke="none">24</text></g><g class="node" transform="translate(223,697.090909090909)" style="fill: white; stroke: black; stroke-width: 3;"><rect width="24" height="24"></rect><text dx="6" dy="18" fill="black" stroke="none">26</text></g><g class="node" transform="translate(213,724.3636363636363)" style="fill: white; stroke: black; stroke-width: 3;"><rect width="24" height="24"></rect><text dx="6" dy="18" fill="black" stroke="none">27</text></g><g class="node" transform="translate(213,2142.5454545454545)" style="fill: white; stroke: black; stroke-width: 3;"><rect width="24" height="24"></rect><text dx="6" dy="18" fill="black" stroke="none">79</text></g><g class="node" transform="translate(193,806.1818181818182)" style="fill: black; stroke: black; stroke-width: 3;"><rect width="24" height="24"></rect><text dx="6" dy="18" fill="white" stroke="none">30</text></g><g class="node" transform="translate(178,2197.090909090909)" style="fill: black; stroke: black; stroke-width: 3;"><rect width="24" height="24"></rect><text dx="6" dy="18" fill="white" stroke="none">81</text></g><g class="node" transform="translate(173,369.81818181818176)" style="fill: white; stroke: rgb(173, 73, 74); stroke-width: 3;"><rect width="24" height="24"></rect><text dx="6" dy="18" fill="black" stroke="none">14</text></g><g class="node" transform="translate(168,478.90909090909093)" style="fill: white; stroke: rgb(165, 81, 148); stroke-width: 3;"><rect width="24" height="24"></rect><text dx="6" dy="18" fill="black" stroke="none">18</text></g><g class="node" transform="translate(168,1133.4545454545453)" style="fill: white; stroke: rgb(132, 60, 57); stroke-width: 3;"><rect width="24" height="24"></rect><text dx="6" dy="18" fill="black" stroke="none">42</text></g><g class="node" transform="translate(163,942.5454545454545)" style="fill: white; stroke: black; stroke-width: 3;"><rect width="24" height="24"></rect><text dx="6" dy="18" fill="black" stroke="none">35</text></g><g class="node" transform="translate(138,560.7272727272726)" style="fill: black; stroke: black; stroke-width: 3;"><rect width="24" height="24"></rect><text dx="6" dy="18" fill="white" stroke="none">21</text></g><g class="node" transform="translate(123,1542.5454545454545)" style="fill: white; stroke: black; stroke-width: 3;"><rect width="24" height="24"></rect><text dx="6" dy="18" fill="black" stroke="none">57</text></g><g class="node" transform="translate(118,997.090909090909)" style="fill: black; stroke: black; stroke-width: 3;"><rect width="24" height="24"></rect><text dx="6" dy="18" fill="white" stroke="none">37</text></g><g class="node" transform="translate(108,124.36363636363635)" style="fill: black; stroke: black; stroke-width: 3;"><rect width="24" height="24"></rect><text dx="6" dy="18" fill="white" stroke="none">5</text></g><g class="node" transform="translate(108,1569.8181818181818)" style="fill: white; stroke: black; stroke-width: 3;"><rect width="24" height="24"></rect><text dx="6" dy="18" fill="black" stroke="none">58</text></g><g class="node" transform="translate(103,42.54545454545455)" style="fill: white; stroke: rgb(107, 110, 207); stroke-width: 3;"><rect width="24" height="24"></rect><text dx="6" dy="18" fill="black" stroke="none">2</text></g><g class="node" transform="translate(83,1078.9090909090908)" style="fill: black; stroke: black; stroke-width: 3;"><rect width="24" height="24"></rect><text dx="6" dy="18" fill="white" stroke="none">40</text></g><g class="node" transform="translate(68,2442.5454545454545)" style="fill: white; stroke: black; stroke-width: 3;"><rect width="24" height="24"></rect><text dx="6" dy="18" fill="black" stroke="none">90</text></g><g class="node" transform="translate(58,1597.090909090909)" style="fill: black; stroke: black; stroke-width: 3;"><rect width="24" height="24"></rect><text dx="6" dy="18" fill="white" stroke="none">59</text></g><g class="node" transform="translate(53,424.3636363636364)" style="fill: black; stroke: black; stroke-width: 3;"><rect width="24" height="24"></rect><text dx="6" dy="18" fill="white" stroke="none">16</text></g><g class="node" transform="translate(48,288)" style="fill: black; stroke: black; stroke-width: 3;"><rect width="24" height="24"></rect><text dx="6" dy="18" fill="white" stroke="none">11</text></g><g class="node" transform="translate(43,451.63636363636357)" style="fill: white; stroke: black; stroke-width: 3;"><rect width="24" height="24"></rect><text dx="6" dy="18" fill="black" stroke="none">17</text></g><g class="node" transform="translate(33,315.27272727272725)" style="fill: white; stroke: black; stroke-width: 3;"><rect width="24" height="24"></rect><text dx="6" dy="18" fill="black" stroke="none">12</text></g><g class="node" transform="translate(23,342.5454545454545)" style="fill: white; stroke: black; stroke-width: 3;"><rect width="24" height="24"></rect><text dx="6" dy="18" fill="black" stroke="none">13</text></g><g class="node" transform="translate(13,42.54545454545455)" style="fill: black; stroke: black; stroke-width: 3;"><rect width="24" height="24"></rect><text dx="6" dy="18" fill="white" stroke="none">2</text></g><g class="node" transform="translate(3,69.81818181818181)" style="fill: white; stroke: black; stroke-width: 3;"><rect width="24" height="24"></rect><text dx="6" dy="18" fill="black" stroke="none">3</text></g><g class="node" transform="translate(-12,97.0909090909091)" style="fill: white; stroke: black; stroke-width: 3;"><rect width="24" height="24"></rect><text dx="6" dy="18" fill="black" stroke="none">4</text></g><g class="node" transform="translate(796,1739.4545454545455)" style="fill: white; stroke: rgb(57, 59, 121); stroke-width: 3;"><circle r="12"></circle><text dx="-6" dy="6" fill="black" stroke="none">64</text></g><g class="node" transform="translate(641,1221.2727272727273)" style="fill: white; stroke: rgb(156, 158, 222); stroke-width: 3;"><circle r="12"></circle><text dx="-6" dy="6" fill="black" stroke="none">45</text></g><g class="node" transform="translate(616,1712.181818181818)" style="fill: white; stroke: rgb(206, 219, 156); stroke-width: 3;"><circle r="12"></circle><text dx="-6" dy="6" fill="black" stroke="none">63</text></g><g class="node" transform="translate(596,1493.9999999999998)" style="fill: white; stroke: rgb(140, 162, 82); stroke-width: 3;"><circle r="12"></circle><text dx="-6" dy="6" fill="black" stroke="none">55</text></g><g class="node" transform="translate(541,212.1818181818182)" style="fill: white; stroke: rgb(231, 186, 82); stroke-width: 3;"><circle r="12"></circle><text dx="-6" dy="6" fill="black" stroke="none">8</text></g><g class="node" transform="translate(501,539.4545454545454)" style="fill: white; stroke: rgb(214, 97, 107); stroke-width: 3;"><circle r="12"></circle><text dx="-6" dy="6" fill="black" stroke="none">20</text></g><g class="node" transform="translate(486,1057.6363636363635)" style="fill: white; stroke: rgb(132, 60, 57); stroke-width: 3;"><circle r="12"></circle><text dx="-6" dy="6" fill="black" stroke="none">39</text></g><g class="node" transform="translate(481,1684.9090909090908)" style="fill: white; stroke: rgb(173, 73, 74); stroke-width: 3;"><circle r="12"></circle><text dx="-6" dy="6" fill="black" stroke="none">62</text></g><g class="node" transform="translate(481,1466.7272727272725)" style="fill: white; stroke: rgb(231, 203, 148); stroke-width: 3;"><circle r="12"></circle><text dx="-6" dy="6" fill="black" stroke="none">54</text></g><g class="node" transform="translate(451,1357.6363636363635)" style="fill: white; stroke: rgb(123, 65, 115); stroke-width: 3;"><circle r="12"></circle><text dx="-6" dy="6" fill="black" stroke="none">50</text></g><g class="node" transform="translate(451,1194)" style="fill: white; stroke: rgb(165, 81, 148); stroke-width: 3;"><circle r="12"></circle><text dx="-6" dy="6" fill="black" stroke="none">44</text></g><g class="node" transform="translate(396,184.90909090909088)" style="fill: white; stroke: rgb(181, 207, 107); stroke-width: 3;"><circle r="12"></circle><text dx="-6" dy="6" fill="black" stroke="none">7</text></g><g class="node" transform="translate(391,1439.4545454545455)" style="fill: white; stroke: rgb(222, 158, 214); stroke-width: 3;"><circle r="12"></circle><text dx="-6" dy="6" fill="black" stroke="none">53</text></g><g class="node" transform="translate(386,675.8181818181818)" style="fill: white; stroke: rgb(99, 121, 57); stroke-width: 3;"><circle r="12"></circle><text dx="-6" dy="6" fill="black" stroke="none">25</text></g><g class="node" transform="translate(386,1657.6363636363635)" style="fill: white; stroke: rgb(156, 158, 222); stroke-width: 3;"><circle r="12"></circle><text dx="-6" dy="6" fill="black" stroke="none">61</text></g><g class="node" transform="translate(376,512.1818181818181)" style="fill: white; stroke: rgb(82, 84, 163); stroke-width: 3;"><circle r="12"></circle><text dx="-6" dy="6" fill="black" stroke="none">19</text></g><g class="node" transform="translate(356,2230.3636363636365)" style="fill: white; stroke: rgb(140, 109, 49); stroke-width: 3;"><circle r="12"></circle><text dx="-6" dy="6" fill="black" stroke="none">82</text></g><g class="node" transform="translate(356,894)" style="fill: white; stroke: rgb(140, 162, 82); stroke-width: 3;"><circle r="12"></circle><text dx="-6" dy="6" fill="black" stroke="none">33</text></g><g class="node" transform="translate(346,1330.3636363636363)" style="fill: white; stroke: rgb(165, 81, 148); stroke-width: 3;"><circle r="12"></circle><text dx="-6" dy="6" fill="black" stroke="none">49</text></g><g class="node" transform="translate(336,1166.7272727272727)" style="fill: white; stroke: rgb(231, 150, 156); stroke-width: 3;"><circle r="12"></circle><text dx="-6" dy="6" fill="black" stroke="none">43</text></g><g class="node" transform="translate(280,1390.9090909090908)" style="fill: white; stroke: black; stroke-width: 3;"><circle r="12"></circle><text dx="-6" dy="6" fill="black" stroke="none">51</text></g><g class="node" transform="translate(286,1030.3636363636363)" style="fill: white; stroke: rgb(123, 65, 115); stroke-width: 3;"><circle r="12"></circle><text dx="-6" dy="6" fill="black" stroke="none">38</text></g><g class="node" transform="translate(276,403.0909090909091)" style="fill: white; stroke: rgb(222, 158, 214); stroke-width: 3;"><circle r="12"></circle><text dx="-6" dy="6" fill="black" stroke="none">15</text></g><g class="node" transform="translate(265,1418.181818181818)" style="fill: black; stroke: black; stroke-width: 3;"><circle r="12"></circle><text dx="-6" dy="6" fill="white" stroke="none">52</text></g><g class="node" transform="translate(251,1630.3636363636365)" style="fill: white; stroke: rgb(99, 121, 57); stroke-width: 3;"><circle r="12"></circle><text dx="-6" dy="6" fill="black" stroke="none">60</text></g><g class="node" transform="translate(246,648.5454545454545)" style="fill: white; stroke: rgb(156, 158, 222); stroke-width: 3;"><circle r="12"></circle><text dx="-6" dy="6" fill="black" stroke="none">24</text></g><g class="node" transform="translate(236,157.63636363636363)" style="fill: white; stroke: rgb(231, 203, 148); stroke-width: 3;"><circle r="12"></circle><text dx="-6" dy="6" fill="black" stroke="none">6</text></g><g class="node" transform="translate(220,763.6363636363635)" style="fill: white; stroke: black; stroke-width: 3;"><circle r="12"></circle><text dx="-6" dy="6" fill="black" stroke="none">28</text></g><g class="node" transform="translate(210,790.9090909090909)" style="fill: white; stroke: black; stroke-width: 3;"><circle r="12"></circle><text dx="-6" dy="6" fill="black" stroke="none">29</text></g><g class="node" transform="translate(200,2181.8181818181815)" style="fill: white; stroke: black; stroke-width: 3;"><circle r="12"></circle><text dx="-6" dy="6" fill="black" stroke="none">80</text></g><g class="node" transform="translate(195,845.4545454545454)" style="fill: white; stroke: black; stroke-width: 3;"><circle r="12"></circle><text dx="-6" dy="6" fill="black" stroke="none">31</text></g><g class="node" transform="translate(191,1139.4545454545453)" style="fill: white; stroke: rgb(132, 60, 57); stroke-width: 3;"><circle r="12"></circle><text dx="-6" dy="6" fill="black" stroke="none">42</text></g><g class="node" transform="translate(185,927.2727272727271)" style="fill: white; stroke: black; stroke-width: 3;"><circle r="12"></circle><text dx="-6" dy="6" fill="black" stroke="none">34</text></g><g class="node" transform="translate(185,1281.8181818181818)" style="fill: black; stroke: black; stroke-width: 3;"><circle r="12"></circle><text dx="-6" dy="6" fill="white" stroke="none">47</text></g><g class="node" transform="translate(185,872.7272727272727)" style="fill: white; stroke: black; stroke-width: 3;"><circle r="12"></circle><text dx="-6" dy="6" fill="black" stroke="none">32</text></g><g class="node" transform="translate(186,375.81818181818176)" style="fill: white; stroke: rgb(173, 73, 74); stroke-width: 3;"><circle r="12"></circle><text dx="-6" dy="6" fill="black" stroke="none">14</text></g><g class="node" transform="translate(165,981.8181818181819)" style="fill: white; stroke: black; stroke-width: 3;"><circle r="12"></circle><text dx="-6" dy="6" fill="black" stroke="none">36</text></g><g class="node" transform="translate(171,484.90909090909093)" style="fill: white; stroke: rgb(165, 81, 148); stroke-width: 3;"><circle r="12"></circle><text dx="-6" dy="6" fill="black" stroke="none">18</text></g><g class="node" transform="translate(145,1527.272727272727)" style="fill: white; stroke: black; stroke-width: 3;"><circle r="12"></circle><text dx="-6" dy="6" fill="black" stroke="none">56</text></g><g class="node" transform="translate(140,600)" style="fill: white; stroke: black; stroke-width: 3;"><circle r="12"></circle><text dx="-6" dy="6" fill="black" stroke="none">22</text></g><g class="node" transform="translate(135,1309.090909090909)" style="fill: white; stroke: black; stroke-width: 3;"><circle r="12"></circle><text dx="-6" dy="6" fill="black" stroke="none">48</text></g><g class="node" transform="translate(120,627.2727272727273)" style="fill: white; stroke: black; stroke-width: 3;"><circle r="12"></circle><text dx="-6" dy="6" fill="black" stroke="none">23</text></g><g class="node" transform="translate(121,130.36363636363635)" style="fill: white; stroke: rgb(107, 110, 207); stroke-width: 3;"><circle r="12"></circle><text dx="-6" dy="6" fill="black" stroke="none">5</text></g><g class="node" transform="translate(80,245.45454545454547)" style="fill: white; stroke: black; stroke-width: 3;"><circle r="12"></circle><text dx="-6" dy="6" fill="black" stroke="none">9</text></g><g class="node" transform="translate(75,272.7272727272727)" style="fill: white; stroke: black; stroke-width: 3;"><circle r="12"></circle><text dx="-6" dy="6" fill="black" stroke="none">10</text></g><g class="node" transform="translate(70,1118.1818181818182)" style="fill: white; stroke: black; stroke-width: 3;"><circle r="12"></circle><text dx="-6" dy="6" fill="black" stroke="none">41</text></g><g class="node" transform="translate(30,27.272727272727273)" style="fill: white; stroke: black; stroke-width: 3;"><circle r="12"></circle><text dx="-6" dy="6" fill="black" stroke="none">1</text></g><g class="node" transform="translate(10,2481.8181818181815)" style="fill: white; stroke: black; stroke-width: 3;"><circle r="12"></circle><text dx="-6" dy="6" fill="black" stroke="none">91</text></g></g></svg>