<svg width="890" height="3010"><g transform="translate(20,20)"><rect width="120" height="24" x="0" y="27.272727272727273" style="stroke: gray; fill: white; stroke-width: 2;"></rect><rect width="120" height="24" x="0" y="218.1818181818182" style="stroke: gray; fill: white; stroke-width: 2;"></rect><rect width="120" height="24" x="0" y="245.45454545454547" style="stroke: gray; fill: black; stroke-width: 2;"></rect><rect width="120" height="24" x="0" y="272.7272727272727" style="stroke: gray; fill: white; stroke-width: 2;"></rect><rect width="120" height="24" x="0" y="545.4545454545454" style="stroke: gray; fill: white; stroke-width: 2;"></rect><rect width="120" height="24" x="0" y="572.7272727272726" style="stroke: gray; fill: white; stroke-width: 2;"></rect><rect width="120" height="24" x="0" y="790.9090909090909" style="stroke: gray; fill: white; stroke-width: 2;"></rect><rect width="120" height="24" x="0" y="600" style="stroke: gray; fill: black; stroke-width: 2;"></rect><rect width="120" height="24" x="0" y="818.1818181818182" style="stroke: gray; fill: black; stroke-width: 2;"></rect><rect width="120" height="24" x="0" y="1009.090909090909" style="stroke: gray; fill: white; stroke-width: 2;"></rect><rect width="120" height="24" x="0" y="1309.090909090909" style="stroke: gray; fill: black; stroke-width: 2;"></rect><rect width="120" height="24" x="0" y="627.2727272727273" style="stroke: gray; fill: white; stroke-width: 2;"></rect><rect width="120" height="24" x="0" y="654.5454545454545" style="stroke: gray; fill: white; stroke-width: 2;"></rect><rect width="120" height="24" x="0" y="1636.3636363636365" style="stroke: gray; fill: white; stroke-width: 2;"></rect><rect width="120" height="24" x="0" y="1036.3636363636363" style="stroke: gray; fill: black; stroke-width: 2;"></rect><rect width="120" height="24" x="0" y="1336.3636363636363" style="stroke: gray; fill: white; stroke-width: 2;"></rect><rect width="120" height="24" x="0" y="300" style="stroke: gray; fill: white; stroke-width: 2;"></rect><rect width="120" height="24" x="0" y="1663.6363636363635" style="stroke: gray; fill: black; stroke-width: 2;"></rect><rect width="120" height="24" x="0" y="1363.6363636363635" style="stroke: gray; fill: white; stroke-width: 2;"></rect><rect width="120" height="24" x="0" y="1909.090909090909" style="stroke: gray; fill: white; stroke-width: 2;"></rect><rect width="120" height="24" x="0" y="54.54545454545455" style="stroke: gray; fill: white; stroke-width: 2;"></rect><rect width="120" height="24" x="0" y="1390.9090909090908" style="stroke: gray; fill: white; stroke-width: 2;"></rect><rect width="120" height="24" x="0" y="81.81818181818181" style="stroke: gray; fill: black; stroke-width: 2;"></rect><rect width="120" height="24" x="0" y="1690.9090909090908" style="stroke: gray; fill: white; stroke-width: 2;"></rect><rect width="120" height="24" x="0" y="1718.181818181818" style="stroke: gray; fill: white; stroke-width: 2;"></rect><rect width="120" height="24" x="0" y="1936.3636363636363" style="stroke: gray; fill: black; stroke-width: 2;"></rect><rect width="120" height="24" x="0" y="1745.4545454545455" style="stroke: gray; fill: white; stroke-width: 2;"></rect><rect width="120" height="24" x="0" y="2236.3636363636365" style="stroke: gray; fill: black; stroke-width: 2;"></rect><rect width="120" height="24" x="0" y="2263.6363636363635" style="stroke: gray; fill: white; stroke-width: 2;"></rect><rect width="120" height="24" x="0" y="2400" style="stroke: gray; fill: white; stroke-width: 2;"></rect><rect width="120" height="24" x="0" y="2427.2727272727275" style="stroke: gray; fill: white; stroke-width: 2;"></rect><rect width="120" height="24" x="0" y="2454.5454545454545" style="stroke: gray; fill: white; stroke-width: 2;"></rect><rect width="120" height="24" x="0" y="2481.8181818181815" style="stroke: gray; fill: black; stroke-width: 2;"></rect><rect width="120" height="24" x="0" y="327.27272727272725" style="stroke: gray; fill: white; stroke-width: 2;"></rect><rect width="120" height="24" x="0" y="1418.181818181818" style="stroke: gray; fill: white; stroke-width: 2;"></rect><rect width="120" height="24" x="0" y="2372.7272727272725" style="stroke: gray; fill: white; stroke-width: 2;"></rect><rect width="120" height="24" x="0" y="763.6363636363635" style="stroke: gray; fill: white; stroke-width: 2;"></rect><rect width="120" height="24" x="0" y="1063.6363636363635" style="stroke: gray; fill: white; stroke-width: 2;"></rect><rect width="120" height="24" x="0" y="845.4545454545454" style="stroke: gray; fill: white; stroke-width: 2;"></rect><rect width="120" height="24" x="0" y="2290.9090909090905" style="stroke: gray; fill: white; stroke-width: 2;"></rect><rect width="120" height="24" x="0" y="518.1818181818181" style="stroke: gray; fill: white; stroke-width: 2;"></rect><rect width="120" height="24" x="0" y="2209.090909090909" style="stroke: gray; fill: white; stroke-width: 2;"></rect><rect width="120" height="24" x="0" y="1963.6363636363637" style="stroke: gray; fill: white; stroke-width: 2;"></rect><rect width="120" height="24" x="0" y="518.1818181818181" style="stroke: gray; fill: black; stroke-width: 2;"></rect><rect width="120" height="24" x="0" y="681.8181818181818" style="stroke: gray; fill: white; stroke-width: 2;"></rect><rect width="120" height="24" x="0" y="1881.8181818181818" style="stroke: gray; fill: white; stroke-width: 2;"></rect><rect width="120" height="24" x="0" y="1772.7272727272727" style="stroke: gray; fill: white; stroke-width: 2;"></rect><rect width="120" height="24" x="0" y="1281.8181818181818" style="stroke: gray; fill: white; stroke-width: 2;"></rect><rect width="120" height="24" x="0" y="109.0909090909091" style="stroke: gray; fill: white; stroke-width: 2;"></rect><rect width="120" height="24" x="0" y="981.8181818181819" style="stroke: gray; fill: white; stroke-width: 2;"></rect><rect width="120" height="24" x="0" y="136.36363636363635" style="stroke: gray; fill: white; stroke-width: 2;"></rect><rect width="120" height="24" x="0" y="1445.4545454545455" style="stroke: gray; fill: white; stroke-width: 2;"></rect><rect width="120" height="24" x="0" y="2563.6363636363635" style="stroke: gray; fill: white; stroke-width: 2;"></rect><rect width="120" height="24" x="0" y="2590.909090909091" style="stroke: gray; fill: white; stroke-width: 2;"></rect><rect width="120" height="24" x="0" y="2618.181818181818" style="stroke: gray; fill: white; stroke-width: 2;"></rect><rect width="120" height="24" x="0" y="1990.9090909090908" style="stroke: gray; fill: white; stroke-width: 2;"></rect><rect width="120" height="24" x="0" y="2509.090909090909" style="stroke: gray; fill: white; stroke-width: 2;"></rect><rect width="120" height="24" x="0" y="2645.454545454545" style="stroke: gray; fill: black; stroke-width: 2;"></rect><rect width="120" height="24" x="0" y="2672.7272727272725" style="stroke: gray; fill: white; stroke-width: 2;"></rect><rect width="120" height="24" x="0" y="2700" style="stroke: gray; fill: white; stroke-width: 2;"></rect><rect width="120" height="24" x="0" y="2727.272727272727" style="stroke: gray; fill: white; stroke-width: 2;"></rect><rect width="120" height="24" x="0" y="490.90909090909093" style="stroke: gray; fill: white; stroke-width: 2;"></rect><rect width="120" height="24" x="0" y="2045.4545454545453" style="stroke: gray; fill: white; stroke-width: 2;"></rect><rect width="120" height="24" x="0" y="736.3636363636363" style="stroke: gray; fill: white; stroke-width: 2;"></rect><rect width="120" height="24" x="0" y="709.090909090909" style="stroke: gray; fill: white; stroke-width: 2;"></rect><rect width="120" height="24" x="0" y="1090.9090909090908" style="stroke: gray; fill: white; stroke-width: 2;"></rect><rect width="120" height="24" x="0" y="163.63636363636363" style="stroke: gray; fill: white; stroke-width: 2;"></rect><rect width="120" height="24" x="0" y="1472.7272727272725" style="stroke: gray; fill: white; stroke-width: 2;"></rect><rect width="120" height="24" x="0" y="1609.090909090909" style="stroke: gray; fill: white; stroke-width: 2;"></rect><rect width="120" height="24" x="0" y="354.5454545454545" style="stroke: gray; fill: white; stroke-width: 2;"></rect><rect width="120" height="24" x="0" y="190.90909090909088" style="stroke: gray; fill: white; stroke-width: 2;"></rect><rect width="120" height="24" x="0" y="1118.1818181818182" style="stroke: gray; fill: white; stroke-width: 2;"></rect><rect width="120" height="24" x="0" y="2345.4545454545455" style="stroke: gray; fill: white; stroke-width: 2;"></rect><rect width="120" height="24" x="0" y="2018.181818181818" style="stroke: gray; fill: white; stroke-width: 2;"></rect><rect width="120" height="24" x="0" y="2072.7272727272725" style="stroke: gray; fill: white; stroke-width: 2;"></rect><rect width="120" height="24" x="0" y="2754.545454545454" style="stroke: gray; fill: white; stroke-width: 2;"></rect><rect width="120" height="24" x="0" y="1800" style="stroke: gray; fill: white; stroke-width: 2;"></rect><rect width="120" height="24" x="0" y="1145.4545454545453" style="stroke: gray; fill: white; stroke-width: 2;"></rect><rect width="120" height="24" x="0" y="872.7272727272727" style="stroke: gray; fill: white; stroke-width: 2;"></rect><rect width="120" height="24" x="0" y="1254.5454545454545" style="stroke: gray; fill: white; stroke-width: 2;"></rect><rect width="120" height="24" x="0" y="381.81818181818176" style="stroke: gray; fill: white; stroke-width: 2;"></rect><rect width="120" height="24" x="0" y="1499.9999999999998" style="stroke: gray; fill: white; stroke-width: 2;"></rect><rect width="120" height="24" x="0" y="954.5454545454545" style="stroke: gray; fill: white; stroke-width: 2;"></rect><rect width="120" height="24" x="0" y="1172.7272727272727" style="stroke: gray; fill: white; stroke-width: 2;"></rect><rect width="120" height="24" x="0" y="1527.272727272727" style="stroke: gray; fill: white; stroke-width: 2;"></rect><rect width="120" height="24" x="0" y="409.0909090909091" style="stroke: gray; fill: white; stroke-width: 2;"></rect><rect width="120" height="24" x="0" y="2127.272727272727" style="stroke: gray; fill: white; stroke-width: 2;"></rect><rect width="120" height="24" x="0" y="1854.5454545454543" style="stroke: gray; fill: white; stroke-width: 2;"></rect><rect width="120" height="24" x="0" y="2100" style="stroke: gray; fill: white; stroke-width: 2;"></rect><rect width="120" height="24" x="0" y="436.3636363636364" style="stroke: gray; fill: white; stroke-width: 2;"></rect><rect width="120" height="24" x="0" y="463.63636363636357" style="stroke: gray; fill: white; stroke-width: 2;"></rect><rect width="120" height="24" x="0" y="927.2727272727271" style="stroke: gray; fill: white; stroke-width: 2;"></rect><rect width="120" height="24" x="0" y="1554.5454545454545" style="stroke: gray; fill: white; stroke-width: 2;"></rect><rect width="120" height="24" x="0" y="1581.8181818181818" style="stroke: gray; fill: white; stroke-width: 2;"></rect><rect width="120" height="24" x="0" y="900" style="stroke: gray; fill: white; stroke-width: 2;"></rect><rect width="120" height="24" x="0" y="1200" style="stroke: gray; fill: white; stroke-width: 2;"></rect><rect width="120" height="24" x="0" y="1227.2727272727273" style="stroke: gray; fill: white; stroke-width: 2;"></rect><rect width="120" height="24" x="0" y="2154.5454545454545" style="stroke: gray; fill: white; stroke-width: 2;"></rect><rect width="120" height="24" x="0" y="2181.8181818181815" style="stroke: gray; fill: white; stroke-width: 2;"></rect></g><g transform="translate(170,32)"><path class="edges" d="M100,122.72727272727273L87.62886597938144,122.72727272727273C75.25773195876289,122.72727272727273,50.51546391752577,122.72727272727273,38.144329896907216,106.81818181818181C25.773195876288657,90.90909090909092,25.773195876288657,59.09090909090909,21.477663230240548,43.18181818181818C17.18213058419244,27.27272727272727,8.59106529209622,27.27272727272727,4.29553264604811,27.272727272727277L0,27.272727272727273" stroke-width="3" style="stroke: rgb(57, 59, 121); fill: none;"></path><path class="edges" d="M100,422.7272727272727L87.97250859106528,422.7272727272727C75.94501718213058,422.7272727272727,51.89003436426116,422.7272727272727,39.862542955326454,388.63636363636357C27.835051546391743,354.5454545454545,27.835051546391743,286.3636363636363,23.195876288659786,252.27272727272728C18.55670103092783,218.18181818181816,9.278350515463915,218.18181818181816,4.639175257731957,218.18181818181822L0,218.1818181818182" stroke-width="3" style="stroke: rgb(82, 84, 163); fill: none;"></path><path class="edges" d="M100,422.7272727272727L87.88659793814433,422.7272727272727C75.77319587628865,422.7272727272727,51.546391752577314,422.7272727272727,39.43298969072165,393.1818181818182C27.31958762886597,363.63636363636357,27.31958762886597,304.54545454545456,22.766323024054973,275C18.213058419243982,245.45454545454547,9.106529209621991,245.45454545454547,4.5532646048109955,245.45454545454547L0,245.45454545454547" stroke-width="3" style="stroke: rgb(82, 84, 163); fill: none;"></path><path class="edges" d="M100,422.7272727272727L87.80068728522338,422.7272727272727C75.60137457044674,422.7272727272727,51.20274914089347,422.7272727272727,39.00343642611683,397.7272727272727C26.8041237113402,372.7272727272727,26.8041237113402,322.7272727272727,22.336769759450167,297.7272727272727C17.869415807560134,272.7272727272727,8.934707903780067,272.7272727272727,4.467353951890034,272.7272727272727L0,272.7272727272727" stroke-width="3" style="stroke: rgb(82, 84, 163); fill: none;"></path><path class="edges" d="M100,722.7272727272727L87.88659793814433,722.7272727272729C75.77319587628865,722.7272727272726,51.546391752577314,722.7272727272726,39.43298969072165,693.1818181818181C27.31958762886597,663.6363636363636,27.31958762886597,604.5454545454545,22.766323024054973,574.9999999999999C18.213058419243982,545.4545454545454,9.106529209621991,545.4545454545454,4.5532646048109955,545.4545454545454L0,545.4545454545454" stroke-width="3" style="stroke: rgb(99, 121, 57); fill: none;"></path><path class="edges" d="M100,722.7272727272727L87.80068728522338,722.7272727272729C75.60137457044674,722.7272727272726,51.20274914089347,722.7272727272726,39.00343642611683,697.7272727272729C26.8041237113402,672.7272727272726,26.8041237113402,622.7272727272726,22.336769759450167,597.7272727272726C17.869415807560134,572.7272727272726,8.934707903780067,572.7272727272726,4.467353951890034,572.7272727272726L0,572.7272727272726" stroke-width="3" style="stroke: rgb(99, 121, 57); fill: none;"></path><path class="edges" d="M100,913.6363636363635L87.7147766323024,913.6363636363636C75.4295532646048,913.6363636363635,50.85910652920962,913.6363636363635,38.57388316151202,893.1818181818181C26.28865979381443,872.7272727272726,26.28865979381443,831.8181818181816,21.907216494845358,811.3636363636364C17.525773195876287,790.9090909090909,8.762886597938143,790.9090909090909,4.381443298969072,790.9090909090909L0,790.9090909090909" stroke-width="3" style="stroke: rgb(181, 207, 107); fill: none;"></path><path class="edges" d="M100,722.7272727272727L87.7147766323024,722.7272727272729C75.4295532646048,722.7272727272726,50.85910652920962,722.7272727272726,38.57388316151202,702.2727272727274C26.28865979381443,681.8181818181819,26.28865979381443,640.9090909090909,21.907216494845358,620.4545454545455C17.525773195876287,600,8.762886597938143,600,4.381443298969072,600L0,600" stroke-width="3" style="stroke: rgb(99, 121, 57); fill: none;"></path><path class="edges" d="M100,913.6363636363635L87.62886597938144,913.6363636363636C75.25773195876289,913.6363636363635,50.51546391752577,913.6363636363635,38.144329896907216,897.7272727272726C25.773195876288657,881.8181818181816,25.773195876288657,850,21.477663230240548,834.090909090909C17.18213058419244,818.1818181818184,8.59106529209622,818.1818181818184,4.29553264604811,818.1818181818181L0,818.1818181818182" stroke-width="3" style="stroke: rgb(181, 207, 107); fill: none;"></path><path class="edges" d="M100,1172.7272727272727L87.84364261168385,1172.7272727272727C75.6872852233677,1172.7272727272727,51.37457044673539,1172.7272727272727,39.21821305841924,1145.4545454545455C27.061855670103085,1118.1818181818182,27.061855670103085,1063.6363636363637,22.55154639175257,1036.3636363636363C18.041237113402058,1009.090909090909,9.020618556701029,1009.090909090909,4.5103092783505145,1009.090909090909L0,1009.090909090909" stroke-width="3" style="stroke: rgb(189, 158, 57); fill: none;"></path><path class="edges" d="M100,1431.8181818181818L87.7147766323024,1431.8181818181818C75.4295532646048,1431.8181818181818,50.85910652920962,1431.8181818181818,38.57388316151202,1411.3636363636363C26.28865979381443,1390.9090909090908,26.28865979381443,1350,21.907216494845358,1329.5454545454545C17.525773195876287,1309.090909090909,8.762886597938143,1309.090909090909,4.381443298969072,1309.090909090909L0,1309.090909090909" stroke-width="3" style="stroke: rgb(231, 186, 82); fill: none;"></path><path class="edges" d="M100,722.7272727272727L87.62886597938144,722.7272727272729C75.25773195876289,722.7272727272726,50.51546391752577,722.7272727272726,38.144329896907216,706.8181818181819C25.773195876288657,690.909090909091,25.773195876288657,659.0909090909091,21.477663230240548,643.1818181818181C17.18213058419244,627.2727272727273,8.59106529209622,627.2727272727273,4.29553264604811,627.2727272727271L0,627.2727272727273" stroke-width="3" style="stroke: rgb(99, 121, 57); fill: none;"></path><path class="edges" d="M100,722.7272727272727L87.54295532646047,722.7272727272729C75.08591065292096,722.7272727272726,50.171821305841924,722.7272727272726,37.71477663230241,711.3636363636364C25.257731958762886,700,25.257731958762886,677.2727272727273,21.04810996563574,665.9090909090909C16.83848797250859,654.5454545454545,8.419243986254296,654.5454545454545,4.209621993127148,654.5454545454545L0,654.5454545454545" stroke-width="3" style="stroke: rgb(99, 121, 57); fill: none;"></path><path class="edges" d="M100,1172.7272727272727L87.75773195876288,1172.7272727272727C75.51546391752576,1172.7272727272727,51.030927835051536,1172.7272727272727,38.788659793814425,1150C26.546391752577318,1127.2727272727273,26.546391752577318,1081.8181818181818,22.12199312714776,1059.090909090909C17.69759450171821,1036.3636363636363,8.848797250859105,1036.3636363636363,4.424398625429553,1036.3636363636363L0,1036.3636363636363" stroke-width="3" style="stroke: rgb(189, 158, 57); fill: none;"></path><path class="edges" d="M100,1431.8181818181818L87.62886597938144,1431.8181818181818C75.25773195876289,1431.8181818181818,50.51546391752577,1431.8181818181818,38.144329896907216,1415.909090909091C25.773195876288657,1400,25.773195876288657,1368.181818181818,21.477663230240548,1352.2727272727273C17.18213058419244,1336.3636363636363,8.59106529209622,1336.3636363636363,4.29553264604811,1336.3636363636363L0,1336.3636363636363" stroke-width="3" style="stroke: rgb(231, 186, 82); fill: none;"></path><path class="edges" d="M100,422.7272727272727L87.7147766323024,422.7272727272727C75.4295532646048,422.7272727272727,50.85910652920962,422.7272727272727,38.57388316151202,402.27272727272725C26.28865979381443,381.8181818181818,26.28865979381443,340.90909090909093,21.907216494845358,320.45454545454544C17.525773195876287,300,8.762886597938143,300,4.381443298969072,300L0,300" stroke-width="3" style="stroke: rgb(82, 84, 163); fill: none;"></path><path class="edges" d="M100,1827.272727272727L87.84364261168385,1827.2727272727273C75.6872852233677,1827.272727272727,51.37457044673539,1827.272727272727,39.21821305841924,1800C27.061855670103085,1772.7272727272727,27.061855670103085,1718.181818181818,22.55154639175257,1690.9090909090908C18.041237113402058,1663.6363636363633,9.020618556701029,1663.6363636363633,4.5103092783505145,1663.6363636363637L0,1663.6363636363635" stroke-width="3" style="stroke: rgb(123, 65, 115); fill: none;"></path><path class="edges" d="M100,1431.8181818181818L87.54295532646047,1431.8181818181818C75.08591065292096,1431.8181818181818,50.171821305841924,1431.8181818181818,37.71477663230241,1420.4545454545453C25.257731958762886,1409.090909090909,25.257731958762886,1386.3636363636363,21.04810996563574,1375C16.83848797250859,1363.6363636363635,8.419243986254296,1363.6363636363635,4.209621993127148,1363.6363636363637L0,1363.6363636363635" stroke-width="3" style="stroke: rgb(231, 186, 82); fill: none;"></path><path class="edges" d="M100,2086.3636363636365L87.88659793814433,2086.3636363636365C75.77319587628865,2086.3636363636365,51.546391752577314,2086.3636363636365,39.43298969072165,2056.818181818182C27.31958762886597,2027.2727272727273,27.31958762886597,1968.181818181818,22.766323024054973,1938.6363636363633C18.213058419243982,1909.090909090909,9.106529209621991,1909.090909090909,4.5532646048109955,1909.0909090909088L0,1909.090909090909" stroke-width="3" style="stroke: rgb(206, 109, 189); fill: none;"></path><path class="edges" d="M100,122.72727272727273L87.54295532646047,122.72727272727273C75.08591065292096,122.72727272727273,50.171821305841924,122.72727272727273,37.71477663230241,111.36363636363636C25.257731958762886,100,25.257731958762886,77.27272727272727,21.04810996563574,65.90909090909092C16.83848797250859,54.54545454545454,8.419243986254296,54.54545454545454,4.209621993127148,54.545454545454554L0,54.54545454545455" stroke-width="3" style="stroke: rgb(57, 59, 121); fill: none;"></path><path class="edges" d="M100,1431.8181818181818L87.45704467353953,1431.8181818181818C74.91408934707904,1431.8181818181818,49.828178694158076,1431.8181818181818,37.28522336769759,1425C24.742268041237114,1418.181818181818,24.742268041237114,1404.5454545454543,20.61855670103093,1397.7272727272727C16.494845360824744,1390.9090909090908,8.247422680412372,1390.9090909090908,4.123711340206186,1390.9090909090908L0,1390.9090909090908" stroke-width="3" style="stroke: rgb(231, 186, 82); fill: none;"></path><path class="edges" d="M100,122.72727272727273L87.45704467353953,122.72727272727273C74.91408934707904,122.72727272727273,49.828178694158076,122.72727272727273,37.28522336769759,115.90909090909092C24.742268041237114,109.09090909090908,24.742268041237114,95.45454545454545,20.61855670103093,88.63636363636363C16.494845360824744,81.81818181818181,8.247422680412372,81.81818181818181,4.123711340206186,81.81818181818181L0,81.81818181818181" stroke-width="3" style="stroke: rgb(57, 59, 121); fill: none;"></path><path class="edges" d="M100,1827.272727272727L87.75773195876288,1827.2727272727273C75.51546391752576,1827.272727272727,51.030927835051536,1827.272727272727,38.788659793814425,1804.5454545454543C26.546391752577318,1781.8181818181818,26.546391752577318,1736.363636363636,22.12199312714776,1713.6363636363633C17.69759450171821,1690.9090909090908,8.848797250859105,1690.9090909090908,4.424398625429553,1690.9090909090908L0,1690.9090909090908" stroke-width="3" style="stroke: rgb(123, 65, 115); fill: none;"></path><path class="edges" d="M100,1827.272727272727L87.67182130584193,1827.2727272727273C75.34364261168385,1827.272727272727,50.687285223367695,1827.272727272727,38.35910652920962,1809.090909090909C26.030927835051543,1790.9090909090908,26.030927835051543,1754.5454545454543,21.692439862542955,1736.3636363636363C17.353951890034363,1718.181818181818,8.676975945017182,1718.181818181818,4.338487972508591,1718.181818181818L0,1718.181818181818" stroke-width="3" style="stroke: rgb(123, 65, 115); fill: none;"></path><path class="edges" d="M100,2086.3636363636365L87.80068728522338,2086.3636363636365C75.60137457044674,2086.3636363636365,51.20274914089347,2086.3636363636365,39.00343642611683,2061.3636363636365C26.8041237113402,2036.3636363636363,26.8041237113402,1986.3636363636363,22.336769759450167,1961.3636363636363C17.869415807560134,1936.3636363636363,8.934707903780067,1936.3636363636363,4.467353951890034,1936.3636363636363L0,1936.3636363636363" stroke-width="3" style="stroke: rgb(206, 109, 189); fill: none;"></path><path class="edges" d="M100,1827.272727272727L87.58591065292096,1827.2727272727273C75.17182130584193,1827.272727272727,50.343642611683855,1827.272727272727,37.92955326460481,1813.6363636363637C25.515463917525768,1800,25.515463917525768,1772.7272727272727,21.262886597938145,1759.090909090909C17.010309278350515,1745.4545454545453,8.505154639175258,1745.4545454545453,4.252577319587629,1745.4545454545457L0,1745.4545454545455" stroke-width="3" style="stroke: rgb(123, 65, 115); fill: none;"></path><path class="edges" d="M100,2331.8181818181815L87.62886597938144,2331.8181818181815C75.25773195876289,2331.8181818181815,50.51546391752577,2331.8181818181815,38.144329896907216,2315.9090909090905C25.773195876288657,2300,25.773195876288657,2268.181818181818,21.477663230240548,2252.2727272727275C17.18213058419244,2236.3636363636365,8.59106529209622,2236.3636363636365,4.29553264604811,2236.3636363636365L0,2236.3636363636365" stroke-width="3" style="stroke: rgb(181, 207, 107); fill: none;"></path><path class="edges" d="M100,2331.8181818181815L87.54295532646047,2331.8181818181815C75.08591065292096,2331.8181818181815,50.171821305841924,2331.8181818181815,37.71477663230241,2320.4545454545455C25.257731958762886,2309.0909090909086,25.257731958762886,2286.363636363636,21.04810996563574,2275C16.83848797250859,2263.6363636363635,8.419243986254296,2263.6363636363635,4.209621993127148,2263.6363636363635L0,2263.6363636363635" stroke-width="3" style="stroke: rgb(181, 207, 107); fill: none;"></path><path class="edges" d="M150,2250L136.76975945017182,2250C123.53951890034364,2250,97.07903780068729,2250,83.8487972508591,2279.5454545454545C70.61855670103094,2309.0909090909095,70.61855670103094,2368.1818181818185,67.18213058419245,2397.727272727273C63.74570446735396,2427.2727272727275,56.87285223367698,2427.2727272727275,53.43642611683848,2427.2727272727275L50,2427.2727272727275" stroke-width="3" style="stroke: rgb(140, 109, 49); fill: none;"></path><path class="edges" d="M150,2250L136.68384879725087,2250C123.3676975945017,2250,96.73539518900343,2250,83.41924398625429,2284.090909090909C70.10309278350515,2318.181818181818,70.10309278350515,2386.3636363636365,66.75257731958762,2420.4545454545455C63.4020618556701,2454.5454545454545,56.70103092783504,2454.5454545454545,53.350515463917525,2454.5454545454545L50,2454.5454545454545" stroke-width="3" style="stroke: rgb(140, 109, 49); fill: none;"></path><path class="edges" d="M150,2250L136.5979381443299,2250C123.19587628865979,2250,96.39175257731956,2250,82.98969072164947,2288.6363636363635C69.58762886597937,2327.2727272727275,69.58762886597937,2404.5454545454545,66.32302405498281,2443.181818181818C63.05841924398624,2481.8181818181815,56.52920962199312,2481.8181818181815,53.26460481099656,2481.8181818181815L50,2481.8181818181815" stroke-width="3" style="stroke: rgb(140, 109, 49); fill: none;"></path><path class="edges" d="M200,422.7272727272727L187.62886597938143,422.7272727272727C175.2577319587629,422.7272727272727,150.51546391752578,422.7272727272727,138.14432989690724,406.8181818181818C125.77319587628865,390.9090909090908,125.77319587628865,359.09090909090907,121.47766323024057,343.1818181818182C117.18213058419245,327.27272727272725,108.59106529209623,327.27272727272725,104.29553264604812,327.27272727272725L100,327.27272727272725" stroke-width="3" style="stroke: rgb(231, 203, 148); fill: none;"></path><path class="edges" d="M200,1104.5454545454545L187.4570446735395,1104.5454545454543C174.91408934707906,1104.5454545454545,149.82817869415808,1104.5454545454545,137.28522336769763,1097.7272727272727C124.74226804123712,1090.9090909090908,124.74226804123712,1077.2727272727273,120.61855670103093,1070.4545454545453C116.49484536082475,1063.6363636363635,108.24742268041238,1063.6363636363635,104.12371134020619,1063.6363636363637L100,1063.6363636363635" stroke-width="3" style="stroke: rgb(132, 60, 57); fill: none;"></path><path class="edges" d="M300,913.6363636363635L275.085910652921,913.6363636363636C250.17182130584192,913.6363636363635,200.34364261168386,913.6363636363635,175.4295532646048,902.2727272727271C150.51546391752578,890.9090909090909,150.51546391752578,868.181818181818,142.09621993127146,856.8181818181816C133.67697594501718,845.4545454545454,116.83848797250859,845.4545454545454,108.41924398625429,845.4545454545454L100,845.4545454545454" stroke-width="3" style="stroke: rgb(173, 73, 74); fill: none;"></path><path class="edges" d="M200,2209.090909090909L187.0704467353952,2209.0909090909086C174.1408934707904,2209.090909090909,148.28178694158078,2209.090909090909,135.35223367697597,2222.7272727272725C122.42268041237115,2236.363636363636,122.42268041237115,2263.6363636363635,118.68556701030928,2277.272727272727C114.94845360824745,2290.9090909090905,107.47422680412372,2290.9090909090905,103.73711340206187,2290.9090909090905L100,2290.9090909090905" stroke-width="3" style="stroke: rgb(214, 97, 107); fill: none;"></path><path class="edges" d="M200,2031.8181818181818L187.5429553264605,2031.8181818181818C175.08591065292094,2031.8181818181818,150.17182130584192,2031.8181818181818,137.7147766323024,2020.4545454545453C125.2577319587629,2009.090909090909,125.2577319587629,1986.3636363636363,121.04810996563573,1975C116.83848797250859,1963.6363636363637,108.41924398625429,1963.6363636363637,104.20962199312714,1963.6363636363637L100,1963.6363636363637" stroke-width="3" style="stroke: rgb(231, 150, 156); fill: none;"></path><path class="edges" d="M200,722.7272727272727L187.4570446735395,722.7272727272729C174.91408934707906,722.7272727272726,149.82817869415808,722.7272727272726,137.28522336769763,715.909090909091C124.74226804123712,709.090909090909,124.74226804123712,695.4545454545454,120.61855670103093,688.6363636363636C116.49484536082475,681.8181818181818,108.24742268041238,681.8181818181818,104.12371134020619,681.8181818181819L100,681.8181818181818" stroke-width="3" style="stroke: rgb(123, 65, 115); fill: none;"></path><path class="edges" d="M300,1513.6363636363635L273.02405498281786,1513.6363636363637C246.04810996563575,1513.6363636363633,192.09621993127146,1513.6363636363633,165.12027491408935,1556.8181818181818C138.1443298969072,1600,138.1443298969072,1686.3636363636363,131.786941580756,1729.5454545454543C125.4295532646048,1772.7272727272727,112.7147766323024,1772.7272727272727,106.35738831615122,1772.7272727272727L100,1772.7272727272727" stroke-width="3" style="stroke: rgb(165, 81, 148); fill: none;"></path><path class="edges" d="M200,177.27272727272725L187.4570446735395,177.27272727272725C174.91408934707906,177.27272727272725,149.82817869415808,177.27272727272725,137.28522336769763,170.45454545454544C124.74226804123712,163.63636363636363,124.74226804123712,149.99999999999997,120.61855670103093,143.18181818181816C116.49484536082475,136.36363636363635,108.24742268041238,136.36363636363635,104.12371134020619,136.36363636363635L100,136.36363636363635" stroke-width="3" style="stroke: rgb(206, 109, 189); fill: none;"></path><path class="edges" d="M200,1540.9090909090908L187.62886597938143,1540.9090909090908C175.2577319587629,1540.9090909090908,150.51546391752578,1540.9090909090908,138.14432989690724,1525C125.77319587628865,1509.090909090909,125.77319587628865,1477.2727272727273,121.47766323024057,1461.3636363636363C117.18213058419245,1445.4545454545453,108.59106529209623,1445.4545454545453,104.29553264604812,1445.4545454545457L100,1445.4545454545455" stroke-width="3" style="stroke: rgb(222, 158, 214); fill: none;"></path><path class="edges" d="M250,2277.2727272727275L236.42611683848796,2277.2727272727275C222.85223367697597,2277.2727272727275,195.70446735395194,2277.2727272727275,182.1305841924399,2325.0000000000005C168.55670103092788,2372.7272727272725,168.55670103092788,2468.181818181818,165.46391752577324,2515.909090909091C162.3711340206186,2563.6363636363635,156.1855670103093,2563.6363636363635,153.09278350515464,2563.6363636363635L150,2563.6363636363635" stroke-width="3" style="stroke: rgb(57, 59, 121); fill: none;"></path><path class="edges" d="M250,2277.2727272727275L236.340206185567,2277.2727272727275C222.68041237113403,2277.2727272727275,195.36082474226805,2277.2727272727275,181.7010309278351,2329.5454545454545C168.0412371134021,2381.818181818182,168.0412371134021,2486.3636363636365,165.0343642611684,2538.636363636364C162.02749140893474,2590.909090909091,156.01374570446737,2590.909090909091,153.00687285223367,2590.9090909090914L150,2590.909090909091" stroke-width="3" style="stroke: rgb(57, 59, 121); fill: none;"></path><path class="edges" d="M250,2277.2727272727275L236.25429553264607,2277.2727272727275C222.5085910652921,2277.2727272727275,195.01718213058425,2277.2727272727275,181.27147766323026,2334.0909090909095C167.52577319587633,2390.909090909091,167.52577319587633,2504.5454545454545,164.6048109965636,2561.3636363636365C161.68384879725087,2618.181818181818,155.84192439862545,2618.181818181818,152.92096219931273,2618.181818181818L150,2618.181818181818" stroke-width="3" style="stroke: rgb(57, 59, 121); fill: none;"></path><path class="edges" d="M200,2031.8181818181818L193.72852233676974,2031.8181818181818C187.4570446735395,2031.8181818181818,174.91408934707906,2031.8181818181818,168.6426116838488,2024.9999999999998C162.37113402061854,2018.181818181818,162.37113402061854,2004.5454545454543,160.30927835051546,1997.7272727272723C158.24742268041237,1990.9090909090908,154.1237113402062,1990.9090909090908,152.06185567010309,1990.9090909090908L150,1990.9090909090908" stroke-width="3" style="stroke: rgb(231, 150, 156); fill: none;"></path><path class="edges" d="M250,2277.2727272727275L236.1683848797251,2277.2727272727275C222.33676975945016,2277.2727272727275,194.67353951890036,2277.2727272727275,180.84192439862545,2338.636363636364C167.01030927835055,2400,167.01030927835055,2522.7272727272725,164.1752577319588,2584.0909090909086C161.34020618556704,2645.454545454545,155.6701030927835,2645.454545454545,152.83505154639175,2645.4545454545446L150,2645.454545454545" stroke-width="3" style="stroke: rgb(57, 59, 121); fill: none;"></path><path class="edges" d="M250,2277.2727272727275L236.08247422680412,2277.2727272727275C222.16494845360822,2277.2727272727275,194.32989690721647,2277.2727272727275,180.41237113402062,2343.1818181818185C166.4948453608247,2409.0909090909095,166.4948453608247,2540.9090909090905,163.74570446735393,2606.8181818181815C160.99656357388315,2672.7272727272725,155.49828178694156,2672.7272727272725,152.74914089347078,2672.7272727272725L150,2672.7272727272725" stroke-width="3" style="stroke: rgb(57, 59, 121); fill: none;"></path><path class="edges" d="M250,2277.2727272727275L235.99656357388315,2277.2727272727275C221.99312714776633,2277.2727272727275,193.98625429553263,2277.2727272727275,179.98281786941575,2347.727272727273C165.97938144329893,2418.1818181818185,165.97938144329893,2559.0909090909095,163.31615120274913,2629.5454545454545C160.6529209621993,2700,155.32646048109964,2700,152.66323024054984,2700L150,2700" stroke-width="3" style="stroke: rgb(57, 59, 121); fill: none;"></path><path class="edges" d="M250,2277.2727272727275L235.9106529209622,2277.2727272727275C221.8213058419244,2277.2727272727275,193.6426116838488,2277.2727272727275,179.553264604811,2352.2727272727275C165.46391752577318,2427.2727272727275,165.46391752577318,2577.2727272727275,162.88659793814432,2652.2727272727275C160.30927835051546,2727.272727272727,155.15463917525773,2727.272727272727,152.57731958762886,2727.2727272727275L150,2727.272727272727" stroke-width="3" style="stroke: rgb(57, 59, 121); fill: none;"></path><path class="edges" d="M300,2113.6363636363635L287.54295532646046,2113.6363636363635C275.085910652921,2113.6363636363635,250.17182130584192,2113.6363636363635,237.71477663230237,2102.2727272727275C225.2577319587629,2090.9090909090905,225.2577319587629,2068.181818181818,221.04810996563575,2056.8181818181815C216.83848797250857,2045.4545454545453,208.4192439862543,2045.4545454545453,204.20962199312714,2045.4545454545453L200,2045.4545454545453" stroke-width="3" style="stroke: rgb(140, 109, 49); fill: none;"></path><path class="edges" d="M300,913.6363636363635L287.97250859106526,913.6363636363636C275.9450171821306,913.6363636363635,251.89003436426117,913.6363636363635,239.86254295532646,879.5454545454545C227.83505154639178,845.4545454545454,227.83505154639178,777.2727272727271,223.19587628865978,743.181818181818C218.55670103092783,709.090909090909,209.2783505154639,709.090909090909,204.63917525773195,709.090909090909L200,709.090909090909" stroke-width="3" style="stroke: rgb(173, 73, 74); fill: none;"></path><path class="edges" d="M300,1513.6363636363635L291.5807560137457,1513.6363636363637C283.1615120274914,1513.6363636363633,266.32302405498285,1513.6363636363633,257.90378006872857,1288.6363636363637C249.48453608247425,1063.6363636363635,249.48453608247425,613.6363636363636,241.23711340206185,388.63636363636357C232.9896907216495,163.63636363636363,216.49484536082477,163.63636363636363,208.24742268041237,163.63636363636363L200,163.63636363636363" stroke-width="3" style="stroke: rgb(165, 81, 148); fill: none;"></path><path class="edges" d="M300,1513.6363636363635L287.45704467353954,1513.6363636363637C274.914089347079,1513.6363636363633,249.82817869415808,1513.6363636363633,237.28522336769763,1506.8181818181818C224.7422680412371,1500,224.7422680412371,1486.363636363636,220.6185567010309,1479.5454545454543C216.49484536082477,1472.7272727272727,208.24742268041237,1472.7272727272727,204.1237113402062,1472.7272727272723L200,1472.7272727272725" stroke-width="3" style="stroke: rgb(231, 203, 148); fill: none;"></path><path class="edges" d="M300,395.45454545454544L287.45704467353954,395.45454545454544C274.914089347079,395.45454545454544,249.82817869415808,395.45454545454544,237.28522336769763,388.6363636363637C224.7422680412371,381.8181818181818,224.7422680412371,368.1818181818182,220.6185567010309,361.3636363636363C216.49484536082477,354.5454545454545,208.24742268041237,354.5454545454545,204.1237113402062,354.5454545454545L200,354.5454545454545" stroke-width="3" style="stroke: rgb(132, 60, 57); fill: none;"></path><path class="edges" d="M300,1200L287.585910652921,1200C275.1718213058419,1200,250.34364261168386,1200,237.9295532646048,1186.3636363636363C225.5154639175258,1172.7272727272727,225.5154639175258,1145.4545454545455,221.26288659793815,1131.8181818181818C217.01030927835052,1118.1818181818182,208.50515463917523,1118.1818181818182,204.25257731958763,1118.1818181818182L200,1118.1818181818182" stroke-width="3" style="stroke: rgb(173, 73, 74); fill: none;"></path><path class="edges" d="M300,2113.6363636363635L287.45704467353954,2113.6363636363635C274.914089347079,2113.6363636363635,249.82817869415808,2113.6363636363635,237.28522336769763,2106.8181818181815C224.7422680412371,2100,224.7422680412371,2086.363636363636,220.6185567010309,2079.5454545454545C216.49484536082477,2072.7272727272725,208.24742268041237,2072.7272727272725,204.1237113402062,2072.7272727272725L200,2072.7272727272725" stroke-width="3" style="stroke: rgb(140, 109, 49); fill: none;"></path><path class="edges" d="M300,1513.6363636363635L293.21305841924396,1513.6363636363637C286.426116838488,1513.6363636363633,272.85223367697597,1513.6363636363633,266.06529209621993,1561.3636363636363C259.27835051546396,1609.090909090909,259.27835051546396,1704.5454545454547,257.7319587628866,1752.2727272727273C256.1855670103093,1800,253.09278350515464,1800,251.5463917525773,1800L250,1800" stroke-width="3" style="stroke: rgb(165, 81, 148); fill: none;"></path><path class="edges" d="M500,1213.6363636363637L475.085910652921,1213.6363636363637C450.1718213058419,1213.6363636363637,400.34364261168383,1213.6363636363637,375.42955326460486,1202.2727272727273C350.5154639175258,1190.909090909091,350.5154639175258,1168.181818181818,342.0962199312715,1156.8181818181818C333.6769759450172,1145.4545454545453,316.8384879725086,1145.4545454545453,308.4192439862543,1145.4545454545453L300,1145.4545454545453" stroke-width="3" style="stroke: rgb(123, 65, 115); fill: none;"></path><path class="edges" d="M400,913.6363636363635L387.4570446735395,913.6363636363636C374.914089347079,913.6363636363635,349.8281786941581,913.6363636363635,337.2852233676976,906.8181818181819C324.7422680412371,900,324.7422680412371,886.3636363636364,320.6185567010309,879.5454545454545C316.49484536082474,872.7272727272726,308.2474226804124,872.7272727272726,304.12371134020617,872.7272727272729L300,872.7272727272727" stroke-width="3" style="stroke: rgb(165, 81, 148); fill: none;"></path><path class="edges" d="M500,1213.6363636363637L474.914089347079,1213.6363636363637C449.8281786941581,1213.6363636363637,399.65635738831617,1213.6363636363637,374.57044673539525,1206.818181818182C349.4845360824743,1200,349.4845360824743,1186.3636363636363,341.2371134020619,1179.5454545454547C332.98969072164954,1172.7272727272727,316.49484536082474,1172.7272727272727,308.2474226804124,1172.7272727272727L300,1172.7272727272727" stroke-width="3" style="stroke: rgb(123, 65, 115); fill: none;"></path><path class="edges" d="M400,1568.181818181818L387.4570446735395,1568.181818181818C374.914089347079,1568.181818181818,349.8281786941581,1568.181818181818,337.2852233676976,1561.363636363636C324.7422680412371,1554.5454545454543,324.7422680412371,1540.9090909090908,320.6185567010309,1534.0909090909088C316.49484536082474,1527.272727272727,308.2474226804124,1527.272727272727,304.12371134020617,1527.272727272727L300,1527.272727272727" stroke-width="3" style="stroke: rgb(222, 158, 214); fill: none;"></path><path class="edges" d="M400,450L387.4570446735395,450C374.914089347079,450,349.8281786941581,450,337.2852233676976,443.1818181818182C324.7422680412371,436.3636363636363,324.7422680412371,422.72727272727275,320.6185567010309,415.90909090909093C316.49484536082474,409.0909090909092,308.2474226804124,409.0909090909092,304.12371134020617,409.09090909090907L300,409.0909090909091" stroke-width="3" style="stroke: rgb(57, 59, 121); fill: none;"></path><path class="edges" d="M600,2168.181818181818L562.3711340206186,2168.181818181818C524.7422680412371,2168.181818181818,449.4845360824743,2168.181818181818,411.8556701030928,2161.363636363636C374.22680412371136,2154.5454545454545,374.22680412371136,2140.9090909090905,361.8556701030928,2134.0909090909086C349.4845360824743,2127.272727272727,324.74226804123714,2127.272727272727,312.37113402061857,2127.2727272727275L300,2127.272727272727" stroke-width="3" style="stroke: rgb(82, 84, 163); fill: none;"></path><path class="edges" d="M500,1213.6363636363637L489.6907216494845,1213.6363636363637C479.3814432989691,1213.6363636363637,458.7628865979382,1213.6363636363637,448.45360824742266,1088.6363636363637C438.14432989690727,963.6363636363636,438.14432989690727,713.6363636363636,431.78694158075604,588.6363636363636C425.42955326460486,463.63636363636357,412.7147766323024,463.63636363636357,406.3573883161512,463.63636363636357L400,463.63636363636357" stroke-width="3" style="stroke: rgb(123, 65, 115); fill: none;"></path><path class="edges" d="M500,1213.6363636363637L488.23024054982824,1213.6363636363637C476.46048109965636,1213.6363636363637,452.9209621993127,1213.6363636363637,441.15120274914096,1165.909090909091C429.3814432989691,1118.1818181818182,429.3814432989691,1022.7272727272726,424.4845360824743,974.9999999999999C419.5876288659794,927.2727272727271,409.7938144329897,927.2727272727271,404.89690721649487,927.2727272727271L400,927.2727272727271" stroke-width="3" style="stroke: rgb(123, 65, 115); fill: none;"></path><path class="edges" d="M600,2168.181818181818L578.5223367697595,2168.181818181818C557.0446735395188,2168.181818181818,514.0893470790378,2168.181818181818,492.6116838487972,2065.9090909090905C471.1340206185567,1963.6363636363633,471.1340206185567,1759.090909090909,459.2783505154639,1656.8181818181818C447.4226804123711,1554.5454545454547,423.7113402061855,1554.5454545454547,411.8556701030928,1554.5454545454543L400,1554.5454545454545" stroke-width="3" style="stroke: rgb(82, 84, 163); fill: none;"></path><path class="edges" d="M600,2168.181818181818L590.3780068728522,2168.181818181818C580.7560137457044,2168.181818181818,561.512027491409,2168.181818181818,551.8900343642612,2006.8181818181818C542.2680412371134,1845.4545454545453,542.2680412371134,1522.7272727272727,535.2233676975944,1361.3636363636363C528.1786941580756,1200,514.0893470790378,1200,507.0446735395189,1200L500,1200" stroke-width="3" style="stroke: rgb(82, 84, 163); fill: none;"></path><path class="parentEdges" d="M100,109.0909090909091L100,136.36363636363635" style="stroke: rgb(57, 59, 121); stroke-width: 4; fill: none;"></path><path class="parentEdges" d="M100,327.27272727272725L100,518.1818181818181" style="stroke: rgb(82, 84, 163); stroke-width: 4; fill: none;"></path><path class="parentEdges" d="M100,327.27272727272725L100,518.1818181818181" style="stroke: rgb(82, 84, 163); stroke-width: 4; fill: none;"></path><path class="parentEdges" d="M100,327.27272727272725L100,518.1818181818181" style="stroke: rgb(82, 84, 163); stroke-width: 4; fill: none;"></path><path class="parentEdges" d="M100,681.8181818181818L100,763.6363636363635" style="stroke: rgb(99, 121, 57); stroke-width: 4; fill: none;"></path><path class="parentEdges" d="M100,681.8181818181818L100,763.6363636363635" style="stroke: rgb(99, 121, 57); stroke-width: 4; fill: none;"></path><path class="parentEdges" d="M100,845.4545454545454L100,981.8181818181819" style="stroke: rgb(181, 207, 107); stroke-width: 4; fill: none;"></path><path class="parentEdges" d="M100,681.8181818181818L100,763.6363636363635" style="stroke: rgb(99, 121, 57); stroke-width: 4; fill: none;"></path><path class="parentEdges" d="M100,845.4545454545454L100,981.8181818181819" style="stroke: rgb(181, 207, 107); stroke-width: 4; fill: none;"></path><path class="parentEdges" d="M100,1063.6363636363635L100,1281.8181818181818" style="stroke: rgb(189, 158, 57); stroke-width: 4; fill: none;"></path><path class="parentEdges" d="M100,1418.181818181818L100,1445.4545454545455" style="stroke: rgb(231, 186, 82); stroke-width: 4; fill: none;"></path><path class="parentEdges" d="M100,681.8181818181818L100,763.6363636363635" style="stroke: rgb(99, 121, 57); stroke-width: 4; fill: none;"></path><path class="parentEdges" d="M100,681.8181818181818L100,763.6363636363635" style="stroke: rgb(99, 121, 57); stroke-width: 4; fill: none;"></path><path class="parentEdges" d="M100,1063.6363636363635L100,1281.8181818181818" style="stroke: rgb(189, 158, 57); stroke-width: 4; fill: none;"></path><path class="parentEdges" d="M100,1418.181818181818L100,1445.4545454545455" style="stroke: rgb(231, 186, 82); stroke-width: 4; fill: none;"></path><path class="parentEdges" d="M100,327.27272727272725L100,518.1818181818181" style="stroke: rgb(82, 84, 163); stroke-width: 4; fill: none;"></path><path class="parentEdges" d="M100,1772.7272727272727L100,1881.8181818181818" style="stroke: rgb(123, 65, 115); stroke-width: 4; fill: none;"></path><path class="parentEdges" d="M100,1418.181818181818L100,1445.4545454545455" style="stroke: rgb(231, 186, 82); stroke-width: 4; fill: none;"></path><path class="parentEdges" d="M100,1963.6363636363637L100,2209.090909090909" style="stroke: rgb(206, 109, 189); stroke-width: 4; fill: none;"></path><path class="parentEdges" d="M100,109.0909090909091L100,136.36363636363635" style="stroke: rgb(57, 59, 121); stroke-width: 4; fill: none;"></path><path class="parentEdges" d="M100,1418.181818181818L100,1445.4545454545455" style="stroke: rgb(231, 186, 82); stroke-width: 4; fill: none;"></path><path class="parentEdges" d="M100,109.0909090909091L100,136.36363636363635" style="stroke: rgb(57, 59, 121); stroke-width: 4; fill: none;"></path><path class="parentEdges" d="M100,1772.7272727272727L100,1881.8181818181818" style="stroke: rgb(123, 65, 115); stroke-width: 4; fill: none;"></path><path class="parentEdges" d="M100,1772.7272727272727L100,1881.8181818181818" style="stroke: rgb(123, 65, 115); stroke-width: 4; fill: none;"></path><path class="parentEdges" d="M100,1963.6363636363637L100,2209.090909090909" style="stroke: rgb(206, 109, 189); stroke-width: 4; fill: none;"></path><path class="parentEdges" d="M100,1772.7272727272727L100,1881.8181818181818" style="stroke: rgb(123, 65, 115); stroke-width: 4; fill: none;"></path><path class="parentEdges" d="M100,2290.9090909090905L100,2372.7272727272725" style="stroke: rgb(181, 207, 107); stroke-width: 4; fill: none;"></path><path class="parentEdges" d="M100,2290.9090909090905L100,2372.7272727272725" style="stroke: rgb(181, 207, 107); stroke-width: 4; fill: none;"></path><path class="parentEdges" d="M150,2509.090909090909L150,1990.9090909090908" style="stroke: rgb(140, 109, 49); stroke-width: 4; fill: none;"></path><path class="parentEdges" d="M150,2509.090909090909L150,1990.9090909090908" style="stroke: rgb(140, 109, 49); stroke-width: 4; fill: none;"></path><path class="parentEdges" d="M150,2509.090909090909L150,1990.9090909090908" style="stroke: rgb(140, 109, 49); stroke-width: 4; fill: none;"></path><path class="parentEdges" d="M200,354.5454545454545L200,490.90909090909093" style="stroke: rgb(231, 203, 148); stroke-width: 4; fill: none;"></path><path class="parentEdges" d="M200,1090.9090909090908L200,1118.1818181818182" style="stroke: rgb(132, 60, 57); stroke-width: 4; fill: none;"></path><path class="parentEdges" d="M300,872.7272727272727L300,954.5454545454545" style="stroke: rgb(173, 73, 74); stroke-width: 4; fill: none;"></path><path class="parentEdges" d="M200,2072.7272727272725L200,2345.4545454545455" style="stroke: rgb(214, 97, 107); stroke-width: 4; fill: none;"></path><path class="parentEdges" d="M200,2018.181818181818L200,2045.4545454545453" style="stroke: rgb(231, 150, 156); stroke-width: 4; fill: none;"></path><path class="parentEdges" d="M200,709.090909090909L200,736.3636363636363" style="stroke: rgb(123, 65, 115); stroke-width: 4; fill: none;"></path><path class="parentEdges" d="M300,1172.7272727272727L300,1854.5454545454543" style="stroke: rgb(165, 81, 148); stroke-width: 4; fill: none;"></path><path class="parentEdges" d="M200,163.63636363636363L200,190.90909090909088" style="stroke: rgb(206, 109, 189); stroke-width: 4; fill: none;"></path><path class="parentEdges" d="M200,1472.7272727272725L200,1609.090909090909" style="stroke: rgb(222, 158, 214); stroke-width: 4; fill: none;"></path><path class="parentEdges" d="M250,2754.545454545454L250,1800" style="stroke: rgb(57, 59, 121); stroke-width: 4; fill: none;"></path><path class="parentEdges" d="M250,2754.545454545454L250,1800" style="stroke: rgb(57, 59, 121); stroke-width: 4; fill: none;"></path><path class="parentEdges" d="M250,2754.545454545454L250,1800" style="stroke: rgb(57, 59, 121); stroke-width: 4; fill: none;"></path><path class="parentEdges" d="M200,2018.181818181818L200,2045.4545454545453" style="stroke: rgb(231, 150, 156); stroke-width: 4; fill: none;"></path><path class="parentEdges" d="M250,2754.545454545454L250,1800" style="stroke: rgb(57, 59, 121); stroke-width: 4; fill: none;"></path><path class="parentEdges" d="M250,2754.545454545454L250,1800" style="stroke: rgb(57, 59, 121); stroke-width: 4; fill: none;"></path><path class="parentEdges" d="M250,2754.545454545454L250,1800" style="stroke: rgb(57, 59, 121); stroke-width: 4; fill: none;"></path><path class="parentEdges" d="M250,2754.545454545454L250,1800" style="stroke: rgb(57, 59, 121); stroke-width: 4; fill: none;"></path><path class="parentEdges" d="M300,2100L300,2127.272727272727" style="stroke: rgb(140, 109, 49); stroke-width: 4; fill: none;"></path><path class="parentEdges" d="M300,872.7272727272727L300,954.5454545454545" style="stroke: rgb(173, 73, 74); stroke-width: 4; fill: none;"></path><path class="parentEdges" d="M300,1172.7272727272727L300,1854.5454545454543" style="stroke: rgb(165, 81, 148); stroke-width: 4; fill: none;"></path><path class="parentEdges" d="M300,1499.9999999999998L300,1527.272727272727" style="stroke: rgb(231, 203, 148); stroke-width: 4; fill: none;"></path><path class="parentEdges" d="M300,381.81818181818176L300,409.0909090909091" style="stroke: rgb(132, 60, 57); stroke-width: 4; fill: none;"></path><path class="parentEdges" d="M300,1145.4545454545453L300,1254.5454545454545" style="stroke: rgb(173, 73, 74); stroke-width: 4; fill: none;"></path><path class="parentEdges" d="M300,2100L300,2127.272727272727" style="stroke: rgb(140, 109, 49); stroke-width: 4; fill: none;"></path><path class="parentEdges" d="M300,1172.7272727272727L300,1854.5454545454543" style="stroke: rgb(165, 81, 148); stroke-width: 4; fill: none;"></path><path class="parentEdges" d="M500,1200L500,1227.2727272727273" style="stroke: rgb(123, 65, 115); stroke-width: 4; fill: none;"></path><path class="parentEdges" d="M400,900L400,927.2727272727271" style="stroke: rgb(165, 81, 148); stroke-width: 4; fill: none;"></path><path class="parentEdges" d="M500,1200L500,1227.2727272727273" style="stroke: rgb(123, 65, 115); stroke-width: 4; fill: none;"></path><path class="parentEdges" d="M400,1554.5454545454545L400,1581.8181818181818" style="stroke: rgb(222, 158, 214); stroke-width: 4; fill: none;"></path><path class="parentEdges" d="M400,436.3636363636364L400,463.63636363636357" style="stroke: rgb(57, 59, 121); stroke-width: 4; fill: none;"></path><path class="parentEdges" d="M600,2154.5454545454545L600,2181.8181818181815" style="stroke: rgb(82, 84, 163); stroke-width: 4; fill: none;"></path><path class="parentEdges" d="M500,1200L500,1227.2727272727273" style="stroke: rgb(123, 65, 115); stroke-width: 4; fill: none;"></path><path class="parentEdges" d="M500,1200L500,1227.2727272727273" style="stroke: rgb(123, 65, 115); stroke-width: 4; fill: none;"></path><path class="parentEdges" d="M600,2154.5454545454545L600,2181.8181818181815" style="stroke: rgb(82, 84, 163); stroke-width: 4; fill: none;"></path><path class="parentEdges" d="M600,2154.5454545454545L600,2181.8181818181815" style="stroke: rgb(82, 84, 163); stroke-width: 4; fill: none;"></path><g class="node" transform="translate(-12,206.1818181818182)" style="fill: white; stroke: black; stroke-width: 3;"><rect width="24" height="24"></rect><text dx="6" dy="18" fill="black" stroke="none">8</text></g><g class="node" transform="translate(-12,233.45454545454547)" style="fill: black; stroke: black; stroke-width: 3;"><rect width="24" height="24"></rect><text dx="6" dy="18" fill="white" stroke="none">9</text></g><g class="node" transform="translate(-12,533.4545454545454)" style="fill: white; stroke: black; stroke-width: 3;"><rect width="24" height="24"></rect><text dx="6" dy="18" fill="black" stroke="none">20</text></g><g class="node" transform="translate(-12,560.7272727272726)" style="fill: white; stroke: black; stroke-width: 3;"><rect width="24" height="24"></rect><text dx="6" dy="18" fill="black" stroke="none">21</text></g><g class="node" transform="translate(-12,778.9090909090909)" style="fill: white; stroke: black; stroke-width: 3;"><rect width="24" height="24"></rect><text dx="6" dy="18" fill="black" stroke="none">29</text></g><g class="node" transform="translate(-12,588)" style="fill: black; stroke: black; stroke-width: 3;"><rect width="24" height="24"></rect><text dx="6" dy="18" fill="white" stroke="none">22</text></g><g class="node" transform="translate(-12,806.1818181818182)" style="fill: black; stroke: black; stroke-width: 3;"><rect width="24" height="24"></rect><text dx="6" dy="18" fill="white" stroke="none">30</text></g><g class="node" transform="translate(-12,1297.090909090909)" style="fill: black; stroke: black; stroke-width: 3;"><rect width="24" height="24"></rect><text dx="6" dy="18" fill="white" stroke="none">48</text></g><g class="node" transform="translate(-12,1624.3636363636365)" style="fill: white; stroke: black; stroke-width: 3;"><rect width="24" height="24"></rect><text dx="6" dy="18" fill="black" stroke="none">60</text></g><g class="node" transform="translate(-12,1024.3636363636363)" style="fill: black; stroke: black; stroke-width: 3;"><rect width="24" height="24"></rect><text dx="6" dy="18" fill="white" stroke="none">38</text></g><g class="node" transform="translate(-12,1324.3636363636363)" style="fill: white; stroke: black; stroke-width: 3;"><rect width="24" height="24"></rect><text dx="6" dy="18" fill="black" stroke="none">49</text></g><g class="node" transform="translate(-12,288)" style="fill: white; stroke: black; stroke-width: 3;"><rect width="24" height="24"></rect><text dx="6" dy="18" fill="black" stroke="none">11</text></g><g class="node" transform="translate(-12,1651.6363636363635)" style="fill: black; stroke: black; stroke-width: 3;"><rect width="24" height="24"></rect><text dx="6" dy="18" fill="white" stroke="none">61</text></g><g class="node" transform="translate(-12,1351.6363636363635)" style="fill: white; stroke: black; stroke-width: 3;"><rect width="24" height="24"></rect><text dx="6" dy="18" fill="black" stroke="none">50</text></g><g class="node" transform="translate(-12,69.81818181818181)" style="fill: black; stroke: black; stroke-width: 3;"><rect width="24" height="24"></rect><text dx="6" dy="18" fill="white" stroke="none">3</text></g><g class="node" transform="translate(-12,1706.181818181818)" style="fill: white; stroke: black; stroke-width: 3;"><rect width="24" height="24"></rect><text dx="6" dy="18" fill="black" stroke="none">63</text></g><g class="node" transform="translate(38,2442.5454545454545)" style="fill: white; stroke: black; stroke-width: 3;"><rect width="24" height="24"></rect><text dx="6" dy="18" fill="black" stroke="none">90</text></g><g class="node" transform="translate(38,2469.8181818181815)" style="fill: black; stroke: black; stroke-width: 3;"><rect width="24" height="24"></rect><text dx="6" dy="18" fill="white" stroke="none">91</text></g><g class="node" transform="translate(88,2360.7272727272725)" style="fill: white; stroke: rgb(181, 207, 107); stroke-width: 3;"><rect width="24" height="24"></rect><text dx="6" dy="18" fill="black" stroke="none">87</text></g><g class="node" transform="translate(88,751.6363636363635)" style="fill: white; stroke: rgb(99, 121, 57); stroke-width: 3;"><rect width="24" height="24"></rect><text dx="6" dy="18" fill="black" stroke="none">28</text></g><g class="node" transform="translate(88,506.18181818181813)" style="fill: white; stroke: black; stroke-width: 3;"><rect width="24" height="24"></rect><text dx="6" dy="18" fill="black" stroke="none">19</text></g><g class="node" transform="translate(88,2197.090909090909)" style="fill: white; stroke: rgb(206, 109, 189); stroke-width: 3;"><rect width="24" height="24"></rect><text dx="6" dy="18" fill="black" stroke="none">81</text></g><g class="node" transform="translate(88,506.18181818181813)" style="fill: black; stroke: rgb(82, 84, 163); stroke-width: 3;"><rect width="24" height="24"></rect><text dx="6" dy="18" fill="white" stroke="none">19</text></g><g class="node" transform="translate(88,1869.8181818181818)" style="fill: white; stroke: rgb(123, 65, 115); stroke-width: 3;"><rect width="24" height="24"></rect><text dx="6" dy="18" fill="black" stroke="none">69</text></g><g class="node" transform="translate(88,1269.8181818181818)" style="fill: white; stroke: rgb(189, 158, 57); stroke-width: 3;"><rect width="24" height="24"></rect><text dx="6" dy="18" fill="black" stroke="none">47</text></g><g class="node" transform="translate(88,969.8181818181819)" style="fill: white; stroke: rgb(181, 207, 107); stroke-width: 3;"><rect width="24" height="24"></rect><text dx="6" dy="18" fill="black" stroke="none">36</text></g><g class="node" transform="translate(88,124.36363636363635)" style="fill: white; stroke: rgb(57, 59, 121); stroke-width: 3;"><rect width="24" height="24"></rect><text dx="6" dy="18" fill="black" stroke="none">5</text></g><g class="node" transform="translate(88,1433.4545454545455)" style="fill: white; stroke: rgb(231, 186, 82); stroke-width: 3;"><rect width="24" height="24"></rect><text dx="6" dy="18" fill="black" stroke="none">53</text></g><g class="node" transform="translate(138,2551.6363636363635)" style="fill: white; stroke: black; stroke-width: 3;"><rect width="24" height="24"></rect><text dx="6" dy="18" fill="black" stroke="none">94</text></g><g class="node" transform="translate(138,1978.9090909090908)" style="fill: white; stroke: rgb(140, 109, 49); stroke-width: 3;"><rect width="24" height="24"></rect><text dx="6" dy="18" fill="black" stroke="none">73</text></g><g class="node" transform="translate(138,2633.454545454545)" style="fill: black; stroke: black; stroke-width: 3;"><rect width="24" height="24"></rect><text dx="6" dy="18" fill="white" stroke="none">97</text></g><g class="node" transform="translate(138,2688)" style="fill: white; stroke: black; stroke-width: 3;"><rect width="24" height="24"></rect><text dx="6" dy="18" fill="black" stroke="none">99</text></g><g class="node" transform="translate(188,478.90909090909093)" style="fill: white; stroke: rgb(231, 203, 148); stroke-width: 3;"><rect width="24" height="24"></rect><text dx="6" dy="18" fill="black" stroke="none">18</text></g><g class="node" transform="translate(188,2033.4545454545453)" style="fill: white; stroke: rgb(231, 150, 156); stroke-width: 3;"><rect width="24" height="24"></rect><text dx="6" dy="18" fill="black" stroke="none">75</text></g><g class="node" transform="translate(188,724.3636363636363)" style="fill: white; stroke: rgb(123, 65, 115); stroke-width: 3;"><rect width="24" height="24"></rect><text dx="6" dy="18" fill="black" stroke="none">27</text></g><g class="node" transform="translate(188,1597.090909090909)" style="fill: white; stroke: rgb(222, 158, 214); stroke-width: 3;"><rect width="24" height="24"></rect><text dx="6" dy="18" fill="black" stroke="none">59</text></g><g class="node" transform="translate(188,178.90909090909088)" style="fill: white; stroke: rgb(206, 109, 189); stroke-width: 3;"><rect width="24" height="24"></rect><text dx="6" dy="18" fill="black" stroke="none">7</text></g><g class="node" transform="translate(188,1106.1818181818182)" style="fill: white; stroke: rgb(132, 60, 57); stroke-width: 3;"><rect width="24" height="24"></rect><text dx="6" dy="18" fill="black" stroke="none">41</text></g><g class="node" transform="translate(188,2333.4545454545455)" style="fill: white; stroke: rgb(214, 97, 107); stroke-width: 3;"><rect width="24" height="24"></rect><text dx="6" dy="18" fill="black" stroke="none">86</text></g><g class="node" transform="translate(238,1788)" style="fill: white; stroke: rgb(57, 59, 121); stroke-width: 3;"><rect width="24" height="24"></rect><text dx="6" dy="18" fill="black" stroke="none">66</text></g><g class="node" transform="translate(288,1242.5454545454545)" style="fill: white; stroke: rgb(173, 73, 74); stroke-width: 3;"><rect width="24" height="24"></rect><text dx="6" dy="18" fill="black" stroke="none">46</text></g><g class="node" transform="translate(288,942.5454545454545)" style="fill: white; stroke: rgb(173, 73, 74); stroke-width: 3;"><rect width="24" height="24"></rect><text dx="6" dy="18" fill="black" stroke="none">35</text></g><g class="node" transform="translate(288,1515.272727272727)" style="fill: white; stroke: rgb(231, 203, 148); stroke-width: 3;"><rect width="24" height="24"></rect><text dx="6" dy="18" fill="black" stroke="none">56</text></g><g class="node" transform="translate(288,397.0909090909091)" style="fill: white; stroke: rgb(132, 60, 57); stroke-width: 3;"><rect width="24" height="24"></rect><text dx="6" dy="18" fill="black" stroke="none">15</text></g><g class="node" transform="translate(288,2115.272727272727)" style="fill: white; stroke: rgb(140, 109, 49); stroke-width: 3;"><rect width="24" height="24"></rect><text dx="6" dy="18" fill="black" stroke="none">78</text></g><g class="node" transform="translate(288,1842.5454545454543)" style="fill: white; stroke: rgb(165, 81, 148); stroke-width: 3;"><rect width="24" height="24"></rect><text dx="6" dy="18" fill="black" stroke="none">68</text></g><g class="node" transform="translate(388,451.63636363636357)" style="fill: white; stroke: rgb(57, 59, 121); stroke-width: 3;"><rect width="24" height="24"></rect><text dx="6" dy="18" fill="black" stroke="none">17</text></g><g class="node" transform="translate(388,915.2727272727271)" style="fill: white; stroke: rgb(165, 81, 148); stroke-width: 3;"><rect width="24" height="24"></rect><text dx="6" dy="18" fill="black" stroke="none">34</text></g><g class="node" transform="translate(388,1569.8181818181818)" style="fill: white; stroke: rgb(222, 158, 214); stroke-width: 3;"><rect width="24" height="24"></rect><text dx="6" dy="18" fill="black" stroke="none">58</text></g><g class="node" transform="translate(488,1215.2727272727273)" style="fill: white; stroke: rgb(123, 65, 115); stroke-width: 3;"><rect width="24" height="24"></rect><text dx="6" dy="18" fill="black" stroke="none">45</text></g><g class="node" transform="translate(588,2169.8181818181815)" style="fill: white; stroke: rgb(82, 84, 163); stroke-width: 3;"><rect width="24" height="24"></rect><text dx="6" dy="18" fill="black" stroke="none">80</text></g><g class="node" transform="translate(0,27.272727272727273)" style="fill: white; stroke: black; stroke-width: 3;"><circle r="12"></circle><text dx="-6" dy="6" fill="black" stroke="none">1</text></g><g class="node" transform="translate(0,272.7272727272727)" style="fill: white; stroke: black; stroke-width: 3;"><circle r="12"></circle><text dx="-6" dy="6" fill="black" stroke="none">10</text></g><g class="node" transform="translate(0,1009.090909090909)" style="fill: white; stroke: black; stroke-width: 3;"><circle r="12"></circle><text dx="-6" dy="6" fill="black" stroke="none">37</text></g><g class="node" transform="translate(0,627.2727272727273)" style="fill: white; stroke: black; stroke-width: 3;"><circle r="12"></circle><text dx="-6" dy="6" fill="black" stroke="none">23</text></g><g class="node" transform="translate(0,654.5454545454545)" style="fill: white; stroke: black; stroke-width: 3;"><circle r="12"></circle><text dx="-6" dy="6" fill="black" stroke="none">24</text></g><g class="node" transform="translate(0,1909.090909090909)" style="fill: white; stroke: black; stroke-width: 3;"><circle r="12"></circle><text dx="-6" dy="6" fill="black" stroke="none">70</text></g><g class="node" transform="translate(0,54.54545454545455)" style="fill: white; stroke: black; stroke-width: 3;"><circle r="12"></circle><text dx="-6" dy="6" fill="black" stroke="none">2</text></g><g class="node" transform="translate(0,1390.9090909090908)" style="fill: white; stroke: black; stroke-width: 3;"><circle r="12"></circle><text dx="-6" dy="6" fill="black" stroke="none">51</text></g><g class="node" transform="translate(0,1690.9090909090908)" style="fill: white; stroke: black; stroke-width: 3;"><circle r="12"></circle><text dx="-6" dy="6" fill="black" stroke="none">62</text></g><g class="node" transform="translate(0,1936.3636363636363)" style="fill: black; stroke: black; stroke-width: 3;"><circle r="12"></circle><text dx="-6" dy="6" fill="white" stroke="none">71</text></g><g class="node" transform="translate(0,1745.4545454545455)" style="fill: white; stroke: black; stroke-width: 3;"><circle r="12"></circle><text dx="-6" dy="6" fill="black" stroke="none">64</text></g><g class="node" transform="translate(0,2236.3636363636365)" style="fill: black; stroke: black; stroke-width: 3;"><circle r="12"></circle><text dx="-6" dy="6" fill="white" stroke="none">82</text></g><g class="node" transform="translate(0,2263.6363636363635)" style="fill: white; stroke: black; stroke-width: 3;"><circle r="12"></circle><text dx="-6" dy="6" fill="black" stroke="none">83</text></g><g class="node" transform="translate(0,2400)" style="fill: white; stroke: black; stroke-width: 3;"><circle r="12"></circle><text dx="-6" dy="6" fill="black" stroke="none">88</text></g><g class="node" transform="translate(50,2427.2727272727275)" style="fill: white; stroke: black; stroke-width: 3;"><circle r="12"></circle><text dx="-6" dy="6" fill="black" stroke="none">89</text></g><g class="node" transform="translate(100,327.27272727272725)" style="fill: white; stroke: rgb(82, 84, 163); stroke-width: 3;"><circle r="12"></circle><text dx="-6" dy="6" fill="black" stroke="none">12</text></g><g class="node" transform="translate(100,1418.181818181818)" style="fill: white; stroke: rgb(231, 186, 82); stroke-width: 3;"><circle r="12"></circle><text dx="-6" dy="6" fill="black" stroke="none">52</text></g><g class="node" transform="translate(100,1063.6363636363635)" style="fill: white; stroke: rgb(189, 158, 57); stroke-width: 3;"><circle r="12"></circle><text dx="-6" dy="6" fill="black" stroke="none">39</text></g><g class="node" transform="translate(100,845.4545454545454)" style="fill: white; stroke: rgb(181, 207, 107); stroke-width: 3;"><circle r="12"></circle><text dx="-6" dy="6" fill="black" stroke="none">31</text></g><g class="node" transform="translate(100,2290.9090909090905)" style="fill: white; stroke: rgb(181, 207, 107); stroke-width: 3;"><circle r="12"></circle><text dx="-6" dy="6" fill="black" stroke="none">84</text></g><g class="node" transform="translate(100,1963.6363636363637)" style="fill: white; stroke: rgb(206, 109, 189); stroke-width: 3;"><circle r="12"></circle><text dx="-6" dy="6" fill="black" stroke="none">72</text></g><g class="node" transform="translate(100,681.8181818181818)" style="fill: white; stroke: rgb(99, 121, 57); stroke-width: 3;"><circle r="12"></circle><text dx="-6" dy="6" fill="black" stroke="none">25</text></g><g class="node" transform="translate(100,1772.7272727272727)" style="fill: white; stroke: rgb(123, 65, 115); stroke-width: 3;"><circle r="12"></circle><text dx="-6" dy="6" fill="black" stroke="none">65</text></g><g class="node" transform="translate(100,109.0909090909091)" style="fill: white; stroke: rgb(57, 59, 121); stroke-width: 3;"><circle r="12"></circle><text dx="-6" dy="6" fill="black" stroke="none">4</text></g><g class="node" transform="translate(150,2590.909090909091)" style="fill: white; stroke: black; stroke-width: 3;"><circle r="12"></circle><text dx="-6" dy="6" fill="black" stroke="none">95</text></g><g class="node" transform="translate(150,2618.181818181818)" style="fill: white; stroke: black; stroke-width: 3;"><circle r="12"></circle><text dx="-6" dy="6" fill="black" stroke="none">96</text></g><g class="node" transform="translate(150,2509.090909090909)" style="fill: white; stroke: rgb(140, 109, 49); stroke-width: 3;"><circle r="12"></circle><text dx="-6" dy="6" fill="black" stroke="none">92</text></g><g class="node" transform="translate(150,2672.7272727272725)" style="fill: white; stroke: black; stroke-width: 3;"><circle r="12"></circle><text dx="-6" dy="6" fill="black" stroke="none">98</text></g><g class="node" transform="translate(150,2727.272727272727)" style="fill: white; stroke: black; stroke-width: 3;"><circle r="12"></circle><text dx="-6" dy="6" fill="black" stroke="none">100</text></g><g class="node" transform="translate(200,709.090909090909)" style="fill: white; stroke: rgb(123, 65, 115); stroke-width: 3;"><circle r="12"></circle><text dx="-6" dy="6" fill="black" stroke="none">26</text></g><g class="node" transform="translate(200,1090.9090909090908)" style="fill: white; stroke: rgb(132, 60, 57); stroke-width: 3;"><circle r="12"></circle><text dx="-6" dy="6" fill="black" stroke="none">40</text></g><g class="node" transform="translate(200,163.63636363636363)" style="fill: white; stroke: rgb(206, 109, 189); stroke-width: 3;"><circle r="12"></circle><text dx="-6" dy="6" fill="black" stroke="none">6</text></g><g class="node" transform="translate(200,1472.7272727272725)" style="fill: white; stroke: rgb(222, 158, 214); stroke-width: 3;"><circle r="12"></circle><text dx="-6" dy="6" fill="black" stroke="none">54</text></g><g class="node" transform="translate(200,354.5454545454545)" style="fill: white; stroke: rgb(231, 203, 148); stroke-width: 3;"><circle r="12"></circle><text dx="-6" dy="6" fill="black" stroke="none">13</text></g><g class="node" transform="translate(200,2018.181818181818)" style="fill: white; stroke: rgb(231, 150, 156); stroke-width: 3;"><circle r="12"></circle><text dx="-6" dy="6" fill="black" stroke="none">74</text></g><g class="node" transform="translate(200,2072.7272727272725)" style="fill: white; stroke: rgb(214, 97, 107); stroke-width: 3;"><circle r="12"></circle><text dx="-6" dy="6" fill="black" stroke="none">76</text></g><g class="node" transform="translate(250,2754.545454545454)" style="fill: white; stroke: rgb(57, 59, 121); stroke-width: 3;"><circle r="12"></circle><text dx="-6" dy="6" fill="black" stroke="none">101</text></g><g class="node" transform="translate(300,1145.4545454545453)" style="fill: white; stroke: rgb(173, 73, 74); stroke-width: 3;"><circle r="12"></circle><text dx="-6" dy="6" fill="black" stroke="none">42</text></g><g class="node" transform="translate(300,872.7272727272727)" style="fill: white; stroke: rgb(173, 73, 74); stroke-width: 3;"><circle r="12"></circle><text dx="-6" dy="6" fill="black" stroke="none">32</text></g><g class="node" transform="translate(300,381.81818181818176)" style="fill: white; stroke: rgb(132, 60, 57); stroke-width: 3;"><circle r="12"></circle><text dx="-6" dy="6" fill="black" stroke="none">14</text></g><g class="node" transform="translate(300,1499.9999999999998)" style="fill: white; stroke: rgb(231, 203, 148); stroke-width: 3;"><circle r="12"></circle><text dx="-6" dy="6" fill="black" stroke="none">55</text></g><g class="node" transform="translate(300,1172.7272727272727)" style="fill: white; stroke: rgb(165, 81, 148); stroke-width: 3;"><circle r="12"></circle><text dx="-6" dy="6" fill="black" stroke="none">43</text></g><g class="node" transform="translate(300,2100)" style="fill: white; stroke: rgb(140, 109, 49); stroke-width: 3;"><circle r="12"></circle><text dx="-6" dy="6" fill="black" stroke="none">77</text></g><g class="node" transform="translate(400,436.3636363636364)" style="fill: white; stroke: rgb(57, 59, 121); stroke-width: 3;"><circle r="12"></circle><text dx="-6" dy="6" fill="black" stroke="none">16</text></g><g class="node" transform="translate(400,1554.5454545454545)" style="fill: white; stroke: rgb(222, 158, 214); stroke-width: 3;"><circle r="12"></circle><text dx="-6" dy="6" fill="black" stroke="none">57</text></g><g class="node" transform="translate(400,900)" style="fill: white; stroke: rgb(165, 81, 148); stroke-width: 3;"><circle r="12"></circle><text dx="-6" dy="6" fill="black" stroke="none">33</text></g><g class="node" transform="translate(500,1200)" style="fill: white; stroke: rgb(123, 65, 115); stroke-width: 3;"><circle r="12"></circle><text dx="-6" dy="6" fill="black" stroke="none">44</text></g><g class="node" transform="translate(600,2154.5454545454545)" style="fill: white; stroke: rgb(82, 84, 163); stroke-width: 3;"><circle r="12"></circle><text dx="-6" dy="6" fill="black" stroke="none">79</text></g></g></svg>