<svg width="1205" height="3822"><g transform="translate(20,54)"><path class="edges" d="M62.50000000000001,2546L85.9503865979381,2546C109.4007731958762,2546,156.3015463917524,2546,179.75193298969052,2406.6666666666665C203.2023195876286,2267.3333333333335,203.2023195876286,1988.6666666666667,216.00193298969052,1849.3333333333333C228.8015463917524,1710,254.4007731958762,1710,267.2003865979381,1710L280,1710" stroke-width="3" style="stroke: rgb(57, 59, 121); fill: none;"></path><path class="edges" d="M62.50000000000001,2546L89.56937285223376,2546C116.63874570446751,2546,170.77749140893502,2546,197.84686426116878,2489C224.91623711340253,2432,224.91623711340253,2318,235.76353092783543,2261C246.61082474226836,2204,268.3054123711342,2204,279.15270618556707,2204L290,2204" stroke-width="3" style="stroke: rgb(57, 59, 121); fill: none;"></path><path class="edges" d="M62.50000000000001,2546L93.02083333333333,2546C123.54166666666667,2546,184.58333333333334,2546,215.10416666666666,2539.6666666666665C245.625,2533.3333333333335,245.625,2520.6666666666665,255.52083333333334,2514.3333333333335C265.4166666666667,2508,285.2083333333333,2508,295.1041666666667,2508L305,2508" stroke-width="3" style="stroke: rgb(57, 59, 121); fill: none;"></path><path class="edges" d="M265,1710L275.44243986254287,1710C285.88487972508574,1710,306.7697594501715,1710,317.21219931271435,1475.6666666666667C327.6546391752572,1241.3333333333333,327.6546391752572,772.6666666666666,335.54553264604766,538.3333333333334C343.43642611683816,304,359.21821305841905,304,367.10910652920955,304L375,304" stroke-width="3" style="stroke: rgb(156, 158, 222); fill: none;"></path><path class="edges" d="M265,1710L277.6288659793814,1710C290.2577319587628,1710,315.51546391752555,1710,328.144329896907,1551.6666666666667C340.77319587628836,1393.3333333333333,340.77319587628836,1076.6666666666667,348.144329896907,918.3333333333334C355.51546391752555,760,370.2577319587628,760,377.6288659793814,760L385,760" stroke-width="3" style="stroke: rgb(156, 158, 222); fill: none;"></path><path class="edges" d="M307.5,2204L322.4967783505154,2204C337.49355670103074,2204,367.48711340206154,2204,382.4838917525769,2172.3333333333335C397.4806701030923,2140.6666666666665,397.4806701030923,2077.3333333333335,402.9005584192435,2045.6666666666667C408.32044673539485,2014,419.1602233676974,2014,424.58011168384866,2014L430,2014" stroke-width="3" style="stroke: rgb(140, 162, 82); fill: none;"></path><path class="edges" d="M300,2508L316.9909793814433,2508C333.98195876288656,2508,367.9639175257732,2508,384.95489690721644,2501.6666666666665C401.94587628865975,2495.3333333333335,401.94587628865975,2482.6666666666665,407.45489690721644,2476.3333333333335C412.9639175257732,2470,423.98195876288656,2470,429.4909793814433,2470L435,2470" stroke-width="3" style="stroke: rgb(181, 207, 107); fill: none;"></path><path class="edges" d="M265,1710L285.66580756013747,1710C306.3316151202749,1710,347.6632302405498,1710,368.3290378006873,1672C388.9948453608247,1634,388.9948453608247,1558,396.6623711340206,1520C404.32989690721644,1482,419.66494845360825,1482,427.33247422680415,1482L435,1482" stroke-width="3" style="stroke: rgb(156, 158, 222); fill: none;"></path><path class="edges" d="M307.5,2204L324.1763316151203,2204C340.8526632302407,2204,374.20532646048133,2204,390.8816580756017,2197.6666666666665C407.557989690722,2191.3333333333335,407.557989690722,2178.6666666666665,412.964991408935,2172.3333333333335C418.371993127148,2166,429.185996563574,2166,434.592998281787,2166L440,2166" stroke-width="3" style="stroke: rgb(140, 162, 82); fill: none;"></path><path class="edges" d="M265,1710L290.80111683848787,1710C316.6022336769758,1710,368.20446735395154,1710,394.00558419243947,1703.6666666666667C419.80670103092734,1697.3333333333333,419.80670103092734,1684.6666666666667,428.1722508591061,1678.3333333333333C436.5378006872849,1672,453.26890034364243,1672,461.63445017182124,1672L470,1672" stroke-width="3" style="stroke: rgb(156, 158, 222); fill: none;"></path><path class="edges" d="M377.5,304L394.1763316151203,304C410.8526632302407,304,444.20532646048133,304,460.8816580756017,297.6666666666667C477.5579896907221,291.3333333333333,477.5579896907221,278.6666666666667,482.9649914089351,272.3333333333333C488.371993127148,266,499.185996563574,266,504.592998281787,266L509.99999999999994,266" stroke-width="3" style="stroke: rgb(231, 186, 82); fill: none;"></path><path class="edges" d="M437.5,2166L449.14196735395194,2166C460.7839347079039,2166,484.06786941580776,2166,495.7098367697597,2159.6666666666665C507.3518041237116,2153.3333333333335,507.3518041237116,2140.6666666666665,511.1265034364263,2134.3333333333335C514.9012027491411,2128,522.4506013745705,2128,526.2253006872853,2128L530,2128" stroke-width="3" style="stroke: rgb(231, 203, 148); fill: none;"></path><path class="edges" d="M425,1482L437.6159793814433,1482C450.23195876288656,1482,475.4639175257732,1482,488.07989690721644,1393.3333333333333C500.69587628865975,1304.6666666666667,500.69587628865975,1127.3333333333333,506.4132302405498,1038.6666666666667C512.1305841924399,950.0000000000001,523.5652920962199,950.0000000000001,529.28264604811,950.0000000000001L535,950.0000000000001" stroke-width="3" style="stroke: rgb(132, 60, 57); fill: none;"></path><path class="edges" d="M437.5,2470L449.77126288659787,2470C462.0425257731957,2470,486.5850515463914,2470,498.8563144329892,2463.6666666666665C511.1275773195871,2457.3333333333335,511.1275773195871,2444.6666666666665,515.1063144329893,2438.3333333333335C519.0850515463914,2432,527.0425257731957,2432,531.0212628865978,2432L535,2432" stroke-width="3" style="stroke: rgb(173, 73, 74); fill: none;"></path><path class="edges" d="M402.5,760L420.4349226804123,760C438.3698453608247,760,474.23969072164937,760,492.17461340206165,753.6666666666666C510.10953608247405,747.3333333333334,510.10953608247405,734.6666666666666,515.9246134020617,728.3333333333334C521.7396907216494,722,533.3698453608247,722,539.1849226804123,722L545,722" stroke-width="3" style="stroke: rgb(214, 97, 107); fill: none;"></path><path class="edges" d="M425,1482L441.4110824742268,1482C457.8221649484537,1482,490.6443298969073,1482,507.0554123711342,1444C523.466494845361,1406,523.466494845361,1330,529.5554123711341,1292C535.6443298969074,1254,547.8221649484536,1254,553.9110824742269,1254L560,1254" stroke-width="3" style="stroke: rgb(132, 60, 57); fill: none;"></path><path class="edges" d="M450,2014L464.1774054982818,2014C478.35481099656363,2014,506.70962199312726,2014,520.8870274914091,1988.6666666666667C535.0644329896909,1963.3333333333333,535.0644329896909,1912.6666666666667,540.0536941580757,1887.3333333333333C545.0429553264606,1862,555.0214776632303,1862,560.0107388316152,1862L565,1862" stroke-width="3" style="stroke: rgb(123, 65, 115); fill: none;"></path><path class="edges" d="M457.5,1672L471.6591494845361,1672C485.81829896907226,1672,514.1365979381445,1672,528.2957474226806,1665.6666666666667C542.4548969072168,1659.3333333333333,542.4548969072168,1646.6666666666667,547.0457474226806,1640.3333333333333C551.6365979381445,1634,560.8182989690723,1634,565.4091494845361,1634L570,1634" stroke-width="3" style="stroke: rgb(165, 81, 148); fill: none;"></path><path class="edges" d="M450,2014L465.73238831615134,2014C481.4647766323026,2014,512.9295532646051,2014,528.6619415807564,2007.6666666666667C544.3943298969077,2001.3333333333333,544.3943298969077,1988.6666666666667,549.4952749140898,1982.3333333333333C554.5962199312718,1976.0000000000002,564.798109965636,1976.0000000000002,569.899054982818,1976.0000000000002L575,1976.0000000000002" stroke-width="3" style="stroke: rgb(123, 65, 115); fill: none;"></path><path class="edges" d="M509.99999999999994,2128L525.6249999999999,2128C541.25,2128,572.5,2128,588.125,2115.3333333333335C603.75,2102.6666666666665,603.75,2077.3333333333335,608.9583333333334,2064.6666666666665C614.1666666666666,2052,624.5833333333334,2052,629.7916666666666,2052L635,2052" stroke-width="3" style="stroke: rgb(222, 158, 214); fill: none;"></path><path class="edges" d="M425,1482L451.430412371134,1482C477.860824742268,1482,530.721649484536,1482,557.15206185567,1475.6666666666667C583.5824742268039,1469.3333333333333,583.5824742268039,1456.6666666666667,592.15206185567,1450.3333333333333C600.721649484536,1444,617.8608247422679,1444,626.430412371134,1444L635,1444" stroke-width="3" style="stroke: rgb(132, 60, 57); fill: none;"></path><path class="edges" d="M540,722L552.944587628866,722C565.8891752577321,722,591.778350515464,722,604.72293814433,696.6666666666666C617.6675257731961,671.3333333333334,617.6675257731961,620.6666666666666,622.22293814433,595.3333333333334C626.778350515464,570,635.8891752577321,570,640.444587628866,570L645,570" stroke-width="3" style="stroke: rgb(82, 84, 163); fill: none;"></path><path class="edges" d="M509.99999999999994,2128L527.6202749140894,2128C545.2405498281787,2128,580.4810996563575,2128,598.1013745704469,2121.6666666666665C615.7216494845363,2115.3333333333335,615.7216494845363,2102.6666666666665,621.4347079037802,2096.3333333333335C627.1477663230243,2090,638.5738831615121,2090,644.286941580756,2090L650,2090" stroke-width="3" style="stroke: rgb(222, 158, 214); fill: none;"></path><path class="edges" d="M532.5,2432L547.9177405498282,2432C563.3354810996562,2432,594.1709621993126,2432,609.5887027491407,2425.6666666666665C625.0064432989689,2419.3333333333335,625.0064432989689,2406.6666666666665,630.0053694158074,2400.3333333333335C635.0042955326459,2394,645.002147766323,2394,650.0010738831614,2394L655,2394" stroke-width="3" style="stroke: rgb(156, 158, 222); fill: none;"></path><path class="edges" d="M530,950.0000000000001L547.6202749140894,950.0000000000001C565.2405498281788,950.0000000000001,600.4810996563575,950.0000000000001,618.1013745704469,943.6666666666669C635.7216494845363,937.3333333333334,635.7216494845363,924.6666666666666,641.4347079037802,918.3333333333334C647.1477663230243,912,658.5738831615121,912,664.286941580756,912L670,912" stroke-width="3" style="stroke: rgb(99, 121, 57); fill: none;"></path><path class="edges" d="M562.5,1254L576.6827749140894,1254C590.8655498281788,1254,619.2310996563575,1254,633.4138745704469,1209.6666666666667C647.5966494845363,1165.3333333333333,647.5966494845363,1076.6666666666667,652.9972079037802,1032.3333333333333C658.3977663230243,988.0000000000001,669.1988831615121,988.0000000000001,674.599441580756,988.0000000000001L680,988.0000000000001" stroke-width="3" style="stroke: rgb(140, 162, 82); fill: none;"></path><path class="edges" d="M517.5,266L538.5814003436426,266C559.6628006872853,266,601.8256013745705,266,622.9070017182131,259.6666666666667C643.9884020618558,253.33333333333334,643.9884020618558,240.66666666666666,650.8236683848799,234.33333333333334C657.6589347079039,228,671.3294673539519,228,678.164733676976,228L685,228" stroke-width="3" style="stroke: rgb(181, 207, 107); fill: none;"></path><path class="edges" d="M565,1862L580.5176116838487,1862C596.0352233676974,1862,627.0704467353949,1862,642.5880584192436,1843C658.1056701030923,1824,658.1056701030923,1786,663.4213917525768,1767C668.7371134020615,1748,679.3685567010308,1748,684.6842783505153,1748L690,1748" stroke-width="3" style="stroke: rgb(206, 219, 156); fill: none;"></path><path class="edges" d="M562.5,1254L577.999355670103,1254C593.4987113402061,1254,624.4974226804121,1254,639.9967783505152,1216C655.4961340206182,1178,655.4961340206182,1102,661.2467783505152,1064C666.9974226804121,1026,678.4987113402061,1026,684.249355670103,1026L690,1026" stroke-width="3" style="stroke: rgb(140, 162, 82); fill: none;"></path><path class="edges" d="M562.5,1254L578.7210051546391,1254C594.9420103092783,1254,627.3840206185567,1254,643.6050257731958,1222.3333333333333C659.8260309278351,1190.6666666666667,659.8260309278351,1127.3333333333333,665.6883591065292,1095.6666666666667C671.5506872852234,1064,683.2753436426116,1064,689.1376718213058,1064L695,1064" stroke-width="3" style="stroke: rgb(140, 162, 82); fill: none;"></path><path class="edges" d="M562.5,1254L580.0676546391753,1254C597.6353092783506,1254,632.7706185567013,1254,650.3382731958766,1228.6666666666667C667.9059278350519,1203.3333333333333,667.9059278350519,1152.6666666666667,674.0882731958766,1127.3333333333333C680.2706185567013,1102,692.6353092783506,1102,698.8176546391754,1102L705,1102" stroke-width="3" style="stroke: rgb(140, 162, 82); fill: none;"></path><path class="edges" d="M562.5,1254L580.8107817869416,1254C599.1215635738831,1254,635.7431271477662,1254,654.0539089347078,1235C672.3646907216494,1216,672.3646907216494,1178,678.6372422680412,1159C684.9097938144329,1140,697.4548969072165,1140,703.7274484536083,1140L710,1140" stroke-width="3" style="stroke: rgb(140, 162, 82); fill: none;"></path><path class="edges" d="M565,1862L583.75,1862C602.5,1862,640,1862,658.75,1849.3333333333333C677.5,1836.6666666666667,677.5,1811.3333333333333,683.75,1798.6666666666667C690,1786,702.5,1786,708.75,1786L715,1786" stroke-width="3" style="stroke: rgb(206, 219, 156); fill: none;"></path><path class="edges" d="M562.5,1254L582.1875,1254C601.875,1254,641.25,1254,660.9375,1241.3333333333333C680.625,1228.6666666666667,680.625,1203.3333333333333,687.1875,1190.6666666666667C693.75,1178,706.875,1178,713.4375,1178L720,1178" stroke-width="3" style="stroke: rgb(140, 162, 82); fill: none;"></path><path class="edges" d="M565,1862L585.1374570446736,1862C605.2749140893471,1862,645.5498281786944,1862,665.6872852233679,1855.6666666666667C685.8247422680415,1849.3333333333333,685.8247422680415,1836.6666666666667,692.3539518900346,1830.3333333333333C698.8831615120276,1824,711.9415807560139,1824,718.4707903780069,1824L725,1824" stroke-width="3" style="stroke: rgb(206, 219, 156); fill: none;"></path><path class="edges" d="M562.5,1254L583.5814003436426,1254C604.6628006872853,1254,646.8256013745705,1254,667.9070017182131,1247.6666666666667C688.9884020618559,1241.3333333333333,688.9884020618559,1228.6666666666667,695.8236683848799,1222.3333333333333C702.6589347079039,1216,716.3294673539518,1216,723.164733676976,1216L730,1216" stroke-width="3" style="stroke: rgb(140, 162, 82); fill: none;"></path><path class="edges" d="M577.5,1634L596.6935137457045,1634C615.8870274914091,1634,654.2740549828181,1634,673.4675687285227,1627.6666666666667C692.6610824742271,1621.3333333333333,692.6610824742271,1608.6666666666667,698.8842353951894,1602.3333333333333C705.1073883161515,1596,717.5536941580758,1596,723.7768470790379,1596L730,1596" stroke-width="3" style="stroke: rgb(123, 65, 115); fill: none;"></path><path class="edges" d="M565,1976.0000000000002L585.625,1976.0000000000002C606.25,1976.0000000000002,647.5,1976.0000000000002,668.125,1963.3333333333337C688.75,1950.666666666667,688.75,1925.3333333333337,695.625,1912.666666666667C702.5,1900.0000000000002,716.25,1900.0000000000002,723.125,1900.0000000000002L730,1900.0000000000002" stroke-width="3" style="stroke: rgb(165, 81, 148); fill: none;"></path><path class="edges" d="M635,1444L646.7117697594502,1444C658.4235395189004,1444,681.8470790378009,1444,693.558848797251,1418.6666666666667C705.2706185567013,1393.3333333333333,705.2706185567013,1342.6666666666667,709.3921821305844,1317.3333333333333C713.5137457044675,1292,721.7568728522338,1292,725.8784364261169,1292L730,1292" stroke-width="3" style="stroke: rgb(206, 109, 189); fill: none;"></path><path class="edges" d="M640,570L651.9566151202749,570C663.9132302405498,570,687.8264604810996,570,699.7830756013745,563.6666666666666C711.7396907216494,557.3333333333334,711.7396907216494,544.6666666666666,715.6164089347079,538.3333333333334C719.4931271477662,532,727.2465635738831,532,731.1232817869417,532L735,532" stroke-width="3" style="stroke: rgb(222, 158, 214); fill: none;"></path><path class="edges" d="M635,1444L648.0347938144329,1444C661.0695876288659,1444,687.1391752577316,1444,700.1739690721646,1425C713.2087628865975,1406,713.2087628865975,1368,717.6739690721646,1349C722.1391752577316,1330,731.0695876288659,1330,735.5347938144329,1330L740,1330" stroke-width="3" style="stroke: rgb(206, 109, 189); fill: none;"></path><path class="edges" d="M540,722L566.430412371134,722C592.8608247422679,722,645.721649484536,722,672.15206185567,715.6666666666666C698.5824742268038,709.3333333333334,698.5824742268038,696.6666666666666,707.15206185567,690.3333333333334C715.721649484536,684,732.860824742268,684,741.430412371134,684L750,684" stroke-width="3" style="stroke: rgb(82, 84, 163); fill: none;"></path><path class="edges" d="M635,1444L649.375,1444C663.75,1444,692.5,1444,706.875,1431.3333333333333C721.25,1418.6666666666667,721.25,1393.3333333333333,726.0416666666666,1380.6666666666667C730.8333333333334,1368,740.4166666666666,1368,745.2083333333334,1368L750,1368" stroke-width="3" style="stroke: rgb(206, 109, 189); fill: none;"></path><path class="edges" d="M672.5,912L683.9830326460482,912C695.4660652920961,912,718.4321305841922,912,729.9151632302404,893C741.3981958762884,874,741.3981958762884,836,745.331829896907,817C749.2654639175256,798,757.1327319587627,798,761.0663659793814,798L765,798" stroke-width="3" style="stroke: rgb(156, 158, 222); fill: none;"></path><path class="edges" d="M662.5,2394L675.7527920962199,2394C689.0055841924399,2394,715.5111683848796,2394,728.7639604810996,2368.6666666666665C742.0167525773195,2343.3333333333335,742.0167525773195,2292.6666666666665,746.6806271477662,2267.3333333333335C751.344501718213,2242,760.6722508591065,2242,765.3361254295532,2242L770,2242" stroke-width="3" style="stroke: rgb(99, 121, 57); fill: none;"></path><path class="edges" d="M672.5,912L685.3125,912C698.125,912,723.75,912,736.5625,899.3333333333334C749.375,886.6666666666666,749.375,861.3333333333334,753.6458333333334,848.6666666666666C757.9166666666666,836,766.4583333333334,836,770.7291666666666,836L775,836" stroke-width="3" style="stroke: rgb(156, 158, 222); fill: none;"></path><path class="edges" d="M565,1976.0000000000002L592.0597079037801,1976.0000000000002C619.1194158075601,1976.0000000000002,673.2388316151204,1976.0000000000002,700.2985395189004,1969.666666666667C727.3582474226805,1963.3333333333333,727.3582474226805,1950.6666666666667,736.1318728522338,1944.3333333333333C744.905498281787,1938,762.4527491408935,1938,771.2263745704468,1938L780,1938" stroke-width="3" style="stroke: rgb(165, 81, 148); fill: none;"></path><path class="edges" d="M662.5,2394L677.086554982818,2394C691.673109965636,2394,720.8462199312718,2394,735.4327749140898,2375C750.0193298969076,2356,750.0193298969076,2318,755.0161082474232,2299C760.0128865979385,2280,770.0064432989693,2280,775.0032216494847,2280L780,2280" stroke-width="3" style="stroke: rgb(99, 121, 57); fill: none;"></path><path class="edges" d="M635,1444L653.8788659793814,1444C672.7577319587627,1444,710.5154639175256,1444,729.394329896907,1437.6666666666667C748.2731958762884,1431.3333333333333,748.2731958762884,1418.6666666666667,754.394329896907,1412.3333333333333C760.5154639175256,1406,772.7577319587627,1406,778.8788659793814,1406L785,1406" stroke-width="3" style="stroke: rgb(206, 109, 189); fill: none;"></path><path class="edges" d="M662.5,2394L679.0625,2394C695.625,2394,728.75,2394,745.3125,2381.3333333333335C761.875,2368.6666666666665,761.875,2343.3333333333335,767.3958333333334,2330.6666666666665C772.9166666666666,2318,783.9583333333334,2318,789.4791666666666,2318L795,2318" stroke-width="3" style="stroke: rgb(99, 121, 57); fill: none;"></path><path class="edges" d="M672.5,912L687.9177405498282,912C703.3354810996562,912,734.1709621993126,912,749.5887027491408,905.6666666666666C765.0064432989689,899.3333333333334,765.0064432989689,886.6666666666666,770.0053694158074,880.3333333333334C775.0042955326459,874,785.002147766323,874,790.0010738831616,874L795,874" stroke-width="3" style="stroke: rgb(156, 158, 222); fill: none;"></path><path class="edges" d="M670,228L686.3616838487973,228C702.7233676975944,228,735.4467353951887,228,751.808419243986,221.66666666666666C768.170103092783,215.33333333333334,768.170103092783,202.66666666666666,773.4750859106526,196.33333333333334C778.7800687285221,190,789.3900343642612,190,794.6950171821305,190L800,190" stroke-width="3" style="stroke: rgb(231, 203, 148); fill: none;"></path><path class="edges" d="M732.5,1596L743.4375,1596C754.375,1596,776.25,1596,787.1875,1583.3333333333333C798.125,1570.6666666666667,798.125,1545.3333333333333,801.7708333333334,1532.6666666666667C805.4166666666666,1520,812.7083333333334,1520,816.3541666666666,1520L820,1520" stroke-width="3" style="stroke: rgb(132, 60, 57); fill: none;"></path><path class="edges" d="M732.5,532L745.048324742268,532C757.596649484536,532,782.6932989690719,532,795.2416237113399,500.3333333333333C807.7899484536078,468.6666666666667,807.7899484536078,405.3333333333333,812.3249570446733,373.6666666666667C816.8599656357386,342,825.9299828178692,342,830.4649914089347,342L835,342" stroke-width="3" style="stroke: rgb(173, 73, 74); fill: none;"></path><path class="edges" d="M732.5,532L745.7527920962199,532C759.0055841924399,532,785.5111683848796,532,798.7639604810996,506.6666666666667C812.0167525773195,481.3333333333333,812.0167525773195,430.6666666666667,816.6806271477662,405.3333333333333C821.344501718213,380,830.6722508591065,380,835.3361254295532,380L840,380" stroke-width="3" style="stroke: rgb(173, 73, 74); fill: none;"></path><path class="edges" d="M732.5,1596L746.6591494845361,1596C760.8182989690722,1596,789.1365979381445,1596,803.2957474226806,1589.6666666666667C817.454896907217,1583.3333333333333,817.454896907217,1570.6666666666667,822.0457474226806,1564.3333333333333C826.6365979381445,1558,835.8182989690722,1558,840.4091494845361,1558L845,1558" stroke-width="3" style="stroke: rgb(132, 60, 57); fill: none;"></path><path class="edges" d="M662.5,2394L685.4692869415808,2394C708.4385738831616,2394,754.377147766323,2394,777.3464347079038,2387.6666666666665C800.3157216494843,2381.3333333333335,800.3157216494843,2368.6666666666665,807.7631013745704,2362.3333333333335C815.2104810996562,2356,830.1052405498282,2356,837.5526202749141,2356L845,2356" stroke-width="3" style="stroke: rgb(99, 121, 57); fill: none;"></path><path class="edges" d="M742.5,684L755.9375,684C769.375,684,796.25,684,809.6875,671.3333333333334C823.125,658.6666666666666,823.125,633.3333333333334,827.6041666666666,620.6666666666666C832.0833333333334,608,841.0416666666666,608,845.5208333333334,608L850,608" stroke-width="3" style="stroke: rgb(165, 81, 148); fill: none;"></path><path class="edges" d="M732.5,532L747.7072594501718,532C762.9145189003438,532,793.3290378006874,532,808.5362972508592,513C823.7435567010311,494,823.7435567010311,456,828.9529639175258,437C834.1623711340208,418,844.5811855670104,418,849.7905927835051,418L855,418" stroke-width="3" style="stroke: rgb(173, 73, 74); fill: none;"></path><path class="edges" d="M742.5,684L757.288445017182,684C772.076890034364,684,801.6537800687282,684,816.4422250859102,677.6666666666666C831.2306701030924,671.3333333333334,831.2306701030924,658.6666666666666,836.0255584192436,652.3333333333334C840.8204467353949,646,850.4102233676973,646,855.2051116838487,646L860,646" stroke-width="3" style="stroke: rgb(165, 81, 148); fill: none;"></path><path class="edges" d="M732.5,532L749.6875,532C766.875,532,801.25,532,818.4375,519.3333333333334C835.625,506.6666666666667,835.625,481.3333333333333,841.3541666666666,468.6666666666667C847.0833333333334,456,858.5416666666666,456,864.2708333333334,456L870,456" stroke-width="3" style="stroke: rgb(173, 73, 74); fill: none;"></path><path class="edges" d="M732.5,532L751.0642182130583,532C769.6284364261169,532,806.7568728522338,532,825.3210910652921,525.6666666666666C843.8853092783506,519.3333333333334,843.8853092783506,506.6666666666667,849.9044243986255,500.3333333333333C855.9235395189004,494.00000000000006,867.9617697594502,494.00000000000006,873.9808848797251,494.00000000000006L880,494.00000000000006" stroke-width="3" style="stroke: rgb(173, 73, 74); fill: none;"></path><path class="edges" d="M800,133L810.5884879725087,133C821.1769759450173,133,842.3539518900346,133,852.9424398625433,117.16666666666667C863.5309278350519,101.33333333333333,863.5309278350519,69.66666666666667,867.10910652921,53.833333333333336C870.6872852233679,38,877.843642611684,38,881.4218213058421,38L885,38" stroke-width="3" style="stroke: rgb(107, 110, 207); fill: none;"></path><path class="edges" d="M797.5,190L808.9830326460482,190C820.4660652920961,190,843.4321305841922,190,854.9151632302404,171C866.3981958762884,152,866.3981958762884,114,870.331829896907,95C874.2654639175256,76,882.1327319587627,76,886.0663659793814,76L890,76" stroke-width="3" style="stroke: rgb(107, 110, 207); fill: none;"></path><path class="edges" d="M797.5,190L810.3125,190C823.125,190,848.75,190,861.5625,177.33333333333334C874.375,164.66666666666666,874.375,139.33333333333334,878.6458333333334,126.66666666666667C882.9166666666666,114,891.4583333333334,114,895.7291666666666,114L900,114" stroke-width="3" style="stroke: rgb(107, 110, 207); fill: none;"></path><path class="edges" d="M797.5,190L812.288445017182,190C827.076890034364,190,856.6537800687282,190,871.4422250859102,183.66666666666666C886.2306701030924,177.33333333333334,886.2306701030924,164.66666666666666,891.0255584192436,158.33333333333334C895.8204467353949,152,905.4102233676973,152,910.2051116838487,152L915,152" stroke-width="3" style="stroke: rgb(107, 110, 207); fill: none;"></path><path class="parentEdges" d="M125.00000000000001,2546L0,2546" style="stroke: rgb(57, 59, 121); stroke-width: 4; fill: none;"></path><path class="parentEdges" d="M125.00000000000001,2546L0,2546" style="stroke: rgb(57, 59, 121); stroke-width: 4; fill: none;"></path><path class="parentEdges" d="M125.00000000000001,2546L0,2546" style="stroke: rgb(57, 59, 121); stroke-width: 4; fill: none;"></path><path class="parentEdges" d="M280,1710L250.00000000000003,1710" style="stroke: rgb(156, 158, 222); stroke-width: 4; fill: none;"></path><path class="parentEdges" d="M280,1710L250.00000000000003,1710" style="stroke: rgb(156, 158, 222); stroke-width: 4; fill: none;"></path><path class="parentEdges" d="M325,2204L290,2204" style="stroke: rgb(140, 162, 82); stroke-width: 4; fill: none;"></path><path class="parentEdges" d="M305,2508L295,2508" style="stroke: rgb(181, 207, 107); stroke-width: 4; fill: none;"></path><path class="parentEdges" d="M280,1710L250.00000000000003,1710" style="stroke: rgb(156, 158, 222); stroke-width: 4; fill: none;"></path><path class="parentEdges" d="M325,2204L290,2204" style="stroke: rgb(140, 162, 82); stroke-width: 4; fill: none;"></path><path class="parentEdges" d="M280,1710L250.00000000000003,1710" style="stroke: rgb(156, 158, 222); stroke-width: 4; fill: none;"></path><path class="parentEdges" d="M380,304L375,304" style="stroke: rgb(231, 186, 82); stroke-width: 4; fill: none;"></path><path class="parentEdges" d="M440,2166L435,2166" style="stroke: rgb(231, 203, 148); stroke-width: 4; fill: none;"></path><path class="parentEdges" d="M435,1482L415,1482" style="stroke: rgb(132, 60, 57); stroke-width: 4; fill: none;"></path><path class="parentEdges" d="M440,2470L435,2470" style="stroke: rgb(173, 73, 74); stroke-width: 4; fill: none;"></path><path class="parentEdges" d="M420,760L385,760" style="stroke: rgb(214, 97, 107); stroke-width: 4; fill: none;"></path><path class="parentEdges" d="M435,1482L415,1482" style="stroke: rgb(132, 60, 57); stroke-width: 4; fill: none;"></path><path class="parentEdges" d="M470,2014L430,2014" style="stroke: rgb(123, 65, 115); stroke-width: 4; fill: none;"></path><path class="parentEdges" d="M470,1672L445,1672" style="stroke: rgb(165, 81, 148); stroke-width: 4; fill: none;"></path><path class="parentEdges" d="M470,2014L430,2014" style="stroke: rgb(123, 65, 115); stroke-width: 4; fill: none;"></path><path class="parentEdges" d="M530,2128L490.00000000000006,2128" style="stroke: rgb(222, 158, 214); stroke-width: 4; fill: none;"></path><path class="parentEdges" d="M435,1482L415,1482" style="stroke: rgb(132, 60, 57); stroke-width: 4; fill: none;"></path><path class="parentEdges" d="M545,722L535,722" style="stroke: rgb(82, 84, 163); stroke-width: 4; fill: none;"></path><path class="parentEdges" d="M530,2128L490.00000000000006,2128" style="stroke: rgb(222, 158, 214); stroke-width: 4; fill: none;"></path><path class="parentEdges" d="M535,2432L530,2432" style="stroke: rgb(156, 158, 222); stroke-width: 4; fill: none;"></path><path class="parentEdges" d="M535,950.0000000000001L525,950.0000000000001" style="stroke: rgb(99, 121, 57); stroke-width: 4; fill: none;"></path><path class="parentEdges" d="M565,1254L560,1254" style="stroke: rgb(140, 162, 82); stroke-width: 4; fill: none;"></path><path class="parentEdges" d="M525,266L509.99999999999994,266" style="stroke: rgb(181, 207, 107); stroke-width: 4; fill: none;"></path><path class="parentEdges" d="M565,1862L565,1862" style="stroke: rgb(206, 219, 156); stroke-width: 4; fill: none;"></path><path class="parentEdges" d="M565,1254L560,1254" style="stroke: rgb(140, 162, 82); stroke-width: 4; fill: none;"></path><path class="parentEdges" d="M565,1254L560,1254" style="stroke: rgb(140, 162, 82); stroke-width: 4; fill: none;"></path><path class="parentEdges" d="M565,1254L560,1254" style="stroke: rgb(140, 162, 82); stroke-width: 4; fill: none;"></path><path class="parentEdges" d="M565,1254L560,1254" style="stroke: rgb(140, 162, 82); stroke-width: 4; fill: none;"></path><path class="parentEdges" d="M565,1862L565,1862" style="stroke: rgb(206, 219, 156); stroke-width: 4; fill: none;"></path><path class="parentEdges" d="M565,1254L560,1254" style="stroke: rgb(140, 162, 82); stroke-width: 4; fill: none;"></path><path class="parentEdges" d="M565,1862L565,1862" style="stroke: rgb(206, 219, 156); stroke-width: 4; fill: none;"></path><path class="parentEdges" d="M565,1254L560,1254" style="stroke: rgb(140, 162, 82); stroke-width: 4; fill: none;"></path><path class="parentEdges" d="M585,1634L570,1634" style="stroke: rgb(123, 65, 115); stroke-width: 4; fill: none;"></path><path class="parentEdges" d="M575,1976.0000000000002L555,1976.0000000000002" style="stroke: rgb(165, 81, 148); stroke-width: 4; fill: none;"></path><path class="parentEdges" d="M635,1444L635,1444" style="stroke: rgb(206, 109, 189); stroke-width: 4; fill: none;"></path><path class="parentEdges" d="M645,570L635,570" style="stroke: rgb(222, 158, 214); stroke-width: 4; fill: none;"></path><path class="parentEdges" d="M635,1444L635,1444" style="stroke: rgb(206, 109, 189); stroke-width: 4; fill: none;"></path><path class="parentEdges" d="M545,722L535,722" style="stroke: rgb(82, 84, 163); stroke-width: 4; fill: none;"></path><path class="parentEdges" d="M635,1444L635,1444" style="stroke: rgb(206, 109, 189); stroke-width: 4; fill: none;"></path><path class="parentEdges" d="M675,912L670,912" style="stroke: rgb(156, 158, 222); stroke-width: 4; fill: none;"></path><path class="parentEdges" d="M670,2394L655,2394" style="stroke: rgb(99, 121, 57); stroke-width: 4; fill: none;"></path><path class="parentEdges" d="M675,912L670,912" style="stroke: rgb(156, 158, 222); stroke-width: 4; fill: none;"></path><path class="parentEdges" d="M575,1976.0000000000002L555,1976.0000000000002" style="stroke: rgb(165, 81, 148); stroke-width: 4; fill: none;"></path><path class="parentEdges" d="M670,2394L655,2394" style="stroke: rgb(99, 121, 57); stroke-width: 4; fill: none;"></path><path class="parentEdges" d="M635,1444L635,1444" style="stroke: rgb(206, 109, 189); stroke-width: 4; fill: none;"></path><path class="parentEdges" d="M670,2394L655,2394" style="stroke: rgb(99, 121, 57); stroke-width: 4; fill: none;"></path><path class="parentEdges" d="M675,912L670,912" style="stroke: rgb(156, 158, 222); stroke-width: 4; fill: none;"></path><path class="parentEdges" d="M685,228L655,228" style="stroke: rgb(231, 203, 148); stroke-width: 4; fill: none;"></path><path class="parentEdges" d="M730,1596L735,1596" style="stroke: rgb(132, 60, 57); stroke-width: 4; fill: none;"></path><path class="parentEdges" d="M735,532L730,532" style="stroke: rgb(173, 73, 74); stroke-width: 4; fill: none;"></path><path class="parentEdges" d="M735,532L730,532" style="stroke: rgb(173, 73, 74); stroke-width: 4; fill: none;"></path><path class="parentEdges" d="M730,1596L735,1596" style="stroke: rgb(132, 60, 57); stroke-width: 4; fill: none;"></path><path class="parentEdges" d="M670,2394L655,2394" style="stroke: rgb(99, 121, 57); stroke-width: 4; fill: none;"></path><path class="parentEdges" d="M750,684L735,684" style="stroke: rgb(165, 81, 148); stroke-width: 4; fill: none;"></path><path class="parentEdges" d="M735,532L730,532" style="stroke: rgb(173, 73, 74); stroke-width: 4; fill: none;"></path><path class="parentEdges" d="M750,684L735,684" style="stroke: rgb(165, 81, 148); stroke-width: 4; fill: none;"></path><path class="parentEdges" d="M735,532L730,532" style="stroke: rgb(173, 73, 74); stroke-width: 4; fill: none;"></path><path class="parentEdges" d="M735,532L730,532" style="stroke: rgb(173, 73, 74); stroke-width: 4; fill: none;"></path><path class="parentEdges" d="M800,190L800,76" style="stroke: rgb(107, 110, 207); stroke-width: 4; fill: none;"></path><path class="parentEdges" d="M800,190L795,190" style="stroke: rgb(107, 110, 207); stroke-width: 4; fill: none;"></path><path class="parentEdges" d="M800,190L795,190" style="stroke: rgb(107, 110, 207); stroke-width: 4; fill: none;"></path><path class="parentEdges" d="M800,190L795,190" style="stroke: rgb(107, 110, 207); stroke-width: 4; fill: none;"></path><g class="node" transform="translate(-14,2532)" style="fill: white; stroke: rgb(57, 59, 121); stroke-width: 3;"><rect width="28" height="28"></rect><text dx="7" dy="21" fill="black" stroke="none">67</text></g><g class="node" transform="translate(236.00000000000003,1696)" style="fill: white; stroke: rgb(156, 158, 222); stroke-width: 3;"><rect width="28" height="28"></rect><text dx="7" dy="21" fill="black" stroke="none">45</text></g><g class="node" transform="translate(276,2190)" style="fill: white; stroke: rgb(140, 162, 82); stroke-width: 3;"><rect width="28" height="28"></rect><text dx="7" dy="21" fill="black" stroke="none">58</text></g><g class="node" transform="translate(281,2494)" style="fill: white; stroke: rgb(181, 207, 107); stroke-width: 3;"><rect width="28" height="28"></rect><text dx="7" dy="21" fill="black" stroke="none">66</text></g><g class="node" transform="translate(361,290)" style="fill: white; stroke: rgb(231, 186, 82); stroke-width: 3;"><rect width="28" height="28"></rect><text dx="7" dy="21" fill="black" stroke="none">8</text></g><g class="node" transform="translate(371,746)" style="fill: white; stroke: rgb(214, 97, 107); stroke-width: 3;"><rect width="28" height="28"></rect><text dx="7" dy="21" fill="black" stroke="none">20</text></g><g class="node" transform="translate(401,1468)" style="fill: white; stroke: rgb(132, 60, 57); stroke-width: 3;"><rect width="28" height="28"></rect><text dx="7" dy="21" fill="black" stroke="none">39</text></g><g class="node" transform="translate(416,2000)" style="fill: white; stroke: rgb(123, 65, 115); stroke-width: 3;"><rect width="28" height="28"></rect><text dx="7" dy="21" fill="black" stroke="none">53</text></g><g class="node" transform="translate(421,2456)" style="fill: white; stroke: rgb(173, 73, 74); stroke-width: 3;"><rect width="28" height="28"></rect><text dx="7" dy="21" fill="black" stroke="none">65</text></g><g class="node" transform="translate(421,2152)" style="fill: white; stroke: rgb(231, 203, 148); stroke-width: 3;"><rect width="28" height="28"></rect><text dx="7" dy="21" fill="black" stroke="none">57</text></g><g class="node" transform="translate(431,1658)" style="fill: white; stroke: rgb(165, 81, 148); stroke-width: 3;"><rect width="28" height="28"></rect><text dx="7" dy="21" fill="black" stroke="none">44</text></g><g class="node" transform="translate(476.00000000000006,2114)" style="fill: white; stroke: rgb(222, 158, 214); stroke-width: 3;"><rect width="28" height="28"></rect><text dx="7" dy="21" fill="black" stroke="none">56</text></g><g class="node" transform="translate(495.99999999999994,252)" style="fill: white; stroke: rgb(181, 207, 107); stroke-width: 3;"><rect width="28" height="28"></rect><text dx="7" dy="21" fill="black" stroke="none">7</text></g><g class="node" transform="translate(511,936.0000000000001)" style="fill: white; stroke: rgb(99, 121, 57); stroke-width: 3;"><rect width="28" height="28"></rect><text dx="7" dy="21" fill="black" stroke="none">25</text></g><g class="node" transform="translate(516,2418)" style="fill: white; stroke: rgb(156, 158, 222); stroke-width: 3;"><rect width="28" height="28"></rect><text dx="7" dy="21" fill="black" stroke="none">64</text></g><g class="node" transform="translate(521,708)" style="fill: white; stroke: rgb(82, 84, 163); stroke-width: 3;"><rect width="28" height="28"></rect><text dx="7" dy="21" fill="black" stroke="none">19</text></g><g class="node" transform="translate(541,1962.0000000000002)" style="fill: white; stroke: rgb(165, 81, 148); stroke-width: 3;"><rect width="28" height="28"></rect><text dx="7" dy="21" fill="black" stroke="none">52</text></g><g class="node" transform="translate(546,1240)" style="fill: white; stroke: rgb(140, 162, 82); stroke-width: 3;"><rect width="28" height="28"></rect><text dx="7" dy="21" fill="black" stroke="none">33</text></g><g class="node" transform="translate(551,1848)" style="fill: white; stroke: rgb(206, 219, 156); stroke-width: 3;"><rect width="28" height="28"></rect><text dx="7" dy="21" fill="black" stroke="none">49</text></g><g class="node" transform="translate(556,1620)" style="fill: white; stroke: rgb(123, 65, 115); stroke-width: 3;"><rect width="28" height="28"></rect><text dx="7" dy="21" fill="black" stroke="none">43</text></g><g class="node" transform="translate(621,556)" style="fill: white; stroke: rgb(222, 158, 214); stroke-width: 3;"><rect width="28" height="28"></rect><text dx="7" dy="21" fill="black" stroke="none">15</text></g><g class="node" transform="translate(621,1430)" style="fill: white; stroke: rgb(206, 109, 189); stroke-width: 3;"><rect width="28" height="28"></rect><text dx="7" dy="21" fill="black" stroke="none">38</text></g><g class="node" transform="translate(641,2380)" style="fill: white; stroke: rgb(99, 121, 57); stroke-width: 3;"><rect width="28" height="28"></rect><text dx="7" dy="21" fill="black" stroke="none">63</text></g><g class="node" transform="translate(641,214)" style="fill: white; stroke: rgb(231, 203, 148); stroke-width: 3;"><rect width="28" height="28"></rect><text dx="7" dy="21" fill="black" stroke="none">6</text></g><g class="node" transform="translate(656,898)" style="fill: white; stroke: rgb(156, 158, 222); stroke-width: 3;"><rect width="28" height="28"></rect><text dx="7" dy="21" fill="black" stroke="none">24</text></g><g class="node" transform="translate(666,974.0000000000001)" style="fill: white; stroke: black; stroke-width: 3;"><rect width="28" height="28"></rect><text dx="7" dy="21" fill="black" stroke="none">26</text></g><g class="node" transform="translate(676,1734)" style="fill: white; stroke: black; stroke-width: 3;"><rect width="28" height="28"></rect><text dx="7" dy="21" fill="black" stroke="none">46</text></g><g class="node" transform="translate(676,1012)" style="fill: white; stroke: black; stroke-width: 3;"><rect width="28" height="28"></rect><text dx="7" dy="21" fill="black" stroke="none">27</text></g><g class="node" transform="translate(696,1126)" style="fill: black; stroke: black; stroke-width: 3;"><rect width="28" height="28"></rect><text dx="7" dy="21" fill="white" stroke="none">30</text></g><g class="node" transform="translate(711,1810)" style="fill: black; stroke: black; stroke-width: 3;"><rect width="28" height="28"></rect><text dx="7" dy="21" fill="white" stroke="none">48</text></g><g class="node" transform="translate(716,518)" style="fill: white; stroke: rgb(173, 73, 74); stroke-width: 3;"><rect width="28" height="28"></rect><text dx="7" dy="21" fill="black" stroke="none">14</text></g><g class="node" transform="translate(721,670)" style="fill: white; stroke: rgb(165, 81, 148); stroke-width: 3;"><rect width="28" height="28"></rect><text dx="7" dy="21" fill="black" stroke="none">18</text></g><g class="node" transform="translate(721,1582)" style="fill: white; stroke: rgb(132, 60, 57); stroke-width: 3;"><rect width="28" height="28"></rect><text dx="7" dy="21" fill="black" stroke="none">42</text></g><g class="node" transform="translate(726,1316)" style="fill: white; stroke: black; stroke-width: 3;"><rect width="28" height="28"></rect><text dx="7" dy="21" fill="black" stroke="none">35</text></g><g class="node" transform="translate(751,784)" style="fill: black; stroke: black; stroke-width: 3;"><rect width="28" height="28"></rect><text dx="7" dy="21" fill="white" stroke="none">21</text></g><g class="node" transform="translate(766,2266)" style="fill: white; stroke: black; stroke-width: 3;"><rect width="28" height="28"></rect><text dx="7" dy="21" fill="black" stroke="none">60</text></g><g class="node" transform="translate(771,1392)" style="fill: black; stroke: black; stroke-width: 3;"><rect width="28" height="28"></rect><text dx="7" dy="21" fill="white" stroke="none">37</text></g><g class="node" transform="translate(781,2304)" style="fill: white; stroke: black; stroke-width: 3;"><rect width="28" height="28"></rect><text dx="7" dy="21" fill="black" stroke="none">61</text></g><g class="node" transform="translate(781,176)" style="fill: black; stroke: black; stroke-width: 3;"><rect width="28" height="28"></rect><text dx="7" dy="21" fill="white" stroke="none">5</text></g><g class="node" transform="translate(786,62)" style="fill: white; stroke: rgb(107, 110, 207); stroke-width: 3;"><rect width="28" height="28"></rect><text dx="7" dy="21" fill="black" stroke="none">2</text></g><g class="node" transform="translate(806,1506)" style="fill: black; stroke: black; stroke-width: 3;"><rect width="28" height="28"></rect><text dx="7" dy="21" fill="white" stroke="none">40</text></g><g class="node" transform="translate(821,3406)" style="fill: white; stroke: black; stroke-width: 3;"><rect width="28" height="28"></rect><text dx="7" dy="21" fill="black" stroke="none">90</text></g><g class="node" transform="translate(831,2342)" style="fill: black; stroke: black; stroke-width: 3;"><rect width="28" height="28"></rect><text dx="7" dy="21" fill="white" stroke="none">62</text></g><g class="node" transform="translate(836,594)" style="fill: black; stroke: black; stroke-width: 3;"><rect width="28" height="28"></rect><text dx="7" dy="21" fill="white" stroke="none">16</text></g><g class="node" transform="translate(841,404)" style="fill: black; stroke: black; stroke-width: 3;"><rect width="28" height="28"></rect><text dx="7" dy="21" fill="white" stroke="none">11</text></g><g class="node" transform="translate(846,632)" style="fill: white; stroke: black; stroke-width: 3;"><rect width="28" height="28"></rect><text dx="7" dy="21" fill="black" stroke="none">17</text></g><g class="node" transform="translate(856,442)" style="fill: white; stroke: black; stroke-width: 3;"><rect width="28" height="28"></rect><text dx="7" dy="21" fill="black" stroke="none">12</text></g><g class="node" transform="translate(866,480.00000000000006)" style="fill: white; stroke: black; stroke-width: 3;"><rect width="28" height="28"></rect><text dx="7" dy="21" fill="black" stroke="none">13</text></g><g class="node" transform="translate(876,62)" style="fill: black; stroke: black; stroke-width: 3;"><rect width="28" height="28"></rect><text dx="7" dy="21" fill="white" stroke="none">2</text></g><g class="node" transform="translate(886,100)" style="fill: white; stroke: black; stroke-width: 3;"><rect width="28" height="28"></rect><text dx="7" dy="21" fill="black" stroke="none">3</text></g><g class="node" transform="translate(901,138)" style="fill: white; stroke: black; stroke-width: 3;"><rect width="28" height="28"></rect><text dx="7" dy="21" fill="black" stroke="none">4</text></g><g class="node" transform="translate(125.00000000000001,2546)" style="fill: white; stroke: rgb(57, 59, 121); stroke-width: 3;"><circle r="14"></circle><text dx="-7" dy="7" fill="black" stroke="none">67</text></g><g class="node" transform="translate(280,1710)" style="fill: white; stroke: rgb(156, 158, 222); stroke-width: 3;"><circle r="14"></circle><text dx="-7" dy="7" fill="black" stroke="none">45</text></g><g class="node" transform="translate(305,2508)" style="fill: white; stroke: rgb(181, 207, 107); stroke-width: 3;"><circle r="14"></circle><text dx="-7" dy="7" fill="black" stroke="none">66</text></g><g class="node" transform="translate(325,2204)" style="fill: white; stroke: rgb(140, 162, 82); stroke-width: 3;"><circle r="14"></circle><text dx="-7" dy="7" fill="black" stroke="none">58</text></g><g class="node" transform="translate(380,304)" style="fill: white; stroke: rgb(231, 186, 82); stroke-width: 3;"><circle r="14"></circle><text dx="-7" dy="7" fill="black" stroke="none">8</text></g><g class="node" transform="translate(420,760)" style="fill: white; stroke: rgb(214, 97, 107); stroke-width: 3;"><circle r="14"></circle><text dx="-7" dy="7" fill="black" stroke="none">20</text></g><g class="node" transform="translate(435,1482)" style="fill: white; stroke: rgb(132, 60, 57); stroke-width: 3;"><circle r="14"></circle><text dx="-7" dy="7" fill="black" stroke="none">39</text></g><g class="node" transform="translate(440,2166)" style="fill: white; stroke: rgb(231, 203, 148); stroke-width: 3;"><circle r="14"></circle><text dx="-7" dy="7" fill="black" stroke="none">57</text></g><g class="node" transform="translate(440,2470)" style="fill: white; stroke: rgb(173, 73, 74); stroke-width: 3;"><circle r="14"></circle><text dx="-7" dy="7" fill="black" stroke="none">65</text></g><g class="node" transform="translate(470,1672)" style="fill: white; stroke: rgb(165, 81, 148); stroke-width: 3;"><circle r="14"></circle><text dx="-7" dy="7" fill="black" stroke="none">44</text></g><g class="node" transform="translate(470,2014)" style="fill: white; stroke: rgb(123, 65, 115); stroke-width: 3;"><circle r="14"></circle><text dx="-7" dy="7" fill="black" stroke="none">53</text></g><g class="node" transform="translate(525,266)" style="fill: white; stroke: rgb(181, 207, 107); stroke-width: 3;"><circle r="14"></circle><text dx="-7" dy="7" fill="black" stroke="none">7</text></g><g class="node" transform="translate(530,2128)" style="fill: white; stroke: rgb(222, 158, 214); stroke-width: 3;"><circle r="14"></circle><text dx="-7" dy="7" fill="black" stroke="none">56</text></g><g class="node" transform="translate(535,950.0000000000001)" style="fill: white; stroke: rgb(99, 121, 57); stroke-width: 3;"><circle r="14"></circle><text dx="-7" dy="7" fill="black" stroke="none">25</text></g><g class="node" transform="translate(535,2432)" style="fill: white; stroke: rgb(156, 158, 222); stroke-width: 3;"><circle r="14"></circle><text dx="-7" dy="7" fill="black" stroke="none">64</text></g><g class="node" transform="translate(545,722)" style="fill: white; stroke: rgb(82, 84, 163); stroke-width: 3;"><circle r="14"></circle><text dx="-7" dy="7" fill="black" stroke="none">19</text></g><g class="node" transform="translate(565,1862)" style="fill: white; stroke: rgb(206, 219, 156); stroke-width: 3;"><circle r="14"></circle><text dx="-7" dy="7" fill="black" stroke="none">49</text></g><g class="node" transform="translate(565,1254)" style="fill: white; stroke: rgb(140, 162, 82); stroke-width: 3;"><circle r="14"></circle><text dx="-7" dy="7" fill="black" stroke="none">33</text></g><g class="node" transform="translate(575,1976.0000000000002)" style="fill: white; stroke: rgb(165, 81, 148); stroke-width: 3;"><circle r="14"></circle><text dx="-7" dy="7" fill="black" stroke="none">52</text></g><g class="node" transform="translate(585,1634)" style="fill: white; stroke: rgb(123, 65, 115); stroke-width: 3;"><circle r="14"></circle><text dx="-7" dy="7" fill="black" stroke="none">43</text></g><g class="node" transform="translate(635,2052)" style="fill: white; stroke: black; stroke-width: 3;"><circle r="14"></circle><text dx="-7" dy="7" fill="black" stroke="none">54</text></g><g class="node" transform="translate(635,1444)" style="fill: white; stroke: rgb(206, 109, 189); stroke-width: 3;"><circle r="14"></circle><text dx="-7" dy="7" fill="black" stroke="none">38</text></g><g class="node" transform="translate(645,570)" style="fill: white; stroke: rgb(222, 158, 214); stroke-width: 3;"><circle r="14"></circle><text dx="-7" dy="7" fill="black" stroke="none">15</text></g><g class="node" transform="translate(650,2090)" style="fill: black; stroke: black; stroke-width: 3;"><circle r="14"></circle><text dx="-7" dy="7" fill="white" stroke="none">55</text></g><g class="node" transform="translate(670,2394)" style="fill: white; stroke: rgb(99, 121, 57); stroke-width: 3;"><circle r="14"></circle><text dx="-7" dy="7" fill="black" stroke="none">63</text></g><g class="node" transform="translate(675,912)" style="fill: white; stroke: rgb(156, 158, 222); stroke-width: 3;"><circle r="14"></circle><text dx="-7" dy="7" fill="black" stroke="none">24</text></g><g class="node" transform="translate(685,228)" style="fill: white; stroke: rgb(231, 203, 148); stroke-width: 3;"><circle r="14"></circle><text dx="-7" dy="7" fill="black" stroke="none">6</text></g><g class="node" transform="translate(695,1064)" style="fill: white; stroke: black; stroke-width: 3;"><circle r="14"></circle><text dx="-7" dy="7" fill="black" stroke="none">28</text></g><g class="node" transform="translate(705,1102)" style="fill: white; stroke: black; stroke-width: 3;"><circle r="14"></circle><text dx="-7" dy="7" fill="black" stroke="none">29</text></g><g class="node" transform="translate(715,1786)" style="fill: white; stroke: black; stroke-width: 3;"><circle r="14"></circle><text dx="-7" dy="7" fill="black" stroke="none">47</text></g><g class="node" transform="translate(720,1178)" style="fill: white; stroke: black; stroke-width: 3;"><circle r="14"></circle><text dx="-7" dy="7" fill="black" stroke="none">31</text></g><g class="node" transform="translate(730,1216)" style="fill: white; stroke: black; stroke-width: 3;"><circle r="14"></circle><text dx="-7" dy="7" fill="black" stroke="none">32</text></g><g class="node" transform="translate(730,1596)" style="fill: white; stroke: rgb(132, 60, 57); stroke-width: 3;"><circle r="14"></circle><text dx="-7" dy="7" fill="black" stroke="none">42</text></g><g class="node" transform="translate(730,1900.0000000000002)" style="fill: black; stroke: black; stroke-width: 3;"><circle r="14"></circle><text dx="-7" dy="7" fill="white" stroke="none">50</text></g><g class="node" transform="translate(730,1292)" style="fill: white; stroke: black; stroke-width: 3;"><circle r="14"></circle><text dx="-7" dy="7" fill="black" stroke="none">34</text></g><g class="node" transform="translate(735,532)" style="fill: white; stroke: rgb(173, 73, 74); stroke-width: 3;"><circle r="14"></circle><text dx="-7" dy="7" fill="black" stroke="none">14</text></g><g class="node" transform="translate(750,684)" style="fill: white; stroke: rgb(165, 81, 148); stroke-width: 3;"><circle r="14"></circle><text dx="-7" dy="7" fill="black" stroke="none">18</text></g><g class="node" transform="translate(750,1368)" style="fill: white; stroke: black; stroke-width: 3;"><circle r="14"></circle><text dx="-7" dy="7" fill="black" stroke="none">36</text></g><g class="node" transform="translate(770,2242)" style="fill: white; stroke: black; stroke-width: 3;"><circle r="14"></circle><text dx="-7" dy="7" fill="black" stroke="none">59</text></g><g class="node" transform="translate(775,836)" style="fill: white; stroke: black; stroke-width: 3;"><circle r="14"></circle><text dx="-7" dy="7" fill="black" stroke="none">22</text></g><g class="node" transform="translate(780,1938)" style="fill: white; stroke: black; stroke-width: 3;"><circle r="14"></circle><text dx="-7" dy="7" fill="black" stroke="none">51</text></g><g class="node" transform="translate(795,874)" style="fill: white; stroke: black; stroke-width: 3;"><circle r="14"></circle><text dx="-7" dy="7" fill="black" stroke="none">23</text></g><g class="node" transform="translate(800,190)" style="fill: white; stroke: rgb(107, 110, 207); stroke-width: 3;"><circle r="14"></circle><text dx="-7" dy="7" fill="black" stroke="none">5</text></g><g class="node" transform="translate(835,342)" style="fill: white; stroke: black; stroke-width: 3;"><circle r="14"></circle><text dx="-7" dy="7" fill="black" stroke="none">9</text></g><g class="node" transform="translate(840,380)" style="fill: white; stroke: black; stroke-width: 3;"><circle r="14"></circle><text dx="-7" dy="7" fill="black" stroke="none">10</text></g><g class="node" transform="translate(845,1558)" style="fill: white; stroke: black; stroke-width: 3;"><circle r="14"></circle><text dx="-7" dy="7" fill="black" stroke="none">41</text></g><g class="node" transform="translate(885,38)" style="fill: white; stroke: black; stroke-width: 3;"><circle r="14"></circle><text dx="-7" dy="7" fill="black" stroke="none">1</text></g><g class="node" transform="translate(905,3458)" style="fill: white; stroke: black; stroke-width: 3;"><circle r="14"></circle><text dx="-7" dy="7" fill="black" stroke="none">91</text></g></g><g transform="translate(20,40)" fill="none" font-size="10" font-family="sans-serif" text-anchor="middle"><path class="domain" stroke="#000" d="M0.5,-6V0.5H915.5V-6"></path><g class="tick" opacity="1" transform="translate(45,0)"><line stroke="#000" y2="-6" x1="0.5" x2="0.5"></line><text fill="#000" y="-9" x="0.5" dy="0em">1820</text></g><g class="tick" opacity="1" transform="translate(145,0)"><line stroke="#000" y2="-6" x1="0.5" x2="0.5"></line><text fill="#000" y="-9" x="0.5" dy="0em">1840</text></g><g class="tick" opacity="1" transform="translate(245.00000000000003,0)"><line stroke="#000" y2="-6" x1="0.5" x2="0.5"></line><text fill="#000" y="-9" x="0.5" dy="0em">1860</text></g><g class="tick" opacity="1" transform="translate(345,0)"><line stroke="#000" y2="-6" x1="0.5" x2="0.5"></line><text fill="#000" y="-9" x="0.5" dy="0em">1880</text></g><g class="tick" opacity="1" transform="translate(445,0)"><line stroke="#000" y2="-6" x1="0.5" x2="0.5"></line><text fill="#000" y="-9" x="0.5" dy="0em">1900</text></g><g class="tick" opacity="1" transform="translate(545,0)"><line stroke="#000" y2="-6" x1="0.5" x2="0.5"></line><text fill="#000" y="-9" x="0.5" dy="0em">1920</text></g><g class="tick" opacity="1" transform="translate(645,0)"><line stroke="#000" y2="-6" x1="0.5" x2="0.5"></line><text fill="#000" y="-9" x="0.5" dy="0em">1940</text></g><g class="tick" opacity="1" transform="translate(745,0)"><line stroke="#000" y2="-6" x1="0.5" x2="0.5"></line><text fill="#000" y="-9" x="0.5" dy="0em">1960</text></g><g class="tick" opacity="1" transform="translate(845,0)"><line stroke="#000" y2="-6" x1="0.5" x2="0.5"></line><text fill="#000" y="-9" x="0.5" dy="0em">1980</text></g></g><g class="grid" transform="translate(20,40)" fill="none" font-size="10" font-family="sans-serif" text-anchor="middle"><path class="domain" stroke="#000" d="M0.5,3762V0.5H915.5V3762"></path><g class="tick" opacity="1" transform="translate(45,0)"><line stroke="#000" y2="3762" x1="0.5" x2="0.5"></line><text fill="#000" y="-3" x="0.5" dy="0em"></text></g><g class="tick" opacity="1" transform="translate(145,0)"><line stroke="#000" y2="3762" x1="0.5" x2="0.5"></line><text fill="#000" y="-3" x="0.5" dy="0em"></text></g><g class="tick" opacity="1" transform="translate(245.00000000000003,0)"><line stroke="#000" y2="3762" x1="0.5" x2="0.5"></line><text fill="#000" y="-3" x="0.5" dy="0em"></text></g><g class="tick" opacity="1" transform="translate(345,0)"><line stroke="#000" y2="3762" x1="0.5" x2="0.5"></line><text fill="#000" y="-3" x="0.5" dy="0em"></text></g><g class="tick" opacity="1" transform="translate(445,0)"><line stroke="#000" y2="3762" x1="0.5" x2="0.5"></line><text fill="#000" y="-3" x="0.5" dy="0em"></text></g><g class="tick" opacity="1" transform="translate(545,0)"><line stroke="#000" y2="3762" x1="0.5" x2="0.5"></line><text fill="#000" y="-3" x="0.5" dy="0em"></text></g><g class="tick" opacity="1" transform="translate(645,0)"><line stroke="#000" y2="3762" x1="0.5" x2="0.5"></line><text fill="#000" y="-3" x="0.5" dy="0em"></text></g><g class="tick" opacity="1" transform="translate(745,0)"><line stroke="#000" y2="3762" x1="0.5" x2="0.5"></line><text fill="#000" y="-3" x="0.5" dy="0em"></text></g><g class="tick" opacity="1" transform="translate(845,0)"><line stroke="#000" y2="3762" x1="0.5" x2="0.5"></line><text fill="#000" y="-3" x="0.5" dy="0em"></text></g></g></svg>