<svg width="1040" height="3010"><g transform="translate(20,20)"><rect width="120" height="24" x="0" y="27.272727272727273" style="stroke: black; fill: none;"></rect><rect width="120" height="24" x="0" y="163.63636363636363" style="stroke: black; fill: none;"></rect><rect width="120" height="24" x="0" y="190.90909090909088" style="stroke: red; fill: none;"></rect><rect width="120" height="24" x="0" y="218.1818181818182" style="stroke: black; fill: none;"></rect><rect width="120" height="24" x="0" y="381.81818181818176" style="stroke: black; fill: none;"></rect><rect width="120" height="24" x="0" y="409.0909090909091" style="stroke: black; fill: none;"></rect><rect width="120" height="24" x="0" y="572.7272727272726" style="stroke: black; fill: none;"></rect><rect width="120" height="24" x="0" y="436.3636363636364" style="stroke: red; fill: none;"></rect><rect width="120" height="24" x="0" y="600" style="stroke: red; fill: none;"></rect><rect width="120" height="24" x="0" y="709.090909090909" style="stroke: black; fill: none;"></rect><rect width="120" height="24" x="0" y="900" style="stroke: red; fill: none;"></rect><rect width="120" height="24" x="0" y="463.63636363636357" style="stroke: black; fill: none;"></rect><rect width="120" height="24" x="0" y="490.90909090909093" style="stroke: black; fill: none;"></rect><rect width="120" height="24" x="0" y="1118.1818181818182" style="stroke: black; fill: none;"></rect><rect width="120" height="24" x="0" y="736.3636363636363" style="stroke: red; fill: none;"></rect><rect width="120" height="24" x="0" y="927.2727272727271" style="stroke: black; fill: none;"></rect><rect width="120" height="24" x="0" y="245.45454545454547" style="stroke: black; fill: none;"></rect><rect width="120" height="24" x="0" y="1145.4545454545453" style="stroke: red; fill: none;"></rect><rect width="120" height="24" x="0" y="954.5454545454545" style="stroke: black; fill: none;"></rect><rect width="120" height="24" x="0" y="1336.3636363636363" style="stroke: black; fill: none;"></rect><rect width="120" height="24" x="0" y="54.54545454545455" style="stroke: black; fill: none;"></rect><rect width="120" height="24" x="0" y="981.8181818181819" style="stroke: black; fill: none;"></rect><rect width="120" height="24" x="0" y="81.81818181818181" style="stroke: red; fill: none;"></rect><rect width="120" height="24" x="0" y="1172.7272727272727" style="stroke: black; fill: none;"></rect><rect width="120" height="24" x="0" y="1200" style="stroke: black; fill: none;"></rect><rect width="120" height="24" x="0" y="1363.6363636363635" style="stroke: red; fill: none;"></rect><rect width="120" height="24" x="0" y="1227.2727272727273" style="stroke: black; fill: none;"></rect><rect width="120" height="24" x="0" y="1554.5454545454545" style="stroke: red; fill: none;"></rect><rect width="120" height="24" x="0" y="1581.8181818181818" style="stroke: black; fill: none;"></rect><rect width="120" height="24" x="0" y="1663.6363636363635" style="stroke: black; fill: none;"></rect><rect width="120" height="24" x="0" y="1690.9090909090908" style="stroke: black; fill: none;"></rect><rect width="120" height="24" x="0" y="1718.181818181818" style="stroke: black; fill: none;"></rect><rect width="120" height="24" x="0" y="1745.4545454545455" style="stroke: red; fill: none;"></rect><rect width="120" height="24" x="0" y="245.45454545454547" style="stroke: black; fill: none;"></rect><rect width="120" height="24" x="0" y="1009.090909090909" style="stroke: black; fill: none;"></rect><rect width="120" height="24" x="0" y="1609.090909090909" style="stroke: black; fill: none;"></rect><rect width="120" height="24" x="0" y="518.1818181818181" style="stroke: black; fill: none;"></rect><rect width="120" height="24" x="0" y="763.6363636363635" style="stroke: black; fill: none;"></rect><rect width="120" height="24" x="0" y="627.2727272727273" style="stroke: black; fill: none;"></rect><rect width="120" height="24" x="0" y="1609.090909090909" style="stroke: black; fill: none;"></rect><rect width="120" height="24" x="0" y="245.45454545454547" style="stroke: black; fill: none;"></rect><rect width="120" height="24" x="0" y="1390.9090909090908" style="stroke: black; fill: none;"></rect><rect width="120" height="24" x="0" y="1390.9090909090908" style="stroke: black; fill: none;"></rect><rect width="120" height="24" x="0" y="245.45454545454547" style="stroke: red; fill: none;"></rect><rect width="120" height="24" x="0" y="518.1818181818181" style="stroke: black; fill: none;"></rect><rect width="120" height="24" x="0" y="1254.5454545454545" style="stroke: black; fill: none;"></rect><rect width="120" height="24" x="0" y="1254.5454545454545" style="stroke: black; fill: none;"></rect><rect width="120" height="24" x="0" y="763.6363636363635" style="stroke: black; fill: none;"></rect><rect width="120" height="24" x="0" y="109.0909090909091" style="stroke: black; fill: none;"></rect><rect width="120" height="24" x="0" y="627.2727272727273" style="stroke: black; fill: none;"></rect><rect width="120" height="24" x="0" y="109.0909090909091" style="stroke: black; fill: none;"></rect><rect width="120" height="24" x="0" y="1009.090909090909" style="stroke: black; fill: none;"></rect><rect width="120" height="24" x="0" y="1800" style="stroke: black; fill: none;"></rect><rect width="120" height="24" x="0" y="1827.272727272727" style="stroke: black; fill: none;"></rect><rect width="120" height="24" x="0" y="1854.5454545454543" style="stroke: black; fill: none;"></rect><rect width="120" height="24" x="0" y="1418.181818181818" style="stroke: black; fill: none;"></rect><rect width="120" height="24" x="0" y="1418.181818181818" style="stroke: black; fill: none;"></rect><rect width="120" height="24" x="0" y="1881.8181818181818" style="stroke: red; fill: none;"></rect><rect width="120" height="24" x="0" y="1909.090909090909" style="stroke: black; fill: none;"></rect><rect width="120" height="24" x="0" y="1936.3636363636363" style="stroke: black; fill: none;"></rect><rect width="120" height="24" x="0" y="1963.6363636363637" style="stroke: black; fill: none;"></rect><rect width="120" height="24" x="0" y="272.7272727272727" style="stroke: black; fill: none;"></rect><rect width="120" height="24" x="0" y="1445.4545454545455" style="stroke: black; fill: none;"></rect><rect width="120" height="24" x="0" y="545.4545454545454" style="stroke: black; fill: none;"></rect><rect width="120" height="24" x="0" y="545.4545454545454" style="stroke: black; fill: none;"></rect><rect width="120" height="24" x="0" y="790.9090909090909" style="stroke: black; fill: none;"></rect><rect width="120" height="24" x="0" y="136.36363636363635" style="stroke: black; fill: none;"></rect><rect width="120" height="24" x="0" y="1036.3636363636363" style="stroke: black; fill: none;"></rect><rect width="120" height="24" x="0" y="1036.3636363636363" style="stroke: black; fill: none;"></rect><rect width="120" height="24" x="0" y="272.7272727272727" style="stroke: black; fill: none;"></rect><rect width="120" height="24" x="0" y="136.36363636363635" style="stroke: black; fill: none;"></rect><rect width="120" height="24" x="0" y="790.9090909090909" style="stroke: black; fill: none;"></rect><rect width="120" height="24" x="0" y="1636.3636363636365" style="stroke: black; fill: none;"></rect><rect width="120" height="24" x="0" y="1445.4545454545455" style="stroke: black; fill: none;"></rect><rect width="120" height="24" x="0" y="1472.7272727272725" style="stroke: black; fill: none;"></rect><rect width="120" height="24" x="0" y="1990.9090909090908" style="stroke: black; fill: none;"></rect><rect width="120" height="24" x="0" y="1281.8181818181818" style="stroke: black; fill: none;"></rect><rect width="120" height="24" x="0" y="818.1818181818182" style="stroke: black; fill: none;"></rect><rect width="120" height="24" x="0" y="654.5454545454545" style="stroke: black; fill: none;"></rect><rect width="120" height="24" x="0" y="818.1818181818182" style="stroke: black; fill: none;"></rect><rect width="120" height="24" x="0" y="300" style="stroke: black; fill: none;"></rect><rect width="120" height="24" x="0" y="1063.6363636363635" style="stroke: black; fill: none;"></rect><rect width="120" height="24" x="0" y="654.5454545454545" style="stroke: black; fill: none;"></rect><rect width="120" height="24" x="0" y="845.4545454545454" style="stroke: black; fill: none;"></rect><rect width="120" height="24" x="0" y="1063.6363636363635" style="stroke: black; fill: none;"></rect><rect width="120" height="24" x="0" y="300" style="stroke: black; fill: none;"></rect><rect width="120" height="24" x="0" y="1499.9999999999998" style="stroke: black; fill: none;"></rect><rect width="120" height="24" x="0" y="845.4545454545454" style="stroke: black; fill: none;"></rect><rect width="120" height="24" x="0" y="1499.9999999999998" style="stroke: black; fill: none;"></rect><rect width="120" height="24" x="0" y="327.27272727272725" style="stroke: black; fill: none;"></rect><rect width="120" height="24" x="0" y="327.27272727272725" style="stroke: black; fill: none;"></rect><rect width="120" height="24" x="0" y="681.8181818181818" style="stroke: black; fill: none;"></rect><rect width="120" height="24" x="0" y="1090.9090909090908" style="stroke: black; fill: none;"></rect><rect width="120" height="24" x="0" y="1090.9090909090908" style="stroke: black; fill: none;"></rect><rect width="120" height="24" x="0" y="681.8181818181818" style="stroke: black; fill: none;"></rect><rect width="120" height="24" x="0" y="872.7272727272727" style="stroke: black; fill: none;"></rect><rect width="120" height="24" x="0" y="872.7272727272727" style="stroke: black; fill: none;"></rect><rect width="120" height="24" x="0" y="1527.272727272727" style="stroke: black; fill: none;"></rect><rect width="120" height="24" x="0" y="1527.272727272727" style="stroke: black; fill: none;"></rect><path class="edges" d="M150,109.0909090909091L131.37886597938146,109.09090909090911C112.75773195876288,109.09090909090908,75.51546391752576,109.09090909090908,56.89432989690721,95.45454545454545C38.27319587628865,81.81818181818183,38.27319587628865,54.54545454545454,31.89432989690721,40.909090909090914C25.515463917525768,27.27272727272727,12.757731958762884,27.27272727272727,6.378865979381442,27.272727272727277L0,27.272727272727273" stroke-width="3" style="stroke: rgb(57, 59, 121); fill: none;"></path><path class="edges" d="M150,245.45454545454547L131.37886597938146,245.45454545454547C112.75773195876288,245.45454545454547,75.51546391752576,245.45454545454547,56.89432989690721,231.81818181818184C38.27319587628865,218.18181818181816,38.27319587628865,190.9090909090909,31.89432989690721,177.27272727272725C25.515463917525768,163.63636363636363,12.757731958762884,163.63636363636363,6.378865979381442,163.63636363636363L0,163.63636363636363" stroke-width="3" style="stroke: rgb(82, 84, 163); fill: none;"></path><path class="edges" d="M150,245.45454545454547L131.25,245.45454545454547C112.5,245.45454545454547,75,245.45454545454547,56.25,236.36363636363635C37.5,227.27272727272725,37.5,209.0909090909091,31.25,200C25,190.90909090909088,12.5,190.90909090909088,6.25,190.90909090909088L0,190.90909090909088" stroke-width="3" style="stroke: rgb(82, 84, 163); fill: none;"></path><path class="edges" d="M150,245.45454545454547L131.12113402061854,245.45454545454547C112.24226804123712,245.45454545454547,74.48453608247422,245.45454545454547,55.605670103092784,240.9090909090909C36.72680412371134,236.36363636363637,36.72680412371134,227.27272727272728,30.60567010309278,222.72727272727275C24.484536082474225,218.18181818181816,12.242268041237113,218.18181818181816,6.121134020618556,218.18181818181822L0,218.1818181818182" stroke-width="3" style="stroke: rgb(82, 84, 163); fill: none;"></path><path class="edges" d="M150,518.1818181818181L131.63659793814432,518.1818181818181C113.27319587628865,518.1818181818181,76.54639175257732,518.1818181818181,58.18298969072165,495.4545454545453C39.81958762886597,472.7272727272727,39.81958762886597,427.2727272727272,33.18298969072164,404.5454545454545C26.54639175257731,381.81818181818176,13.273195876288655,381.81818181818176,6.636597938144328,381.81818181818176L0,381.81818181818176" stroke-width="3" style="stroke: rgb(99, 121, 57); fill: none;"></path><path class="edges" d="M150,518.1818181818181L131.5077319587629,518.1818181818181C113.01546391752578,518.1818181818181,76.03092783505154,518.1818181818181,57.538659793814425,499.99999999999994C39.046391752577314,481.8181818181818,39.046391752577314,445.4545454545455,32.538659793814425,427.27272727272725C26.030927835051543,409.0909090909092,13.015463917525771,409.0909090909092,6.507731958762886,409.09090909090907L0,409.0909090909091" stroke-width="3" style="stroke: rgb(99, 121, 57); fill: none;"></path><path class="edges" d="M150,627.2727272727273L131.25,627.2727272727271C112.5,627.2727272727273,75,627.2727272727273,56.25,618.1818181818181C37.5,609.090909090909,37.5,590.9090909090909,31.25,581.8181818181818C25,572.7272727272726,12.5,572.7272727272726,6.25,572.7272727272726L0,572.7272727272726" stroke-width="3" style="stroke: rgb(181, 207, 107); fill: none;"></path><path class="edges" d="M150,518.1818181818181L131.37886597938146,518.1818181818181C112.75773195876288,518.1818181818181,75.51546391752576,518.1818181818181,56.89432989690721,504.5454545454545C38.27319587628865,490.9090909090908,38.27319587628865,463.6363636363637,31.89432989690721,450C25.515463917525768,436.3636363636363,12.757731958762884,436.3636363636363,6.378865979381442,436.36363636363643L0,436.3636363636364" stroke-width="3" style="stroke: rgb(99, 121, 57); fill: none;"></path><path class="edges" d="M150,627.2727272727273L131.12113402061854,627.2727272727271C112.24226804123712,627.2727272727273,74.48453608247422,627.2727272727273,55.605670103092784,622.7272727272726C36.72680412371134,618.1818181818181,36.72680412371134,609.0909090909091,30.60567010309278,604.5454545454545C24.484536082474225,600,12.242268041237113,600,6.121134020618556,600L0,600" stroke-width="3" style="stroke: rgb(181, 207, 107); fill: none;"></path><path class="edges" d="M150,763.6363636363635L131.25,763.6363636363635C112.5,763.6363636363635,75,763.6363636363635,56.25,754.5454545454544C37.5,745.4545454545454,37.5,727.2727272727271,31.25,718.181818181818C25,709.090909090909,12.5,709.090909090909,6.25,709.090909090909L0,709.090909090909" stroke-width="3" style="stroke: rgb(189, 158, 57); fill: none;"></path><path class="edges" d="M150,1009.090909090909L131.5077319587629,1009.090909090909C113.01546391752578,1009.090909090909,76.03092783505154,1009.090909090909,57.538659793814425,990.9090909090909C39.046391752577314,972.7272727272726,39.046391752577314,936.3636363636364,32.538659793814425,918.1818181818181C26.030927835051543,900,13.015463917525771,900,6.507731958762886,900L0,900" stroke-width="3" style="stroke: rgb(231, 186, 82); fill: none;"></path><path class="edges" d="M150,518.1818181818181L131.25,518.1818181818181C112.5,518.1818181818181,75,518.1818181818181,56.25,509.090909090909C37.5,499.99999999999994,37.5,481.81818181818176,31.25,472.7272727272727C25,463.63636363636357,12.5,463.63636363636357,6.25,463.63636363636357L0,463.63636363636357" stroke-width="3" style="stroke: rgb(99, 121, 57); fill: none;"></path><path class="edges" d="M150,518.1818181818181L131.12113402061854,518.1818181818181C112.24226804123712,518.1818181818181,74.48453608247422,518.1818181818181,55.605670103092784,513.6363636363636C36.72680412371134,509.09090909090907,36.72680412371134,500,30.60567010309278,495.4545454545455C24.484536082474225,490.90909090909093,12.242268041237113,490.90909090909093,6.121134020618556,490.90909090909093L0,490.90909090909093" stroke-width="3" style="stroke: rgb(99, 121, 57); fill: none;"></path><path class="edges" d="M150,763.6363636363635L131.12113402061854,763.6363636363635C112.24226804123712,763.6363636363635,74.48453608247422,763.6363636363635,55.605670103092784,759.090909090909C36.72680412371134,754.5454545454544,36.72680412371134,745.4545454545454,30.60567010309278,740.9090909090909C24.484536082474225,736.3636363636364,12.242268041237113,736.3636363636364,6.121134020618556,736.3636363636361L0,736.3636363636363" stroke-width="3" style="stroke: rgb(189, 158, 57); fill: none;"></path><path class="edges" d="M150,1009.090909090909L131.37886597938146,1009.090909090909C112.75773195876288,1009.090909090909,75.51546391752576,1009.090909090909,56.89432989690721,995.4545454545454C38.27319587628865,981.8181818181816,38.27319587628865,954.5454545454544,31.89432989690721,940.9090909090909C25.515463917525768,927.2727272727271,12.757731958762884,927.2727272727271,6.378865979381442,927.2727272727271L0,927.2727272727271" stroke-width="3" style="stroke: rgb(231, 186, 82); fill: none;"></path><path class="edges" d="M150,245.45454545454547L130.9922680412371,245.45454545454547C111.98453608247422,245.45454545454547,73.96907216494846,245.45454545454547,54.961340206185575,245.45454545454547C35.953608247422686,245.45454545454547,35.953608247422686,245.45454545454547,29.96134020618557,245.45454545454547C23.969072164948457,245.45454545454547,11.984536082474229,245.45454545454547,5.992268041237114,245.45454545454547L0,245.45454545454547" stroke-width="3" style="stroke: rgb(82, 84, 163); fill: none;"></path><path class="edges" d="M150,1254.5454545454545L131.5077319587629,1254.5454545454543C113.01546391752578,1254.5454545454545,76.03092783505154,1254.5454545454545,57.538659793814425,1236.3636363636363C39.046391752577314,1218.181818181818,39.046391752577314,1181.8181818181818,32.538659793814425,1163.6363636363635C26.030927835051543,1145.4545454545453,13.015463917525771,1145.4545454545453,6.507731958762886,1145.4545454545453L0,1145.4545454545453" stroke-width="3" style="stroke: rgb(123, 65, 115); fill: none;"></path><path class="edges" d="M150,1009.090909090909L131.25,1009.090909090909C112.5,1009.090909090909,75,1009.090909090909,56.25,1000C37.5,990.9090909090909,37.5,972.7272727272726,31.25,963.6363636363636C25,954.5454545454545,12.5,954.5454545454545,6.25,954.5454545454544L0,954.5454545454545" stroke-width="3" style="stroke: rgb(231, 186, 82); fill: none;"></path><path class="edges" d="M150,1390.9090909090908L131.25,1390.9090909090908C112.5,1390.9090909090908,75,1390.9090909090908,56.25,1381.8181818181818C37.5,1372.7272727272727,37.5,1354.5454545454543,31.25,1345.4545454545453C25,1336.3636363636363,12.5,1336.3636363636363,6.25,1336.3636363636363L0,1336.3636363636363" stroke-width="3" style="stroke: rgb(206, 109, 189); fill: none;"></path><path class="edges" d="M150,109.0909090909091L131.25,109.09090909090911C112.5,109.09090909090908,75,109.09090909090908,56.25,100C37.5,90.90909090909092,37.5,72.72727272727273,31.25,63.63636363636363C25,54.54545454545454,12.5,54.54545454545454,6.25,54.545454545454554L0,54.54545454545455" stroke-width="3" style="stroke: rgb(57, 59, 121); fill: none;"></path><path class="edges" d="M150,1009.090909090909L131.12113402061854,1009.090909090909C112.24226804123712,1009.090909090909,74.48453608247422,1009.090909090909,55.605670103092784,1004.5454545454545C36.72680412371134,1000,36.72680412371134,990.909090909091,30.60567010309278,986.3636363636364C24.484536082474225,981.8181818181819,12.242268041237113,981.8181818181819,6.121134020618556,981.8181818181819L0,981.8181818181819" stroke-width="3" style="stroke: rgb(231, 186, 82); fill: none;"></path><path class="edges" d="M150,109.0909090909091L131.12113402061854,109.09090909090911C112.24226804123712,109.09090909090908,74.48453608247422,109.09090909090908,55.605670103092784,104.54545454545455C36.72680412371134,100,36.72680412371134,90.90909090909092,30.60567010309278,86.36363636363637C24.484536082474225,81.81818181818181,12.242268041237113,81.81818181818181,6.121134020618556,81.81818181818181L0,81.81818181818181" stroke-width="3" style="stroke: rgb(57, 59, 121); fill: none;"></path><path class="edges" d="M150,1254.5454545454545L131.37886597938146,1254.5454545454543C112.75773195876288,1254.5454545454545,75.51546391752576,1254.5454545454545,56.89432989690721,1240.9090909090908C38.27319587628865,1227.2727272727273,38.27319587628865,1200,31.89432989690721,1186.3636363636365C25.515463917525768,1172.7272727272727,12.757731958762884,1172.7272727272727,6.378865979381442,1172.7272727272727L0,1172.7272727272727" stroke-width="3" style="stroke: rgb(123, 65, 115); fill: none;"></path><path class="edges" d="M150,1254.5454545454545L131.25,1254.5454545454543C112.5,1254.5454545454545,75,1254.5454545454545,56.25,1245.4545454545453C37.5,1236.3636363636363,37.5,1218.1818181818182,31.25,1209.090909090909C25,1200,12.5,1200,6.25,1200L0,1200" stroke-width="3" style="stroke: rgb(123, 65, 115); fill: none;"></path><path class="edges" d="M150,1390.9090909090908L131.12113402061854,1390.9090909090908C112.24226804123712,1390.9090909090908,74.48453608247422,1390.9090909090908,55.605670103092784,1386.3636363636363C36.72680412371134,1381.8181818181818,36.72680412371134,1372.7272727272727,30.60567010309278,1368.181818181818C24.484536082474225,1363.6363636363635,12.242268041237113,1363.6363636363635,6.121134020618556,1363.6363636363637L0,1363.6363636363635" stroke-width="3" style="stroke: rgb(206, 109, 189); fill: none;"></path><path class="edges" d="M150,1254.5454545454545L131.12113402061854,1254.5454545454543C112.24226804123712,1254.5454545454545,74.48453608247422,1254.5454545454545,55.605670103092784,1249.9999999999998C36.72680412371134,1245.4545454545453,36.72680412371134,1236.3636363636363,30.60567010309278,1231.8181818181818C24.484536082474225,1227.2727272727273,12.242268041237113,1227.2727272727273,6.121134020618556,1227.2727272727273L0,1227.2727272727273" stroke-width="3" style="stroke: rgb(123, 65, 115); fill: none;"></path><path class="edges" d="M150,1609.090909090909L131.25,1609.090909090909C112.5,1609.090909090909,75,1609.090909090909,56.25,1600C37.5,1590.9090909090908,37.5,1572.7272727272727,31.25,1563.6363636363637C25,1554.5454545454547,12.5,1554.5454545454547,6.25,1554.5454545454543L0,1554.5454545454545" stroke-width="3" style="stroke: rgb(181, 207, 107); fill: none;"></path><path class="edges" d="M150,1609.090909090909L131.12113402061854,1609.090909090909C112.24226804123712,1609.090909090909,74.48453608247422,1609.090909090909,55.605670103092784,1604.5454545454543C36.72680412371134,1600,36.72680412371134,1590.9090909090908,30.60567010309278,1586.3636363636363C24.484536082474225,1581.8181818181818,12.242268041237113,1581.8181818181818,6.121134020618556,1581.8181818181818L0,1581.8181818181818" stroke-width="3" style="stroke: rgb(181, 207, 107); fill: none;"></path><path class="edges" d="M225,1418.181818181818L204.7036082474227,1418.181818181818C184.40721649484536,1418.181818181818,143.81443298969072,1418.181818181818,123.5180412371134,1463.6363636363633C103.22164948453606,1509.090909090909,103.22164948453606,1600,98.5180412371134,1645.4545454545453C93.81443298969072,1690.9090909090908,84.40721649484536,1690.9090909090908,79.70360824742268,1690.9090909090908L75,1690.9090909090908" stroke-width="3" style="stroke: rgb(140, 109, 49); fill: none;"></path><path class="edges" d="M225,1418.181818181818L204.57474226804126,1418.181818181818C184.14948453608247,1418.181818181818,143.29896907216494,1418.181818181818,122.87371134020617,1468.181818181818C102.44845360824742,1518.181818181818,102.44845360824742,1618.181818181818,97.87371134020619,1668.181818181818C93.29896907216494,1718.181818181818,84.14948453608247,1718.181818181818,79.57474226804123,1718.181818181818L75,1718.181818181818" stroke-width="3" style="stroke: rgb(140, 109, 49); fill: none;"></path><path class="edges" d="M225,1418.181818181818L204.44587628865978,1418.181818181818C183.89175257731958,1418.181818181818,142.7835051546392,1418.181818181818,122.22938144329896,1472.7272727272727C101.67525773195877,1527.2727272727273,101.67525773195877,1636.3636363636363,97.22938144329896,1690.909090909091C92.78350515463917,1745.4545454545453,83.8917525773196,1745.4545454545453,79.44587628865979,1745.4545454545457L75,1745.4545454545455" stroke-width="3" style="stroke: rgb(140, 109, 49); fill: none;"></path><path class="edges" d="M300,272.7272727272727L281.12113402061857,272.7272727272727C262.24226804123714,272.7272727272727,224.48453608247425,272.7272727272727,205.60567010309282,268.1818181818182C186.72680412371133,263.6363636363636,186.72680412371133,254.54545454545453,180.60567010309282,250C174.48453608247425,245.45454545454547,162.2422680412371,245.45454545454547,156.12113402061857,245.45454545454547L150,245.45454545454547" stroke-width="3" style="stroke: rgb(231, 150, 156); fill: none;"></path><path class="edges" d="M300,790.9090909090909L281.12113402061857,790.9090909090909C262.24226804123714,790.9090909090909,224.48453608247425,790.9090909090909,205.60567010309282,786.3636363636364C186.72680412371133,781.8181818181816,186.72680412371133,772.7272727272726,180.60567010309282,768.181818181818C174.48453608247425,763.6363636363635,162.2422680412371,763.6363636363635,156.12113402061857,763.6363636363635L150,763.6363636363635" stroke-width="3" style="stroke: rgb(231, 203, 148); fill: none;"></path><path class="edges" d="M450,654.5454545454545L412.24226804123714,654.5454545454545C374.4845360824742,654.5454545454545,298.9690721649485,654.5454545454545,261.2113402061856,650C223.4536082474227,645.4545454545454,223.4536082474227,636.3636363636364,211.21134020618558,631.8181818181819C198.96907216494847,627.2727272727273,174.48453608247425,627.2727272727273,162.2422680412371,627.2727272727271L150,627.2727272727273" stroke-width="3" style="stroke: rgb(132, 60, 57); fill: none;"></path><path class="edges" d="M300,1554.5454545454545L280.7345360824742,1554.5454545454543C261.4690721649485,1554.5454545454547,222.93814432989691,1554.5454545454547,203.67268041237116,1563.6363636363633C184.40721649484536,1572.7272727272727,184.40721649484536,1590.9090909090908,178.67268041237116,1600C172.93814432989691,1609.090909090909,161.46907216494847,1609.090909090909,155.73453608247425,1609.090909090909L150,1609.090909090909" stroke-width="3" style="stroke: rgb(173, 73, 74); fill: none;"></path><path class="edges" d="M300,1445.4545454545455L281.25,1445.4545454545457C262.5,1445.4545454545453,225,1445.4545454545453,206.25,1436.3636363636363C187.5,1427.2727272727273,187.5,1409.090909090909,181.25,1399.9999999999998C175,1390.9090909090908,162.5,1390.9090909090908,156.25,1390.9090909090908L150,1390.9090909090908" stroke-width="3" style="stroke: rgb(214, 97, 107); fill: none;"></path><path class="edges" d="M300,545.4545454545454L281.12113402061857,545.4545454545454C262.24226804123714,545.4545454545454,224.48453608247425,545.4545454545454,205.60567010309282,540.9090909090909C186.72680412371133,536.3636363636364,186.72680412371133,527.2727272727271,180.60567010309282,522.7272727272726C174.48453608247425,518.1818181818181,162.2422680412371,518.1818181818181,156.12113402061857,518.1818181818181L150,518.1818181818181" stroke-width="3" style="stroke: rgb(231, 150, 156); fill: none;"></path><path class="edges" d="M450,845.4545454545454L408.1185567010309,845.4545454545454C366.2371134020618,845.4545454545454,282.4742268041237,845.4545454545454,240.59278350515459,913.6363636363636C198.71134020618555,981.8181818181816,198.71134020618555,1118.1818181818182,190.59278350515459,1186.3636363636363C182.47422680412367,1254.5454545454545,166.23711340206185,1254.5454545454545,158.1185567010309,1254.5454545454543L150,1254.5454545454545" stroke-width="3" style="stroke: rgb(123, 65, 115); fill: none;"></path><path class="edges" d="M300,136.36363636363635L281.12113402061857,136.36363636363635C262.24226804123714,136.36363636363635,224.48453608247425,136.36363636363635,205.60567010309282,131.8181818181818C186.72680412371133,127.27272727272725,186.72680412371133,118.18181818181817,180.60567010309282,113.63636363636364C174.48453608247425,109.09090909090908,162.2422680412371,109.09090909090908,156.12113402061857,109.09090909090911L150,109.0909090909091" stroke-width="3" style="stroke: rgb(165, 81, 148); fill: none;"></path><path class="edges" d="M300,1036.3636363636363L281.12113402061857,1036.3636363636363C262.24226804123714,1036.3636363636363,224.48453608247425,1036.3636363636363,205.60567010309282,1031.8181818181818C186.72680412371133,1027.2727272727273,186.72680412371133,1018.181818181818,180.60567010309282,1013.6363636363635C174.48453608247425,1009.090909090909,162.2422680412371,1009.090909090909,156.12113402061857,1009.090909090909L150,1009.090909090909" stroke-width="3" style="stroke: rgb(206, 109, 189); fill: none;"></path><path class="edges" d="M375,1636.3636363636365L355.2190721649485,1636.3636363636363C335.43814432989694,1636.3636363636367,295.87628865979383,1636.3636363636367,276.09536082474233,1663.6363636363637C256.3144329896908,1690.909090909091,256.3144329896908,1745.4545454545453,251.09536082474233,1772.7272727272727C245.87628865979386,1800,235.43814432989691,1800,230.21907216494847,1800L225,1800" stroke-width="3" style="stroke: rgb(222, 158, 214); fill: none;"></path><path class="edges" d="M375,1636.3636363636365L355.090206185567,1636.3636363636363C335.180412371134,1636.3636363636367,295.36082474226805,1636.3636363636367,275.45103092783506,1668.181818181818C255.5412371134021,1700,255.5412371134021,1763.6363636363633,250.4510309278351,1795.4545454545453C245.36082474226805,1827.272727272727,235.18041237113403,1827.272727272727,230.090206185567,1827.2727272727273L225,1827.272727272727" stroke-width="3" style="stroke: rgb(222, 158, 214); fill: none;"></path><path class="edges" d="M375,1636.3636363636365L354.9613402061855,1636.3636363636363C334.92268041237116,1636.3636363636367,294.8453608247423,1636.3636363636367,274.80670103092785,1672.7272727272727C254.7680412371134,1709.090909090909,254.7680412371134,1781.8181818181818,249.80670103092788,1818.181818181818C244.8453608247423,1854.5454545454543,234.92268041237116,1854.5454545454543,229.96134020618558,1854.5454545454543L225,1854.5454545454543" stroke-width="3" style="stroke: rgb(222, 158, 214); fill: none;"></path><path class="edges" d="M300,1445.4545454545455L290.5605670103093,1445.4545454545457C281.1211340206185,1445.4545454545453,262.2422680412371,1445.4545454545453,252.80283505154637,1440.909090909091C243.36340206185568,1436.3636363636363,243.36340206185568,1427.2727272727273,240.30283505154637,1422.7272727272727C237.2422680412371,1418.181818181818,231.12113402061854,1418.181818181818,228.06056701030926,1418.181818181818L225,1418.181818181818" stroke-width="3" style="stroke: rgb(214, 97, 107); fill: none;"></path><path class="edges" d="M375,1636.3636363636365L354.83247422680415,1636.3636363636363C334.66494845360825,1636.3636363636367,294.32989690721655,1636.3636363636367,274.1623711340207,1677.2727272727273C253.9948453608248,1718.1818181818182,253.9948453608248,1800,249.16237113402067,1840.909090909091C244.32989690721652,1881.8181818181818,234.66494845360828,1881.8181818181818,229.83247422680415,1881.8181818181818L225,1881.8181818181818" stroke-width="3" style="stroke: rgb(222, 158, 214); fill: none;"></path><path class="edges" d="M375,1636.3636363636365L354.70360824742266,1636.3636363636363C334.4072164948454,1636.3636363636367,293.8144329896907,1636.3636363636367,273.51804123711344,1681.818181818182C253.22164948453613,1727.2727272727273,253.22164948453613,1818.181818181818,248.51804123711347,1863.6363636363633C243.81443298969074,1909.090909090909,234.40721649484536,1909.090909090909,229.7036082474227,1909.0909090909088L225,1909.090909090909" stroke-width="3" style="stroke: rgb(222, 158, 214); fill: none;"></path><path class="edges" d="M375,1636.3636363636365L354.57474226804123,1636.3636363636363C334.1494845360825,1636.3636363636367,293.298969072165,1636.3636363636367,272.8737113402062,1686.3636363636363C252.44845360824743,1736.3636363636363,252.44845360824743,1836.3636363636363,247.87371134020623,1886.3636363636363C243.29896907216497,1936.3636363636363,234.1494845360825,1936.3636363636363,229.57474226804126,1936.3636363636363L225,1936.3636363636363" stroke-width="3" style="stroke: rgb(222, 158, 214); fill: none;"></path><path class="edges" d="M375,1636.3636363636365L354.4458762886598,1636.3636363636363C333.8917525773196,1636.3636363636367,292.7835051546392,1636.3636363636367,272.229381443299,1690.909090909091C251.67525773195882,1745.4545454545457,251.67525773195882,1854.5454545454547,247.22938144329905,1909.0909090909092C242.78350515463922,1963.6363636363637,233.8917525773196,1963.6363636363637,229.44587628865983,1963.6363636363637L225,1963.6363636363637" stroke-width="3" style="stroke: rgb(222, 158, 214); fill: none;"></path><path class="edges" d="M450,1499.9999999999998L431.25,1499.9999999999998C412.5,1499.9999999999998,375,1499.9999999999998,356.25,1490.9090909090908C337.5,1481.8181818181818,337.5,1463.6363636363637,331.25,1454.5454545454547C325,1445.4545454545453,312.5,1445.4545454545453,306.25,1445.4545454545457L300,1445.4545454545455" stroke-width="3" style="stroke: rgb(206, 219, 156); fill: none;"></path><path class="edges" d="M450,654.5454545454545L431.50773195876286,654.5454545454545C413.0154639175258,654.5454545454545,376.0309278350516,654.5454545454545,357.5386597938145,636.3636363636364C339.04639175257734,618.1818181818181,339.04639175257734,581.8181818181818,332.5386597938145,563.6363636363636C326.03092783505156,545.4545454545454,313.0154639175258,545.4545454545454,306.5077319587629,545.4545454545454L300,545.4545454545454" stroke-width="3" style="stroke: rgb(132, 60, 57); fill: none;"></path><path class="edges" d="M450,845.4545454545454L434.3427835051546,845.4545454545454C418.6855670103093,845.4545454545454,387.3711340206185,845.4545454545454,371.7139175257732,727.2727272727271C356.0567010309278,609.090909090909,356.0567010309278,372.7272727272727,346.7139175257732,254.5454545454545C337.3711340206185,136.36363636363635,318.6855670103093,136.36363636363635,309.3427835051546,136.36363636363635L300,136.36363636363635" stroke-width="3" style="stroke: rgb(123, 65, 115); fill: none;"></path><path class="edges" d="M450,1063.6363636363635L431.1211340206185,1063.6363636363637C412.24226804123714,1063.6363636363635,374.4845360824743,1063.6363636363635,355.6056701030928,1059.090909090909C336.72680412371136,1054.5454545454543,336.72680412371136,1045.4545454545453,330.6056701030928,1040.9090909090908C324.4845360824742,1036.3636363636363,312.24226804123714,1036.3636363636363,306.12113402061857,1036.3636363636363L300,1036.3636363636363" stroke-width="3" style="stroke: rgb(231, 186, 82); fill: none;"></path><path class="edges" d="M450,300L431.1211340206185,300C412.24226804123714,300,374.4845360824743,300,355.6056701030928,295.45454545454544C336.72680412371136,290.90909090909093,336.72680412371136,281.8181818181818,330.6056701030928,277.27272727272725C324.4845360824742,272.7272727272727,312.24226804123714,272.7272727272727,306.12113402061857,272.7272727272727L300,272.7272727272727" stroke-width="3" style="stroke: rgb(231, 203, 148); fill: none;"></path><path class="edges" d="M450,818.1818181818182L431.1211340206185,818.1818181818181C412.24226804123714,818.1818181818184,374.4845360824743,818.1818181818184,355.6056701030928,813.6363636363636C336.72680412371136,809.0909090909091,336.72680412371136,800,330.6056701030928,795.4545454545455C324.4845360824742,790.9090909090909,312.24226804123714,790.9090909090909,306.12113402061857,790.9090909090909L300,790.9090909090909" stroke-width="3" style="stroke: rgb(132, 60, 57); fill: none;"></path><path class="edges" d="M450,1499.9999999999998L430.7345360824742,1499.9999999999998C411.4690721649485,1499.9999999999998,372.93814432989694,1499.9999999999998,353.67268041237116,1509.090909090909C334.4072164948454,1518.181818181818,334.4072164948454,1536.3636363636363,328.67268041237116,1545.4545454545453C322.93814432989694,1554.5454545454547,311.4690721649485,1554.5454545454547,305.7345360824742,1554.5454545454543L300,1554.5454545454545" stroke-width="3" style="stroke: rgb(206, 219, 156); fill: none;"></path><path class="edges" d="M450,845.4545454545454L438.6275773195876,845.4545454545454C427.25515463917526,845.4545454545454,404.51030927835046,845.4545454545454,393.1378865979382,977.2727272727274C381.7654639175258,1109.090909090909,381.7654639175258,1372.7272727272727,380.6378865979382,1504.5454545454547C379.51030927835046,1636.3636363636367,377.25515463917526,1636.3636363636367,376.1275773195876,1636.3636363636363L375,1636.3636363636365" stroke-width="3" style="stroke: rgb(123, 65, 115); fill: none;"></path><path class="edges" d="M750,872.7272727272727L712.5,872.7272727272729C675,872.7272727272726,600,872.7272727272726,562.5,863.6363636363636C525,854.5454545454546,525,836.3636363636364,512.5,827.2727272727274C500,818.1818181818184,475,818.1818181818184,462.5,818.1818181818181L450,818.1818181818182" stroke-width="3" style="stroke: rgb(231, 150, 156); fill: none;"></path><path class="edges" d="M600,681.8181818181818L581.1211340206186,681.8181818181819C562.242268041237,681.8181818181818,524.4845360824742,681.8181818181818,505.60567010309273,677.2727272727273C486.72680412371136,672.7272727272726,486.72680412371136,663.6363636363636,480.60567010309273,659.0909090909091C474.4845360824742,654.5454545454545,462.2422680412371,654.5454545454545,456.1211340206185,654.5454545454545L450,654.5454545454545" stroke-width="3" style="stroke: rgb(123, 65, 115); fill: none;"></path><path class="edges" d="M750,872.7272727272727L712.242268041237,872.7272727272729C674.4845360824743,872.7272727272726,598.9690721649484,872.7272727272726,561.2113402061856,868.1818181818181C523.4536082474227,863.6363636363636,523.4536082474227,854.5454545454545,511.21134020618564,849.9999999999999C498.9690721649485,845.4545454545454,474.4845360824743,845.4545454545454,462.24226804123714,845.4545454545454L450,845.4545454545454" stroke-width="3" style="stroke: rgb(231, 150, 156); fill: none;"></path><path class="edges" d="M600,1090.9090909090908L581.1211340206186,1090.9090909090908C562.242268041237,1090.9090909090908,524.4845360824742,1090.9090909090908,505.60567010309273,1086.3636363636363C486.72680412371136,1081.8181818181818,486.72680412371136,1072.7272727272727,480.60567010309273,1068.181818181818C474.4845360824742,1063.6363636363635,462.2422680412371,1063.6363636363635,456.1211340206185,1063.6363636363637L450,1063.6363636363635" stroke-width="3" style="stroke: rgb(206, 109, 189); fill: none;"></path><path class="edges" d="M600,327.27272727272725L581.1211340206186,327.27272727272725C562.242268041237,327.27272727272725,524.4845360824742,327.27272727272725,505.60567010309273,322.7272727272727C486.72680412371136,318.1818181818182,486.72680412371136,309.09090909090907,480.60567010309273,304.54545454545456C474.4845360824742,300,462.2422680412371,300,456.1211340206185,300L450,300" stroke-width="3" style="stroke: rgb(222, 158, 214); fill: none;"></path><path class="edges" d="M900,1527.272727272727L843.3634020618556,1527.272727272727C786.7268041237113,1527.272727272727,673.4536082474227,1527.272727272727,616.8170103092783,1522.7272727272723C560.180412371134,1518.181818181818,560.180412371134,1509.0909090909088,541.8170103092783,1504.5454545454543C523.4536082474227,1499.9999999999998,486.72680412371136,1499.9999999999998,468.36340206185565,1499.9999999999998L450,1499.9999999999998" stroke-width="3" style="stroke: rgb(57, 59, 121); fill: none;"></path><path class="edges" d="M750,872.7272727272727L733.569587628866,872.7272727272729C717.139175257732,872.7272727272726,684.2783505154639,872.7272727272726,667.8479381443299,781.8181818181819C651.4175257731958,690.909090909091,651.4175257731958,509.09090909090907,642.8479381443299,418.1818181818182C634.2783505154639,327.27272727272725,617.139175257732,327.27272727272725,608.569587628866,327.27272727272725L600,327.27272727272725" stroke-width="3" style="stroke: rgb(231, 150, 156); fill: none;"></path><path class="edges" d="M750,872.7272727272727L731.8943298969072,872.7272727272729C713.7886597938144,872.7272727272726,677.577319587629,872.7272727272726,659.4716494845361,840.909090909091C641.3659793814434,809.090909090909,641.3659793814434,745.4545454545454,634.4716494845361,713.6363636363636C627.577319587629,681.8181818181818,613.7886597938144,681.8181818181818,606.8943298969072,681.8181818181819L600,681.8181818181818" stroke-width="3" style="stroke: rgb(231, 150, 156); fill: none;"></path><path class="edges" d="M900,1527.272727272727L866.1082474226804,1527.272727272727C832.2164948453607,1527.272727272727,764.4329896907216,1527.272727272727,730.541237113402,1454.5454545454543C696.6494845360825,1381.8181818181818,696.6494845360825,1236.3636363636363,680.541237113402,1163.6363636363635C664.4329896907216,1090.9090909090908,632.2164948453608,1090.9090909090908,616.1082474226804,1090.9090909090908L600,1090.9090909090908" stroke-width="3" style="stroke: rgb(57, 59, 121); fill: none;"></path><path class="edges" d="M900,1527.272727272727L884.0850515463917,1527.272727272727C868.1701030927834,1527.272727272727,836.3402061855669,1527.272727272727,820.4252577319586,1418.181818181818C804.5103092783505,1309.090909090909,804.5103092783505,1090.9090909090908,795.4252577319586,981.8181818181819C786.3402061855669,872.7272727272726,768.1701030927834,872.7272727272726,759.0850515463917,872.7272727272729L750,872.7272727272727" stroke-width="3" style="stroke: rgb(57, 59, 121); fill: none;"></path><path class="parentEdges" d="M150,109.0909090909091L150,109.0909090909091" style="stroke: rgb(57, 59, 121); stroke-width: 4; fill: none;"></path><path class="parentEdges" d="M150,245.45454545454547L150,245.45454545454547" style="stroke: rgb(82, 84, 163); stroke-width: 4; fill: none;"></path><path class="parentEdges" d="M150,245.45454545454547L150,245.45454545454547" style="stroke: rgb(82, 84, 163); stroke-width: 4; fill: none;"></path><path class="parentEdges" d="M150,245.45454545454547L150,245.45454545454547" style="stroke: rgb(82, 84, 163); stroke-width: 4; fill: none;"></path><path class="parentEdges" d="M150,518.1818181818181L150,518.1818181818181" style="stroke: rgb(99, 121, 57); stroke-width: 4; fill: none;"></path><path class="parentEdges" d="M150,518.1818181818181L150,518.1818181818181" style="stroke: rgb(99, 121, 57); stroke-width: 4; fill: none;"></path><path class="parentEdges" d="M150,627.2727272727273L150,627.2727272727273" style="stroke: rgb(181, 207, 107); stroke-width: 4; fill: none;"></path><path class="parentEdges" d="M150,518.1818181818181L150,518.1818181818181" style="stroke: rgb(99, 121, 57); stroke-width: 4; fill: none;"></path><path class="parentEdges" d="M150,627.2727272727273L150,627.2727272727273" style="stroke: rgb(181, 207, 107); stroke-width: 4; fill: none;"></path><path class="parentEdges" d="M150,763.6363636363635L150,763.6363636363635" style="stroke: rgb(189, 158, 57); stroke-width: 4; fill: none;"></path><path class="parentEdges" d="M150,1009.090909090909L150,1009.090909090909" style="stroke: rgb(231, 186, 82); stroke-width: 4; fill: none;"></path><path class="parentEdges" d="M150,518.1818181818181L150,518.1818181818181" style="stroke: rgb(99, 121, 57); stroke-width: 4; fill: none;"></path><path class="parentEdges" d="M150,518.1818181818181L150,518.1818181818181" style="stroke: rgb(99, 121, 57); stroke-width: 4; fill: none;"></path><path class="parentEdges" d="M150,763.6363636363635L150,763.6363636363635" style="stroke: rgb(189, 158, 57); stroke-width: 4; fill: none;"></path><path class="parentEdges" d="M150,1009.090909090909L150,1009.090909090909" style="stroke: rgb(231, 186, 82); stroke-width: 4; fill: none;"></path><path class="parentEdges" d="M150,245.45454545454547L150,245.45454545454547" style="stroke: rgb(82, 84, 163); stroke-width: 4; fill: none;"></path><path class="parentEdges" d="M150,1254.5454545454545L150,1254.5454545454545" style="stroke: rgb(123, 65, 115); stroke-width: 4; fill: none;"></path><path class="parentEdges" d="M150,1009.090909090909L150,1009.090909090909" style="stroke: rgb(231, 186, 82); stroke-width: 4; fill: none;"></path><path class="parentEdges" d="M150,1390.9090909090908L150,1390.9090909090908" style="stroke: rgb(206, 109, 189); stroke-width: 4; fill: none;"></path><path class="parentEdges" d="M150,109.0909090909091L150,109.0909090909091" style="stroke: rgb(57, 59, 121); stroke-width: 4; fill: none;"></path><path class="parentEdges" d="M150,1009.090909090909L150,1009.090909090909" style="stroke: rgb(231, 186, 82); stroke-width: 4; fill: none;"></path><path class="parentEdges" d="M150,109.0909090909091L150,109.0909090909091" style="stroke: rgb(57, 59, 121); stroke-width: 4; fill: none;"></path><path class="parentEdges" d="M150,1254.5454545454545L150,1254.5454545454545" style="stroke: rgb(123, 65, 115); stroke-width: 4; fill: none;"></path><path class="parentEdges" d="M150,1254.5454545454545L150,1254.5454545454545" style="stroke: rgb(123, 65, 115); stroke-width: 4; fill: none;"></path><path class="parentEdges" d="M150,1390.9090909090908L150,1390.9090909090908" style="stroke: rgb(206, 109, 189); stroke-width: 4; fill: none;"></path><path class="parentEdges" d="M150,1254.5454545454545L150,1254.5454545454545" style="stroke: rgb(123, 65, 115); stroke-width: 4; fill: none;"></path><path class="parentEdges" d="M150,1609.090909090909L150,1609.090909090909" style="stroke: rgb(181, 207, 107); stroke-width: 4; fill: none;"></path><path class="parentEdges" d="M150,1609.090909090909L150,1609.090909090909" style="stroke: rgb(181, 207, 107); stroke-width: 4; fill: none;"></path><path class="parentEdges" d="M225,1418.181818181818L225,1418.181818181818" style="stroke: rgb(140, 109, 49); stroke-width: 4; fill: none;"></path><path class="parentEdges" d="M225,1418.181818181818L225,1418.181818181818" style="stroke: rgb(140, 109, 49); stroke-width: 4; fill: none;"></path><path class="parentEdges" d="M225,1418.181818181818L225,1418.181818181818" style="stroke: rgb(140, 109, 49); stroke-width: 4; fill: none;"></path><path class="parentEdges" d="M300,272.7272727272727L300,272.7272727272727" style="stroke: rgb(231, 150, 156); stroke-width: 4; fill: none;"></path><path class="parentEdges" d="M300,790.9090909090909L300,790.9090909090909" style="stroke: rgb(231, 203, 148); stroke-width: 4; fill: none;"></path><path class="parentEdges" d="M450,654.5454545454545L450,654.5454545454545" style="stroke: rgb(132, 60, 57); stroke-width: 4; fill: none;"></path><path class="parentEdges" d="M300,1472.7272727272725L300,1636.3636363636365" style="stroke: rgb(173, 73, 74); stroke-width: 4; fill: none;"></path><path class="parentEdges" d="M300,1445.4545454545455L300,1445.4545454545455" style="stroke: rgb(214, 97, 107); stroke-width: 4; fill: none;"></path><path class="parentEdges" d="M300,545.4545454545454L300,545.4545454545454" style="stroke: rgb(231, 150, 156); stroke-width: 4; fill: none;"></path><path class="parentEdges" d="M450,845.4545454545454L450,845.4545454545454" style="stroke: rgb(123, 65, 115); stroke-width: 4; fill: none;"></path><path class="parentEdges" d="M300,136.36363636363635L300,136.36363636363635" style="stroke: rgb(165, 81, 148); stroke-width: 4; fill: none;"></path><path class="parentEdges" d="M300,1036.3636363636363L300,1036.3636363636363" style="stroke: rgb(206, 109, 189); stroke-width: 4; fill: none;"></path><path class="parentEdges" d="M375,1990.9090909090908L375,1281.8181818181818" style="stroke: rgb(222, 158, 214); stroke-width: 4; fill: none;"></path><path class="parentEdges" d="M375,1990.9090909090908L375,1281.8181818181818" style="stroke: rgb(222, 158, 214); stroke-width: 4; fill: none;"></path><path class="parentEdges" d="M375,1990.9090909090908L375,1281.8181818181818" style="stroke: rgb(222, 158, 214); stroke-width: 4; fill: none;"></path><path class="parentEdges" d="M300,1445.4545454545455L300,1445.4545454545455" style="stroke: rgb(214, 97, 107); stroke-width: 4; fill: none;"></path><path class="parentEdges" d="M375,1990.9090909090908L375,1281.8181818181818" style="stroke: rgb(222, 158, 214); stroke-width: 4; fill: none;"></path><path class="parentEdges" d="M375,1990.9090909090908L375,1281.8181818181818" style="stroke: rgb(222, 158, 214); stroke-width: 4; fill: none;"></path><path class="parentEdges" d="M375,1990.9090909090908L375,1281.8181818181818" style="stroke: rgb(222, 158, 214); stroke-width: 4; fill: none;"></path><path class="parentEdges" d="M375,1990.9090909090908L375,1281.8181818181818" style="stroke: rgb(222, 158, 214); stroke-width: 4; fill: none;"></path><path class="parentEdges" d="M450,1499.9999999999998L450,1499.9999999999998" style="stroke: rgb(206, 219, 156); stroke-width: 4; fill: none;"></path><path class="parentEdges" d="M450,654.5454545454545L450,654.5454545454545" style="stroke: rgb(132, 60, 57); stroke-width: 4; fill: none;"></path><path class="parentEdges" d="M450,845.4545454545454L450,845.4545454545454" style="stroke: rgb(123, 65, 115); stroke-width: 4; fill: none;"></path><path class="parentEdges" d="M450,1063.6363636363635L450,1063.6363636363635" style="stroke: rgb(231, 186, 82); stroke-width: 4; fill: none;"></path><path class="parentEdges" d="M450,300L450,300" style="stroke: rgb(231, 203, 148); stroke-width: 4; fill: none;"></path><path class="parentEdges" d="M450,818.1818181818182L450,818.1818181818182" style="stroke: rgb(132, 60, 57); stroke-width: 4; fill: none;"></path><path class="parentEdges" d="M450,1499.9999999999998L450,1499.9999999999998" style="stroke: rgb(206, 219, 156); stroke-width: 4; fill: none;"></path><path class="parentEdges" d="M450,845.4545454545454L450,845.4545454545454" style="stroke: rgb(123, 65, 115); stroke-width: 4; fill: none;"></path><path class="parentEdges" d="M750,872.7272727272727L750,872.7272727272727" style="stroke: rgb(231, 150, 156); stroke-width: 4; fill: none;"></path><path class="parentEdges" d="M600,681.8181818181818L600,681.8181818181818" style="stroke: rgb(123, 65, 115); stroke-width: 4; fill: none;"></path><path class="parentEdges" d="M750,872.7272727272727L750,872.7272727272727" style="stroke: rgb(231, 150, 156); stroke-width: 4; fill: none;"></path><path class="parentEdges" d="M600,1090.9090909090908L600,1090.9090909090908" style="stroke: rgb(206, 109, 189); stroke-width: 4; fill: none;"></path><path class="parentEdges" d="M600,327.27272727272725L600,327.27272727272725" style="stroke: rgb(222, 158, 214); stroke-width: 4; fill: none;"></path><path class="parentEdges" d="M900,1527.272727272727L900,1527.272727272727" style="stroke: rgb(57, 59, 121); stroke-width: 4; fill: none;"></path><path class="parentEdges" d="M750,872.7272727272727L750,872.7272727272727" style="stroke: rgb(231, 150, 156); stroke-width: 4; fill: none;"></path><path class="parentEdges" d="M750,872.7272727272727L750,872.7272727272727" style="stroke: rgb(231, 150, 156); stroke-width: 4; fill: none;"></path><path class="parentEdges" d="M900,1527.272727272727L900,1527.272727272727" style="stroke: rgb(57, 59, 121); stroke-width: 4; fill: none;"></path><path class="parentEdges" d="M900,1527.272727272727L900,1527.272727272727" style="stroke: rgb(57, 59, 121); stroke-width: 4; fill: none;"></path><g class="node" transform="translate(-12,151.63636363636363)" style="fill: white; stroke: black; stroke-width: 2;"><rect width="24" height="24"></rect><text dx="36" dy="12" stroke="black" stroke-width="2">6</text></g><g class="node" transform="translate(-12,178.90909090909088)" style="fill: black; stroke: black; stroke-width: 2;"><rect width="24" height="24"></rect><text dx="36" dy="12" stroke="black" stroke-width="2">7</text></g><g class="node" transform="translate(-12,369.81818181818176)" style="fill: white; stroke: black; stroke-width: 2;"><rect width="24" height="24"></rect><text dx="36" dy="12" stroke="black" stroke-width="2">14</text></g><g class="node" transform="translate(-12,397.0909090909091)" style="fill: white; stroke: black; stroke-width: 2;"><rect width="24" height="24"></rect><text dx="36" dy="12" stroke="black" stroke-width="2">15</text></g><g class="node" transform="translate(-12,560.7272727272726)" style="fill: white; stroke: black; stroke-width: 2;"><rect width="24" height="24"></rect><text dx="36" dy="12" stroke="black" stroke-width="2">21</text></g><g class="node" transform="translate(-12,424.3636363636364)" style="fill: black; stroke: black; stroke-width: 2;"><rect width="24" height="24"></rect><text dx="36" dy="12" stroke="black" stroke-width="2">16</text></g><g class="node" transform="translate(-12,588)" style="fill: black; stroke: black; stroke-width: 2;"><rect width="24" height="24"></rect><text dx="36" dy="12" stroke="black" stroke-width="2">22</text></g><g class="node" transform="translate(-12,888)" style="fill: black; stroke: black; stroke-width: 2;"><rect width="24" height="24"></rect><text dx="36" dy="12" stroke="black" stroke-width="2">33</text></g><g class="node" transform="translate(-12,1106.1818181818182)" style="fill: white; stroke: black; stroke-width: 2;"><rect width="24" height="24"></rect><text dx="36" dy="12" stroke="black" stroke-width="2">41</text></g><g class="node" transform="translate(-12,724.3636363636363)" style="fill: black; stroke: black; stroke-width: 2;"><rect width="24" height="24"></rect><text dx="36" dy="12" stroke="black" stroke-width="2">27</text></g><g class="node" transform="translate(-12,915.2727272727271)" style="fill: white; stroke: black; stroke-width: 2;"><rect width="24" height="24"></rect><text dx="36" dy="12" stroke="black" stroke-width="2">34</text></g><g class="node" transform="translate(-12,233.45454545454547)" style="fill: white; stroke: black; stroke-width: 2;"><rect width="24" height="24"></rect><text dx="36" dy="12" stroke="black" stroke-width="2">9</text></g><g class="node" transform="translate(-12,1133.4545454545453)" style="fill: black; stroke: black; stroke-width: 2;"><rect width="24" height="24"></rect><text dx="36" dy="12" stroke="black" stroke-width="2">42</text></g><g class="node" transform="translate(-12,942.5454545454545)" style="fill: white; stroke: black; stroke-width: 2;"><rect width="24" height="24"></rect><text dx="36" dy="12" stroke="black" stroke-width="2">35</text></g><g class="node" transform="translate(-12,69.81818181818181)" style="fill: black; stroke: black; stroke-width: 2;"><rect width="24" height="24"></rect><text dx="36" dy="12" stroke="black" stroke-width="2">3</text></g><g class="node" transform="translate(-12,1188)" style="fill: white; stroke: black; stroke-width: 2;"><rect width="24" height="24"></rect><text dx="36" dy="12" stroke="black" stroke-width="2">44</text></g><g class="node" transform="translate(63,1706.181818181818)" style="fill: white; stroke: black; stroke-width: 2;"><rect width="24" height="24"></rect><text dx="36" dy="12" stroke="black" stroke-width="2">63</text></g><g class="node" transform="translate(63,1733.4545454545455)" style="fill: black; stroke: black; stroke-width: 2;"><rect width="24" height="24"></rect><text dx="36" dy="12" stroke="black" stroke-width="2">64</text></g><g class="node" transform="translate(138,1597.090909090909)" style="fill: white; stroke: rgb(181, 207, 107); stroke-width: 2;"><rect width="24" height="24"></rect><text dx="36" dy="12" stroke="black" stroke-width="2">59</text></g><g class="node" transform="translate(138,506.18181818181813)" style="fill: white; stroke: rgb(99, 121, 57); stroke-width: 2;"><rect width="24" height="24"></rect><text dx="36" dy="12" stroke="black" stroke-width="2">19</text></g><g class="node" transform="translate(138,233.45454545454547)" style="fill: white; stroke: black; stroke-width: 2;"><rect width="24" height="24"></rect><text dx="36" dy="12" stroke="black" stroke-width="2">9</text></g><g class="node" transform="translate(138,1378.9090909090908)" style="fill: white; stroke: rgb(206, 109, 189); stroke-width: 2;"><rect width="24" height="24"></rect><text dx="36" dy="12" stroke="black" stroke-width="2">51</text></g><g class="node" transform="translate(138,233.45454545454547)" style="fill: black; stroke: rgb(82, 84, 163); stroke-width: 2;"><rect width="24" height="24"></rect><text dx="36" dy="12" stroke="black" stroke-width="2">9</text></g><g class="node" transform="translate(138,1242.5454545454545)" style="fill: white; stroke: rgb(123, 65, 115); stroke-width: 2;"><rect width="24" height="24"></rect><text dx="36" dy="12" stroke="black" stroke-width="2">46</text></g><g class="node" transform="translate(138,751.6363636363635)" style="fill: white; stroke: rgb(189, 158, 57); stroke-width: 2;"><rect width="24" height="24"></rect><text dx="36" dy="12" stroke="black" stroke-width="2">28</text></g><g class="node" transform="translate(138,615.2727272727273)" style="fill: white; stroke: rgb(181, 207, 107); stroke-width: 2;"><rect width="24" height="24"></rect><text dx="36" dy="12" stroke="black" stroke-width="2">23</text></g><g class="node" transform="translate(138,97.0909090909091)" style="fill: white; stroke: rgb(57, 59, 121); stroke-width: 2;"><rect width="24" height="24"></rect><text dx="36" dy="12" stroke="black" stroke-width="2">4</text></g><g class="node" transform="translate(138,997.090909090909)" style="fill: white; stroke: rgb(231, 186, 82); stroke-width: 2;"><rect width="24" height="24"></rect><text dx="36" dy="12" stroke="black" stroke-width="2">37</text></g><g class="node" transform="translate(213,1788)" style="fill: white; stroke: black; stroke-width: 2;"><rect width="24" height="24"></rect><text dx="36" dy="12" stroke="black" stroke-width="2">66</text></g><g class="node" transform="translate(213,1406.181818181818)" style="fill: white; stroke: rgb(140, 109, 49); stroke-width: 2;"><rect width="24" height="24"></rect><text dx="36" dy="12" stroke="black" stroke-width="2">52</text></g><g class="node" transform="translate(213,1869.8181818181818)" style="fill: black; stroke: black; stroke-width: 2;"><rect width="24" height="24"></rect><text dx="36" dy="12" stroke="black" stroke-width="2">69</text></g><g class="node" transform="translate(213,1924.3636363636363)" style="fill: white; stroke: black; stroke-width: 2;"><rect width="24" height="24"></rect><text dx="36" dy="12" stroke="black" stroke-width="2">71</text></g><g class="node" transform="translate(288,260.7272727272727)" style="fill: white; stroke: rgb(231, 150, 156); stroke-width: 2;"><rect width="24" height="24"></rect><text dx="36" dy="12" stroke="black" stroke-width="2">10</text></g><g class="node" transform="translate(288,1433.4545454545455)" style="fill: white; stroke: rgb(214, 97, 107); stroke-width: 2;"><rect width="24" height="24"></rect><text dx="36" dy="12" stroke="black" stroke-width="2">53</text></g><g class="node" transform="translate(288,533.4545454545454)" style="fill: white; stroke: rgb(231, 150, 156); stroke-width: 2;"><rect width="24" height="24"></rect><text dx="36" dy="12" stroke="black" stroke-width="2">20</text></g><g class="node" transform="translate(288,1024.3636363636363)" style="fill: white; stroke: rgb(206, 109, 189); stroke-width: 2;"><rect width="24" height="24"></rect><text dx="36" dy="12" stroke="black" stroke-width="2">38</text></g><g class="node" transform="translate(288,124.36363636363635)" style="fill: white; stroke: rgb(165, 81, 148); stroke-width: 2;"><rect width="24" height="24"></rect><text dx="36" dy="12" stroke="black" stroke-width="2">5</text></g><g class="node" transform="translate(288,778.9090909090909)" style="fill: white; stroke: rgb(231, 203, 148); stroke-width: 2;"><rect width="24" height="24"></rect><text dx="36" dy="12" stroke="black" stroke-width="2">29</text></g><g class="node" transform="translate(288,1624.3636363636365)" style="fill: white; stroke: rgb(173, 73, 74); stroke-width: 2;"><rect width="24" height="24"></rect><text dx="36" dy="12" stroke="black" stroke-width="2">60</text></g><g class="node" transform="translate(363,1269.8181818181818)" style="fill: white; stroke: rgb(222, 158, 214); stroke-width: 2;"><rect width="24" height="24"></rect><text dx="36" dy="12" stroke="black" stroke-width="2">47</text></g><g class="node" transform="translate(438,806.1818181818182)" style="fill: white; stroke: rgb(132, 60, 57); stroke-width: 2;"><rect width="24" height="24"></rect><text dx="36" dy="12" stroke="black" stroke-width="2">30</text></g><g class="node" transform="translate(438,642.5454545454545)" style="fill: white; stroke: rgb(132, 60, 57); stroke-width: 2;"><rect width="24" height="24"></rect><text dx="36" dy="12" stroke="black" stroke-width="2">24</text></g><g class="node" transform="translate(438,1051.6363636363635)" style="fill: white; stroke: rgb(231, 186, 82); stroke-width: 2;"><rect width="24" height="24"></rect><text dx="36" dy="12" stroke="black" stroke-width="2">39</text></g><g class="node" transform="translate(438,288)" style="fill: white; stroke: rgb(231, 203, 148); stroke-width: 2;"><rect width="24" height="24"></rect><text dx="36" dy="12" stroke="black" stroke-width="2">11</text></g><g class="node" transform="translate(438,1487.9999999999998)" style="fill: white; stroke: rgb(206, 219, 156); stroke-width: 2;"><rect width="24" height="24"></rect><text dx="36" dy="12" stroke="black" stroke-width="2">55</text></g><g class="node" transform="translate(438,833.4545454545454)" style="fill: white; stroke: rgb(123, 65, 115); stroke-width: 2;"><rect width="24" height="24"></rect><text dx="36" dy="12" stroke="black" stroke-width="2">31</text></g><g class="node" transform="translate(588,315.27272727272725)" style="fill: white; stroke: rgb(222, 158, 214); stroke-width: 2;"><rect width="24" height="24"></rect><text dx="36" dy="12" stroke="black" stroke-width="2">12</text></g><g class="node" transform="translate(588,669.8181818181818)" style="fill: white; stroke: rgb(123, 65, 115); stroke-width: 2;"><rect width="24" height="24"></rect><text dx="36" dy="12" stroke="black" stroke-width="2">25</text></g><g class="node" transform="translate(588,1078.9090909090908)" style="fill: white; stroke: rgb(206, 109, 189); stroke-width: 2;"><rect width="24" height="24"></rect><text dx="36" dy="12" stroke="black" stroke-width="2">40</text></g><g class="node" transform="translate(738,860.7272727272727)" style="fill: white; stroke: rgb(231, 150, 156); stroke-width: 2;"><rect width="24" height="24"></rect><text dx="36" dy="12" stroke="black" stroke-width="2">32</text></g><g class="node" transform="translate(888,1515.272727272727)" style="fill: white; stroke: rgb(57, 59, 121); stroke-width: 2;"><rect width="24" height="24"></rect><text dx="36" dy="12" stroke="black" stroke-width="2">56</text></g><g class="node" transform="translate(0,27.272727272727273)" style="fill: white; stroke: black; stroke-width: 2;"><circle r="12"></circle><text dx="36" dy="12" stroke="black" stroke-width="2">1</text></g><g class="node" transform="translate(0,218.1818181818182)" style="fill: white; stroke: black; stroke-width: 2;"><circle r="12"></circle><text dx="36" dy="12" stroke="black" stroke-width="2">8</text></g><g class="node" transform="translate(0,709.090909090909)" style="fill: white; stroke: black; stroke-width: 2;"><circle r="12"></circle><text dx="36" dy="12" stroke="black" stroke-width="2">26</text></g><g class="node" transform="translate(0,463.63636363636357)" style="fill: white; stroke: black; stroke-width: 2;"><circle r="12"></circle><text dx="36" dy="12" stroke="black" stroke-width="2">17</text></g><g class="node" transform="translate(0,490.90909090909093)" style="fill: white; stroke: black; stroke-width: 2;"><circle r="12"></circle><text dx="36" dy="12" stroke="black" stroke-width="2">18</text></g><g class="node" transform="translate(0,1336.3636363636363)" style="fill: white; stroke: black; stroke-width: 2;"><circle r="12"></circle><text dx="36" dy="12" stroke="black" stroke-width="2">49</text></g><g class="node" transform="translate(0,54.54545454545455)" style="fill: white; stroke: black; stroke-width: 2;"><circle r="12"></circle><text dx="36" dy="12" stroke="black" stroke-width="2">2</text></g><g class="node" transform="translate(0,981.8181818181819)" style="fill: white; stroke: black; stroke-width: 2;"><circle r="12"></circle><text dx="36" dy="12" stroke="black" stroke-width="2">36</text></g><g class="node" transform="translate(0,1172.7272727272727)" style="fill: white; stroke: black; stroke-width: 2;"><circle r="12"></circle><text dx="36" dy="12" stroke="black" stroke-width="2">43</text></g><g class="node" transform="translate(0,1363.6363636363635)" style="fill: black; stroke: black; stroke-width: 2;"><circle r="12"></circle><text dx="36" dy="12" stroke="black" stroke-width="2">50</text></g><g class="node" transform="translate(0,1227.2727272727273)" style="fill: white; stroke: black; stroke-width: 2;"><circle r="12"></circle><text dx="36" dy="12" stroke="black" stroke-width="2">45</text></g><g class="node" transform="translate(0,1554.5454545454545)" style="fill: black; stroke: black; stroke-width: 2;"><circle r="12"></circle><text dx="36" dy="12" stroke="black" stroke-width="2">57</text></g><g class="node" transform="translate(0,1581.8181818181818)" style="fill: white; stroke: black; stroke-width: 2;"><circle r="12"></circle><text dx="36" dy="12" stroke="black" stroke-width="2">58</text></g><g class="node" transform="translate(0,1663.6363636363635)" style="fill: white; stroke: black; stroke-width: 2;"><circle r="12"></circle><text dx="36" dy="12" stroke="black" stroke-width="2">61</text></g><g class="node" transform="translate(75,1690.9090909090908)" style="fill: white; stroke: black; stroke-width: 2;"><circle r="12"></circle><text dx="36" dy="12" stroke="black" stroke-width="2">62</text></g><g class="node" transform="translate(150,245.45454545454547)" style="fill: white; stroke: rgb(82, 84, 163); stroke-width: 2;"><circle r="12"></circle><text dx="36" dy="12" stroke="black" stroke-width="2">9</text></g><g class="node" transform="translate(150,1009.090909090909)" style="fill: white; stroke: rgb(231, 186, 82); stroke-width: 2;"><circle r="12"></circle><text dx="36" dy="12" stroke="black" stroke-width="2">37</text></g><g class="node" transform="translate(150,763.6363636363635)" style="fill: white; stroke: rgb(189, 158, 57); stroke-width: 2;"><circle r="12"></circle><text dx="36" dy="12" stroke="black" stroke-width="2">28</text></g><g class="node" transform="translate(150,627.2727272727273)" style="fill: white; stroke: rgb(181, 207, 107); stroke-width: 2;"><circle r="12"></circle><text dx="36" dy="12" stroke="black" stroke-width="2">23</text></g><g class="node" transform="translate(150,1609.090909090909)" style="fill: white; stroke: rgb(181, 207, 107); stroke-width: 2;"><circle r="12"></circle><text dx="36" dy="12" stroke="black" stroke-width="2">59</text></g><g class="node" transform="translate(150,1390.9090909090908)" style="fill: white; stroke: rgb(206, 109, 189); stroke-width: 2;"><circle r="12"></circle><text dx="36" dy="12" stroke="black" stroke-width="2">51</text></g><g class="node" transform="translate(150,518.1818181818181)" style="fill: white; stroke: rgb(99, 121, 57); stroke-width: 2;"><circle r="12"></circle><text dx="36" dy="12" stroke="black" stroke-width="2">19</text></g><g class="node" transform="translate(150,1254.5454545454545)" style="fill: white; stroke: rgb(123, 65, 115); stroke-width: 2;"><circle r="12"></circle><text dx="36" dy="12" stroke="black" stroke-width="2">46</text></g><g class="node" transform="translate(150,109.0909090909091)" style="fill: white; stroke: rgb(57, 59, 121); stroke-width: 2;"><circle r="12"></circle><text dx="36" dy="12" stroke="black" stroke-width="2">4</text></g><g class="node" transform="translate(225,1827.272727272727)" style="fill: white; stroke: black; stroke-width: 2;"><circle r="12"></circle><text dx="36" dy="12" stroke="black" stroke-width="2">67</text></g><g class="node" transform="translate(225,1854.5454545454543)" style="fill: white; stroke: black; stroke-width: 2;"><circle r="12"></circle><text dx="36" dy="12" stroke="black" stroke-width="2">68</text></g><g class="node" transform="translate(225,1418.181818181818)" style="fill: white; stroke: rgb(140, 109, 49); stroke-width: 2;"><circle r="12"></circle><text dx="36" dy="12" stroke="black" stroke-width="2">52</text></g><g class="node" transform="translate(225,1909.090909090909)" style="fill: white; stroke: black; stroke-width: 2;"><circle r="12"></circle><text dx="36" dy="12" stroke="black" stroke-width="2">70</text></g><g class="node" transform="translate(225,1963.6363636363637)" style="fill: white; stroke: black; stroke-width: 2;"><circle r="12"></circle><text dx="36" dy="12" stroke="black" stroke-width="2">72</text></g><g class="node" transform="translate(300,545.4545454545454)" style="fill: white; stroke: rgb(231, 150, 156); stroke-width: 2;"><circle r="12"></circle><text dx="36" dy="12" stroke="black" stroke-width="2">20</text></g><g class="node" transform="translate(300,790.9090909090909)" style="fill: white; stroke: rgb(231, 203, 148); stroke-width: 2;"><circle r="12"></circle><text dx="36" dy="12" stroke="black" stroke-width="2">29</text></g><g class="node" transform="translate(300,136.36363636363635)" style="fill: white; stroke: rgb(165, 81, 148); stroke-width: 2;"><circle r="12"></circle><text dx="36" dy="12" stroke="black" stroke-width="2">5</text></g><g class="node" transform="translate(300,1036.3636363636363)" style="fill: white; stroke: rgb(206, 109, 189); stroke-width: 2;"><circle r="12"></circle><text dx="36" dy="12" stroke="black" stroke-width="2">38</text></g><g class="node" transform="translate(300,272.7272727272727)" style="fill: white; stroke: rgb(231, 150, 156); stroke-width: 2;"><circle r="12"></circle><text dx="36" dy="12" stroke="black" stroke-width="2">10</text></g><g class="node" transform="translate(300,1445.4545454545455)" style="fill: white; stroke: rgb(214, 97, 107); stroke-width: 2;"><circle r="12"></circle><text dx="36" dy="12" stroke="black" stroke-width="2">53</text></g><g class="node" transform="translate(300,1472.7272727272725)" style="fill: white; stroke: rgb(173, 73, 74); stroke-width: 2;"><circle r="12"></circle><text dx="36" dy="12" stroke="black" stroke-width="2">54</text></g><g class="node" transform="translate(375,1990.9090909090908)" style="fill: white; stroke: rgb(222, 158, 214); stroke-width: 2;"><circle r="12"></circle><text dx="36" dy="12" stroke="black" stroke-width="2">73</text></g><g class="node" transform="translate(450,818.1818181818182)" style="fill: white; stroke: rgb(132, 60, 57); stroke-width: 2;"><circle r="12"></circle><text dx="36" dy="12" stroke="black" stroke-width="2">30</text></g><g class="node" transform="translate(450,654.5454545454545)" style="fill: white; stroke: rgb(132, 60, 57); stroke-width: 2;"><circle r="12"></circle><text dx="36" dy="12" stroke="black" stroke-width="2">24</text></g><g class="node" transform="translate(450,300)" style="fill: white; stroke: rgb(231, 203, 148); stroke-width: 2;"><circle r="12"></circle><text dx="36" dy="12" stroke="black" stroke-width="2">11</text></g><g class="node" transform="translate(450,1063.6363636363635)" style="fill: white; stroke: rgb(231, 186, 82); stroke-width: 2;"><circle r="12"></circle><text dx="36" dy="12" stroke="black" stroke-width="2">39</text></g><g class="node" transform="translate(450,845.4545454545454)" style="fill: white; stroke: rgb(123, 65, 115); stroke-width: 2;"><circle r="12"></circle><text dx="36" dy="12" stroke="black" stroke-width="2">31</text></g><g class="node" transform="translate(450,1499.9999999999998)" style="fill: white; stroke: rgb(206, 219, 156); stroke-width: 2;"><circle r="12"></circle><text dx="36" dy="12" stroke="black" stroke-width="2">55</text></g><g class="node" transform="translate(600,327.27272727272725)" style="fill: white; stroke: rgb(222, 158, 214); stroke-width: 2;"><circle r="12"></circle><text dx="36" dy="12" stroke="black" stroke-width="2">12</text></g><g class="node" transform="translate(600,1090.9090909090908)" style="fill: white; stroke: rgb(206, 109, 189); stroke-width: 2;"><circle r="12"></circle><text dx="36" dy="12" stroke="black" stroke-width="2">40</text></g><g class="node" transform="translate(600,681.8181818181818)" style="fill: white; stroke: rgb(123, 65, 115); stroke-width: 2;"><circle r="12"></circle><text dx="36" dy="12" stroke="black" stroke-width="2">25</text></g><g class="node" transform="translate(750,872.7272727272727)" style="fill: white; stroke: rgb(231, 150, 156); stroke-width: 2;"><circle r="12"></circle><text dx="36" dy="12" stroke="black" stroke-width="2">32</text></g><g class="node" transform="translate(900,1527.272727272727)" style="fill: white; stroke: rgb(57, 59, 121); stroke-width: 2;"><circle r="12"></circle><text dx="36" dy="12" stroke="black" stroke-width="2">56</text></g></g></svg>