<?xml version="1.0" encoding="utf-8"?>
<!-- Generator: Adobe Illustrator 16.0.0, SVG Export Plug-In . SVG Version: 6.00 Build 0)  -->
<!DOCTYPE svg PUBLIC "-//W3C//DTD SVG 1.1//EN" "http://www.w3.org/Graphics/SVG/1.1/DTD/svg11.dtd">
<svg version="1.1" id="Layer_1" xmlns="http://www.w3.org/2000/svg" xmlns:xlink="http://www.w3.org/1999/xlink" x="0px" y="0px"
	 width="2412px" height="3010px" viewBox="-1207 0 2412 3010" enable-background="new -1207 0 2412 3010" xml:space="preserve">
<g transform="translate(170,32)">
	<path fill="none" stroke="#393B79" stroke-width="3" d="M-762,1478.455h-12.239c-12.239,0-36.717,0-48.956,86.365
		c-12.239,86.363-12.239,259.09-36.25,345.453c-24.011,86.365-72.033,86.365-96.044,86.365H-979.5"/>
	<path fill="none" stroke="#393B79" stroke-width="3" d="M-752,1751.184h-10.848c-10.847,0-32.541,0-43.389,40.908
		c-10.848,40.91-10.848,122.729-37.917,163.637c-27.069,40.91-81.208,40.91-108.277,40.91H-979.5"/>
	<path fill="none" stroke="#393B79" stroke-width="3" d="M-737,1969.365h-9.896c-9.896,0-29.688,0-39.584,4.545
		c-9.896,4.545-9.896,13.637-40.416,18.182c-30.521,4.547-91.562,4.547-122.084,4.547H-979.5"/>
	<path fill="none" stroke="#9C9EDE" stroke-width="3" d="M-667,469.365h-7.891c-7.892,0-23.673,0-31.563,168.182
		c-7.892,168.183-7.892,504.546-18.334,672.728c-10.442,168.181-31.327,168.181-41.77,168.181H-777"/>
	<path fill="none" stroke="#9C9EDE" stroke-width="3" d="M-657,796.637h-7.371c-7.371,0-22.113,0-29.484,113.637
		s-7.371,340.909-20,454.546c-12.629,113.635-37.887,113.635-50.516,113.635H-777"/>
	<path fill="none" stroke="#8CA252" stroke-width="3" d="M-612,1614.82h-5.42c-5.42,0-16.26,0-21.68,22.727
		s-5.42,68.182-20.416,90.908c-14.997,22.729-44.991,22.729-59.987,22.729H-734.5"/>
	<path fill="none" stroke="#9C9EDE" stroke-width="3" d="M-607,1314.82h-7.668c-7.667,0-23.002,0-30.67,27.272
		c-7.667,27.272-7.667,81.818-28.333,109.091c-20.666,27.272-61.997,27.272-82.663,27.272H-777"/>
	<path fill="none" stroke="#CEDB9C" stroke-width="3" d="M-607,1942.092h-5.509c-5.509,0-16.527,0-22.036,4.547
		c-5.509,4.545-5.509,13.635-22.5,18.182c-16.991,4.545-50.973,4.545-67.964,4.545H-742"/>
	<path fill="none" stroke="#8CA252" stroke-width="3" d="M-602,1723.91h-5.407c-5.407,0-16.221,0-21.628,4.545
		c-5.407,4.547-5.407,13.637-22.083,18.184c-16.677,4.545-50.029,4.545-66.705,4.545H-734.5"/>
	<path fill="none" stroke="#9C9EDE" stroke-width="3" d="M-572,1451.183h-8.365c-8.366,0-25.097,0-33.463,4.545
		c-8.365,4.546-8.365,13.637-34.166,18.182c-25.802,4.545-77.403,4.545-103.205,4.545H-777"/>
	<path fill="none" stroke="#E7BA52" stroke-width="3" d="M-532,442.092h-5.407c-5.407,0-16.221,0-21.628,4.545
		s-5.407,13.636-22.083,18.182c-16.677,4.545-50.029,4.545-66.705,4.545H-664.5"/>
	<path fill="none" stroke="#E7CB94" stroke-width="3" d="M-512,1696.639h-3.774c-3.775,0-11.324,0-15.099,4.545
		c-3.775,4.545-3.775,13.637-15.417,18.182s-34.926,4.545-46.568,4.545H-604.5"/>
	<path fill="none" stroke="#843C39" stroke-width="3" d="M-507,933.001h-5.718c-5.717,0-17.151,0-22.869,63.636
		c-5.717,63.637-5.717,190.909-18.333,254.546s-37.848,63.637-50.464,63.637H-617"/>
	<path fill="none" stroke="#AD494A" stroke-width="3" d="M-507,1914.82h-3.979c-3.979,0-11.937,0-15.915,4.545
		s-3.979,13.637-16.25,18.182s-36.813,4.545-49.085,4.545H-604.5"/>
	<path fill="none" stroke="#D6616B" stroke-width="3" d="M-497,769.365h-5.815c-5.814,0-17.445,0-23.26,4.546
		c-5.815,4.545-5.815,13.636-23.75,18.182c-17.936,4.545-53.805,4.545-71.74,4.545H-639.5"/>
	<path fill="none" stroke="#843C39" stroke-width="3" d="M-482,1151.183h-6.089c-6.089,0-18.267,0-24.355,27.272
		c-6.089,27.273-6.089,81.818-22.5,109.091c-16.411,27.273-49.233,27.273-65.645,27.273H-617"/>
	<path fill="none" stroke="#A55194" stroke-width="3" d="M-472,1423.911h-4.591c-4.591,0-13.772,0-18.363,4.545
		c-4.591,4.546-4.591,13.637-18.75,18.183c-14.159,4.545-42.478,4.545-56.637,4.545H-584.5"/>
	<path fill="none" stroke="#7B4173" stroke-width="3" d="M-467,1587.547h-5.101c-5.102,0-15.304,0-20.404,4.545
		c-5.101,4.547-5.101,13.637-20.833,18.182c-15.732,4.547-47.197,4.547-62.93,4.547H-592"/>
	<path fill="none" stroke="#DE9ED6" stroke-width="3" d="M-407,1642.092h-5.208c-5.209,0-15.625,0-20.834,9.092
		c-5.208,9.09-5.208,27.271-20.833,36.363s-46.875,9.092-62.5,9.092H-532"/>
	<path fill="none" stroke="#843C39" stroke-width="3" d="M-407,1287.546h-8.569c-8.569,0-25.709,0-34.278,4.546
		c-8.57,4.546-8.57,13.636-35,18.182c-26.431,4.546-79.291,4.546-105.722,4.546H-617"/>
	<path fill="none" stroke="#5254A3" stroke-width="3" d="M-397,660.274h-4.556c-4.556,0-13.666,0-18.222,18.182
		c-4.555,18.182-4.555,54.546-17.5,72.728c-12.944,18.182-38.834,18.182-51.778,18.182H-502"/>
	<path fill="none" stroke="#DE9ED6" stroke-width="3" d="M-392,1669.365h-5.713c-5.713,0-17.14,0-22.853,4.545
		s-5.713,13.637-23.333,18.182c-17.62,4.547-52.861,4.547-70.481,4.547H-532"/>
	<path fill="none" stroke="#9C9EDE" stroke-width="3" d="M-387,1887.547h-4.999c-4.999,0-14.997,0-19.995,4.545
		c-4.999,4.547-4.999,13.637-20.417,18.182c-15.418,4.547-46.253,4.547-61.671,4.547H-509.5"/>
	<path fill="none" stroke="#637939" stroke-width="3" d="M-372,905.729h-5.713c-5.713,0-17.14,0-22.853,4.545
		c-5.713,4.546-5.713,13.637-23.333,18.182c-17.62,4.546-52.861,4.546-70.481,4.546H-512"/>
	<path fill="none" stroke="#8CA252" stroke-width="3" d="M-362,960.274h-5.4c-5.4,0-16.202,0-21.603,31.818
		s-5.4,95.454-19.583,127.272s-42.549,31.818-56.731,31.818H-479.5"/>
	<path fill="none" stroke="#B5CF6B" stroke-width="3" d="M-357,414.819h-6.835c-6.836,0-20.506,0-27.342,4.545
		c-6.835,4.546-6.835,13.637-27.916,18.182c-21.082,4.545-63.244,4.545-84.326,4.545H-524.5"/>
	<path fill="none" stroke="#8CA252" stroke-width="3" d="M-352,987.546h-5.751c-5.75,0-17.252,0-23.002,27.273
		c-5.751,27.272-5.751,81.817-21.25,109.091c-15.5,27.272-46.498,27.272-61.998,27.272H-479.5"/>
	<path fill="none" stroke="#8CA252" stroke-width="3" d="M-347,1014.82h-5.862c-5.862,0-17.587,0-23.449,22.727
		c-5.862,22.728-5.862,68.183-22.083,90.909c-16.222,22.728-48.663,22.728-64.885,22.728H-479.5"/>
	<path fill="none" stroke="#8CA252" stroke-width="3" d="M-337,1042.092h-6.183c-6.182,0-18.547,0-24.729,18.182
		c-6.182,18.182-6.182,54.546-23.75,72.728c-17.567,18.182-52.702,18.182-70.271,18.182H-479.5"/>
	<path fill="none" stroke="#8CA252" stroke-width="3" d="M-332,1069.365h-6.272c-6.272,0-18.817,0-25.09,13.637
		c-6.273,13.636-6.273,40.909-24.584,54.545c-18.311,13.637-54.933,13.637-73.243,13.637H-479.5"/>
	<path fill="none" stroke="#8CA252" stroke-width="3" d="M-322,1096.637h-6.562c-6.562,0-19.688,0-26.25,9.092
		c-6.562,9.091-6.562,27.272-26.25,36.363s-59.062,9.091-78.75,9.091H-479.5"/>
	<path fill="none" stroke="#E7969C" stroke-width="3" d="M-312,1396.638h-6.223c-6.224,0-18.67,0-24.894,4.545
		c-6.223,4.545-6.223,13.637-25.416,18.182c-19.193,4.546-57.581,4.546-76.774,4.546H-464.5"/>
	<path fill="none" stroke="#7B4173" stroke-width="3" d="M-312,1178.456h-4.121c-4.122,0-12.365,0-16.486,18.182
		c-4.122,18.183-4.122,54.546-15.834,72.728s-35.135,18.182-46.847,18.182H-407"/>
	<path fill="none" stroke="#A55194" stroke-width="3" d="M-312,1533.002h-6.875c-6.875,0-20.625,0-27.5,9.09
		c-6.875,9.092-6.875,27.273-27.5,36.363c-20.625,9.092-61.875,9.092-82.5,9.092H-477"/>
	<path fill="none" stroke="#8CA252" stroke-width="3" d="M-312,1123.911h-6.835c-6.836,0-20.506,0-27.342,4.545
		c-6.835,4.546-6.835,13.637-27.916,18.182c-21.082,4.546-63.244,4.546-84.326,4.546H-479.5"/>
	<path fill="none" stroke="#DE9ED6" stroke-width="3" d="M-307,633.001h-3.877c-3.877,0-11.63,0-15.507,4.545
		c-3.877,4.546-3.877,13.637-15.833,18.183c-11.957,4.545-35.87,4.545-47.826,4.545H-402"/>
	<path fill="none" stroke="#7B4173" stroke-width="3" d="M-302,1205.729h-4.465c-4.466,0-13.396,0-17.861,13.636
		c-4.465,13.637-4.465,40.909-17.5,54.546c-13.035,13.636-39.104,13.636-52.139,13.636H-407"/>
	<path fill="none" stroke="#7B4173" stroke-width="3" d="M-292,1233.001h-4.792c-4.791,0-14.375,0-19.166,9.091
		c-4.792,9.091-4.792,27.272-19.167,36.363s-43.125,9.091-57.5,9.091H-407"/>
	<path fill="none" stroke="#5254A3" stroke-width="3" d="M-292,742.092h-8.569c-8.569,0-25.709,0-34.278,4.545
		c-8.57,4.546-8.57,13.637-35,18.183c-26.431,4.545-79.291,4.545-105.722,4.545H-502"/>
	<path fill="none" stroke="#9C9EDE" stroke-width="3" d="M-277,823.911h-3.934c-3.934,0-11.801,0-15.734,13.636
		c-3.934,13.637-3.934,40.909-15.417,54.546s-34.449,13.637-45.932,13.637H-369.5"/>
	<path fill="none" stroke="#637939" stroke-width="3" d="M-272,1778.455h-4.664c-4.664,0-13.991,0-18.655,18.184
		c-4.664,18.182-4.664,54.545-17.917,72.727s-39.758,18.182-53.011,18.182H-379.5"/>
	<path fill="none" stroke="#9C9EDE" stroke-width="3" d="M-267,851.183h-4.271c-4.271,0-12.812,0-17.084,9.091
		c-4.271,9.091-4.271,27.272-17.083,36.363c-12.812,9.092-38.438,9.092-51.25,9.092H-369.5"/>
	<path fill="none" stroke="#637939" stroke-width="3" d="M-262,1805.729h-4.997c-4.996,0-14.99,0-19.987,13.637
		c-4.996,13.637-4.996,40.908-19.583,54.545c-14.586,13.637-43.76,13.637-58.346,13.637H-379.5"/>
	<path fill="none" stroke="#A55194" stroke-width="3" d="M-262,1560.273h-8.773c-8.773,0-26.321,0-35.095,4.547
		c-8.773,4.545-8.773,13.635-35.833,18.182c-27.06,4.545-81.18,4.545-108.239,4.545H-477"/>
	<path fill="none" stroke="#7B4173" stroke-width="3" d="M-257,1260.274h-6.121c-6.121,0-18.363,0-24.484,4.546
		c-6.121,4.545-6.121,13.636-25,18.182c-18.879,4.545-56.637,4.545-75.516,4.545H-407"/>
	<path fill="none" stroke="#9C9EDE" stroke-width="3" d="M-247,878.456h-4.999c-4.999,0-14.997,0-19.995,4.546
		c-4.999,4.545-4.999,13.636-20.417,18.182s-46.253,4.546-61.671,4.546H-369.5"/>
	<path fill="none" stroke="#637939" stroke-width="3" d="M-247,1833.002h-5.521c-5.521,0-16.562,0-22.083,9.09
		c-5.521,9.092-5.521,27.273-22.083,36.363c-16.562,9.092-49.688,9.092-66.25,9.092H-379.5"/>
	<path fill="none" stroke="#E7CB94" stroke-width="3" d="M-242,387.547h-5.305c-5.305,0-15.915,0-21.22,4.545
		c-5.305,4.545-5.305,13.636-21.666,18.182c-16.362,4.545-49.085,4.545-65.447,4.545H-372"/>
	<path fill="none" stroke="#843C39" stroke-width="3" d="M-222,1342.092h-3.646c-3.646,0-10.938,0-14.583,9.091
		c-3.646,9.091-3.646,27.272-14.583,36.363c-10.938,9.092-32.812,9.092-43.75,9.092H-309.5"/>
	<path fill="none" stroke="#AD494A" stroke-width="3" d="M-207,496.638h-4.535c-4.535,0-13.605,0-18.14,22.727
		c-4.535,22.728-4.535,68.182-17.083,90.909c-12.548,22.728-37.645,22.728-50.193,22.728H-309.5"/>
	<path fill="none" stroke="#AD494A" stroke-width="3" d="M-202,523.91h-4.664c-4.664,0-13.991,0-18.655,18.182
		c-4.664,18.182-4.664,54.545-17.917,72.727c-13.253,18.182-39.758,18.182-53.011,18.182H-309.5"/>
	<path fill="none" stroke="#843C39" stroke-width="3" d="M-197,1369.365h-4.591c-4.591,0-13.772,0-18.363,4.546
		c-4.591,4.545-4.591,13.636-18.75,18.182s-42.478,4.546-56.637,4.546H-309.5"/>
	<path fill="none" stroke="#637939" stroke-width="3" d="M-197,1860.273h-7.447c-7.447,0-22.342,0-29.79,4.547
		c-7.447,4.545-7.447,13.635-30.417,18.182c-22.97,4.545-68.908,4.545-91.877,4.545h-22.97"/>
	<path fill="none" stroke="#A55194" stroke-width="3" d="M-192,687.546h-4.479c-4.479,0-13.438,0-17.917,9.091
		c-4.479,9.092-4.479,27.273-17.917,36.364s-40.312,9.091-53.75,9.091H-299.5"/>
	<path fill="none" stroke="#AD494A" stroke-width="3" d="M-187,551.183h-5.209c-5.209,0-15.628,0-20.837,13.636
		c-5.209,13.637-5.209,40.909-20.417,54.545c-15.207,13.637-45.622,13.637-60.829,13.637H-309.5"/>
	<path fill="none" stroke="#A55194" stroke-width="3" d="M-182,714.82h-4.795c-4.795,0-14.385,0-19.18,4.545
		c-4.795,4.546-4.795,13.637-19.583,18.182c-14.789,4.546-44.365,4.546-59.154,4.546H-299.5"/>
	<path fill="none" stroke="#AD494A" stroke-width="3" d="M-172,578.456h-5.729c-5.729,0-17.188,0-22.917,9.091
		c-5.729,9.091-5.729,27.272-22.917,36.364c-17.188,9.091-51.562,9.091-68.75,9.091H-309.5"/>
	<path fill="none" stroke="#AD494A" stroke-width="3" d="M-162,605.729h-6.019c-6.019,0-18.058,0-24.077,4.545
		s-6.019,13.637-24.583,18.182c-18.564,4.546-55.692,4.546-74.257,4.546H-309.5"/>
	<path fill="none" stroke="#6B6ECF" stroke-width="3" d="M-157,278.456h-3.578c-3.578,0-10.734,0-14.313,11.364
		c-3.578,11.364-3.578,34.091-14.167,45.455c-10.588,11.364-31.766,11.364-42.354,11.364H-242"/>
	<path fill="none" stroke="#6B6ECF" stroke-width="3" d="M-152,305.729h-3.934c-3.934,0-11.801,0-15.734,13.636
		c-3.934,13.637-3.934,40.909-15.417,54.546c-11.483,13.636-34.449,13.636-45.932,13.636H-244.5"/>
	<path fill="none" stroke="#6B6ECF" stroke-width="3" d="M-142,333.001h-4.271c-4.271,0-12.812,0-17.083,9.091
		c-4.271,9.091-4.271,27.272-17.083,36.363c-12.812,9.091-38.438,9.091-51.25,9.091H-244.5"/>
	<path fill="none" stroke="#6B6ECF" stroke-width="3" d="M-127,360.274h-4.795c-4.795,0-14.385,0-19.18,4.545
		s-4.795,13.636-19.583,18.182c-14.789,4.545-44.365,4.545-59.154,4.545H-244.5"/>
	<path fill="none" stroke="#393B79" stroke-width="4" d="M-1042,1996.639h125"/>
	<path fill="none" stroke="#393B79" stroke-width="4" d="M-1042,1996.639h125"/>
	<path fill="none" stroke="#393B79" stroke-width="4" d="M-1042,1996.639h125"/>
	<path fill="none" stroke="#9C9EDE" stroke-width="4" d="M-792,1478.455h30"/>
	<path fill="none" stroke="#9C9EDE" stroke-width="4" d="M-792,1478.455h30"/>
	<path fill="none" stroke="#8CA252" stroke-width="4" d="M-752,1751.184h35"/>
	<path fill="none" stroke="#9C9EDE" stroke-width="4" d="M-792,1478.455h30"/>
	<path fill="none" stroke="#CEDB9C" stroke-width="4" d="M-747,1969.365h10"/>
	<path fill="none" stroke="#8CA252" stroke-width="4" d="M-752,1751.184h35"/>
	<path fill="none" stroke="#9C9EDE" stroke-width="4" d="M-792,1478.455h30"/>
	<path fill="none" stroke="#E7BA52" stroke-width="4" d="M-667,469.365h5"/>
	<path fill="none" stroke="#E7CB94" stroke-width="4" d="M-607,1723.91h5"/>
	<path fill="none" stroke="#843C39" stroke-width="4" d="M-627,1314.82h20"/>
	<path fill="none" stroke="#AD494A" stroke-width="4" d="M-607,1942.092h5"/>
	<path fill="none" stroke="#D6616B" stroke-width="4" d="M-657,796.637h35"/>
	<path fill="none" stroke="#843C39" stroke-width="4" d="M-627,1314.82h20"/>
	<path fill="none" stroke="#7B4173" stroke-width="4" d="M-612,1614.82h40"/>
	<path fill="none" stroke="#A55194" stroke-width="4" d="M-597,1451.183h25"/>
	<path fill="none" stroke="#7B4173" stroke-width="4" d="M-612,1614.82h40"/>
	<path fill="none" stroke="#DE9ED6" stroke-width="4" d="M-552,1696.639h40"/>
	<path fill="none" stroke="#843C39" stroke-width="4" d="M-627,1314.82h20"/>
	<path fill="none" stroke="#5254A3" stroke-width="4" d="M-507,769.365h10"/>
	<path fill="none" stroke="#DE9ED6" stroke-width="4" d="M-552,1696.639h40"/>
	<path fill="none" stroke="#9C9EDE" stroke-width="4" d="M-512,1914.82h5"/>
	<path fill="none" stroke="#637939" stroke-width="4" d="M-517,933.001h10"/>
	<path fill="none" stroke="#8CA252" stroke-width="4" d="M-482,1151.183h5"/>
	<path fill="none" stroke="#B5CF6B" stroke-width="4" d="M-532,442.092h15"/>
	<path fill="none" stroke="#8CA252" stroke-width="4" d="M-482,1151.183h5"/>
	<path fill="none" stroke="#8CA252" stroke-width="4" d="M-482,1151.183h5"/>
	<path fill="none" stroke="#8CA252" stroke-width="4" d="M-482,1151.183h5"/>
	<path fill="none" stroke="#8CA252" stroke-width="4" d="M-482,1151.183h5"/>
	<path fill="none" stroke="#8CA252" stroke-width="4" d="M-482,1151.183h5"/>
	<path fill="none" stroke="#E7969C" stroke-width="4" d="M-472,1423.911h15"/>
	<path fill="none" stroke="#7B4173" stroke-width="4" d="M-407,1287.546L-407,1287.546"/>
	<path fill="none" stroke="#A55194" stroke-width="4" d="M-487,1587.547h20"/>
	<path fill="none" stroke="#8CA252" stroke-width="4" d="M-482,1151.183h5"/>
	<path fill="none" stroke="#DE9ED6" stroke-width="4" d="M-407,660.274h10"/>
	<path fill="none" stroke="#7B4173" stroke-width="4" d="M-407,1287.546L-407,1287.546"/>
	<path fill="none" stroke="#7B4173" stroke-width="4" d="M-407,1287.546L-407,1287.546"/>
	<path fill="none" stroke="#5254A3" stroke-width="4" d="M-507,769.365h10"/>
	<path fill="none" stroke="#9C9EDE" stroke-width="4" d="M-372,905.729h5"/>
	<path fill="none" stroke="#637939" stroke-width="4" d="M-387,1887.547h15"/>
	<path fill="none" stroke="#9C9EDE" stroke-width="4" d="M-372,905.729h5"/>
	<path fill="none" stroke="#637939" stroke-width="4" d="M-387,1887.547h15"/>
	<path fill="none" stroke="#A55194" stroke-width="4" d="M-487,1587.547h20"/>
	<path fill="none" stroke="#7B4173" stroke-width="4" d="M-407,1287.546L-407,1287.546"/>
	<path fill="none" stroke="#9C9EDE" stroke-width="4" d="M-372,905.729h5"/>
	<path fill="none" stroke="#637939" stroke-width="4" d="M-387,1887.547h15"/>
	<path fill="none" stroke="#E7CB94" stroke-width="4" d="M-387,414.819h30"/>
	<path fill="none" stroke="#843C39" stroke-width="4" d="M-307,1396.638h-5"/>
	<path fill="none" stroke="#AD494A" stroke-width="4" d="M-312,633.001h5"/>
	<path fill="none" stroke="#AD494A" stroke-width="4" d="M-312,633.001h5"/>
	<path fill="none" stroke="#843C39" stroke-width="4" d="M-307,1396.638h-5"/>
	<path fill="none" stroke="#637939" stroke-width="4" d="M-387,1887.547h15"/>
	<path fill="none" stroke="#A55194" stroke-width="4" d="M-307,742.092h15"/>
	<path fill="none" stroke="#AD494A" stroke-width="4" d="M-312,633.001h5"/>
	<path fill="none" stroke="#A55194" stroke-width="4" d="M-307,742.092h15"/>
	<path fill="none" stroke="#AD494A" stroke-width="4" d="M-312,633.001h5"/>
	<path fill="none" stroke="#AD494A" stroke-width="4" d="M-312,633.001h5"/>
	<path fill="none" stroke="#6B6ECF" stroke-width="4" d="M-242,305.729v81.818"/>
	<path fill="none" stroke="#6B6ECF" stroke-width="4" d="M-247,387.547h5"/>
	<path fill="none" stroke="#6B6ECF" stroke-width="4" d="M-247,387.547h5"/>
	<path fill="none" stroke="#6B6ECF" stroke-width="4" d="M-247,387.547h5"/>
	<g transform="translate(903,1733.4545454545455)">
		<rect x="-1957" y="251.184" fill="#FFFFFF" stroke="#393B79" stroke-width="3" width="24" height="24"/>
		<text transform="matrix(-1 0 0 1 -1939 269.1831)" font-family="'ArialMT'" font-size="12">64</text>
	</g>
	<g transform="translate(653,1215.2727272727273)">
		<rect x="-1457" y="251.183" fill="#FFFFFF" stroke="#9C9EDE" stroke-width="3" width="24" height="24"/>
		<text transform="matrix(-1 0 0 1 -1439 269.1824)" font-family="'ArialMT'" font-size="12">45</text>
	</g>
	<g transform="translate(613,1487.9999999999998)">
		<rect x="-1377" y="251.184" fill="#FFFFFF" stroke="#8CA252" stroke-width="3" width="24" height="24"/>
		<text transform="matrix(-1 0 0 1 -1359 269.1836)" font-family="'ArialMT'" font-size="12">55</text>
	</g>
	<g transform="translate(608,1706.181818181818)">
		<rect x="-1367" y="251.183" fill="#FFFFFF" stroke="#CEDB9C" stroke-width="3" width="24" height="24"/>
		<text transform="matrix(-1 0 0 1 -1349 269.1835)" font-family="'ArialMT'" font-size="12">63</text>
	</g>
	<g transform="translate(528,206.1818181818182)">
		<rect x="-1207" y="251.183" fill="#FFFFFF" stroke="#E7BA52" stroke-width="3" width="24" height="24"/>
		<text transform="matrix(-1 0 0 1 -1189 269.1829)" font-family="'ArialMT'" font-size="12">8</text>
	</g>
	<g transform="translate(518,533.4545454545454)">
		<rect x="-1187" y="251.183" fill="#FFFFFF" stroke="#D6616B" stroke-width="3" width="24" height="24"/>
		<text transform="matrix(-1 0 0 1 -1169 269.1826)" font-family="'ArialMT'" font-size="12">20</text>
	</g>
	<g transform="translate(488,1051.6363636363635)">
		<rect x="-1127" y="251.183" fill="#FFFFFF" stroke="#843C39" stroke-width="3" width="24" height="24"/>
		<text transform="matrix(-1 0 0 1 -1109 269.1835)" font-family="'ArialMT'" font-size="12">39</text>
	</g>
	<g transform="translate(473,1351.6363636363635)">
		<rect x="-1097" y="251.184" fill="#FFFFFF" stroke="#7B4173" stroke-width="3" width="24" height="24"/>
		<text transform="matrix(-1 0 0 1 -1079 269.183)" font-family="'ArialMT'" font-size="12">50</text>
	</g>
	<g transform="translate(468,1460.7272727272725)">
		<rect x="-1087" y="251.183" fill="#FFFFFF" stroke="#E7CB94" stroke-width="3" width="24" height="24"/>
		<text transform="matrix(-1 0 0 1 -1069 269.1829)" font-family="'ArialMT'" font-size="12">54</text>
	</g>
	<g transform="translate(468,1678.9090909090908)">
		<rect x="-1087" y="251.183" fill="#FFFFFF" stroke="#AD494A" stroke-width="3" width="24" height="24"/>
		<text transform="matrix(-1 0 0 1 -1069 269.1827)" font-family="'ArialMT'" font-size="12">62</text>
	</g>
	<g transform="translate(458,1188)">
		<rect x="-1067" y="251.183" fill="#FFFFFF" stroke="#A55194" stroke-width="3" width="24" height="24"/>
		<text transform="matrix(-1 0 0 1 -1049 269.1831)" font-family="'ArialMT'" font-size="12">44</text>
	</g>
	<g transform="translate(412.99999999999994,1433.4545454545455)">
		<rect x="-977" y="251.184" fill="#FFFFFF" stroke="#DE9ED6" stroke-width="3" width="24" height="24"/>
		<text transform="matrix(-1 0 0 1 -959 269.1831)" font-family="'ArialMT'" font-size="12">53</text>
	</g>
	<g transform="translate(393.00000000000006,178.90909090909088)">
		<rect x="-937" y="251.183" fill="#FFFFFF" stroke="#B5CF6B" stroke-width="3" width="24" height="24"/>
		<text transform="matrix(-1 0 0 1 -919 269.1832)" font-family="'ArialMT'" font-size="12">7</text>
	</g>
	<g transform="translate(378,669.8181818181818)">
		<rect x="-907" y="251.183" fill="#FFFFFF" stroke="#637939" stroke-width="3" width="24" height="24"/>
		<text transform="matrix(-1 0 0 1 -889 269.1833)" font-family="'ArialMT'" font-size="12">25</text>
	</g>
	<g transform="translate(373,1651.6363636363635)">
		<rect x="-897" y="251.184" fill="#FFFFFF" stroke="#9C9EDE" stroke-width="3" width="24" height="24"/>
		<text transform="matrix(-1 0 0 1 -879 269.183)" font-family="'ArialMT'" font-size="12">61</text>
	</g>
	<g transform="translate(368,506.18181818181813)">
		<rect x="-887" y="251.183" fill="#FFFFFF" stroke="#5254A3" stroke-width="3" width="24" height="24"/>
		<text transform="matrix(-1 0 0 1 -869 269.1829)" font-family="'ArialMT'" font-size="12">19</text>
	</g>
	<g transform="translate(348,1324.3636363636363)">
		<rect x="-847" y="251.183" fill="#FFFFFF" stroke="#A55194" stroke-width="3" width="24" height="24"/>
		<text transform="matrix(-1 0 0 1 -829 269.1832)" font-family="'ArialMT'" font-size="12">49</text>
	</g>
	<g transform="translate(343,888)">
		<rect x="-837" y="251.183" fill="#FFFFFF" stroke="#8CA252" stroke-width="3" width="24" height="24"/>
		<text transform="matrix(-1 0 0 1 -819 269.1831)" font-family="'ArialMT'" font-size="12">33</text>
	</g>
	<g transform="translate(333,1160.7272727272727)">
		<rect x="-817" y="251.183" fill="#FFFFFF" stroke="#E7969C" stroke-width="3" width="24" height="24"/>
		<text transform="matrix(-1 0 0 1 -799 269.1833)" font-family="'ArialMT'" font-size="12">43</text>
	</g>
	<g transform="translate(268,1024.3636363636363)">
		<rect x="-687" y="251.183" fill="#FFFFFF" stroke="#7B4173" stroke-width="3" width="24" height="24"/>
		<text transform="matrix(-1 0 0 1 -669 269.1827)" font-family="'ArialMT'" font-size="12">38</text>
	</g>
	<g transform="translate(268,397.0909090909091)">
		<rect x="-687" y="251.183" fill="#FFFFFF" stroke="#DE9ED6" stroke-width="3" width="24" height="24"/>
		<text transform="matrix(-1 0 0 1 -669 269.183)" font-family="'ArialMT'" font-size="12">15</text>
	</g>
	<g transform="translate(248,151.63636363636363)">
		<rect x="-647" y="251.183" fill="#FFFFFF" stroke="#E7CB94" stroke-width="3" width="24" height="24"/>
		<text transform="matrix(-1 0 0 1 -629 269.1835)" font-family="'ArialMT'" font-size="12">6</text>
	</g>
	<g transform="translate(248,1624.3636363636365)">
		<rect x="-647" y="251.183" fill="#FFFFFF" stroke="#637939" stroke-width="3" width="24" height="24"/>
		<text transform="matrix(-1 0 0 1 -629 269.1832)" font-family="'ArialMT'" font-size="12">60</text>
	</g>
	<g transform="translate(233,642.5454545454545)">
		<rect x="-617" y="251.184" fill="#FFFFFF" stroke="#9C9EDE" stroke-width="3" width="24" height="24"/>
		<text transform="matrix(-1 0 0 1 -599 269.1836)" font-family="'ArialMT'" font-size="12">24</text>
	</g>
	<g transform="translate(223,697.090909090909)">
		<rect x="-597" y="251.183" fill="#FFFFFF" stroke="#000000" stroke-width="3" width="24" height="24"/>
		<text transform="matrix(-1 0 0 1 -579 269.1831)" font-family="'ArialMT'" font-size="12">26</text>
	</g>
	<g transform="translate(213,724.3636363636363)">
		<rect x="-577" y="251.183" fill="#FFFFFF" stroke="#000000" stroke-width="3" width="24" height="24"/>
		<text transform="matrix(-1 0 0 1 -559 269.1827)" font-family="'ArialMT'" font-size="12">27</text>
	</g>
	<g transform="translate(193,806.1818181818182)">
		<rect x="-537" y="251.183" stroke="#000000" stroke-width="3" width="24" height="24"/>
		<text transform="matrix(-1 0 0 1 -519 269.1829)" fill="#FFFFFF" font-family="'ArialMT'" font-size="12">30</text>
	</g>
	<g transform="translate(173,369.81818181818176)">
		<rect x="-497" y="251.183" fill="#FFFFFF" stroke="#AD494A" stroke-width="3" width="24" height="24"/>
		<text transform="matrix(-1 0 0 1 -479 269.1833)" font-family="'ArialMT'" font-size="12">14</text>
	</g>
	<g transform="translate(168,478.90909090909093)">
		<rect x="-487" y="251.183" fill="#FFFFFF" stroke="#A55194" stroke-width="3" width="24" height="24"/>
		<text transform="matrix(-1 0 0 1 -469 269.1832)" font-family="'ArialMT'" font-size="12">18</text>
	</g>
	<g transform="translate(168,1133.4545454545453)">
		<rect x="-487" y="251.184" fill="#FFFFFF" stroke="#843C39" stroke-width="3" width="24" height="24"/>
		<text transform="matrix(-1 0 0 1 -469 269.1836)" font-family="'ArialMT'" font-size="12">42</text>
	</g>
	<g transform="translate(163,942.5454545454545)">
		<rect x="-477" y="251.184" fill="#FFFFFF" stroke="#000000" stroke-width="3" width="24" height="24"/>
		<text transform="matrix(-1 0 0 1 -459 269.1835)" font-family="'ArialMT'" font-size="12">35</text>
	</g>
	<g transform="translate(138,560.7272727272726)">
		<rect x="-427" y="251.183" stroke="#000000" stroke-width="3" width="24" height="24"/>
		<text transform="matrix(-1 0 0 1 -409 269.1833)" fill="#FFFFFF" font-family="'ArialMT'" font-size="12">21</text>
	</g>
	<g transform="translate(123,1542.5454545454545)">
		<rect x="-397" y="251.183" fill="#FFFFFF" stroke="#000000" stroke-width="3" width="24" height="24"/>
		<text transform="matrix(-1 0 0 1 -379 269.1831)" font-family="'ArialMT'" font-size="12">57</text>
	</g>
	<g transform="translate(118,997.090909090909)">
		<rect x="-387" y="251.183" stroke="#000000" stroke-width="3" width="24" height="24"/>
		<text transform="matrix(-1 0 0 1 -369 269.183)" fill="#FFFFFF" font-family="'ArialMT'" font-size="12">37</text>
	</g>
	<g transform="translate(108,124.36363636363635)">
		<rect x="-367" y="251.183" stroke="#000000" stroke-width="3" width="24" height="24"/>
		<text transform="matrix(-1 0 0 1 -349 269.1827)" fill="#FFFFFF" font-family="'ArialMT'" font-size="12">5</text>
	</g>
	<g transform="translate(108,1569.8181818181818)">
		<rect x="-367" y="251.184" fill="#FFFFFF" stroke="#000000" stroke-width="3" width="24" height="24"/>
		<text transform="matrix(-1 0 0 1 -349 269.1837)" font-family="'ArialMT'" font-size="12">58</text>
	</g>
	<g transform="translate(103,42.54545454545455)">
		<rect x="-357" y="251.183" fill="#FFFFFF" stroke="#6B6ECF" stroke-width="3" width="24" height="24"/>
		<text transform="matrix(-1 0 0 1 -339 269.1836)" font-family="'ArialMT'" font-size="12">2</text>
	</g>
	<g transform="translate(83,1078.9090909090908)">
		<rect x="-317" y="251.183" stroke="#000000" stroke-width="3" width="24" height="24"/>
		<text transform="matrix(-1 0 0 1 -299 269.1832)" fill="#FFFFFF" font-family="'ArialMT'" font-size="12">40</text>
	</g>
	<g transform="translate(58,1597.090909090909)">
		<rect x="-267" y="251.182" stroke="#000000" stroke-width="3" width="24" height="24"/>
		<text transform="matrix(-1 0 0 1 -249 269.1825)" fill="#FFFFFF" font-family="'ArialMT'" font-size="12">59</text>
	</g>
	<g transform="translate(53,424.3636363636364)">
		<rect x="-257" y="251.183" stroke="#000000" stroke-width="3" width="24" height="24"/>
		<text transform="matrix(-1 0 0 1 -239 269.1827)" fill="#FFFFFF" font-family="'ArialMT'" font-size="12">16</text>
	</g>
	<g transform="translate(48,288)">
		<rect x="-247" y="251.183" stroke="#000000" stroke-width="3" width="24" height="24"/>
		<text transform="matrix(-1 0 0 1 -229 269.1831)" fill="#FFFFFF" font-family="'ArialMT'" font-size="12">11</text>
	</g>
	<g transform="translate(43,451.63636363636357)">
		<rect x="-237" y="251.183" fill="#FFFFFF" stroke="#000000" stroke-width="3" width="24" height="24"/>
		<text transform="matrix(-1 0 0 1 -219 269.1835)" font-family="'ArialMT'" font-size="12">17</text>
	</g>
	<g transform="translate(33,315.27272727272725)">
		<rect x="-217" y="251.183" fill="#FFFFFF" stroke="#000000" stroke-width="3" width="24" height="24"/>
		<text transform="matrix(-1 0 0 1 -199 269.1829)" font-family="'ArialMT'" font-size="12">12</text>
	</g>
	<g transform="translate(23,342.5454545454545)">
		<rect x="-197" y="251.183" fill="#FFFFFF" stroke="#000000" stroke-width="3" width="24" height="24"/>
		<text transform="matrix(-1 0 0 1 -179 269.1836)" font-family="'ArialMT'" font-size="12">13</text>
	</g>
	<g transform="translate(13,42.54545454545455)">
		<rect x="-177" y="251.183" stroke="#000000" stroke-width="3" width="24" height="24"/>
		<text transform="matrix(-1 0 0 1 -159 269.1836)" fill="#FFFFFF" font-family="'ArialMT'" font-size="12">2</text>
	</g>
	<g transform="translate(3,69.81818181818181)">
		<rect x="-157" y="251.183" fill="#FFFFFF" stroke="#000000" stroke-width="3" width="24" height="24"/>
		<text transform="matrix(-1 0 0 1 -139 269.1832)" font-family="'ArialMT'" font-size="12">3</text>
	</g>
	<g transform="translate(-12,97.0909090909091)">
		<rect x="-127" y="251.183" fill="#FFFFFF" stroke="#000000" stroke-width="3" width="24" height="24"/>
		<text transform="matrix(-1 0 0 1 -109 269.183)" font-family="'ArialMT'" font-size="12">4</text>
	</g>
	<g transform="translate(796,1739.4545454545455)">
		<circle fill="#FFFFFF" stroke="#393B79" stroke-width="3" cx="-1719" cy="251.184" r="12"/>
		<text transform="matrix(-1 0 0 1 -1713 257.1831)" font-family="'ArialMT'" font-size="12">64</text>
	</g>
	<g transform="translate(641,1221.2727272727273)">
		<circle fill="#FFFFFF" stroke="#9C9EDE" stroke-width="3" cx="-1409" cy="251.183" r="12"/>
		<text transform="matrix(-1 0 0 1 -1403 257.1824)" font-family="'ArialMT'" font-size="12">45</text>
	</g>
	<g transform="translate(616,1712.181818181818)">
		<circle fill="#FFFFFF" stroke="#CEDB9C" stroke-width="3" cx="-1359" cy="251.183" r="12"/>
		<text transform="matrix(-1 0 0 1 -1353 257.1835)" font-family="'ArialMT'" font-size="12">63</text>
	</g>
	<g transform="translate(596,1493.9999999999998)">
		<circle fill="#FFFFFF" stroke="#8CA252" stroke-width="3" cx="-1319" cy="251.184" r="12"/>
		<text transform="matrix(-1 0 0 1 -1313 257.1836)" font-family="'ArialMT'" font-size="12">55</text>
	</g>
	<g transform="translate(541,212.1818181818182)">
		<circle fill="#FFFFFF" stroke="#E7BA52" stroke-width="3" cx="-1209" cy="251.183" r="12"/>
		<text transform="matrix(-1 0 0 1 -1203 257.1829)" font-family="'ArialMT'" font-size="12">8</text>
	</g>
	<g transform="translate(501,539.4545454545454)">
		<circle fill="#FFFFFF" stroke="#D6616B" stroke-width="3" cx="-1129" cy="251.183" r="12"/>
		<text transform="matrix(-1 0 0 1 -1123 257.1826)" font-family="'ArialMT'" font-size="12">20</text>
	</g>
	<g transform="translate(486,1057.6363636363635)">
		<circle fill="#FFFFFF" stroke="#843C39" stroke-width="3" cx="-1099" cy="251.183" r="12"/>
		<text transform="matrix(-1 0 0 1 -1093 257.1835)" font-family="'ArialMT'" font-size="12">39</text>
	</g>
	<g transform="translate(481,1684.9090909090908)">
		<circle fill="#FFFFFF" stroke="#AD494A" stroke-width="3" cx="-1089" cy="251.183" r="12"/>
		<text transform="matrix(-1 0 0 1 -1083 257.1827)" font-family="'ArialMT'" font-size="12">62</text>
	</g>
	<g transform="translate(481,1466.7272727272725)">
		<circle fill="#FFFFFF" stroke="#E7CB94" stroke-width="3" cx="-1089" cy="251.183" r="12"/>
		<text transform="matrix(-1 0 0 1 -1083 257.1829)" font-family="'ArialMT'" font-size="12">54</text>
	</g>
	<g transform="translate(451,1357.6363636363635)">
		<circle fill="#FFFFFF" stroke="#7B4173" stroke-width="3" cx="-1029" cy="251.184" r="12"/>
		<text transform="matrix(-1 0 0 1 -1023 257.183)" font-family="'ArialMT'" font-size="12">50</text>
	</g>
	<g transform="translate(451,1194)">
		<circle fill="#FFFFFF" stroke="#A55194" stroke-width="3" cx="-1029" cy="251.183" r="12"/>
		<text transform="matrix(-1 0 0 1 -1023 257.1831)" font-family="'ArialMT'" font-size="12">44</text>
	</g>
	<g transform="translate(396,184.90909090909088)">
		<circle fill="#FFFFFF" stroke="#B5CF6B" stroke-width="3" cx="-919" cy="251.183" r="12"/>
		<text transform="matrix(-1 0 0 1 -913 257.1832)" font-family="'ArialMT'" font-size="12">7</text>
	</g>
	<g transform="translate(391,1439.4545454545455)">
		<circle fill="#FFFFFF" stroke="#DE9ED6" stroke-width="3" cx="-909" cy="251.184" r="12"/>
		<text transform="matrix(-1 0 0 1 -903 257.1831)" font-family="'ArialMT'" font-size="12">53</text>
	</g>
	<g transform="translate(386,675.8181818181818)">
		<circle fill="#FFFFFF" stroke="#637939" stroke-width="3" cx="-899" cy="251.183" r="12"/>
		<text transform="matrix(-1 0 0 1 -893 257.1833)" font-family="'ArialMT'" font-size="12">25</text>
	</g>
	<g transform="translate(386,1657.6363636363635)">
		<circle fill="#FFFFFF" stroke="#9C9EDE" stroke-width="3" cx="-899" cy="251.184" r="12"/>
		<text transform="matrix(-1 0 0 1 -893 257.183)" font-family="'ArialMT'" font-size="12">61</text>
	</g>
	<g transform="translate(376,512.1818181818181)">
		<circle fill="#FFFFFF" stroke="#5254A3" stroke-width="3" cx="-879" cy="251.183" r="12"/>
		<text transform="matrix(-1 0 0 1 -873 257.1829)" font-family="'ArialMT'" font-size="12">19</text>
	</g>
	<g transform="translate(356,894)">
		<circle fill="#FFFFFF" stroke="#8CA252" stroke-width="3" cx="-839" cy="251.183" r="12"/>
		<text transform="matrix(-1 0 0 1 -833 257.1831)" font-family="'ArialMT'" font-size="12">33</text>
	</g>
	<g transform="translate(346,1330.3636363636363)">
		<circle fill="#FFFFFF" stroke="#A55194" stroke-width="3" cx="-819" cy="251.183" r="12"/>
		<text transform="matrix(-1 0 0 1 -813 257.1832)" font-family="'ArialMT'" font-size="12">49</text>
	</g>
	<g transform="translate(336,1166.7272727272727)">
		<circle fill="#FFFFFF" stroke="#E7969C" stroke-width="3" cx="-799" cy="251.183" r="12"/>
		<text transform="matrix(-1 0 0 1 -793 257.1833)" font-family="'ArialMT'" font-size="12">43</text>
	</g>
	<g transform="translate(280,1390.9090909090908)">
		<circle fill="#FFFFFF" stroke="#000000" stroke-width="3" cx="-687" cy="251.183" r="12"/>
		<text transform="matrix(-1 0 0 1 -681 257.1827)" font-family="'ArialMT'" font-size="12">51</text>
	</g>
	<g transform="translate(286,1030.3636363636363)">
		<circle fill="#FFFFFF" stroke="#7B4173" stroke-width="3" cx="-699" cy="251.183" r="12"/>
		<text transform="matrix(-1 0 0 1 -693 257.1827)" font-family="'ArialMT'" font-size="12">38</text>
	</g>
	<g transform="translate(276,403.0909090909091)">
		<circle fill="#FFFFFF" stroke="#DE9ED6" stroke-width="3" cx="-679" cy="251.183" r="12"/>
		<text transform="matrix(-1 0 0 1 -673 257.183)" font-family="'ArialMT'" font-size="12">15</text>
	</g>
	<g transform="translate(265,1418.181818181818)">
		<circle stroke="#000000" stroke-width="3" cx="-657" cy="251.183" r="12"/>
		<text transform="matrix(-1 0 0 1 -651 257.1835)" fill="#FFFFFF" font-family="'ArialMT'" font-size="12">52</text>
	</g>
	<g transform="translate(251,1630.3636363636365)">
		<circle fill="#FFFFFF" stroke="#637939" stroke-width="3" cx="-629" cy="251.183" r="12"/>
		<text transform="matrix(-1 0 0 1 -623 257.1832)" font-family="'ArialMT'" font-size="12">60</text>
	</g>
	<g transform="translate(246,648.5454545454545)">
		<circle fill="#FFFFFF" stroke="#9C9EDE" stroke-width="3" cx="-619" cy="251.184" r="12"/>
		<text transform="matrix(-1 0 0 1 -613 257.1836)" font-family="'ArialMT'" font-size="12">24</text>
	</g>
	<g transform="translate(236,157.63636363636363)">
		<circle fill="#FFFFFF" stroke="#E7CB94" stroke-width="3" cx="-599" cy="251.183" r="12"/>
		<text transform="matrix(-1 0 0 1 -593 257.1835)" font-family="'ArialMT'" font-size="12">6</text>
	</g>
	<g transform="translate(220,763.6363636363635)">
		<circle fill="#FFFFFF" stroke="#000000" stroke-width="3" cx="-567" cy="251.183" r="12"/>
		<text transform="matrix(-1 0 0 1 -561 257.1835)" font-family="'ArialMT'" font-size="12">28</text>
	</g>
	<g transform="translate(210,790.9090909090909)">
		<circle fill="#FFFFFF" stroke="#000000" stroke-width="3" cx="-547" cy="251.183" r="12"/>
		<text transform="matrix(-1 0 0 1 -541 257.1831)" font-family="'ArialMT'" font-size="12">29</text>
	</g>
	<g transform="translate(195,845.4545454545454)">
		<circle fill="#FFFFFF" stroke="#000000" stroke-width="3" cx="-517" cy="251.183" r="12"/>
		<text transform="matrix(-1 0 0 1 -511 257.1826)" font-family="'ArialMT'" font-size="12">31</text>
	</g>
	<g transform="translate(191,1139.4545454545453)">
		<circle fill="#FFFFFF" stroke="#843C39" stroke-width="3" cx="-509" cy="251.184" r="12"/>
		<text transform="matrix(-1 0 0 1 -503 257.1836)" font-family="'ArialMT'" font-size="12">42</text>
	</g>
	<g transform="translate(185,927.2727272727271)">
		<circle fill="#FFFFFF" stroke="#000000" stroke-width="3" cx="-497" cy="251.183" r="12"/>
		<text transform="matrix(-1 0 0 1 -491 257.1829)" font-family="'ArialMT'" font-size="12">34</text>
	</g>
	<g transform="translate(185,1281.8181818181818)">
		<circle stroke="#000000" stroke-width="3" cx="-497" cy="251.184" r="12"/>
		<text transform="matrix(-1 0 0 1 -491 257.1837)" fill="#FFFFFF" font-family="'ArialMT'" font-size="12">47</text>
	</g>
	<g transform="translate(185,872.7272727272727)">
		<circle fill="#FFFFFF" stroke="#000000" stroke-width="3" cx="-497" cy="251.183" r="12"/>
		<text transform="matrix(-1 0 0 1 -491 257.1833)" font-family="'ArialMT'" font-size="12">32</text>
	</g>
	<g transform="translate(186,375.81818181818176)">
		<circle fill="#FFFFFF" stroke="#AD494A" stroke-width="3" cx="-499" cy="251.183" r="12"/>
		<text transform="matrix(-1 0 0 1 -493 257.1833)" font-family="'ArialMT'" font-size="12">14</text>
	</g>
	<g transform="translate(165,981.8181818181819)">
		<circle fill="#FFFFFF" stroke="#000000" stroke-width="3" cx="-457" cy="251.183" r="12"/>
		<text transform="matrix(-1 0 0 1 -451 257.1833)" font-family="'ArialMT'" font-size="12">36</text>
	</g>
	<g transform="translate(171,484.90909090909093)">
		<circle fill="#FFFFFF" stroke="#A55194" stroke-width="3" cx="-469" cy="251.183" r="12"/>
		<text transform="matrix(-1 0 0 1 -463 257.1832)" font-family="'ArialMT'" font-size="12">18</text>
	</g>
	<g transform="translate(145,1527.272727272727)">
		<circle fill="#FFFFFF" stroke="#000000" stroke-width="3" cx="-417" cy="251.182" r="12"/>
		<text transform="matrix(-1 0 0 1 -411 257.1824)" font-family="'ArialMT'" font-size="12">56</text>
	</g>
	<g transform="translate(140,600)">
		<circle fill="#FFFFFF" stroke="#000000" stroke-width="3" cx="-407" cy="251.183" r="12"/>
		<text transform="matrix(-1 0 0 1 -401 257.1831)" font-family="'ArialMT'" font-size="12">22</text>
	</g>
	<g transform="translate(135,1309.090909090909)">
		<circle fill="#FFFFFF" stroke="#000000" stroke-width="3" cx="-397" cy="251.182" r="12"/>
		<text transform="matrix(-1 0 0 1 -391 257.1825)" font-family="'ArialMT'" font-size="12">48</text>
	</g>
	<g transform="translate(120,627.2727272727273)">
		<circle fill="#FFFFFF" stroke="#000000" stroke-width="3" cx="-367" cy="251.183" r="12"/>
		<text transform="matrix(-1 0 0 1 -361 257.1829)" font-family="'ArialMT'" font-size="12">23</text>
	</g>
	<g transform="translate(121,130.36363636363635)">
		<circle fill="#FFFFFF" stroke="#6B6ECF" stroke-width="3" cx="-369" cy="251.183" r="12"/>
		<text transform="matrix(-1 0 0 1 -363 257.1827)" font-family="'ArialMT'" font-size="12">5</text>
	</g>
	<g transform="translate(80,245.45454545454547)">
		<circle fill="#FFFFFF" stroke="#000000" stroke-width="3" cx="-287" cy="251.183" r="12"/>
		<text transform="matrix(-1 0 0 1 -281 257.1826)" font-family="'ArialMT'" font-size="12">9</text>
	</g>
	<g transform="translate(75,272.7272727272727)">
		<circle fill="#FFFFFF" stroke="#000000" stroke-width="3" cx="-277" cy="251.183" r="12"/>
		<text transform="matrix(-1 0 0 1 -271 257.1833)" font-family="'ArialMT'" font-size="12">10</text>
	</g>
	<g transform="translate(70,1118.1818181818182)">
		<circle fill="#FFFFFF" stroke="#000000" stroke-width="3" cx="-267" cy="251.183" r="12"/>
		<text transform="matrix(-1 0 0 1 -261 257.183)" font-family="'ArialMT'" font-size="12">41</text>
	</g>
	<g transform="translate(30,27.272727272727273)">
		<circle fill="#FFFFFF" stroke="#000000" stroke-width="3" cx="-187" cy="251.183" r="12"/>
		<text transform="matrix(-1 0 0 1 -181 257.1829)" font-family="'ArialMT'" font-size="12">1</text>
	</g>
</g>
<g transform="translate(170,32)">
	<path fill="none" stroke="#393B79" stroke-width="3" d="M577,317.729h-4.252c-4.254,0-12.758,0-17.011,13.637
		c-4.253,13.636-4.253,40.909-16.667,54.545s-37.242,13.636-49.656,13.636H477"/>
	<path fill="none" stroke="#5254A3" stroke-width="3" d="M577,454.092h-4.252c-4.254,0-12.758,0-17.011,13.636
		c-4.253,13.637-4.253,40.909-16.667,54.546c-12.414,13.636-37.242,13.636-49.656,13.636H477"/>
	<path fill="none" stroke="#5254A3" stroke-width="3" d="M577,481.365h-4.166c-4.168,0-12.5,0-16.668,9.091
		C552,499.547,552,517.729,539.5,526.82c-12.5,9.091-37.5,9.091-50,9.091H477"/>
	<path fill="none" stroke="#5254A3" stroke-width="3" d="M577,508.638h-4.08c-4.082,0-12.243,0-16.324,4.546
		c-4.08,4.545-4.08,13.636-16.666,18.182s-37.758,4.545-50.344,4.545H477"/>
	<path fill="none" stroke="#637939" stroke-width="3" d="M577,672.274h-4.424c-4.425,0-13.273,0-17.698,22.728
		c-4.425,22.727-4.425,68.182-16.667,90.908c-12.242,22.728-36.727,22.728-48.969,22.728H477"/>
	<path fill="none" stroke="#637939" stroke-width="3" d="M577,699.547h-4.338c-4.339,0-13.016,0-17.354,18.182
		s-4.339,54.546-16.667,72.728s-36.984,18.182-49.312,18.182H477"/>
	<path fill="none" stroke="#B5CF6B" stroke-width="3" d="M577,863.184h-4.166c-4.168,0-12.5,0-16.668,9.091
		C552,881.365,552,899.547,539.5,908.638s-37.5,9.091-50,9.091H477"/>
	<path fill="none" stroke="#637939" stroke-width="3" d="M577,726.819h-4.252c-4.254,0-12.758,0-17.011,13.637
		s-4.253,40.909-16.667,54.546c-12.414,13.636-37.242,13.636-49.656,13.636H477"/>
	<path fill="none" stroke="#B5CF6B" stroke-width="3" d="M577,890.456h-4.08c-4.082,0-12.243,0-16.324,4.546
		c-4.08,4.545-4.08,13.636-16.666,18.182c-12.586,4.545-37.758,4.545-50.344,4.545H477"/>
	<path fill="none" stroke="#BD9E39" stroke-width="3" d="M577,999.547h-4.166c-4.168,0-12.5,0-16.668,9.091
		c-4.166,9.091-4.166,27.272-16.666,36.364c-12.5,9.091-37.5,9.091-50,9.091H477"/>
	<path fill="none" stroke="#E7BA52" stroke-width="3" d="M577,1190.456h-4.338c-4.339,0-13.016,0-17.354,18.182
		s-4.339,54.546-16.667,72.728s-36.984,18.182-49.312,18.182H477"/>
	<path fill="none" stroke="#637939" stroke-width="3" d="M577,754.093h-4.166c-4.168,0-12.5,0-16.668,9.091
		C552,772.274,552,790.456,539.5,799.547s-37.5,9.091-50,9.091H477"/>
	<path fill="none" stroke="#637939" stroke-width="3" d="M577,781.365h-4.08c-4.082,0-12.243,0-16.324,4.545
		c-4.08,4.546-4.08,13.637-16.666,18.183c-12.586,4.545-37.758,4.545-50.344,4.545H477"/>
	<path fill="none" stroke="#BD9E39" stroke-width="3" d="M577,1026.819h-4.08c-4.082,0-12.243,0-16.324,4.546
		c-4.08,4.545-4.08,13.637-16.666,18.182c-12.586,4.546-37.758,4.546-50.344,4.546H477"/>
	<path fill="none" stroke="#E7BA52" stroke-width="3" d="M577,1217.729h-4.252c-4.254,0-12.758,0-17.011,13.637
		s-4.253,40.909-16.667,54.545c-12.414,13.637-37.242,13.637-49.656,13.637H477"/>
	<path fill="none" stroke="#5254A3" stroke-width="3" d="M577,535.911h-3.994c-3.996,0-11.985,0-15.98,0c-3.994,0-3.994,0-16.666,0
		s-38.016,0-50.688,0H477"/>
	<path fill="none" stroke="#7B4173" stroke-width="3" d="M577,1435.912h-4.338c-4.339,0-13.016,0-17.354,18.182
		s-4.339,54.545-16.667,72.727s-36.984,18.182-49.312,18.182H477"/>
	<path fill="none" stroke="#E7BA52" stroke-width="3" d="M577,1245.002h-4.166c-4.168,0-12.5,0-16.668,9.091
		c-4.166,9.091-4.166,27.272-16.666,36.363s-37.5,9.091-50,9.091H477"/>
	<path fill="none" stroke="#CE6DBD" stroke-width="3" d="M577,1626.82h-4.166c-4.168,0-12.5,0-16.668,9.092
		c-4.166,9.09-4.166,27.271-16.666,36.363c-12.5,9.09-37.5,9.09-50,9.09H477"/>
	<path fill="none" stroke="#393B79" stroke-width="3" d="M577,345.001h-4.166c-4.168,0-12.5,0-16.668,9.091
		C552,363.184,552,381.365,539.5,390.456s-37.5,9.091-50,9.091H477"/>
	<path fill="none" stroke="#E7BA52" stroke-width="3" d="M577,1272.274h-4.08c-4.082,0-12.243,0-16.324,4.545
		c-4.08,4.546-4.08,13.637-16.666,18.183c-12.586,4.545-37.758,4.545-50.344,4.545H477"/>
	<path fill="none" stroke="#393B79" stroke-width="3" d="M577,372.274h-4.08c-4.082,0-12.243,0-16.324,4.545
		c-4.08,4.545-4.08,13.636-16.666,18.182s-37.758,4.545-50.344,4.545H477"/>
	<path fill="none" stroke="#7B4173" stroke-width="3" d="M577,1463.183h-4.252c-4.254,0-12.758,0-17.011,13.637
		c-4.253,13.637-4.253,40.908-16.667,54.545s-37.242,13.637-49.656,13.637H477"/>
	<path fill="none" stroke="#7B4173" stroke-width="3" d="M577,1490.457h-4.166c-4.168,0-12.5,0-16.668,9.09
		c-4.166,9.092-4.166,27.273-16.666,36.365c-12.5,9.09-37.5,9.09-50,9.09H477"/>
	<path fill="none" stroke="#CE6DBD" stroke-width="3" d="M577,1654.094h-4.08c-4.082,0-12.243,0-16.324,4.545
		c-4.08,4.545-4.08,13.637-16.666,18.182s-37.758,4.545-50.344,4.545H477"/>
	<path fill="none" stroke="#7B4173" stroke-width="3" d="M577,1517.729h-4.08c-4.082,0-12.243,0-16.324,4.547
		c-4.08,4.545-4.08,13.637-16.666,18.182s-37.758,4.545-50.344,4.545H477"/>
	<path fill="none" stroke="#B5CF6B" stroke-width="3" d="M577,1845.002h-4.166c-4.168,0-12.5,0-16.668,9.092
		c-4.166,9.09-4.166,27.271-16.666,36.363c-12.5,9.09-37.5,9.09-50,9.09H477"/>
	<path fill="none" stroke="#B5CF6B" stroke-width="3" d="M577,1872.275h-4.08c-4.082,0-12.243,0-16.324,4.545
		c-4.08,4.545-4.08,13.637-16.666,18.182s-37.758,4.545-50.344,4.545H477"/>
	<path fill="none" stroke="#8C6D31" stroke-width="3" d="M527,1981.365h-3.136c-3.136,0-9.407,0-12.543-45.453
		c-3.136-45.455-3.136-136.365-16.667-181.818c-13.531-45.455-40.592-45.455-54.123-45.455H427"/>
	<path fill="none" stroke="#8C6D31" stroke-width="3" d="M527,2008.639h-3.05c-3.05,0-9.149,0-12.199-50s-3.05-150-16.667-200
		s-40.85-50-54.467-50H427"/>
	<path fill="none" stroke="#8C6D31" stroke-width="3" d="M527,2035.912h-2.964c-2.964,0-8.892,0-11.855-54.547
		c-2.964-54.545-2.964-163.637-16.667-218.182s-41.108-54.545-54.811-54.545H427"/>
	<path fill="none" stroke="#E7969C" stroke-width="3" d="M477,535.911h-4.08c-4.082,0-12.243,0-16.324,4.545
		c-4.08,4.545-4.08,13.636-16.666,18.182s-37.758,4.545-50.344,4.545H377"/>
	<path fill="none" stroke="#E7CB94" stroke-width="3" d="M477,1054.093h-4.08c-4.082,0-12.243,0-16.324,4.545
		c-4.08,4.546-4.08,13.637-16.666,18.182c-12.586,4.546-37.758,4.546-50.344,4.546H377"/>
	<path fill="none" stroke="#843C39" stroke-width="3" d="M477,917.729h-8.162c-8.161,0-24.484,0-32.646,4.546
		c-8.161,4.545-8.161,13.636-33.333,18.182s-75.516,4.546-100.688,4.546H277"/>
	<path fill="none" stroke="#AD494A" stroke-width="3" d="M477,1899.547h-3.823c-3.823,0-11.469,0-15.292-9.09
		c-3.822-9.092-3.822-27.273-16.666-36.363c-12.844-9.092-38.531-9.092-51.375-9.092H377"/>
	<path fill="none" stroke="#D6616B" stroke-width="3" d="M477,1681.365h-4.166c-4.168,0-12.5,0-16.668,9.092
		c-4.166,9.09-4.166,27.271-16.666,36.363s-37.5,9.092-50,9.092H377"/>
	<path fill="none" stroke="#E7969C" stroke-width="3" d="M477,808.638h-4.08c-4.082,0-12.243,0-16.324,4.546
		c-4.08,4.545-4.08,13.636-16.666,18.182c-12.586,4.545-37.758,4.545-50.344,4.545H377"/>
	<path fill="none" stroke="#7B4173" stroke-width="3" d="M477,1545.002h-5.412c-5.412,0-16.237,0-21.65-68.182
		c-5.412-68.183-5.412-204.546-33.333-272.728c-27.921-68.183-83.763-68.183-111.684-68.183H277"/>
	<path fill="none" stroke="#A55194" stroke-width="3" d="M477,399.547h-4.08c-4.082,0-12.243,0-16.324,4.545
		c-4.08,4.545-4.08,13.636-16.666,18.182c-12.586,4.545-37.758,4.545-50.344,4.545H377"/>
	<path fill="none" stroke="#CE6DBD" stroke-width="3" d="M477,1299.547h-4.08c-4.082,0-12.243,0-16.324,4.546
		c-4.08,4.545-4.08,13.636-16.666,18.182c-12.586,4.545-37.758,4.545-50.344,4.545H377"/>
	<path fill="none" stroke="#DE9ED6" stroke-width="3" d="M427,2090.457h-3.479c-3.479,0-10.438,0-13.917-27.273
		c-3.479-27.271-3.479-81.818-16.667-109.09c-13.188-27.273-39.562-27.273-52.749-27.273H327"/>
	<path fill="none" stroke="#DE9ED6" stroke-width="3" d="M427,2117.729h-3.394c-3.394,0-10.181,0-13.574-31.816
		c-3.394-31.818-3.394-95.455-16.666-127.273c-13.273-31.818-39.819-31.818-53.093-31.818H327"/>
	<path fill="none" stroke="#DE9ED6" stroke-width="3" d="M427,2145.002h-3.308c-3.308,0-9.923,0-13.23-36.363
		s-3.308-109.092-16.666-145.455c-13.359-36.363-40.078-36.363-53.437-36.363H327"/>
	<path fill="none" stroke="#D6616B" stroke-width="3" d="M427,1708.639h-2.04c-2.041,0-6.121,0-8.162,4.545
		c-2.04,4.545-2.04,13.637-8.333,18.182c-6.293,4.547-18.879,4.547-25.172,4.547H377"/>
	<path fill="none" stroke="#DE9ED6" stroke-width="3" d="M427,2172.275h-3.222c-3.222,0-9.665,0-12.887-40.91
		c-3.222-40.908-3.222-122.727-16.667-163.637c-13.444-40.908-40.335-40.908-53.779-40.908H327"/>
	<path fill="none" stroke="#DE9ED6" stroke-width="3" d="M427,2199.547h-3.136c-3.136,0-9.407,0-12.543-45.453
		c-3.136-45.455-3.136-136.365-16.667-181.818c-13.53-45.455-40.593-45.455-54.123-45.455H327"/>
	<path fill="none" stroke="#DE9ED6" stroke-width="3" d="M427,2226.82h-3.05c-3.05,0-9.149,0-12.199-50s-3.05-150-16.667-200
		c-13.616-50-40.851-50-54.467-50H327"/>
	<path fill="none" stroke="#DE9ED6" stroke-width="3" d="M427,2254.094h-2.964c-2.964,0-8.892,0-11.855-54.547
		c-2.964-54.545-2.964-163.635-16.667-218.182c-13.703-54.545-41.108-54.545-54.811-54.545H327"/>
	<path fill="none" stroke="#CEDB9C" stroke-width="3" d="M377,1735.912h-4.167c-4.166,0-12.5,0-16.666,9.09
		c-4.167,9.092-4.167,27.273-16.667,36.363c-12.5,9.092-37.5,9.092-50,9.092H277"/>
	<path fill="none" stroke="#843C39" stroke-width="3" d="M377,835.91h-4.339c-4.338,0-13.015,0-17.354,18.183
		c-4.339,18.182-4.339,54.545-16.667,72.727c-12.328,18.183-36.984,18.183-49.312,18.183H277"/>
	<path fill="none" stroke="#7B4173" stroke-width="3" d="M377,426.82h-6.229c-6.229,0-18.686,0-24.914,118.182
		c-6.229,118.182-6.229,354.545-16.667,472.727c-10.438,118.182-31.314,118.182-41.752,118.182H277"/>
	<path fill="none" stroke="#E7BA52" stroke-width="3" d="M377,1326.819h-4.081c-4.08,0-12.242,0-16.322,4.546
		c-4.081,4.546-4.081,13.636-16.667,18.182s-37.758,4.546-50.344,4.546H277"/>
	<path fill="none" stroke="#E7CB94" stroke-width="3" d="M377,563.183h-4.081c-4.08,0-12.242,0-16.322,4.546
		c-4.081,4.545-4.081,13.636-16.667,18.182s-37.758,4.545-50.344,4.545H277"/>
	<path fill="none" stroke="#843C39" stroke-width="3" d="M377,1081.365h-4.081c-4.08,0-12.242,0-16.322,4.545
		c-4.081,4.546-4.081,13.637-16.667,18.183c-12.586,4.545-37.758,4.545-50.344,4.545H277"/>
	<path fill="none" stroke="#CEDB9C" stroke-width="3" d="M377,1845.002h-3.823c-3.823,0-11.469,0-15.292-9.09
		c-3.823-9.092-3.823-27.273-16.667-36.365c-12.843-9.09-38.53-9.09-51.374-9.09H277"/>
	<path fill="none" stroke="#7B4173" stroke-width="3" d="M327,1926.82h-0.752c-0.752,0-2.255,0-3.007-131.818
		s-0.752-395.455-8.333-527.273c-7.582-131.818-22.745-131.818-30.326-131.818H277"/>
	<path fill="none" stroke="#E7969C" stroke-width="3" d="M277,1108.638h-8.333c-8.334,0-25,0-33.334,9.091
		C227,1126.819,227,1145.002,202,1154.093s-75,9.091-100,9.091H77"/>
	<path fill="none" stroke="#7B4173" stroke-width="3" d="M277,945.002h-4.081c-4.08,0-12.242,0-16.322,4.545
		c-4.081,4.546-4.081,13.637-16.667,18.182c-12.586,4.546-37.758,4.546-50.344,4.546H177"/>
	<path fill="none" stroke="#E7969C" stroke-width="3" d="M277,1135.91h-8.161c-8.162,0-24.485,0-32.646,4.546
		s-8.161,13.637-33.333,18.182c-25.172,4.546-75.516,4.546-100.688,4.546H77"/>
	<path fill="none" stroke="#CE6DBD" stroke-width="3" d="M277,1354.093h-4.081c-4.08,0-12.242,0-16.322,4.545
		c-4.081,4.546-4.081,13.637-16.667,18.182c-12.586,4.546-37.758,4.546-50.344,4.546H177"/>
	<path fill="none" stroke="#DE9ED6" stroke-width="3" d="M277,590.456h-4.081c-4.08,0-12.242,0-16.322,4.545
		c-4.081,4.545-4.081,13.636-16.667,18.182c-12.586,4.546-37.758,4.546-50.344,4.546H177"/>
	<path fill="none" stroke="#393B79" stroke-width="3" d="M277,1790.457h-12.242c-12.242,0-36.727,0-48.969,4.545
		s-12.242,13.637-50,18.182s-113.273,4.545-151.031,4.545H-23"/>
	<path fill="none" stroke="#E7969C" stroke-width="3" d="M177,617.729h-5.713c-5.713,0-17.14,0-22.853,90.909
		c-5.713,90.909-5.713,272.728-16.667,363.637c-10.953,90.909-32.86,90.909-43.814,90.909H77"/>
	<path fill="none" stroke="#E7969C" stroke-width="3" d="M177,972.274h-4.596c-4.597,0-13.789,0-18.386,31.818
		c-4.596,31.817-4.596,95.454-16.666,127.272s-36.212,31.818-48.282,31.818H77"/>
	<path fill="none" stroke="#393B79" stroke-width="3" d="M177,1381.365h-10.739c-10.738,0-32.216,0-42.955,72.728
		c-10.738,72.727-10.738,218.182-33.333,290.909s-67.783,72.727-90.378,72.727H-23"/>
	<path fill="none" stroke="#393B79" stroke-width="3" d="M77,1163.184h-6.057c-6.057,0-18.17,0-24.227,109.091
		s-6.057,327.272-16.667,436.364c-10.61,109.09-31.83,109.09-42.439,109.09H-23"/>
	<path fill="none" stroke="#393B79" stroke-width="4" d="M477,399.547L477,399.547"/>
	<path fill="none" stroke="#5254A3" stroke-width="4" d="M477,535.911L477,535.911"/>
	<path fill="none" stroke="#5254A3" stroke-width="4" d="M477,535.911L477,535.911"/>
	<path fill="none" stroke="#5254A3" stroke-width="4" d="M477,535.911L477,535.911"/>
	<path fill="none" stroke="#637939" stroke-width="4" d="M477,808.638L477,808.638"/>
	<path fill="none" stroke="#637939" stroke-width="4" d="M477,808.638L477,808.638"/>
	<path fill="none" stroke="#B5CF6B" stroke-width="4" d="M477,917.729L477,917.729"/>
	<path fill="none" stroke="#637939" stroke-width="4" d="M477,808.638L477,808.638"/>
	<path fill="none" stroke="#B5CF6B" stroke-width="4" d="M477,917.729L477,917.729"/>
	<path fill="none" stroke="#BD9E39" stroke-width="4" d="M477,1054.093L477,1054.093"/>
	<path fill="none" stroke="#E7BA52" stroke-width="4" d="M477,1299.547L477,1299.547"/>
	<path fill="none" stroke="#637939" stroke-width="4" d="M477,808.638L477,808.638"/>
	<path fill="none" stroke="#637939" stroke-width="4" d="M477,808.638L477,808.638"/>
	<path fill="none" stroke="#BD9E39" stroke-width="4" d="M477,1054.093L477,1054.093"/>
	<path fill="none" stroke="#E7BA52" stroke-width="4" d="M477,1299.547L477,1299.547"/>
	<path fill="none" stroke="#5254A3" stroke-width="4" d="M477,535.911L477,535.911"/>
	<path fill="none" stroke="#7B4173" stroke-width="4" d="M477,1545.002L477,1545.002"/>
	<path fill="none" stroke="#E7BA52" stroke-width="4" d="M477,1299.547L477,1299.547"/>
	<path fill="none" stroke="#CE6DBD" stroke-width="4" d="M477,1681.365L477,1681.365"/>
	<path fill="none" stroke="#393B79" stroke-width="4" d="M477,399.547L477,399.547"/>
	<path fill="none" stroke="#E7BA52" stroke-width="4" d="M477,1299.547L477,1299.547"/>
	<path fill="none" stroke="#393B79" stroke-width="4" d="M477,399.547L477,399.547"/>
	<path fill="none" stroke="#7B4173" stroke-width="4" d="M477,1545.002L477,1545.002"/>
	<path fill="none" stroke="#7B4173" stroke-width="4" d="M477,1545.002L477,1545.002"/>
	<path fill="none" stroke="#CE6DBD" stroke-width="4" d="M477,1681.365L477,1681.365"/>
	<path fill="none" stroke="#7B4173" stroke-width="4" d="M477,1545.002L477,1545.002"/>
	<path fill="none" stroke="#B5CF6B" stroke-width="4" d="M477,1899.547L477,1899.547"/>
	<path fill="none" stroke="#B5CF6B" stroke-width="4" d="M477,1899.547L477,1899.547"/>
	<path fill="none" stroke="#8C6D31" stroke-width="4" d="M427,1708.639L427,1708.639"/>
	<path fill="none" stroke="#8C6D31" stroke-width="4" d="M427,1708.639L427,1708.639"/>
	<path fill="none" stroke="#8C6D31" stroke-width="4" d="M427,1708.639L427,1708.639"/>
	<path fill="none" stroke="#E7969C" stroke-width="4" d="M377,563.183L377,563.183"/>
	<path fill="none" stroke="#E7CB94" stroke-width="4" d="M377,1081.365L377,1081.365"/>
	<path fill="none" stroke="#843C39" stroke-width="4" d="M277,945.002L277,945.002"/>
	<path fill="none" stroke="#AD494A" stroke-width="4" d="M377,1926.82v-163.637"/>
	<path fill="none" stroke="#D6616B" stroke-width="4" d="M377,1735.912L377,1735.912"/>
	<path fill="none" stroke="#E7969C" stroke-width="4" d="M377,835.91L377,835.91"/>
	<path fill="none" stroke="#7B4173" stroke-width="4" d="M277,1135.91L277,1135.91"/>
	<path fill="none" stroke="#A55194" stroke-width="4" d="M377,426.82L377,426.82"/>
	<path fill="none" stroke="#CE6DBD" stroke-width="4" d="M377,1326.819L377,1326.819"/>
	<path fill="none" stroke="#DE9ED6" stroke-width="4" d="M327,1572.275v709.09"/>
	<path fill="none" stroke="#DE9ED6" stroke-width="4" d="M327,1572.275v709.09"/>
	<path fill="none" stroke="#DE9ED6" stroke-width="4" d="M327,1572.275v709.09"/>
	<path fill="none" stroke="#D6616B" stroke-width="4" d="M377,1735.912L377,1735.912"/>
	<path fill="none" stroke="#DE9ED6" stroke-width="4" d="M327,1572.275v709.09"/>
	<path fill="none" stroke="#DE9ED6" stroke-width="4" d="M327,1572.275v709.09"/>
	<path fill="none" stroke="#DE9ED6" stroke-width="4" d="M327,1572.275v709.09"/>
	<path fill="none" stroke="#DE9ED6" stroke-width="4" d="M327,1572.275v709.09"/>
	<path fill="none" stroke="#CEDB9C" stroke-width="4" d="M277,1790.457L277,1790.457"/>
	<path fill="none" stroke="#843C39" stroke-width="4" d="M277,945.002L277,945.002"/>
	<path fill="none" stroke="#7B4173" stroke-width="4" d="M277,1135.91L277,1135.91"/>
	<path fill="none" stroke="#E7BA52" stroke-width="4" d="M277,1354.093L277,1354.093"/>
	<path fill="none" stroke="#E7CB94" stroke-width="4" d="M277,590.456L277,590.456"/>
	<path fill="none" stroke="#843C39" stroke-width="4" d="M277,1108.638L277,1108.638"/>
	<path fill="none" stroke="#CEDB9C" stroke-width="4" d="M277,1790.457L277,1790.457"/>
	<path fill="none" stroke="#7B4173" stroke-width="4" d="M277,1135.91L277,1135.91"/>
	<path fill="none" stroke="#E7969C" stroke-width="4" d="M77,1163.184L77,1163.184"/>
	<path fill="none" stroke="#7B4173" stroke-width="4" d="M177,972.274L177,972.274"/>
	<path fill="none" stroke="#E7969C" stroke-width="4" d="M77,1163.184L77,1163.184"/>
	<path fill="none" stroke="#CE6DBD" stroke-width="4" d="M177,1381.365L177,1381.365"/>
	<path fill="none" stroke="#DE9ED6" stroke-width="4" d="M177,617.729L177,617.729"/>
	<path fill="none" stroke="#393B79" stroke-width="4" d="M-23,1817.729L-23,1817.729"/>
	<path fill="none" stroke="#E7969C" stroke-width="4" d="M77,1163.184L77,1163.184"/>
	<path fill="none" stroke="#E7969C" stroke-width="4" d="M77,1163.184L77,1163.184"/>
	<path fill="none" stroke="#393B79" stroke-width="4" d="M-23,1817.729L-23,1817.729"/>
	<path fill="none" stroke="#393B79" stroke-width="4" d="M-23,1817.729L-23,1817.729"/>
	<g transform="translate(-12,151.63636363636363)">
		<rect x="577" y="290.456" fill="#FFFFFF" stroke="#000000" stroke-width="3" width="24" height="24"/>
		<text transform="matrix(-1 0 0 1 595 308.4564)" font-family="'ArialMT'" font-size="12">6</text>
	</g>
	<g transform="translate(-12,178.90909090909088)">
		<rect x="577" y="290.456" stroke="#000000" stroke-width="3" width="24" height="24"/>
		<text transform="matrix(-1 0 0 1 595 308.4562)" fill="#FFFFFF" font-family="'ArialMT'" font-size="12">7</text>
	</g>
	<g transform="translate(-12,369.81818181818176)">
		<rect x="577" y="290.456" fill="#FFFFFF" stroke="#000000" stroke-width="3" width="24" height="24"/>
		<text transform="matrix(-1 0 0 1 595 308.4563)" font-family="'ArialMT'" font-size="12">14</text>
	</g>
	<g transform="translate(-12,397.0909090909091)">
		<rect x="577" y="290.456" fill="#FFFFFF" stroke="#000000" stroke-width="3" width="24" height="24"/>
		<text transform="matrix(-1 0 0 1 595 308.4559)" font-family="'ArialMT'" font-size="12">15</text>
	</g>
	<g transform="translate(-12,560.7272727272726)">
		<rect x="577" y="290.456" fill="#FFFFFF" stroke="#000000" stroke-width="3" width="24" height="24"/>
		<text transform="matrix(-1 0 0 1 595 308.4563)" font-family="'ArialMT'" font-size="12">21</text>
	</g>
	<g transform="translate(-12,424.3636363636364)">
		<rect x="577" y="290.456" stroke="#000000" stroke-width="3" width="24" height="24"/>
		<text transform="matrix(-1 0 0 1 595 308.4557)" fill="#FFFFFF" font-family="'ArialMT'" font-size="12">16</text>
	</g>
	<g transform="translate(-12,588)">
		<rect x="577" y="290.456" stroke="#000000" stroke-width="3" width="24" height="24"/>
		<text transform="matrix(-1 0 0 1 595 308.4561)" fill="#FFFFFF" font-family="'ArialMT'" font-size="12">22</text>
	</g>
	<g transform="translate(-12,888)">
		<rect x="577" y="290.456" stroke="#000000" stroke-width="3" width="24" height="24"/>
		<text transform="matrix(-1 0 0 1 595 308.4561)" fill="#FFFFFF" font-family="'ArialMT'" font-size="12">33</text>
	</g>
	<g transform="translate(-12,1106.1818181818182)">
		<rect x="577" y="290.456" fill="#FFFFFF" stroke="#000000" stroke-width="3" width="24" height="24"/>
		<text transform="matrix(-1 0 0 1 595 308.4559)" font-family="'ArialMT'" font-size="12">41</text>
	</g>
	<g transform="translate(-12,724.3636363636363)">
		<rect x="577" y="290.456" stroke="#000000" stroke-width="3" width="24" height="24"/>
		<text transform="matrix(-1 0 0 1 595 308.4557)" fill="#FFFFFF" font-family="'ArialMT'" font-size="12">27</text>
	</g>
	<g transform="translate(-12,915.2727272727271)">
		<rect x="577" y="290.456" fill="#FFFFFF" stroke="#000000" stroke-width="3" width="24" height="24"/>
		<text transform="matrix(-1 0 0 1 595 308.4558)" font-family="'ArialMT'" font-size="12">34</text>
	</g>
	<g transform="translate(-12,233.45454545454547)">
		<rect x="577" y="290.456" fill="#FFFFFF" stroke="#000000" stroke-width="3" width="24" height="24"/>
		<text transform="matrix(-1 0 0 1 595 308.4556)" font-family="'ArialMT'" font-size="12">9</text>
	</g>
	<g transform="translate(-12,1133.4545454545453)">
		<rect x="577" y="290.457" stroke="#000000" stroke-width="3" width="24" height="24"/>
		<text transform="matrix(-1 0 0 1 595 308.4565)" fill="#FFFFFF" font-family="'ArialMT'" font-size="12">42</text>
	</g>
	<g transform="translate(-12,942.5454545454545)">
		<rect x="577" y="290.456" fill="#FFFFFF" stroke="#000000" stroke-width="3" width="24" height="24"/>
		<text transform="matrix(-1 0 0 1 595 308.4565)" font-family="'ArialMT'" font-size="12">35</text>
	</g>
	<g transform="translate(-12,69.81818181818181)">
		<rect x="577" y="290.456" stroke="#000000" stroke-width="3" width="24" height="24"/>
		<text transform="matrix(-1 0 0 1 595 308.4562)" fill="#FFFFFF" font-family="'ArialMT'" font-size="12">3</text>
	</g>
	<g transform="translate(-12,1188)">
		<rect x="577" y="290.457" fill="#FFFFFF" stroke="#000000" stroke-width="3" width="24" height="24"/>
		<text transform="matrix(-1 0 0 1 595 308.4561)" font-family="'ArialMT'" font-size="12">44</text>
	</g>
	<g transform="translate(38,1706.181818181818)">
		<rect x="477" y="290.457" fill="#FFFFFF" stroke="#000000" stroke-width="3" width="24" height="24"/>
		<text transform="matrix(-1 0 0 1 495 308.4559)" font-family="'ArialMT'" font-size="12">63</text>
	</g>
	<g transform="translate(38,1733.4545454545455)">
		<rect x="477" y="290.458" stroke="#000000" stroke-width="3" width="24" height="24"/>
		<text transform="matrix(-1 0 0 1 495 308.4556)" fill="#FFFFFF" font-family="'ArialMT'" font-size="12">64</text>
	</g>
	<g transform="translate(88,1597.090909090909)">
		<rect x="377" y="290.456" fill="#FFFFFF" stroke="#B5CF6B" stroke-width="3" width="24" height="24"/>
		<text transform="matrix(-1 0 0 1 395 308.4559)" font-family="'ArialMT'" font-size="12">59</text>
	</g>
	<g transform="translate(88,506.18181818181813)">
		<rect x="377" y="290.456" fill="#FFFFFF" stroke="#637939" stroke-width="3" width="24" height="24"/>
		<text transform="matrix(-1 0 0 1 395 308.4558)" font-family="'ArialMT'" font-size="12">19</text>
	</g>
	<g transform="translate(88,233.45454545454547)">
		<rect x="377" y="290.456" fill="#FFFFFF" stroke="#000000" stroke-width="3" width="24" height="24"/>
		<text transform="matrix(-1 0 0 1 395 308.4556)" font-family="'ArialMT'" font-size="12">9</text>
	</g>
	<g transform="translate(88,1378.9090909090908)">
		<rect x="377" y="290.456" fill="#FFFFFF" stroke="#CE6DBD" stroke-width="3" width="24" height="24"/>
		<text transform="matrix(-1 0 0 1 395 308.4562)" font-family="'ArialMT'" font-size="12">51</text>
	</g>
	<g transform="translate(88,233.45454545454547)">
		<rect x="377" y="290.456" stroke="#5254A3" stroke-width="3" width="24" height="24"/>
		<text transform="matrix(-1 0 0 1 395 308.4556)" fill="#FFFFFF" font-family="'ArialMT'" font-size="12">9</text>
	</g>
	<g transform="translate(88,1242.5454545454545)">
		<rect x="377" y="290.457" fill="#FFFFFF" stroke="#7B4173" stroke-width="3" width="24" height="24"/>
		<text transform="matrix(-1 0 0 1 395 308.4565)" font-family="'ArialMT'" font-size="12">46</text>
	</g>
	<g transform="translate(88,751.6363636363635)">
		<rect x="377" y="290.456" fill="#FFFFFF" stroke="#BD9E39" stroke-width="3" width="24" height="24"/>
		<text transform="matrix(-1 0 0 1 395 308.4564)" font-family="'ArialMT'" font-size="12">28</text>
	</g>
	<g transform="translate(88,615.2727272727273)">
		<rect x="377" y="290.456" fill="#FFFFFF" stroke="#B5CF6B" stroke-width="3" width="24" height="24"/>
		<text transform="matrix(-1 0 0 1 395 308.4558)" font-family="'ArialMT'" font-size="12">23</text>
	</g>
	<g transform="translate(88,97.0909090909091)">
		<rect x="377" y="290.456" fill="#FFFFFF" stroke="#393B79" stroke-width="3" width="24" height="24"/>
		<text transform="matrix(-1 0 0 1 395 308.4559)" font-family="'ArialMT'" font-size="12">4</text>
	</g>
	<g transform="translate(88,997.090909090909)">
		<rect x="377" y="290.456" fill="#FFFFFF" stroke="#E7BA52" stroke-width="3" width="24" height="24"/>
		<text transform="matrix(-1 0 0 1 395 308.456)" font-family="'ArialMT'" font-size="12">37</text>
	</g>
	<g transform="translate(138,1788)">
		<rect x="277" y="290.457" fill="#FFFFFF" stroke="#000000" stroke-width="3" width="24" height="24"/>
		<text transform="matrix(-1 0 0 1 295 308.4561)" font-family="'ArialMT'" font-size="12">66</text>
	</g>
	<g transform="translate(138,1406.181818181818)">
		<rect x="277" y="290.457" fill="#FFFFFF" stroke="#8C6D31" stroke-width="3" width="24" height="24"/>
		<text transform="matrix(-1 0 0 1 295 308.4559)" font-family="'ArialMT'" font-size="12">52</text>
	</g>
	<g transform="translate(138,1869.8181818181818)">
		<rect x="277" y="290.457" stroke="#000000" stroke-width="3" width="24" height="24"/>
		<text transform="matrix(-1 0 0 1 295 308.4562)" fill="#FFFFFF" font-family="'ArialMT'" font-size="12">69</text>
	</g>
	<g transform="translate(138,1924.3636363636363)">
		<rect x="277" y="290.457" fill="#FFFFFF" stroke="#000000" stroke-width="3" width="24" height="24"/>
		<text transform="matrix(-1 0 0 1 295 308.4567)" font-family="'ArialMT'" font-size="12">71</text>
	</g>
	<g transform="translate(188,260.7272727272727)">
		<rect x="177" y="290.456" fill="#FFFFFF" stroke="#E7969C" stroke-width="3" width="24" height="24"/>
		<text transform="matrix(-1 0 0 1 195 308.4563)" font-family="'ArialMT'" font-size="12">10</text>
	</g>
	<g transform="translate(188,1433.4545454545455)">
		<rect x="177" y="290.458" fill="#FFFFFF" stroke="#D6616B" stroke-width="3" width="24" height="24"/>
		<text transform="matrix(-1 0 0 1 195 308.4556)" font-family="'ArialMT'" font-size="12">53</text>
	</g>
	<g transform="translate(188,533.4545454545454)">
		<rect x="177" y="290.456" fill="#FFFFFF" stroke="#E7969C" stroke-width="3" width="24" height="24"/>
		<text transform="matrix(-1 0 0 1 195 308.4556)" font-family="'ArialMT'" font-size="12">20</text>
	</g>
	<g transform="translate(188,1024.3636363636363)">
		<rect x="177" y="290.456" fill="#FFFFFF" stroke="#CE6DBD" stroke-width="3" width="24" height="24"/>
		<text transform="matrix(-1 0 0 1 195 308.4557)" font-family="'ArialMT'" font-size="12">38</text>
	</g>
	<g transform="translate(188,124.36363636363635)">
		<rect x="177" y="290.456" fill="#FFFFFF" stroke="#A55194" stroke-width="3" width="24" height="24"/>
		<text transform="matrix(-1 0 0 1 195 308.4557)" font-family="'ArialMT'" font-size="12">5</text>
	</g>
	<g transform="translate(188,778.9090909090909)">
		<rect x="177" y="290.456" fill="#FFFFFF" stroke="#E7CB94" stroke-width="3" width="24" height="24"/>
		<text transform="matrix(-1 0 0 1 195 308.4561)" font-family="'ArialMT'" font-size="12">29</text>
	</g>
	<g transform="translate(188,1624.3636363636365)">
		<rect x="177" y="290.457" fill="#FFFFFF" stroke="#AD494A" stroke-width="3" width="24" height="24"/>
		<text transform="matrix(-1 0 0 1 195 308.4567)" font-family="'ArialMT'" font-size="12">60</text>
	</g>
	<g transform="translate(238,1269.8181818181818)">
		<rect x="77" y="290.457" fill="#FFFFFF" stroke="#DE9ED6" stroke-width="3" width="24" height="24"/>
		<text transform="matrix(-1 0 0 1 95 308.4562)" font-family="'ArialMT'" font-size="12">47</text>
	</g>
	<g transform="translate(288,806.1818181818182)">
		<rect x="-23" y="290.456" fill="#FFFFFF" stroke="#843C39" stroke-width="3" width="24" height="24"/>
		<text transform="matrix(-1 0 0 1 -5 308.4558)" font-family="'ArialMT'" font-size="12">30</text>
	</g>
	<g transform="translate(288,642.5454545454545)">
		<rect x="-23" y="290.457" fill="#FFFFFF" stroke="#843C39" stroke-width="3" width="24" height="24"/>
		<text transform="matrix(-1 0 0 1 -5 308.4565)" font-family="'ArialMT'" font-size="12">24</text>
	</g>
	<g transform="translate(288,1051.6363636363635)">
		<rect x="-23" y="290.456" fill="#FFFFFF" stroke="#E7BA52" stroke-width="3" width="24" height="24"/>
		<text transform="matrix(-1 0 0 1 -5 308.4564)" font-family="'ArialMT'" font-size="12">39</text>
	</g>
	<g transform="translate(288,288)">
		<rect x="-23" y="290.456" fill="#FFFFFF" stroke="#E7CB94" stroke-width="3" width="24" height="24"/>
		<text transform="matrix(-1 0 0 1 -5 308.4561)" font-family="'ArialMT'" font-size="12">11</text>
	</g>
	<g transform="translate(288,1487.9999999999998)">
		<rect x="-23" y="290.457" fill="#FFFFFF" stroke="#CEDB9C" stroke-width="3" width="24" height="24"/>
		<text transform="matrix(-1 0 0 1 -5 308.4561)" font-family="'ArialMT'" font-size="12">55</text>
	</g>
	<g transform="translate(288,833.4545454545454)">
		<rect x="-23" y="290.456" fill="#FFFFFF" stroke="#7B4173" stroke-width="3" width="24" height="24"/>
		<text transform="matrix(-1 0 0 1 -5 308.4556)" font-family="'ArialMT'" font-size="12">31</text>
	</g>
	<g transform="translate(388,315.27272727272725)">
		<rect x="-223" y="290.456" fill="#FFFFFF" stroke="#DE9ED6" stroke-width="3" width="24" height="24"/>
		<text transform="matrix(-1 0 0 1 -205 308.4558)" font-family="'ArialMT'" font-size="12">12</text>
	</g>
	<g transform="translate(388,669.8181818181818)">
		<rect x="-223" y="290.456" fill="#FFFFFF" stroke="#7B4173" stroke-width="3" width="24" height="24"/>
		<text transform="matrix(-1 0 0 1 -205 308.4563)" font-family="'ArialMT'" font-size="12">25</text>
	</g>
	<g transform="translate(388,1078.9090909090908)">
		<rect x="-223" y="290.456" fill="#FFFFFF" stroke="#CE6DBD" stroke-width="3" width="24" height="24"/>
		<text transform="matrix(-1 0 0 1 -205 308.4562)" font-family="'ArialMT'" font-size="12">40</text>
	</g>
	<g transform="translate(488,860.7272727272727)">
		<rect x="-423" y="290.456" fill="#FFFFFF" stroke="#E7969C" stroke-width="3" width="24" height="24"/>
		<text transform="matrix(-1 0 0 1 -405 308.4563)" font-family="'ArialMT'" font-size="12">32</text>
	</g>
	<g transform="translate(588,1515.272727272727)">
		<rect x="-623" y="290.456" fill="#FFFFFF" stroke="#393B79" stroke-width="3" width="24" height="24"/>
		<text transform="matrix(-1 0 0 1 -605 308.4558)" font-family="'ArialMT'" font-size="12">56</text>
	</g>
	<g transform="translate(0,27.272727272727273)">
		<circle fill="#FFFFFF" stroke="#000000" stroke-width="3" cx="577" cy="290.456" r="12"/>
		<text transform="matrix(-1 0 0 1 583 296.4558)" font-family="'ArialMT'" font-size="12">1</text>
	</g>
	<g transform="translate(0,218.1818181818182)">
		<circle fill="#FFFFFF" stroke="#000000" stroke-width="3" cx="577" cy="290.456" r="12"/>
		<text transform="matrix(-1 0 0 1 583 296.4558)" font-family="'ArialMT'" font-size="12">8</text>
	</g>
	<g transform="translate(0,709.090909090909)">
		<circle fill="#FFFFFF" stroke="#000000" stroke-width="3" cx="577" cy="290.456" r="12"/>
		<text transform="matrix(-1 0 0 1 583 296.4561)" font-family="'ArialMT'" font-size="12">26</text>
	</g>
	<g transform="translate(0,463.63636363636357)">
		<circle fill="#FFFFFF" stroke="#000000" stroke-width="3" cx="577" cy="290.456" r="12"/>
		<text transform="matrix(-1 0 0 1 583 296.4564)" font-family="'ArialMT'" font-size="12">17</text>
	</g>
	<g transform="translate(0,490.90909090909093)">
		<circle fill="#FFFFFF" stroke="#000000" stroke-width="3" cx="577" cy="290.456" r="12"/>
		<text transform="matrix(-1 0 0 1 583 296.4562)" font-family="'ArialMT'" font-size="12">18</text>
	</g>
	<g transform="translate(0,1336.3636363636363)">
		<circle fill="#FFFFFF" stroke="#000000" stroke-width="3" cx="577" cy="290.457" r="12"/>
		<text transform="matrix(-1 0 0 1 583 296.4567)" font-family="'ArialMT'" font-size="12">49</text>
	</g>
	<g transform="translate(0,54.54545454545455)">
		<circle fill="#FFFFFF" stroke="#000000" stroke-width="3" cx="577" cy="290.456" r="12"/>
		<text transform="matrix(-1 0 0 1 583 296.4565)" font-family="'ArialMT'" font-size="12">2</text>
	</g>
	<g transform="translate(0,981.8181818181819)">
		<circle fill="#FFFFFF" stroke="#000000" stroke-width="3" cx="577" cy="290.456" r="12"/>
		<text transform="matrix(-1 0 0 1 583 296.4562)" font-family="'ArialMT'" font-size="12">36</text>
	</g>
	<g transform="translate(0,1172.7272727272727)">
		<circle fill="#FFFFFF" stroke="#000000" stroke-width="3" cx="577" cy="290.456" r="12"/>
		<text transform="matrix(-1 0 0 1 583 296.4563)" font-family="'ArialMT'" font-size="12">43</text>
	</g>
	<g transform="translate(0,1363.6363636363635)">
		<circle stroke="#000000" stroke-width="3" cx="577" cy="290.457" r="12"/>
		<text transform="matrix(-1 0 0 1 583 296.4554)" fill="#FFFFFF" font-family="'ArialMT'" font-size="12">50</text>
	</g>
	<g transform="translate(0,1227.2727272727273)">
		<circle fill="#FFFFFF" stroke="#000000" stroke-width="3" cx="577" cy="290.456" r="12"/>
		<text transform="matrix(-1 0 0 1 583 296.4558)" font-family="'ArialMT'" font-size="12">45</text>
	</g>
	<g transform="translate(0,1554.5454545454545)">
		<circle stroke="#000000" stroke-width="3" cx="577" cy="290.457" r="12"/>
		<text transform="matrix(-1 0 0 1 583 296.4565)" fill="#FFFFFF" font-family="'ArialMT'" font-size="12">57</text>
	</g>
	<g transform="translate(0,1581.8181818181818)">
		<circle fill="#FFFFFF" stroke="#000000" stroke-width="3" cx="577" cy="290.457" r="12"/>
		<text transform="matrix(-1 0 0 1 583 296.4562)" font-family="'ArialMT'" font-size="12">58</text>
	</g>
	<g transform="translate(0,1663.6363636363635)">
		<circle fill="#FFFFFF" stroke="#000000" stroke-width="3" cx="577" cy="290.457" r="12"/>
		<text transform="matrix(-1 0 0 1 583 296.4554)" font-family="'ArialMT'" font-size="12">61</text>
	</g>
	<g transform="translate(50,1690.9090909090908)">
		<circle fill="#FFFFFF" stroke="#000000" stroke-width="3" cx="477" cy="290.456" r="12"/>
		<text transform="matrix(-1 0 0 1 483 296.4562)" font-family="'ArialMT'" font-size="12">62</text>
	</g>
	<g transform="translate(106,239.45454545454547)">
		<circle fill="#FFFFFF" stroke="#5254A3" stroke-width="3" cx="365" cy="290.456" r="12"/>
		<text transform="matrix(-1 0 0 1 371 296.4556)" font-family="'ArialMT'" font-size="12">9</text>
	</g>
	<g transform="translate(106,1003.090909090909)">
		<circle fill="#FFFFFF" stroke="#E7BA52" stroke-width="3" cx="365" cy="290.456" r="12"/>
		<text transform="matrix(-1 0 0 1 371 296.456)" font-family="'ArialMT'" font-size="12">37</text>
	</g>
	<g transform="translate(106,757.6363636363635)">
		<circle fill="#FFFFFF" stroke="#BD9E39" stroke-width="3" cx="365" cy="290.456" r="12"/>
		<text transform="matrix(-1 0 0 1 371 296.4564)" font-family="'ArialMT'" font-size="12">28</text>
	</g>
	<g transform="translate(106,621.2727272727273)">
		<circle fill="#FFFFFF" stroke="#B5CF6B" stroke-width="3" cx="365" cy="290.456" r="12"/>
		<text transform="matrix(-1 0 0 1 371 296.4558)" font-family="'ArialMT'" font-size="12">23</text>
	</g>
	<g transform="translate(106,1603.090909090909)">
		<circle fill="#FFFFFF" stroke="#B5CF6B" stroke-width="3" cx="365" cy="290.456" r="12"/>
		<text transform="matrix(-1 0 0 1 371 296.4559)" font-family="'ArialMT'" font-size="12">59</text>
	</g>
	<g transform="translate(106,1384.9090909090908)">
		<circle fill="#FFFFFF" stroke="#CE6DBD" stroke-width="3" cx="365" cy="290.456" r="12"/>
		<text transform="matrix(-1 0 0 1 371 296.4562)" font-family="'ArialMT'" font-size="12">51</text>
	</g>
	<g transform="translate(106,512.1818181818181)">
		<circle fill="#FFFFFF" stroke="#637939" stroke-width="3" cx="365" cy="290.456" r="12"/>
		<text transform="matrix(-1 0 0 1 371 296.4558)" font-family="'ArialMT'" font-size="12">19</text>
	</g>
	<g transform="translate(106,1248.5454545454545)">
		<circle fill="#FFFFFF" stroke="#7B4173" stroke-width="3" cx="365" cy="290.457" r="12"/>
		<text transform="matrix(-1 0 0 1 371 296.4565)" font-family="'ArialMT'" font-size="12">46</text>
	</g>
	<g transform="translate(106,103.0909090909091)">
		<circle fill="#FFFFFF" stroke="#393B79" stroke-width="3" cx="365" cy="290.456" r="12"/>
		<text transform="matrix(-1 0 0 1 371 296.4559)" font-family="'ArialMT'" font-size="12">4</text>
	</g>
	<g transform="translate(150,1827.272727272727)">
		<circle fill="#FFFFFF" stroke="#000000" stroke-width="3" cx="277" cy="290.456" r="12"/>
		<text transform="matrix(-1 0 0 1 283 296.4558)" font-family="'ArialMT'" font-size="12">67</text>
	</g>
	<g transform="translate(150,1854.5454545454543)">
		<circle fill="#FFFFFF" stroke="#000000" stroke-width="3" cx="277" cy="290.457" r="12"/>
		<text transform="matrix(-1 0 0 1 283 296.4565)" font-family="'ArialMT'" font-size="12">68</text>
	</g>
	<g transform="translate(156,1412.181818181818)">
		<circle fill="#FFFFFF" stroke="#8C6D31" stroke-width="3" cx="265" cy="290.457" r="12"/>
		<text transform="matrix(-1 0 0 1 271 296.4559)" font-family="'ArialMT'" font-size="12">52</text>
	</g>
	<g transform="translate(150,1909.090909090909)">
		<circle fill="#FFFFFF" stroke="#000000" stroke-width="3" cx="277" cy="290.456" r="12"/>
		<text transform="matrix(-1 0 0 1 283 296.4559)" font-family="'ArialMT'" font-size="12">70</text>
	</g>
	<g transform="translate(150,1963.6363636363637)">
		<circle fill="#FFFFFF" stroke="#000000" stroke-width="3" cx="277" cy="290.457" r="12"/>
		<text transform="matrix(-1 0 0 1 283 296.4554)" font-family="'ArialMT'" font-size="12">72</text>
	</g>
	<g transform="translate(206,539.4545454545454)">
		<circle fill="#FFFFFF" stroke="#E7969C" stroke-width="3" cx="165" cy="290.456" r="12"/>
		<text transform="matrix(-1 0 0 1 171 296.4556)" font-family="'ArialMT'" font-size="12">20</text>
	</g>
	<g transform="translate(206,784.9090909090909)">
		<circle fill="#FFFFFF" stroke="#E7CB94" stroke-width="3" cx="165" cy="290.456" r="12"/>
		<text transform="matrix(-1 0 0 1 171 296.4561)" font-family="'ArialMT'" font-size="12">29</text>
	</g>
	<g transform="translate(206,130.36363636363635)">
		<circle fill="#FFFFFF" stroke="#A55194" stroke-width="3" cx="165" cy="290.456" r="12"/>
		<text transform="matrix(-1 0 0 1 171 296.4557)" font-family="'ArialMT'" font-size="12">5</text>
	</g>
	<g transform="translate(206,1030.3636363636363)">
		<circle fill="#FFFFFF" stroke="#CE6DBD" stroke-width="3" cx="165" cy="290.456" r="12"/>
		<text transform="matrix(-1 0 0 1 171 296.4557)" font-family="'ArialMT'" font-size="12">38</text>
	</g>
	<g transform="translate(206,266.7272727272727)">
		<circle fill="#FFFFFF" stroke="#E7969C" stroke-width="3" cx="165" cy="290.456" r="12"/>
		<text transform="matrix(-1 0 0 1 171 296.4563)" font-family="'ArialMT'" font-size="12">10</text>
	</g>
	<g transform="translate(206,1439.4545454545455)">
		<circle fill="#FFFFFF" stroke="#D6616B" stroke-width="3" cx="165" cy="290.458" r="12"/>
		<text transform="matrix(-1 0 0 1 171 296.4556)" font-family="'ArialMT'" font-size="12">53</text>
	</g>
	<g transform="translate(206,1466.7272727272725)">
		<circle fill="#FFFFFF" stroke="#AD494A" stroke-width="3" cx="165" cy="290.456" r="12"/>
		<text transform="matrix(-1 0 0 1 171 296.4563)" font-family="'ArialMT'" font-size="12">54</text>
	</g>
	<g transform="translate(256,1984.9090909090908)">
		<circle fill="#FFFFFF" stroke="#DE9ED6" stroke-width="3" cx="65" cy="290.456" r="12"/>
		<text transform="matrix(-1 0 0 1 71 296.4562)" font-family="'ArialMT'" font-size="12">73</text>
	</g>
	<g transform="translate(306,812.1818181818182)">
		<circle fill="#FFFFFF" stroke="#843C39" stroke-width="3" cx="-35" cy="290.456" r="12"/>
		<text transform="matrix(-1 0 0 1 -29 296.4558)" font-family="'ArialMT'" font-size="12">30</text>
	</g>
	<g transform="translate(306,648.5454545454545)">
		<circle fill="#FFFFFF" stroke="#843C39" stroke-width="3" cx="-35" cy="290.457" r="12"/>
		<text transform="matrix(-1 0 0 1 -29 296.4565)" font-family="'ArialMT'" font-size="12">24</text>
	</g>
	<g transform="translate(306,294)">
		<circle fill="#FFFFFF" stroke="#E7CB94" stroke-width="3" cx="-35" cy="290.456" r="12"/>
		<text transform="matrix(-1 0 0 1 -29 296.4561)" font-family="'ArialMT'" font-size="12">11</text>
	</g>
	<g transform="translate(306,1057.6363636363635)">
		<circle fill="#FFFFFF" stroke="#E7BA52" stroke-width="3" cx="-35" cy="290.456" r="12"/>
		<text transform="matrix(-1 0 0 1 -29 296.4564)" font-family="'ArialMT'" font-size="12">39</text>
	</g>
	<g transform="translate(306,839.4545454545454)">
		<circle fill="#FFFFFF" stroke="#7B4173" stroke-width="3" cx="-35" cy="290.456" r="12"/>
		<text transform="matrix(-1 0 0 1 -29 296.4556)" font-family="'ArialMT'" font-size="12">31</text>
	</g>
	<g transform="translate(306,1493.9999999999998)">
		<circle fill="#FFFFFF" stroke="#CEDB9C" stroke-width="3" cx="-35" cy="290.457" r="12"/>
		<text transform="matrix(-1 0 0 1 -29 296.4561)" font-family="'ArialMT'" font-size="12">55</text>
	</g>
	<g transform="translate(406,321.27272727272725)">
		<circle fill="#FFFFFF" stroke="#DE9ED6" stroke-width="3" cx="-235" cy="290.456" r="12"/>
		<text transform="matrix(-1 0 0 1 -229 296.4558)" font-family="'ArialMT'" font-size="12">12</text>
	</g>
	<g transform="translate(406,1084.9090909090908)">
		<circle fill="#FFFFFF" stroke="#CE6DBD" stroke-width="3" cx="-235" cy="290.456" r="12"/>
		<text transform="matrix(-1 0 0 1 -229 296.4562)" font-family="'ArialMT'" font-size="12">40</text>
	</g>
	<g transform="translate(406,675.8181818181818)">
		<circle fill="#FFFFFF" stroke="#7B4173" stroke-width="3" cx="-235" cy="290.456" r="12"/>
		<text transform="matrix(-1 0 0 1 -229 296.4563)" font-family="'ArialMT'" font-size="12">25</text>
	</g>
	<g transform="translate(506,866.7272727272727)">
		<circle fill="#FFFFFF" stroke="#E7969C" stroke-width="3" cx="-435" cy="290.456" r="12"/>
		<text transform="matrix(-1 0 0 1 -429 296.4563)" font-family="'ArialMT'" font-size="12">32</text>
	</g>
	<g transform="translate(606,1521.272727272727)">
		<circle fill="#FFFFFF" stroke="#393B79" stroke-width="3" cx="-635" cy="290.456" r="12"/>
		<text transform="matrix(-1 0 0 1 -629 296.4558)" font-family="'ArialMT'" font-size="12">56</text>
	</g>
</g>
</svg>
