<svg width="890" height="3010"><g transform="translate(20,20)"><rect width="120" height="24" x="0" y="27.272727272727273" style="stroke: gray; fill: white; stroke-width: 2;"></rect><rect width="120" height="24" x="0" y="163.63636363636363" style="stroke: gray; fill: white; stroke-width: 2;"></rect><rect width="120" height="24" x="0" y="190.90909090909088" style="stroke: gray; fill: black; stroke-width: 2;"></rect><rect width="120" height="24" x="0" y="218.1818181818182" style="stroke: gray; fill: white; stroke-width: 2;"></rect><rect width="120" height="24" x="0" y="381.81818181818176" style="stroke: gray; fill: white; stroke-width: 2;"></rect><rect width="120" height="24" x="0" y="409.0909090909091" style="stroke: gray; fill: white; stroke-width: 2;"></rect><rect width="120" height="24" x="0" y="572.7272727272726" style="stroke: gray; fill: white; stroke-width: 2;"></rect><rect width="120" height="24" x="0" y="436.3636363636364" style="stroke: gray; fill: black; stroke-width: 2;"></rect><rect width="120" height="24" x="0" y="600" style="stroke: gray; fill: black; stroke-width: 2;"></rect><rect width="120" height="24" x="0" y="709.090909090909" style="stroke: gray; fill: white; stroke-width: 2;"></rect><rect width="120" height="24" x="0" y="900" style="stroke: gray; fill: black; stroke-width: 2;"></rect><rect width="120" height="24" x="0" y="463.63636363636357" style="stroke: gray; fill: white; stroke-width: 2;"></rect><rect width="120" height="24" x="0" y="490.90909090909093" style="stroke: gray; fill: white; stroke-width: 2;"></rect><rect width="120" height="24" x="0" y="1118.1818181818182" style="stroke: gray; fill: white; stroke-width: 2;"></rect><rect width="120" height="24" x="0" y="736.3636363636363" style="stroke: gray; fill: black; stroke-width: 2;"></rect><rect width="120" height="24" x="0" y="927.2727272727271" style="stroke: gray; fill: white; stroke-width: 2;"></rect><rect width="120" height="24" x="0" y="245.45454545454547" style="stroke: gray; fill: white; stroke-width: 2;"></rect><rect width="120" height="24" x="0" y="1145.4545454545453" style="stroke: gray; fill: black; stroke-width: 2;"></rect><rect width="120" height="24" x="0" y="954.5454545454545" style="stroke: gray; fill: white; stroke-width: 2;"></rect><rect width="120" height="24" x="0" y="1336.3636363636363" style="stroke: gray; fill: white; stroke-width: 2;"></rect><rect width="120" height="24" x="0" y="54.54545454545455" style="stroke: gray; fill: white; stroke-width: 2;"></rect><rect width="120" height="24" x="0" y="981.8181818181819" style="stroke: gray; fill: white; stroke-width: 2;"></rect><rect width="120" height="24" x="0" y="81.81818181818181" style="stroke: gray; fill: black; stroke-width: 2;"></rect><rect width="120" height="24" x="0" y="1172.7272727272727" style="stroke: gray; fill: white; stroke-width: 2;"></rect><rect width="120" height="24" x="0" y="1200" style="stroke: gray; fill: white; stroke-width: 2;"></rect><rect width="120" height="24" x="0" y="1363.6363636363635" style="stroke: gray; fill: black; stroke-width: 2;"></rect><rect width="120" height="24" x="0" y="1227.2727272727273" style="stroke: gray; fill: white; stroke-width: 2;"></rect><rect width="120" height="24" x="0" y="1554.5454545454545" style="stroke: gray; fill: black; stroke-width: 2;"></rect><rect width="120" height="24" x="0" y="1581.8181818181818" style="stroke: gray; fill: white; stroke-width: 2;"></rect><rect width="120" height="24" x="0" y="1663.6363636363635" style="stroke: gray; fill: white; stroke-width: 2;"></rect><rect width="120" height="24" x="0" y="1690.9090909090908" style="stroke: gray; fill: white; stroke-width: 2;"></rect><rect width="120" height="24" x="0" y="1718.181818181818" style="stroke: gray; fill: white; stroke-width: 2;"></rect><rect width="120" height="24" x="0" y="1745.4545454545455" style="stroke: gray; fill: black; stroke-width: 2;"></rect><rect width="120" height="24" x="0" y="245.45454545454547" style="stroke: gray; fill: white; stroke-width: 2;"></rect><rect width="120" height="24" x="0" y="1009.090909090909" style="stroke: gray; fill: white; stroke-width: 2;"></rect><rect width="120" height="24" x="0" y="1609.090909090909" style="stroke: gray; fill: white; stroke-width: 2;"></rect><rect width="120" height="24" x="0" y="518.1818181818181" style="stroke: gray; fill: white; stroke-width: 2;"></rect><rect width="120" height="24" x="0" y="763.6363636363635" style="stroke: gray; fill: white; stroke-width: 2;"></rect><rect width="120" height="24" x="0" y="627.2727272727273" style="stroke: gray; fill: white; stroke-width: 2;"></rect><rect width="120" height="24" x="0" y="1609.090909090909" style="stroke: gray; fill: white; stroke-width: 2;"></rect><rect width="120" height="24" x="0" y="245.45454545454547" style="stroke: gray; fill: white; stroke-width: 2;"></rect><rect width="120" height="24" x="0" y="1390.9090909090908" style="stroke: gray; fill: white; stroke-width: 2;"></rect><rect width="120" height="24" x="0" y="1390.9090909090908" style="stroke: gray; fill: white; stroke-width: 2;"></rect><rect width="120" height="24" x="0" y="245.45454545454547" style="stroke: gray; fill: black; stroke-width: 2;"></rect><rect width="120" height="24" x="0" y="518.1818181818181" style="stroke: gray; fill: white; stroke-width: 2;"></rect><rect width="120" height="24" x="0" y="1254.5454545454545" style="stroke: gray; fill: white; stroke-width: 2;"></rect><rect width="120" height="24" x="0" y="1254.5454545454545" style="stroke: gray; fill: white; stroke-width: 2;"></rect><rect width="120" height="24" x="0" y="763.6363636363635" style="stroke: gray; fill: white; stroke-width: 2;"></rect><rect width="120" height="24" x="0" y="109.0909090909091" style="stroke: gray; fill: white; stroke-width: 2;"></rect><rect width="120" height="24" x="0" y="627.2727272727273" style="stroke: gray; fill: white; stroke-width: 2;"></rect><rect width="120" height="24" x="0" y="109.0909090909091" style="stroke: gray; fill: white; stroke-width: 2;"></rect><rect width="120" height="24" x="0" y="1009.090909090909" style="stroke: gray; fill: white; stroke-width: 2;"></rect><rect width="120" height="24" x="0" y="1800" style="stroke: gray; fill: white; stroke-width: 2;"></rect><rect width="120" height="24" x="0" y="1827.272727272727" style="stroke: gray; fill: white; stroke-width: 2;"></rect><rect width="120" height="24" x="0" y="1854.5454545454543" style="stroke: gray; fill: white; stroke-width: 2;"></rect><rect width="120" height="24" x="0" y="1418.181818181818" style="stroke: gray; fill: white; stroke-width: 2;"></rect><rect width="120" height="24" x="0" y="1418.181818181818" style="stroke: gray; fill: white; stroke-width: 2;"></rect><rect width="120" height="24" x="0" y="1881.8181818181818" style="stroke: gray; fill: black; stroke-width: 2;"></rect><rect width="120" height="24" x="0" y="1909.090909090909" style="stroke: gray; fill: white; stroke-width: 2;"></rect><rect width="120" height="24" x="0" y="1936.3636363636363" style="stroke: gray; fill: white; stroke-width: 2;"></rect><rect width="120" height="24" x="0" y="1963.6363636363637" style="stroke: gray; fill: white; stroke-width: 2;"></rect><rect width="120" height="24" x="0" y="272.7272727272727" style="stroke: gray; fill: white; stroke-width: 2;"></rect><rect width="120" height="24" x="0" y="1445.4545454545455" style="stroke: gray; fill: white; stroke-width: 2;"></rect><rect width="120" height="24" x="0" y="545.4545454545454" style="stroke: gray; fill: white; stroke-width: 2;"></rect><rect width="120" height="24" x="0" y="545.4545454545454" style="stroke: gray; fill: white; stroke-width: 2;"></rect><rect width="120" height="24" x="0" y="790.9090909090909" style="stroke: gray; fill: white; stroke-width: 2;"></rect><rect width="120" height="24" x="0" y="136.36363636363635" style="stroke: gray; fill: white; stroke-width: 2;"></rect><rect width="120" height="24" x="0" y="1036.3636363636363" style="stroke: gray; fill: white; stroke-width: 2;"></rect><rect width="120" height="24" x="0" y="1036.3636363636363" style="stroke: gray; fill: white; stroke-width: 2;"></rect><rect width="120" height="24" x="0" y="272.7272727272727" style="stroke: gray; fill: white; stroke-width: 2;"></rect><rect width="120" height="24" x="0" y="136.36363636363635" style="stroke: gray; fill: white; stroke-width: 2;"></rect><rect width="120" height="24" x="0" y="790.9090909090909" style="stroke: gray; fill: white; stroke-width: 2;"></rect><rect width="120" height="24" x="0" y="1636.3636363636365" style="stroke: gray; fill: white; stroke-width: 2;"></rect><rect width="120" height="24" x="0" y="1445.4545454545455" style="stroke: gray; fill: white; stroke-width: 2;"></rect><rect width="120" height="24" x="0" y="1472.7272727272725" style="stroke: gray; fill: white; stroke-width: 2;"></rect><rect width="120" height="24" x="0" y="1990.9090909090908" style="stroke: gray; fill: white; stroke-width: 2;"></rect><rect width="120" height="24" x="0" y="1281.8181818181818" style="stroke: gray; fill: white; stroke-width: 2;"></rect><rect width="120" height="24" x="0" y="818.1818181818182" style="stroke: gray; fill: white; stroke-width: 2;"></rect><rect width="120" height="24" x="0" y="654.5454545454545" style="stroke: gray; fill: white; stroke-width: 2;"></rect><rect width="120" height="24" x="0" y="818.1818181818182" style="stroke: gray; fill: white; stroke-width: 2;"></rect><rect width="120" height="24" x="0" y="300" style="stroke: gray; fill: white; stroke-width: 2;"></rect><rect width="120" height="24" x="0" y="1063.6363636363635" style="stroke: gray; fill: white; stroke-width: 2;"></rect><rect width="120" height="24" x="0" y="654.5454545454545" style="stroke: gray; fill: white; stroke-width: 2;"></rect><rect width="120" height="24" x="0" y="845.4545454545454" style="stroke: gray; fill: white; stroke-width: 2;"></rect><rect width="120" height="24" x="0" y="1063.6363636363635" style="stroke: gray; fill: white; stroke-width: 2;"></rect><rect width="120" height="24" x="0" y="300" style="stroke: gray; fill: white; stroke-width: 2;"></rect><rect width="120" height="24" x="0" y="1499.9999999999998" style="stroke: gray; fill: white; stroke-width: 2;"></rect><rect width="120" height="24" x="0" y="845.4545454545454" style="stroke: gray; fill: white; stroke-width: 2;"></rect><rect width="120" height="24" x="0" y="1499.9999999999998" style="stroke: gray; fill: white; stroke-width: 2;"></rect><rect width="120" height="24" x="0" y="327.27272727272725" style="stroke: gray; fill: white; stroke-width: 2;"></rect><rect width="120" height="24" x="0" y="327.27272727272725" style="stroke: gray; fill: white; stroke-width: 2;"></rect><rect width="120" height="24" x="0" y="681.8181818181818" style="stroke: gray; fill: white; stroke-width: 2;"></rect><rect width="120" height="24" x="0" y="1090.9090909090908" style="stroke: gray; fill: white; stroke-width: 2;"></rect><rect width="120" height="24" x="0" y="1090.9090909090908" style="stroke: gray; fill: white; stroke-width: 2;"></rect><rect width="120" height="24" x="0" y="681.8181818181818" style="stroke: gray; fill: white; stroke-width: 2;"></rect><rect width="120" height="24" x="0" y="872.7272727272727" style="stroke: gray; fill: white; stroke-width: 2;"></rect><rect width="120" height="24" x="0" y="872.7272727272727" style="stroke: gray; fill: white; stroke-width: 2;"></rect><rect width="120" height="24" x="0" y="1527.272727272727" style="stroke: gray; fill: white; stroke-width: 2;"></rect><rect width="120" height="24" x="0" y="1527.272727272727" style="stroke: gray; fill: white; stroke-width: 2;"></rect></g><g transform="translate(170,32)"><path class="edges" d="M100,109.0909090909091L87.58591065292096,109.09090909090911C75.17182130584193,109.09090909090908,50.343642611683855,109.09090909090908,37.92955326460481,95.45454545454545C25.515463917525768,81.81818181818183,25.515463917525768,54.54545454545454,21.262886597938145,40.909090909090914C17.010309278350515,27.27272727272727,8.505154639175258,27.27272727272727,4.252577319587629,27.272727272727277L0,27.272727272727273" stroke-width="3" style="stroke: rgb(57, 59, 121); fill: none;"></path><path class="edges" d="M100,245.45454545454547L87.58591065292096,245.45454545454547C75.17182130584193,245.45454545454547,50.343642611683855,245.45454545454547,37.92955326460481,231.81818181818184C25.515463917525768,218.18181818181816,25.515463917525768,190.9090909090909,21.262886597938145,177.27272727272725C17.010309278350515,163.63636363636363,8.505154639175258,163.63636363636363,4.252577319587629,163.63636363636363L0,163.63636363636363" stroke-width="3" style="stroke: rgb(82, 84, 163); fill: none;"></path><path class="edges" d="M100,245.45454545454547L87.5,245.45454545454547C75,245.45454545454547,50,245.45454545454547,37.5,236.36363636363635C25,227.27272727272725,25,209.0909090909091,20.833333333333332,200C16.666666666666668,190.90909090909088,8.333333333333334,190.90909090909088,4.166666666666667,190.90909090909088L0,190.90909090909088" stroke-width="3" style="stroke: rgb(82, 84, 163); fill: none;"></path><path class="edges" d="M100,245.45454545454547L87.41408934707904,245.45454545454547C74.82817869415807,245.45454545454547,49.656357388316145,245.45454545454547,37.07044673539519,240.9090909090909C24.484536082474232,236.36363636363637,24.484536082474232,227.27272727272728,20.403780068728523,222.72727272727275C16.32302405498282,218.18181818181816,8.16151202749141,218.18181818181816,4.080756013745705,218.18181818181822L0,218.1818181818182" stroke-width="3" style="stroke: rgb(82, 84, 163); fill: none;"></path><path class="edges" d="M100,518.1818181818181L87.75773195876288,518.1818181818181C75.51546391752576,518.1818181818181,51.030927835051536,518.1818181818181,38.788659793814425,495.4545454545453C26.546391752577318,472.7272727272727,26.546391752577318,427.2727272727272,22.12199312714776,404.5454545454545C17.69759450171821,381.81818181818176,8.848797250859105,381.81818181818176,4.424398625429553,381.81818181818176L0,381.81818181818176" stroke-width="3" style="stroke: rgb(99, 121, 57); fill: none;"></path><path class="edges" d="M100,518.1818181818181L87.67182130584193,518.1818181818181C75.34364261168385,518.1818181818181,50.687285223367695,518.1818181818181,38.35910652920962,499.99999999999994C26.030927835051543,481.8181818181818,26.030927835051543,445.4545454545455,21.692439862542955,427.27272727272725C17.353951890034363,409.0909090909092,8.676975945017182,409.0909090909092,4.338487972508591,409.09090909090907L0,409.0909090909091" stroke-width="3" style="stroke: rgb(99, 121, 57); fill: none;"></path><path class="edges" d="M100,627.2727272727273L87.5,627.2727272727271C75,627.2727272727273,50,627.2727272727273,37.5,618.1818181818181C25,609.090909090909,25,590.9090909090909,20.833333333333332,581.8181818181818C16.666666666666668,572.7272727272726,8.333333333333334,572.7272727272726,4.166666666666667,572.7272727272726L0,572.7272727272726" stroke-width="3" style="stroke: rgb(181, 207, 107); fill: none;"></path><path class="edges" d="M100,518.1818181818181L87.58591065292096,518.1818181818181C75.17182130584193,518.1818181818181,50.343642611683855,518.1818181818181,37.92955326460481,504.5454545454545C25.515463917525768,490.9090909090908,25.515463917525768,463.6363636363637,21.262886597938145,450C17.010309278350515,436.3636363636363,8.505154639175258,436.3636363636363,4.252577319587629,436.36363636363643L0,436.3636363636364" stroke-width="3" style="stroke: rgb(99, 121, 57); fill: none;"></path><path class="edges" d="M100,627.2727272727273L87.41408934707904,627.2727272727271C74.82817869415807,627.2727272727273,49.656357388316145,627.2727272727273,37.07044673539519,622.7272727272726C24.484536082474232,618.1818181818181,24.484536082474232,609.0909090909091,20.403780068728523,604.5454545454545C16.32302405498282,600,8.16151202749141,600,4.080756013745705,600L0,600" stroke-width="3" style="stroke: rgb(181, 207, 107); fill: none;"></path><path class="edges" d="M100,763.6363636363635L87.5,763.6363636363635C75,763.6363636363635,50,763.6363636363635,37.5,754.5454545454544C25,745.4545454545454,25,727.2727272727271,20.833333333333332,718.181818181818C16.666666666666668,709.090909090909,8.333333333333334,709.090909090909,4.166666666666667,709.090909090909L0,709.090909090909" stroke-width="3" style="stroke: rgb(189, 158, 57); fill: none;"></path><path class="edges" d="M100,1009.090909090909L87.67182130584193,1009.090909090909C75.34364261168385,1009.090909090909,50.687285223367695,1009.090909090909,38.35910652920962,990.9090909090909C26.030927835051543,972.7272727272726,26.030927835051543,936.3636363636364,21.692439862542955,918.1818181818181C17.353951890034363,900,8.676975945017182,900,4.338487972508591,900L0,900" stroke-width="3" style="stroke: rgb(231, 186, 82); fill: none;"></path><path class="edges" d="M100,518.1818181818181L87.5,518.1818181818181C75,518.1818181818181,50,518.1818181818181,37.5,509.090909090909C25,499.99999999999994,25,481.81818181818176,20.833333333333332,472.7272727272727C16.666666666666668,463.63636363636357,8.333333333333334,463.63636363636357,4.166666666666667,463.63636363636357L0,463.63636363636357" stroke-width="3" style="stroke: rgb(99, 121, 57); fill: none;"></path><path class="edges" d="M100,518.1818181818181L87.41408934707904,518.1818181818181C74.82817869415807,518.1818181818181,49.656357388316145,518.1818181818181,37.07044673539519,513.6363636363636C24.484536082474232,509.09090909090907,24.484536082474232,500,20.403780068728523,495.4545454545455C16.32302405498282,490.90909090909093,8.16151202749141,490.90909090909093,4.080756013745705,490.90909090909093L0,490.90909090909093" stroke-width="3" style="stroke: rgb(99, 121, 57); fill: none;"></path><path class="edges" d="M100,763.6363636363635L87.41408934707904,763.6363636363635C74.82817869415807,763.6363636363635,49.656357388316145,763.6363636363635,37.07044673539519,759.090909090909C24.484536082474232,754.5454545454544,24.484536082474232,745.4545454545454,20.403780068728523,740.9090909090909C16.32302405498282,736.3636363636364,8.16151202749141,736.3636363636364,4.080756013745705,736.3636363636361L0,736.3636363636363" stroke-width="3" style="stroke: rgb(189, 158, 57); fill: none;"></path><path class="edges" d="M100,1009.090909090909L87.58591065292096,1009.090909090909C75.17182130584193,1009.090909090909,50.343642611683855,1009.090909090909,37.92955326460481,995.4545454545454C25.515463917525768,981.8181818181816,25.515463917525768,954.5454545454544,21.262886597938145,940.9090909090909C17.010309278350515,927.2727272727271,8.505154639175258,927.2727272727271,4.252577319587629,927.2727272727271L0,927.2727272727271" stroke-width="3" style="stroke: rgb(231, 186, 82); fill: none;"></path><path class="edges" d="M100,245.45454545454547L87.32817869415807,245.45454545454547C74.65635738831615,245.45454545454547,49.312714776632305,245.45454545454547,36.64089347079038,245.45454545454547C23.969072164948457,245.45454545454547,23.969072164948457,245.45454545454547,19.974226804123713,245.45454545454547C15.979381443298971,245.45454545454547,7.9896907216494855,245.45454545454547,3.9948453608247427,245.45454545454547L0,245.45454545454547" stroke-width="3" style="stroke: rgb(82, 84, 163); fill: none;"></path><path class="edges" d="M100,1254.5454545454545L87.67182130584193,1254.5454545454543C75.34364261168385,1254.5454545454545,50.687285223367695,1254.5454545454545,38.35910652920962,1236.3636363636363C26.030927835051543,1218.181818181818,26.030927835051543,1181.8181818181818,21.692439862542955,1163.6363636363635C17.353951890034363,1145.4545454545453,8.676975945017182,1145.4545454545453,4.338487972508591,1145.4545454545453L0,1145.4545454545453" stroke-width="3" style="stroke: rgb(123, 65, 115); fill: none;"></path><path class="edges" d="M100,1009.090909090909L87.5,1009.090909090909C75,1009.090909090909,50,1009.090909090909,37.5,1000C25,990.9090909090909,25,972.7272727272726,20.833333333333332,963.6363636363636C16.666666666666668,954.5454545454545,8.333333333333334,954.5454545454545,4.166666666666667,954.5454545454544L0,954.5454545454545" stroke-width="3" style="stroke: rgb(231, 186, 82); fill: none;"></path><path class="edges" d="M100,1390.9090909090908L87.5,1390.9090909090908C75,1390.9090909090908,50,1390.9090909090908,37.5,1381.8181818181818C25,1372.7272727272727,25,1354.5454545454543,20.833333333333332,1345.4545454545453C16.666666666666668,1336.3636363636363,8.333333333333334,1336.3636363636363,4.166666666666667,1336.3636363636363L0,1336.3636363636363" stroke-width="3" style="stroke: rgb(206, 109, 189); fill: none;"></path><path class="edges" d="M100,109.0909090909091L87.5,109.09090909090911C75,109.09090909090908,50,109.09090909090908,37.5,100C25,90.90909090909092,25,72.72727272727273,20.833333333333332,63.63636363636363C16.666666666666668,54.54545454545454,8.333333333333334,54.54545454545454,4.166666666666667,54.545454545454554L0,54.54545454545455" stroke-width="3" style="stroke: rgb(57, 59, 121); fill: none;"></path><path class="edges" d="M100,1009.090909090909L87.41408934707904,1009.090909090909C74.82817869415807,1009.090909090909,49.656357388316145,1009.090909090909,37.07044673539519,1004.5454545454545C24.484536082474232,1000,24.484536082474232,990.909090909091,20.403780068728523,986.3636363636364C16.32302405498282,981.8181818181819,8.16151202749141,981.8181818181819,4.080756013745705,981.8181818181819L0,981.8181818181819" stroke-width="3" style="stroke: rgb(231, 186, 82); fill: none;"></path><path class="edges" d="M100,109.0909090909091L87.41408934707904,109.09090909090911C74.82817869415807,109.09090909090908,49.656357388316145,109.09090909090908,37.07044673539519,104.54545454545455C24.484536082474232,100,24.484536082474232,90.90909090909092,20.403780068728523,86.36363636363637C16.32302405498282,81.81818181818181,8.16151202749141,81.81818181818181,4.080756013745705,81.81818181818181L0,81.81818181818181" stroke-width="3" style="stroke: rgb(57, 59, 121); fill: none;"></path><path class="edges" d="M100,1254.5454545454545L87.58591065292096,1254.5454545454543C75.17182130584193,1254.5454545454545,50.343642611683855,1254.5454545454545,37.92955326460481,1240.9090909090908C25.515463917525768,1227.2727272727273,25.515463917525768,1200,21.262886597938145,1186.3636363636365C17.010309278350515,1172.7272727272727,8.505154639175258,1172.7272727272727,4.252577319587629,1172.7272727272727L0,1172.7272727272727" stroke-width="3" style="stroke: rgb(123, 65, 115); fill: none;"></path><path class="edges" d="M100,1254.5454545454545L87.5,1254.5454545454543C75,1254.5454545454545,50,1254.5454545454545,37.5,1245.4545454545453C25,1236.3636363636363,25,1218.1818181818182,20.833333333333332,1209.090909090909C16.666666666666668,1200,8.333333333333334,1200,4.166666666666667,1200L0,1200" stroke-width="3" style="stroke: rgb(123, 65, 115); fill: none;"></path><path class="edges" d="M100,1390.9090909090908L87.41408934707904,1390.9090909090908C74.82817869415807,1390.9090909090908,49.656357388316145,1390.9090909090908,37.07044673539519,1386.3636363636363C24.484536082474232,1381.8181818181818,24.484536082474232,1372.7272727272727,20.403780068728523,1368.181818181818C16.32302405498282,1363.6363636363635,8.16151202749141,1363.6363636363635,4.080756013745705,1363.6363636363637L0,1363.6363636363635" stroke-width="3" style="stroke: rgb(206, 109, 189); fill: none;"></path><path class="edges" d="M100,1254.5454545454545L87.41408934707904,1254.5454545454543C74.82817869415807,1254.5454545454545,49.656357388316145,1254.5454545454545,37.07044673539519,1249.9999999999998C24.484536082474232,1245.4545454545453,24.484536082474232,1236.3636363636363,20.403780068728523,1231.8181818181818C16.32302405498282,1227.2727272727273,8.16151202749141,1227.2727272727273,4.080756013745705,1227.2727272727273L0,1227.2727272727273" stroke-width="3" style="stroke: rgb(123, 65, 115); fill: none;"></path><path class="edges" d="M100,1609.090909090909L87.5,1609.090909090909C75,1609.090909090909,50,1609.090909090909,37.5,1600C25,1590.9090909090908,25,1572.7272727272727,20.833333333333332,1563.6363636363637C16.666666666666668,1554.5454545454547,8.333333333333334,1554.5454545454547,4.166666666666667,1554.5454545454543L0,1554.5454545454545" stroke-width="3" style="stroke: rgb(181, 207, 107); fill: none;"></path><path class="edges" d="M100,1609.090909090909L87.41408934707904,1609.090909090909C74.82817869415807,1609.090909090909,49.656357388316145,1609.090909090909,37.07044673539519,1604.5454545454543C24.484536082474232,1600,24.484536082474232,1590.9090909090908,20.403780068728523,1586.3636363636363C16.32302405498282,1581.8181818181818,8.16151202749141,1581.8181818181818,4.080756013745705,1581.8181818181818L0,1581.8181818181818" stroke-width="3" style="stroke: rgb(181, 207, 107); fill: none;"></path><path class="edges" d="M150,1418.181818181818L136.46907216494844,1418.181818181818C122.9381443298969,1418.181818181818,95.87628865979381,1418.181818181818,82.34536082474226,1463.6363636363633C68.81443298969072,1509.090909090909,68.81443298969072,1600,65.6786941580756,1645.4545454545453C62.54295532646048,1690.9090909090908,56.271477663230236,1690.9090909090908,53.13573883161512,1690.9090909090908L50,1690.9090909090908" stroke-width="3" style="stroke: rgb(140, 109, 49); fill: none;"></path><path class="edges" d="M150,1418.181818181818L136.3831615120275,1418.181818181818C122.76632302405498,1418.181818181818,95.53264604810995,1418.181818181818,81.91580756013745,1468.181818181818C68.29896907216495,1518.181818181818,68.29896907216495,1618.181818181818,65.2491408934708,1668.181818181818C62.19931271477663,1718.181818181818,56.09965635738831,1718.181818181818,53.049828178694156,1718.181818181818L50,1718.181818181818" stroke-width="3" style="stroke: rgb(140, 109, 49); fill: none;"></path><path class="edges" d="M150,1418.181818181818L136.29725085910653,1418.181818181818C122.59450171821305,1418.181818181818,95.1890034364261,1418.181818181818,81.48625429553265,1472.7272727272727C67.78350515463917,1527.2727272727273,67.78350515463917,1636.3636363636363,64.81958762886597,1690.909090909091C61.855670103092784,1745.4545454545453,55.92783505154639,1745.4545454545453,52.96391752577319,1745.4545454545457L50,1745.4545454545455" stroke-width="3" style="stroke: rgb(140, 109, 49); fill: none;"></path><path class="edges" d="M200,272.7272727272727L187.41408934707906,272.7272727272727C174.82817869415808,272.7272727272727,149.65635738831614,272.7272727272727,137.0704467353952,268.1818181818182C124.48453608247424,263.6363636363636,124.48453608247424,254.54545454545453,120.40378006872852,250C116.32302405498281,245.45454545454547,108.16151202749141,245.45454545454547,104.08075601374571,245.45454545454547L100,245.45454545454547" stroke-width="3" style="stroke: rgb(231, 150, 156); fill: none;"></path><path class="edges" d="M200,790.9090909090909L187.41408934707906,790.9090909090909C174.82817869415808,790.9090909090909,149.65635738831614,790.9090909090909,137.0704467353952,786.3636363636364C124.48453608247424,781.8181818181816,124.48453608247424,772.7272727272726,120.40378006872852,768.181818181818C116.32302405498281,763.6363636363635,108.16151202749141,763.6363636363635,104.08075601374571,763.6363636363635L100,763.6363636363635" stroke-width="3" style="stroke: rgb(231, 203, 148); fill: none;"></path><path class="edges" d="M300,654.5454545454545L274.8281786941581,654.5454545454545C249.65635738831614,654.5454545454545,199.3127147766323,654.5454545454545,174.1408934707904,650C148.96907216494844,645.4545454545454,148.96907216494844,636.3636363636364,140.80756013745705,631.8181818181819C132.64604810996562,627.2727272727273,116.32302405498281,627.2727272727273,108.16151202749141,627.2727272727271L100,627.2727272727273" stroke-width="3" style="stroke: rgb(132, 60, 57); fill: none;"></path><path class="edges" d="M200,1554.5454545454545L187.15635738831614,1554.5454545454543C174.3127147766323,1554.5454545454547,148.6254295532646,1554.5454545454547,135.78178694158075,1563.6363636363633C122.93814432989693,1572.7272727272727,122.93814432989693,1590.9090909090908,119.11512027491409,1600C115.29209621993128,1609.090909090909,107.64604810996563,1609.090909090909,103.82302405498281,1609.090909090909L100,1609.090909090909" stroke-width="3" style="stroke: rgb(173, 73, 74); fill: none;"></path><path class="edges" d="M200,1445.4545454545455L187.5,1445.4545454545457C175,1445.4545454545453,150,1445.4545454545453,137.5,1436.3636363636363C125,1427.2727272727273,125,1409.090909090909,120.83333333333333,1399.9999999999998C116.66666666666667,1390.9090909090908,108.33333333333333,1390.9090909090908,104.16666666666667,1390.9090909090908L100,1390.9090909090908" stroke-width="3" style="stroke: rgb(214, 97, 107); fill: none;"></path><path class="edges" d="M200,545.4545454545454L187.41408934707906,545.4545454545454C174.82817869415808,545.4545454545454,149.65635738831614,545.4545454545454,137.0704467353952,540.9090909090909C124.48453608247424,536.3636363636364,124.48453608247424,527.2727272727271,120.40378006872852,522.7272727272726C116.32302405498281,518.1818181818181,108.16151202749141,518.1818181818181,104.08075601374571,518.1818181818181L100,518.1818181818181" stroke-width="3" style="stroke: rgb(231, 150, 156); fill: none;"></path><path class="edges" d="M300,845.4545454545454L272.0790378006873,845.4545454545454C244.15807560137455,845.4545454545454,188.31615120274913,845.4545454545454,160.3951890034364,913.6363636363636C132.4742268041237,981.8181818181816,132.4742268041237,1118.1818181818182,127.06185567010307,1186.3636363636363C121.64948453608247,1254.5454545454545,110.82474226804123,1254.5454545454545,105.4123711340206,1254.5454545454543L100,1254.5454545454545" stroke-width="3" style="stroke: rgb(123, 65, 115); fill: none;"></path><path class="edges" d="M200,136.36363636363635L187.41408934707906,136.36363636363635C174.82817869415808,136.36363636363635,149.65635738831614,136.36363636363635,137.0704467353952,131.8181818181818C124.48453608247424,127.27272727272725,124.48453608247424,118.18181818181817,120.40378006872852,113.63636363636364C116.32302405498281,109.09090909090908,108.16151202749141,109.09090909090908,104.08075601374571,109.09090909090911L100,109.0909090909091" stroke-width="3" style="stroke: rgb(165, 81, 148); fill: none;"></path><path class="edges" d="M200,1036.3636363636363L187.41408934707906,1036.3636363636363C174.82817869415808,1036.3636363636363,149.65635738831614,1036.3636363636363,137.0704467353952,1031.8181818181818C124.48453608247424,1027.2727272727273,124.48453608247424,1018.181818181818,120.40378006872852,1013.6363636363635C116.32302405498281,1009.090909090909,108.16151202749141,1009.090909090909,104.08075601374571,1009.090909090909L100,1009.090909090909" stroke-width="3" style="stroke: rgb(206, 109, 189); fill: none;"></path><path class="edges" d="M250,1636.3636363636365L236.8127147766323,1636.3636363636363C223.62542955326458,1636.3636363636367,197.25085910652922,1636.3636363636367,184.06357388316152,1663.6363636363637C170.87628865979386,1690.909090909091,170.87628865979386,1745.4545454545453,167.39690721649484,1772.7272727272727C163.91752577319588,1800,156.95876288659795,1800,153.47938144329896,1800L150,1800" stroke-width="3" style="stroke: rgb(222, 158, 214); fill: none;"></path><path class="edges" d="M250,1636.3636363636365L236.72680412371133,1636.3636363636363C223.4536082474227,1636.3636363636367,196.90721649484536,1636.3636363636367,183.63402061855675,1668.181818181818C170.36082474226808,1700,170.36082474226808,1763.6363636363633,166.96735395189006,1795.4545454545453C163.57388316151204,1827.272727272727,156.786941580756,1827.272727272727,153.39347079037802,1827.2727272727273L150,1827.272727272727" stroke-width="3" style="stroke: rgb(222, 158, 214); fill: none;"></path><path class="edges" d="M250,1636.3636363636365L236.6408934707904,1636.3636363636363C223.28178694158078,1636.3636363636367,196.56357388316155,1636.3636363636367,183.2044673539519,1672.7272727272727C169.8453608247423,1709.090909090909,169.8453608247423,1781.8181818181818,166.53780068728526,1818.181818181818C163.2302405498282,1854.5454545454543,156.61512027491412,1854.5454545454543,153.30756013745705,1854.5454545454543L150,1854.5454545454543" stroke-width="3" style="stroke: rgb(222, 158, 214); fill: none;"></path><path class="edges" d="M200,1445.4545454545455L193.7070446735395,1445.4545454545457C187.41408934707906,1445.4545454545453,174.82817869415808,1445.4545454545453,168.5352233676976,1440.909090909091C162.2422680412371,1436.3636363636363,162.2422680412371,1427.2727272727273,160.20189003436425,1422.7272727272727C158.1615120274914,1418.181818181818,154.0807560137457,1418.181818181818,152.04037800687286,1418.181818181818L150,1418.181818181818" stroke-width="3" style="stroke: rgb(214, 97, 107); fill: none;"></path><path class="edges" d="M250,1636.3636363636365L236.55498281786944,1636.3636363636363C223.10996563573883,1636.3636363636367,196.21993127147766,1636.3636363636367,182.7749140893471,1677.2727272727273C169.32989690721652,1718.1818181818182,169.32989690721652,1800,166.10824742268042,1840.909090909091C162.88659793814435,1881.8181818181818,156.44329896907217,1881.8181818181818,153.22164948453607,1881.8181818181818L150,1881.8181818181818" stroke-width="3" style="stroke: rgb(222, 158, 214); fill: none;"></path><path class="edges" d="M250,1636.3636363636365L236.46907216494844,1636.3636363636363C222.93814432989691,1636.3636363636367,195.87628865979386,1636.3636363636367,182.3453608247423,1681.818181818182C168.81443298969074,1727.2727272727273,168.81443298969074,1818.181818181818,165.67869415807561,1863.6363636363633C162.5429553264605,1909.090909090909,156.27147766323026,1909.090909090909,153.13573883161513,1909.0909090909088L150,1909.090909090909" stroke-width="3" style="stroke: rgb(222, 158, 214); fill: none;"></path><path class="edges" d="M250,1636.3636363636365L236.3831615120275,1636.3636363636363C222.76632302405497,1636.3636363636367,195.53264604811,1636.3636363636367,181.9158075601375,1686.3636363636363C168.298969072165,1736.3636363636363,168.298969072165,1836.3636363636363,165.2491408934708,1886.3636363636363C162.19931271477665,1936.3636363636363,156.09965635738834,1936.3636363636363,153.04982817869416,1936.3636363636363L150,1936.3636363636363" stroke-width="3" style="stroke: rgb(222, 158, 214); fill: none;"></path><path class="edges" d="M250,1636.3636363636365L236.29725085910653,1636.3636363636363C222.59450171821308,1636.3636363636367,195.18900343642613,1636.3636363636367,181.4862542955327,1690.909090909091C167.78350515463922,1745.4545454545457,167.78350515463922,1854.5454545454547,164.819587628866,1909.0909090909092C161.85567010309282,1963.6363636363637,155.9278350515464,1963.6363636363637,152.9639175257732,1963.6363636363637L150,1963.6363636363637" stroke-width="3" style="stroke: rgb(222, 158, 214); fill: none;"></path><path class="edges" d="M300,1499.9999999999998L287.5,1499.9999999999998C275,1499.9999999999998,250,1499.9999999999998,237.5,1490.9090909090908C225,1481.8181818181818,225,1463.6363636363637,220.83333333333334,1454.5454545454547C216.66666666666666,1445.4545454545453,208.33333333333334,1445.4545454545453,204.16666666666666,1445.4545454545457L200,1445.4545454545455" stroke-width="3" style="stroke: rgb(206, 219, 156); fill: none;"></path><path class="edges" d="M300,654.5454545454545L287.6718213058419,654.5454545454545C275.34364261168383,654.5454545454545,250.6872852233677,654.5454545454545,238.3591065292096,636.3636363636364C226.03092783505156,618.1818181818181,226.03092783505156,581.8181818181818,221.69243986254295,563.6363636363636C217.35395189003438,545.4545454545454,208.67697594501718,545.4545454545454,204.33848797250857,545.4545454545454L200,545.4545454545454" stroke-width="3" style="stroke: rgb(132, 60, 57); fill: none;"></path><path class="edges" d="M300,845.4545454545454L289.56185567010306,845.4545454545454C279.12371134020617,845.4545454545454,258.2474226804124,845.4545454545454,247.80927835051546,727.2727272727271C237.37113402061854,609.090909090909,237.37113402061854,372.7272727272727,231.1426116838488,254.5454545454545C224.91408934707906,136.36363636363635,212.4570446735395,136.36363636363635,206.22852233676974,136.36363636363635L200,136.36363636363635" stroke-width="3" style="stroke: rgb(123, 65, 115); fill: none;"></path><path class="edges" d="M300,1063.6363636363635L287.414089347079,1063.6363636363637C274.8281786941581,1063.6363636363635,249.65635738831614,1063.6363636363635,237.0704467353952,1059.090909090909C224.4845360824742,1054.5454545454543,224.4845360824742,1045.4545454545453,220.40378006872854,1040.9090909090908C216.32302405498282,1036.3636363636363,208.16151202749143,1036.3636363636363,204.0807560137457,1036.3636363636363L200,1036.3636363636363" stroke-width="3" style="stroke: rgb(231, 186, 82); fill: none;"></path><path class="edges" d="M300,300L287.414089347079,300C274.8281786941581,300,249.65635738831614,300,237.0704467353952,295.45454545454544C224.4845360824742,290.90909090909093,224.4845360824742,281.8181818181818,220.40378006872854,277.27272727272725C216.32302405498282,272.7272727272727,208.16151202749143,272.7272727272727,204.0807560137457,272.7272727272727L200,272.7272727272727" stroke-width="3" style="stroke: rgb(231, 203, 148); fill: none;"></path><path class="edges" d="M300,818.1818181818182L287.414089347079,818.1818181818181C274.8281786941581,818.1818181818184,249.65635738831614,818.1818181818184,237.0704467353952,813.6363636363636C224.4845360824742,809.0909090909091,224.4845360824742,800,220.40378006872854,795.4545454545455C216.32302405498282,790.9090909090909,208.16151202749143,790.9090909090909,204.0807560137457,790.9090909090909L200,790.9090909090909" stroke-width="3" style="stroke: rgb(132, 60, 57); fill: none;"></path><path class="edges" d="M300,1499.9999999999998L287.15635738831617,1499.9999999999998C274.3127147766323,1499.9999999999998,248.62542955326458,1499.9999999999998,235.78178694158075,1509.090909090909C222.93814432989691,1518.181818181818,222.93814432989691,1536.3636363636363,219.11512027491412,1545.4545454545453C215.29209621993127,1554.5454545454547,207.64604810996562,1554.5454545454547,203.82302405498282,1554.5454545454543L200,1554.5454545454545" stroke-width="3" style="stroke: rgb(206, 219, 156); fill: none;"></path><path class="edges" d="M300,845.4545454545454L292.4183848797251,845.4545454545454C284.8367697594502,845.4545454545454,269.6735395189003,845.4545454545454,262.09192439862545,977.2727272727274C254.51030927835052,1109.090909090909,254.51030927835052,1372.7272727272727,253.7585910652921,1504.5454545454547C253.00687285223367,1636.3636363636367,251.50343642611685,1636.3636363636367,250.75171821305844,1636.3636363636363L250,1636.3636363636365" stroke-width="3" style="stroke: rgb(123, 65, 115); fill: none;"></path><path class="edges" d="M500,872.7272727272727L475,872.7272727272729C450,872.7272727272726,400,872.7272727272726,375,863.6363636363636C350,854.5454545454546,350,836.3636363636364,341.6666666666667,827.2727272727274C333.3333333333333,818.1818181818184,316.6666666666667,818.1818181818184,308.3333333333333,818.1818181818181L300,818.1818181818182" stroke-width="3" style="stroke: rgb(231, 150, 156); fill: none;"></path><path class="edges" d="M400,681.8181818181818L387.414089347079,681.8181818181819C374.8281786941581,681.8181818181818,349.65635738831617,681.8181818181818,337.0704467353952,677.2727272727273C324.4845360824742,672.7272727272726,324.4845360824742,663.6363636363636,320.4037800687285,659.0909090909091C316.3230240549828,654.5454545454545,308.1615120274914,654.5454545454545,304.0807560137457,654.5454545454545L300,654.5454545454545" stroke-width="3" style="stroke: rgb(123, 65, 115); fill: none;"></path><path class="edges" d="M500,872.7272727272727L474.8281786941581,872.7272727272729C449.65635738831617,872.7272727272726,399.3127147766324,872.7272727272726,374.1408934707904,868.1818181818181C348.9690721649485,863.6363636363636,348.9690721649485,854.5454545454545,340.8075601374571,849.9999999999999C332.64604810996565,845.4545454545454,316.32302405498285,845.4545454545454,308.1615120274914,845.4545454545454L300,845.4545454545454" stroke-width="3" style="stroke: rgb(231, 150, 156); fill: none;"></path><path class="edges" d="M400,1090.9090909090908L387.414089347079,1090.9090909090908C374.8281786941581,1090.9090909090908,349.65635738831617,1090.9090909090908,337.0704467353952,1086.3636363636363C324.4845360824742,1081.8181818181818,324.4845360824742,1072.7272727272727,320.4037800687285,1068.181818181818C316.3230240549828,1063.6363636363635,308.1615120274914,1063.6363636363635,304.0807560137457,1063.6363636363637L300,1063.6363636363635" stroke-width="3" style="stroke: rgb(206, 109, 189); fill: none;"></path><path class="edges" d="M400,327.27272727272725L387.414089347079,327.27272727272725C374.8281786941581,327.27272727272725,349.65635738831617,327.27272727272725,337.0704467353952,322.7272727272727C324.4845360824742,318.1818181818182,324.4845360824742,309.09090909090907,320.4037800687285,304.54545454545456C316.3230240549828,300,308.1615120274914,300,304.0807560137457,300L300,300" stroke-width="3" style="stroke: rgb(222, 158, 214); fill: none;"></path><path class="edges" d="M600,1527.272727272727L562.2422680412371,1527.272727272727C524.4845360824742,1527.272727272727,448.9690721649484,1527.272727272727,411.2113402061855,1522.7272727272723C373.45360824742266,1518.181818181818,373.45360824742266,1509.0909090909088,361.2113402061855,1504.5454545454543C348.9690721649484,1499.9999999999998,324.4845360824742,1499.9999999999998,312.2422680412371,1499.9999999999998L300,1499.9999999999998" stroke-width="3" style="stroke: rgb(57, 59, 121); fill: none;"></path><path class="edges" d="M500,872.7272727272727L489.04639175257734,872.7272727272729C478.0927835051546,872.7272727272726,456.1855670103093,872.7272727272726,445.23195876288656,781.8181818181819C434.2783505154639,690.909090909091,434.2783505154639,509.09090909090907,428.56529209621993,418.1818181818182C422.8522336769759,327.27272727272725,411.426116838488,327.27272727272725,405.71305841924396,327.27272727272725L400,327.27272727272725" stroke-width="3" style="stroke: rgb(231, 150, 156); fill: none;"></path><path class="edges" d="M500,872.7272727272727L487.92955326460486,872.7272727272729C475.8591065292096,872.7272727272726,451.7182130584192,872.7272727272726,439.6477663230241,840.909090909091C427.5773195876289,809.090909090909,427.5773195876289,745.4545454545454,422.9810996563574,713.6363636363636C418.3848797250859,681.8181818181818,409.1924398625429,681.8181818181818,404.5962199312715,681.8181818181819L400,681.8181818181818" stroke-width="3" style="stroke: rgb(231, 150, 156); fill: none;"></path><path class="edges" d="M600,1527.272727272727L577.4054982817869,1527.272727272727C554.8109965635739,1527.272727272727,509.62199312714773,1527.272727272727,487.0274914089346,1454.5454545454543C464.43298969072157,1381.8181818181818,464.43298969072157,1236.3636363636363,453.6941580756013,1163.6363636363635C442.95532646048105,1090.9090909090908,421.4776632302405,1090.9090909090908,410.73883161512026,1090.9090909090908L400,1090.9090909090908" stroke-width="3" style="stroke: rgb(57, 59, 121); fill: none;"></path><path class="edges" d="M600,1527.272727272727L589.3900343642612,1527.272727272727C578.7800687285223,1527.272727272727,557.5601374570447,1527.272727272727,546.9501718213058,1418.181818181818C536.340206185567,1309.090909090909,536.340206185567,1090.9090909090908,530.2835051546391,981.8181818181819C524.2268041237113,872.7272727272726,512.1134020618557,872.7272727272726,506.0567010309278,872.7272727272729L500,872.7272727272727" stroke-width="3" style="stroke: rgb(57, 59, 121); fill: none;"></path><path class="parentEdges" d="M100,109.0909090909091L100,109.0909090909091" style="stroke: rgb(57, 59, 121); stroke-width: 4; fill: none;"></path><path class="parentEdges" d="M100,245.45454545454547L100,245.45454545454547" style="stroke: rgb(82, 84, 163); stroke-width: 4; fill: none;"></path><path class="parentEdges" d="M100,245.45454545454547L100,245.45454545454547" style="stroke: rgb(82, 84, 163); stroke-width: 4; fill: none;"></path><path class="parentEdges" d="M100,245.45454545454547L100,245.45454545454547" style="stroke: rgb(82, 84, 163); stroke-width: 4; fill: none;"></path><path class="parentEdges" d="M100,518.1818181818181L100,518.1818181818181" style="stroke: rgb(99, 121, 57); stroke-width: 4; fill: none;"></path><path class="parentEdges" d="M100,518.1818181818181L100,518.1818181818181" style="stroke: rgb(99, 121, 57); stroke-width: 4; fill: none;"></path><path class="parentEdges" d="M100,627.2727272727273L100,627.2727272727273" style="stroke: rgb(181, 207, 107); stroke-width: 4; fill: none;"></path><path class="parentEdges" d="M100,518.1818181818181L100,518.1818181818181" style="stroke: rgb(99, 121, 57); stroke-width: 4; fill: none;"></path><path class="parentEdges" d="M100,627.2727272727273L100,627.2727272727273" style="stroke: rgb(181, 207, 107); stroke-width: 4; fill: none;"></path><path class="parentEdges" d="M100,763.6363636363635L100,763.6363636363635" style="stroke: rgb(189, 158, 57); stroke-width: 4; fill: none;"></path><path class="parentEdges" d="M100,1009.090909090909L100,1009.090909090909" style="stroke: rgb(231, 186, 82); stroke-width: 4; fill: none;"></path><path class="parentEdges" d="M100,518.1818181818181L100,518.1818181818181" style="stroke: rgb(99, 121, 57); stroke-width: 4; fill: none;"></path><path class="parentEdges" d="M100,518.1818181818181L100,518.1818181818181" style="stroke: rgb(99, 121, 57); stroke-width: 4; fill: none;"></path><path class="parentEdges" d="M100,763.6363636363635L100,763.6363636363635" style="stroke: rgb(189, 158, 57); stroke-width: 4; fill: none;"></path><path class="parentEdges" d="M100,1009.090909090909L100,1009.090909090909" style="stroke: rgb(231, 186, 82); stroke-width: 4; fill: none;"></path><path class="parentEdges" d="M100,245.45454545454547L100,245.45454545454547" style="stroke: rgb(82, 84, 163); stroke-width: 4; fill: none;"></path><path class="parentEdges" d="M100,1254.5454545454545L100,1254.5454545454545" style="stroke: rgb(123, 65, 115); stroke-width: 4; fill: none;"></path><path class="parentEdges" d="M100,1009.090909090909L100,1009.090909090909" style="stroke: rgb(231, 186, 82); stroke-width: 4; fill: none;"></path><path class="parentEdges" d="M100,1390.9090909090908L100,1390.9090909090908" style="stroke: rgb(206, 109, 189); stroke-width: 4; fill: none;"></path><path class="parentEdges" d="M100,109.0909090909091L100,109.0909090909091" style="stroke: rgb(57, 59, 121); stroke-width: 4; fill: none;"></path><path class="parentEdges" d="M100,1009.090909090909L100,1009.090909090909" style="stroke: rgb(231, 186, 82); stroke-width: 4; fill: none;"></path><path class="parentEdges" d="M100,109.0909090909091L100,109.0909090909091" style="stroke: rgb(57, 59, 121); stroke-width: 4; fill: none;"></path><path class="parentEdges" d="M100,1254.5454545454545L100,1254.5454545454545" style="stroke: rgb(123, 65, 115); stroke-width: 4; fill: none;"></path><path class="parentEdges" d="M100,1254.5454545454545L100,1254.5454545454545" style="stroke: rgb(123, 65, 115); stroke-width: 4; fill: none;"></path><path class="parentEdges" d="M100,1390.9090909090908L100,1390.9090909090908" style="stroke: rgb(206, 109, 189); stroke-width: 4; fill: none;"></path><path class="parentEdges" d="M100,1254.5454545454545L100,1254.5454545454545" style="stroke: rgb(123, 65, 115); stroke-width: 4; fill: none;"></path><path class="parentEdges" d="M100,1609.090909090909L100,1609.090909090909" style="stroke: rgb(181, 207, 107); stroke-width: 4; fill: none;"></path><path class="parentEdges" d="M100,1609.090909090909L100,1609.090909090909" style="stroke: rgb(181, 207, 107); stroke-width: 4; fill: none;"></path><path class="parentEdges" d="M150,1418.181818181818L150,1418.181818181818" style="stroke: rgb(140, 109, 49); stroke-width: 4; fill: none;"></path><path class="parentEdges" d="M150,1418.181818181818L150,1418.181818181818" style="stroke: rgb(140, 109, 49); stroke-width: 4; fill: none;"></path><path class="parentEdges" d="M150,1418.181818181818L150,1418.181818181818" style="stroke: rgb(140, 109, 49); stroke-width: 4; fill: none;"></path><path class="parentEdges" d="M200,272.7272727272727L200,272.7272727272727" style="stroke: rgb(231, 150, 156); stroke-width: 4; fill: none;"></path><path class="parentEdges" d="M200,790.9090909090909L200,790.9090909090909" style="stroke: rgb(231, 203, 148); stroke-width: 4; fill: none;"></path><path class="parentEdges" d="M300,654.5454545454545L300,654.5454545454545" style="stroke: rgb(132, 60, 57); stroke-width: 4; fill: none;"></path><path class="parentEdges" d="M200,1472.7272727272725L200,1636.3636363636365" style="stroke: rgb(173, 73, 74); stroke-width: 4; fill: none;"></path><path class="parentEdges" d="M200,1445.4545454545455L200,1445.4545454545455" style="stroke: rgb(214, 97, 107); stroke-width: 4; fill: none;"></path><path class="parentEdges" d="M200,545.4545454545454L200,545.4545454545454" style="stroke: rgb(231, 150, 156); stroke-width: 4; fill: none;"></path><path class="parentEdges" d="M300,845.4545454545454L300,845.4545454545454" style="stroke: rgb(123, 65, 115); stroke-width: 4; fill: none;"></path><path class="parentEdges" d="M200,136.36363636363635L200,136.36363636363635" style="stroke: rgb(165, 81, 148); stroke-width: 4; fill: none;"></path><path class="parentEdges" d="M200,1036.3636363636363L200,1036.3636363636363" style="stroke: rgb(206, 109, 189); stroke-width: 4; fill: none;"></path><path class="parentEdges" d="M250,1990.9090909090908L250,1281.8181818181818" style="stroke: rgb(222, 158, 214); stroke-width: 4; fill: none;"></path><path class="parentEdges" d="M250,1990.9090909090908L250,1281.8181818181818" style="stroke: rgb(222, 158, 214); stroke-width: 4; fill: none;"></path><path class="parentEdges" d="M250,1990.9090909090908L250,1281.8181818181818" style="stroke: rgb(222, 158, 214); stroke-width: 4; fill: none;"></path><path class="parentEdges" d="M200,1445.4545454545455L200,1445.4545454545455" style="stroke: rgb(214, 97, 107); stroke-width: 4; fill: none;"></path><path class="parentEdges" d="M250,1990.9090909090908L250,1281.8181818181818" style="stroke: rgb(222, 158, 214); stroke-width: 4; fill: none;"></path><path class="parentEdges" d="M250,1990.9090909090908L250,1281.8181818181818" style="stroke: rgb(222, 158, 214); stroke-width: 4; fill: none;"></path><path class="parentEdges" d="M250,1990.9090909090908L250,1281.8181818181818" style="stroke: rgb(222, 158, 214); stroke-width: 4; fill: none;"></path><path class="parentEdges" d="M250,1990.9090909090908L250,1281.8181818181818" style="stroke: rgb(222, 158, 214); stroke-width: 4; fill: none;"></path><path class="parentEdges" d="M300,1499.9999999999998L300,1499.9999999999998" style="stroke: rgb(206, 219, 156); stroke-width: 4; fill: none;"></path><path class="parentEdges" d="M300,654.5454545454545L300,654.5454545454545" style="stroke: rgb(132, 60, 57); stroke-width: 4; fill: none;"></path><path class="parentEdges" d="M300,845.4545454545454L300,845.4545454545454" style="stroke: rgb(123, 65, 115); stroke-width: 4; fill: none;"></path><path class="parentEdges" d="M300,1063.6363636363635L300,1063.6363636363635" style="stroke: rgb(231, 186, 82); stroke-width: 4; fill: none;"></path><path class="parentEdges" d="M300,300L300,300" style="stroke: rgb(231, 203, 148); stroke-width: 4; fill: none;"></path><path class="parentEdges" d="M300,818.1818181818182L300,818.1818181818182" style="stroke: rgb(132, 60, 57); stroke-width: 4; fill: none;"></path><path class="parentEdges" d="M300,1499.9999999999998L300,1499.9999999999998" style="stroke: rgb(206, 219, 156); stroke-width: 4; fill: none;"></path><path class="parentEdges" d="M300,845.4545454545454L300,845.4545454545454" style="stroke: rgb(123, 65, 115); stroke-width: 4; fill: none;"></path><path class="parentEdges" d="M500,872.7272727272727L500,872.7272727272727" style="stroke: rgb(231, 150, 156); stroke-width: 4; fill: none;"></path><path class="parentEdges" d="M400,681.8181818181818L400,681.8181818181818" style="stroke: rgb(123, 65, 115); stroke-width: 4; fill: none;"></path><path class="parentEdges" d="M500,872.7272727272727L500,872.7272727272727" style="stroke: rgb(231, 150, 156); stroke-width: 4; fill: none;"></path><path class="parentEdges" d="M400,1090.9090909090908L400,1090.9090909090908" style="stroke: rgb(206, 109, 189); stroke-width: 4; fill: none;"></path><path class="parentEdges" d="M400,327.27272727272725L400,327.27272727272725" style="stroke: rgb(222, 158, 214); stroke-width: 4; fill: none;"></path><path class="parentEdges" d="M600,1527.272727272727L600,1527.272727272727" style="stroke: rgb(57, 59, 121); stroke-width: 4; fill: none;"></path><path class="parentEdges" d="M500,872.7272727272727L500,872.7272727272727" style="stroke: rgb(231, 150, 156); stroke-width: 4; fill: none;"></path><path class="parentEdges" d="M500,872.7272727272727L500,872.7272727272727" style="stroke: rgb(231, 150, 156); stroke-width: 4; fill: none;"></path><path class="parentEdges" d="M600,1527.272727272727L600,1527.272727272727" style="stroke: rgb(57, 59, 121); stroke-width: 4; fill: none;"></path><path class="parentEdges" d="M600,1527.272727272727L600,1527.272727272727" style="stroke: rgb(57, 59, 121); stroke-width: 4; fill: none;"></path><g class="node" transform="translate(-12,151.63636363636363)" style="fill: white; stroke: black; stroke-width: 3;"><rect width="24" height="24"></rect><text dx="6" dy="18" fill="black" stroke="none">6</text></g><g class="node" transform="translate(-12,178.90909090909088)" style="fill: black; stroke: black; stroke-width: 3;"><rect width="24" height="24"></rect><text dx="6" dy="18" fill="white" stroke="none">7</text></g><g class="node" transform="translate(-12,369.81818181818176)" style="fill: white; stroke: black; stroke-width: 3;"><rect width="24" height="24"></rect><text dx="6" dy="18" fill="black" stroke="none">14</text></g><g class="node" transform="translate(-12,397.0909090909091)" style="fill: white; stroke: black; stroke-width: 3;"><rect width="24" height="24"></rect><text dx="6" dy="18" fill="black" stroke="none">15</text></g><g class="node" transform="translate(-12,560.7272727272726)" style="fill: white; stroke: black; stroke-width: 3;"><rect width="24" height="24"></rect><text dx="6" dy="18" fill="black" stroke="none">21</text></g><g class="node" transform="translate(-12,424.3636363636364)" style="fill: black; stroke: black; stroke-width: 3;"><rect width="24" height="24"></rect><text dx="6" dy="18" fill="white" stroke="none">16</text></g><g class="node" transform="translate(-12,588)" style="fill: black; stroke: black; stroke-width: 3;"><rect width="24" height="24"></rect><text dx="6" dy="18" fill="white" stroke="none">22</text></g><g class="node" transform="translate(-12,888)" style="fill: black; stroke: black; stroke-width: 3;"><rect width="24" height="24"></rect><text dx="6" dy="18" fill="white" stroke="none">33</text></g><g class="node" transform="translate(-12,1106.1818181818182)" style="fill: white; stroke: black; stroke-width: 3;"><rect width="24" height="24"></rect><text dx="6" dy="18" fill="black" stroke="none">41</text></g><g class="node" transform="translate(-12,724.3636363636363)" style="fill: black; stroke: black; stroke-width: 3;"><rect width="24" height="24"></rect><text dx="6" dy="18" fill="white" stroke="none">27</text></g><g class="node" transform="translate(-12,915.2727272727271)" style="fill: white; stroke: black; stroke-width: 3;"><rect width="24" height="24"></rect><text dx="6" dy="18" fill="black" stroke="none">34</text></g><g class="node" transform="translate(-12,233.45454545454547)" style="fill: white; stroke: black; stroke-width: 3;"><rect width="24" height="24"></rect><text dx="6" dy="18" fill="black" stroke="none">9</text></g><g class="node" transform="translate(-12,1133.4545454545453)" style="fill: black; stroke: black; stroke-width: 3;"><rect width="24" height="24"></rect><text dx="6" dy="18" fill="white" stroke="none">42</text></g><g class="node" transform="translate(-12,942.5454545454545)" style="fill: white; stroke: black; stroke-width: 3;"><rect width="24" height="24"></rect><text dx="6" dy="18" fill="black" stroke="none">35</text></g><g class="node" transform="translate(-12,69.81818181818181)" style="fill: black; stroke: black; stroke-width: 3;"><rect width="24" height="24"></rect><text dx="6" dy="18" fill="white" stroke="none">3</text></g><g class="node" transform="translate(-12,1188)" style="fill: white; stroke: black; stroke-width: 3;"><rect width="24" height="24"></rect><text dx="6" dy="18" fill="black" stroke="none">44</text></g><g class="node" transform="translate(38,1706.181818181818)" style="fill: white; stroke: black; stroke-width: 3;"><rect width="24" height="24"></rect><text dx="6" dy="18" fill="black" stroke="none">63</text></g><g class="node" transform="translate(38,1733.4545454545455)" style="fill: black; stroke: black; stroke-width: 3;"><rect width="24" height="24"></rect><text dx="6" dy="18" fill="white" stroke="none">64</text></g><g class="node" transform="translate(88,1597.090909090909)" style="fill: white; stroke: rgb(181, 207, 107); stroke-width: 3;"><rect width="24" height="24"></rect><text dx="6" dy="18" fill="black" stroke="none">59</text></g><g class="node" transform="translate(88,506.18181818181813)" style="fill: white; stroke: rgb(99, 121, 57); stroke-width: 3;"><rect width="24" height="24"></rect><text dx="6" dy="18" fill="black" stroke="none">19</text></g><g class="node" transform="translate(88,233.45454545454547)" style="fill: white; stroke: black; stroke-width: 3;"><rect width="24" height="24"></rect><text dx="6" dy="18" fill="black" stroke="none">9</text></g><g class="node" transform="translate(88,1378.9090909090908)" style="fill: white; stroke: rgb(206, 109, 189); stroke-width: 3;"><rect width="24" height="24"></rect><text dx="6" dy="18" fill="black" stroke="none">51</text></g><g class="node" transform="translate(88,233.45454545454547)" style="fill: black; stroke: rgb(82, 84, 163); stroke-width: 3;"><rect width="24" height="24"></rect><text dx="6" dy="18" fill="white" stroke="none">9</text></g><g class="node" transform="translate(88,1242.5454545454545)" style="fill: white; stroke: rgb(123, 65, 115); stroke-width: 3;"><rect width="24" height="24"></rect><text dx="6" dy="18" fill="black" stroke="none">46</text></g><g class="node" transform="translate(88,751.6363636363635)" style="fill: white; stroke: rgb(189, 158, 57); stroke-width: 3;"><rect width="24" height="24"></rect><text dx="6" dy="18" fill="black" stroke="none">28</text></g><g class="node" transform="translate(88,615.2727272727273)" style="fill: white; stroke: rgb(181, 207, 107); stroke-width: 3;"><rect width="24" height="24"></rect><text dx="6" dy="18" fill="black" stroke="none">23</text></g><g class="node" transform="translate(88,97.0909090909091)" style="fill: white; stroke: rgb(57, 59, 121); stroke-width: 3;"><rect width="24" height="24"></rect><text dx="6" dy="18" fill="black" stroke="none">4</text></g><g class="node" transform="translate(88,997.090909090909)" style="fill: white; stroke: rgb(231, 186, 82); stroke-width: 3;"><rect width="24" height="24"></rect><text dx="6" dy="18" fill="black" stroke="none">37</text></g><g class="node" transform="translate(138,1788)" style="fill: white; stroke: black; stroke-width: 3;"><rect width="24" height="24"></rect><text dx="6" dy="18" fill="black" stroke="none">66</text></g><g class="node" transform="translate(138,1406.181818181818)" style="fill: white; stroke: rgb(140, 109, 49); stroke-width: 3;"><rect width="24" height="24"></rect><text dx="6" dy="18" fill="black" stroke="none">52</text></g><g class="node" transform="translate(138,1869.8181818181818)" style="fill: black; stroke: black; stroke-width: 3;"><rect width="24" height="24"></rect><text dx="6" dy="18" fill="white" stroke="none">69</text></g><g class="node" transform="translate(138,1924.3636363636363)" style="fill: white; stroke: black; stroke-width: 3;"><rect width="24" height="24"></rect><text dx="6" dy="18" fill="black" stroke="none">71</text></g><g class="node" transform="translate(188,260.7272727272727)" style="fill: white; stroke: rgb(231, 150, 156); stroke-width: 3;"><rect width="24" height="24"></rect><text dx="6" dy="18" fill="black" stroke="none">10</text></g><g class="node" transform="translate(188,1433.4545454545455)" style="fill: white; stroke: rgb(214, 97, 107); stroke-width: 3;"><rect width="24" height="24"></rect><text dx="6" dy="18" fill="black" stroke="none">53</text></g><g class="node" transform="translate(188,533.4545454545454)" style="fill: white; stroke: rgb(231, 150, 156); stroke-width: 3;"><rect width="24" height="24"></rect><text dx="6" dy="18" fill="black" stroke="none">20</text></g><g class="node" transform="translate(188,1024.3636363636363)" style="fill: white; stroke: rgb(206, 109, 189); stroke-width: 3;"><rect width="24" height="24"></rect><text dx="6" dy="18" fill="black" stroke="none">38</text></g><g class="node" transform="translate(188,124.36363636363635)" style="fill: white; stroke: rgb(165, 81, 148); stroke-width: 3;"><rect width="24" height="24"></rect><text dx="6" dy="18" fill="black" stroke="none">5</text></g><g class="node" transform="translate(188,778.9090909090909)" style="fill: white; stroke: rgb(231, 203, 148); stroke-width: 3;"><rect width="24" height="24"></rect><text dx="6" dy="18" fill="black" stroke="none">29</text></g><g class="node" transform="translate(188,1624.3636363636365)" style="fill: white; stroke: rgb(173, 73, 74); stroke-width: 3;"><rect width="24" height="24"></rect><text dx="6" dy="18" fill="black" stroke="none">60</text></g><g class="node" transform="translate(238,1269.8181818181818)" style="fill: white; stroke: rgb(222, 158, 214); stroke-width: 3;"><rect width="24" height="24"></rect><text dx="6" dy="18" fill="black" stroke="none">47</text></g><g class="node" transform="translate(288,806.1818181818182)" style="fill: white; stroke: rgb(132, 60, 57); stroke-width: 3;"><rect width="24" height="24"></rect><text dx="6" dy="18" fill="black" stroke="none">30</text></g><g class="node" transform="translate(288,642.5454545454545)" style="fill: white; stroke: rgb(132, 60, 57); stroke-width: 3;"><rect width="24" height="24"></rect><text dx="6" dy="18" fill="black" stroke="none">24</text></g><g class="node" transform="translate(288,1051.6363636363635)" style="fill: white; stroke: rgb(231, 186, 82); stroke-width: 3;"><rect width="24" height="24"></rect><text dx="6" dy="18" fill="black" stroke="none">39</text></g><g class="node" transform="translate(288,288)" style="fill: white; stroke: rgb(231, 203, 148); stroke-width: 3;"><rect width="24" height="24"></rect><text dx="6" dy="18" fill="black" stroke="none">11</text></g><g class="node" transform="translate(288,1487.9999999999998)" style="fill: white; stroke: rgb(206, 219, 156); stroke-width: 3;"><rect width="24" height="24"></rect><text dx="6" dy="18" fill="black" stroke="none">55</text></g><g class="node" transform="translate(288,833.4545454545454)" style="fill: white; stroke: rgb(123, 65, 115); stroke-width: 3;"><rect width="24" height="24"></rect><text dx="6" dy="18" fill="black" stroke="none">31</text></g><g class="node" transform="translate(388,315.27272727272725)" style="fill: white; stroke: rgb(222, 158, 214); stroke-width: 3;"><rect width="24" height="24"></rect><text dx="6" dy="18" fill="black" stroke="none">12</text></g><g class="node" transform="translate(388,669.8181818181818)" style="fill: white; stroke: rgb(123, 65, 115); stroke-width: 3;"><rect width="24" height="24"></rect><text dx="6" dy="18" fill="black" stroke="none">25</text></g><g class="node" transform="translate(388,1078.9090909090908)" style="fill: white; stroke: rgb(206, 109, 189); stroke-width: 3;"><rect width="24" height="24"></rect><text dx="6" dy="18" fill="black" stroke="none">40</text></g><g class="node" transform="translate(488,860.7272727272727)" style="fill: white; stroke: rgb(231, 150, 156); stroke-width: 3;"><rect width="24" height="24"></rect><text dx="6" dy="18" fill="black" stroke="none">32</text></g><g class="node" transform="translate(588,1515.272727272727)" style="fill: white; stroke: rgb(57, 59, 121); stroke-width: 3;"><rect width="24" height="24"></rect><text dx="6" dy="18" fill="black" stroke="none">56</text></g><g class="node" transform="translate(0,27.272727272727273)" style="fill: white; stroke: black; stroke-width: 3;"><circle r="12"></circle><text dx="-6" dy="6" fill="black" stroke="none">1</text></g><g class="node" transform="translate(0,218.1818181818182)" style="fill: white; stroke: black; stroke-width: 3;"><circle r="12"></circle><text dx="-6" dy="6" fill="black" stroke="none">8</text></g><g class="node" transform="translate(0,709.090909090909)" style="fill: white; stroke: black; stroke-width: 3;"><circle r="12"></circle><text dx="-6" dy="6" fill="black" stroke="none">26</text></g><g class="node" transform="translate(0,463.63636363636357)" style="fill: white; stroke: black; stroke-width: 3;"><circle r="12"></circle><text dx="-6" dy="6" fill="black" stroke="none">17</text></g><g class="node" transform="translate(0,490.90909090909093)" style="fill: white; stroke: black; stroke-width: 3;"><circle r="12"></circle><text dx="-6" dy="6" fill="black" stroke="none">18</text></g><g class="node" transform="translate(0,1336.3636363636363)" style="fill: white; stroke: black; stroke-width: 3;"><circle r="12"></circle><text dx="-6" dy="6" fill="black" stroke="none">49</text></g><g class="node" transform="translate(0,54.54545454545455)" style="fill: white; stroke: black; stroke-width: 3;"><circle r="12"></circle><text dx="-6" dy="6" fill="black" stroke="none">2</text></g><g class="node" transform="translate(0,981.8181818181819)" style="fill: white; stroke: black; stroke-width: 3;"><circle r="12"></circle><text dx="-6" dy="6" fill="black" stroke="none">36</text></g><g class="node" transform="translate(0,1172.7272727272727)" style="fill: white; stroke: black; stroke-width: 3;"><circle r="12"></circle><text dx="-6" dy="6" fill="black" stroke="none">43</text></g><g class="node" transform="translate(0,1363.6363636363635)" style="fill: black; stroke: black; stroke-width: 3;"><circle r="12"></circle><text dx="-6" dy="6" fill="white" stroke="none">50</text></g><g class="node" transform="translate(0,1227.2727272727273)" style="fill: white; stroke: black; stroke-width: 3;"><circle r="12"></circle><text dx="-6" dy="6" fill="black" stroke="none">45</text></g><g class="node" transform="translate(0,1554.5454545454545)" style="fill: black; stroke: black; stroke-width: 3;"><circle r="12"></circle><text dx="-6" dy="6" fill="white" stroke="none">57</text></g><g class="node" transform="translate(0,1581.8181818181818)" style="fill: white; stroke: black; stroke-width: 3;"><circle r="12"></circle><text dx="-6" dy="6" fill="black" stroke="none">58</text></g><g class="node" transform="translate(0,1663.6363636363635)" style="fill: white; stroke: black; stroke-width: 3;"><circle r="12"></circle><text dx="-6" dy="6" fill="black" stroke="none">61</text></g><g class="node" transform="translate(50,1690.9090909090908)" style="fill: white; stroke: black; stroke-width: 3;"><circle r="12"></circle><text dx="-6" dy="6" fill="black" stroke="none">62</text></g><g class="node" transform="translate(106,239.45454545454547)" style="fill: white; stroke: rgb(82, 84, 163); stroke-width: 3;"><circle r="12"></circle><text dx="-6" dy="6" fill="black" stroke="none">9</text></g><g class="node" transform="translate(106,1003.090909090909)" style="fill: white; stroke: rgb(231, 186, 82); stroke-width: 3;"><circle r="12"></circle><text dx="-6" dy="6" fill="black" stroke="none">37</text></g><g class="node" transform="translate(106,757.6363636363635)" style="fill: white; stroke: rgb(189, 158, 57); stroke-width: 3;"><circle r="12"></circle><text dx="-6" dy="6" fill="black" stroke="none">28</text></g><g class="node" transform="translate(106,621.2727272727273)" style="fill: white; stroke: rgb(181, 207, 107); stroke-width: 3;"><circle r="12"></circle><text dx="-6" dy="6" fill="black" stroke="none">23</text></g><g class="node" transform="translate(106,1603.090909090909)" style="fill: white; stroke: rgb(181, 207, 107); stroke-width: 3;"><circle r="12"></circle><text dx="-6" dy="6" fill="black" stroke="none">59</text></g><g class="node" transform="translate(106,1384.9090909090908)" style="fill: white; stroke: rgb(206, 109, 189); stroke-width: 3;"><circle r="12"></circle><text dx="-6" dy="6" fill="black" stroke="none">51</text></g><g class="node" transform="translate(106,512.1818181818181)" style="fill: white; stroke: rgb(99, 121, 57); stroke-width: 3;"><circle r="12"></circle><text dx="-6" dy="6" fill="black" stroke="none">19</text></g><g class="node" transform="translate(106,1248.5454545454545)" style="fill: white; stroke: rgb(123, 65, 115); stroke-width: 3;"><circle r="12"></circle><text dx="-6" dy="6" fill="black" stroke="none">46</text></g><g class="node" transform="translate(106,103.0909090909091)" style="fill: white; stroke: rgb(57, 59, 121); stroke-width: 3;"><circle r="12"></circle><text dx="-6" dy="6" fill="black" stroke="none">4</text></g><g class="node" transform="translate(150,1827.272727272727)" style="fill: white; stroke: black; stroke-width: 3;"><circle r="12"></circle><text dx="-6" dy="6" fill="black" stroke="none">67</text></g><g class="node" transform="translate(150,1854.5454545454543)" style="fill: white; stroke: black; stroke-width: 3;"><circle r="12"></circle><text dx="-6" dy="6" fill="black" stroke="none">68</text></g><g class="node" transform="translate(156,1412.181818181818)" style="fill: white; stroke: rgb(140, 109, 49); stroke-width: 3;"><circle r="12"></circle><text dx="-6" dy="6" fill="black" stroke="none">52</text></g><g class="node" transform="translate(150,1909.090909090909)" style="fill: white; stroke: black; stroke-width: 3;"><circle r="12"></circle><text dx="-6" dy="6" fill="black" stroke="none">70</text></g><g class="node" transform="translate(150,1963.6363636363637)" style="fill: white; stroke: black; stroke-width: 3;"><circle r="12"></circle><text dx="-6" dy="6" fill="black" stroke="none">72</text></g><g class="node" transform="translate(206,539.4545454545454)" style="fill: white; stroke: rgb(231, 150, 156); stroke-width: 3;"><circle r="12"></circle><text dx="-6" dy="6" fill="black" stroke="none">20</text></g><g class="node" transform="translate(206,784.9090909090909)" style="fill: white; stroke: rgb(231, 203, 148); stroke-width: 3;"><circle r="12"></circle><text dx="-6" dy="6" fill="black" stroke="none">29</text></g><g class="node" transform="translate(206,130.36363636363635)" style="fill: white; stroke: rgb(165, 81, 148); stroke-width: 3;"><circle r="12"></circle><text dx="-6" dy="6" fill="black" stroke="none">5</text></g><g class="node" transform="translate(206,1030.3636363636363)" style="fill: white; stroke: rgb(206, 109, 189); stroke-width: 3;"><circle r="12"></circle><text dx="-6" dy="6" fill="black" stroke="none">38</text></g><g class="node" transform="translate(206,266.7272727272727)" style="fill: white; stroke: rgb(231, 150, 156); stroke-width: 3;"><circle r="12"></circle><text dx="-6" dy="6" fill="black" stroke="none">10</text></g><g class="node" transform="translate(206,1439.4545454545455)" style="fill: white; stroke: rgb(214, 97, 107); stroke-width: 3;"><circle r="12"></circle><text dx="-6" dy="6" fill="black" stroke="none">53</text></g><g class="node" transform="translate(206,1466.7272727272725)" style="fill: white; stroke: rgb(173, 73, 74); stroke-width: 3;"><circle r="12"></circle><text dx="-6" dy="6" fill="black" stroke="none">54</text></g><g class="node" transform="translate(256,1984.9090909090908)" style="fill: white; stroke: rgb(222, 158, 214); stroke-width: 3;"><circle r="12"></circle><text dx="-6" dy="6" fill="black" stroke="none">73</text></g><g class="node" transform="translate(306,812.1818181818182)" style="fill: white; stroke: rgb(132, 60, 57); stroke-width: 3;"><circle r="12"></circle><text dx="-6" dy="6" fill="black" stroke="none">30</text></g><g class="node" transform="translate(306,648.5454545454545)" style="fill: white; stroke: rgb(132, 60, 57); stroke-width: 3;"><circle r="12"></circle><text dx="-6" dy="6" fill="black" stroke="none">24</text></g><g class="node" transform="translate(306,294)" style="fill: white; stroke: rgb(231, 203, 148); stroke-width: 3;"><circle r="12"></circle><text dx="-6" dy="6" fill="black" stroke="none">11</text></g><g class="node" transform="translate(306,1057.6363636363635)" style="fill: white; stroke: rgb(231, 186, 82); stroke-width: 3;"><circle r="12"></circle><text dx="-6" dy="6" fill="black" stroke="none">39</text></g><g class="node" transform="translate(306,839.4545454545454)" style="fill: white; stroke: rgb(123, 65, 115); stroke-width: 3;"><circle r="12"></circle><text dx="-6" dy="6" fill="black" stroke="none">31</text></g><g class="node" transform="translate(306,1493.9999999999998)" style="fill: white; stroke: rgb(206, 219, 156); stroke-width: 3;"><circle r="12"></circle><text dx="-6" dy="6" fill="black" stroke="none">55</text></g><g class="node" transform="translate(406,321.27272727272725)" style="fill: white; stroke: rgb(222, 158, 214); stroke-width: 3;"><circle r="12"></circle><text dx="-6" dy="6" fill="black" stroke="none">12</text></g><g class="node" transform="translate(406,1084.9090909090908)" style="fill: white; stroke: rgb(206, 109, 189); stroke-width: 3;"><circle r="12"></circle><text dx="-6" dy="6" fill="black" stroke="none">40</text></g><g class="node" transform="translate(406,675.8181818181818)" style="fill: white; stroke: rgb(123, 65, 115); stroke-width: 3;"><circle r="12"></circle><text dx="-6" dy="6" fill="black" stroke="none">25</text></g><g class="node" transform="translate(506,866.7272727272727)" style="fill: white; stroke: rgb(231, 150, 156); stroke-width: 3;"><circle r="12"></circle><text dx="-6" dy="6" fill="black" stroke="none">32</text></g><g class="node" transform="translate(606,1521.272727272727)" style="fill: white; stroke: rgb(57, 59, 121); stroke-width: 3;"><circle r="12"></circle><text dx="-6" dy="6" fill="black" stroke="none">56</text></g></g></svg>