<svg id="Layer_1" data-name="Layer 1" xmlns="http://www.w3.org/2000/svg" viewBox="0 0 814.69 154.68"><defs><style>.cls-1{fill:#fff;stroke:#010101;stroke-width:5px;}.cls-1,.cls-10,.cls-11,.cls-13,.cls-21,.cls-23,.cls-24,.cls-3,.cls-32{stroke-miterlimit:10;}.cls-2,.cls-3{opacity:0.63;}.cls-2,.cls-4,.cls-6{font-size:26.85px;}.cls-2{fill:#303030;font-family:MyriadPro-Bold, Myriad Pro;font-weight:700;}.cls-10,.cls-11,.cls-21,.cls-3{fill:none;}.cls-3{stroke:#b7b7b7;}.cls-23,.cls-3,.cls-32{stroke-width:2px;}.cls-14,.cls-25,.cls-4,.cls-6{fill:#868687;font-family:MyriadPro-Cond, Myriad Pro;}.cls-4,.cls-7{letter-spacing:-0.01em;}.cls-5{letter-spacing:0em;}.cls-8{letter-spacing:0.01em;}.cls-9{letter-spacing:-0.01em;}.cls-10,.cls-32{stroke:#b3b3b3;}.cls-10{stroke-width:0.5px;}.cls-11{stroke:#636364;}.cls-12{fill:#295981;}.cls-13,.cls-22,.cls-23,.cls-24{fill:#e2e2e2;}.cls-13,.cls-23{stroke:#969696;}.cls-14{font-size:20.95px;}.cls-15{letter-spacing:0em;}.cls-16{letter-spacing:0em;}.cls-17{letter-spacing:-0.01em;}.cls-18{letter-spacing:0.01em;}.cls-19{letter-spacing:-0.01em;}.cls-20{letter-spacing:0em;}.cls-21{stroke:#6e6d6c;stroke-width:3px;}.cls-24{stroke:#565757;stroke-width:4px;}.cls-25{font-size:26px;}.cls-26{letter-spacing:-0.02em;}.cls-27{letter-spacing:0em;}.cls-28{letter-spacing:-0.01em;}.cls-29{letter-spacing:-0.01em;}.cls-30{letter-spacing:0em;}.cls-31{letter-spacing:-0.01em;}.cls-32{fill:#dddede;opacity:0.32;}</style></defs><title>treeLegend</title><line class="cls-1" x1="199.59" y1="63.95" x2="238.68" y2="102.89"/><text class="cls-2" transform="translate(367.59 80.23)">26</text><line class="cls-3" x1="235.18" y1="84.89" x2="403.65" y2="84.89"/><line class="cls-3" x1="400.74" y1="71.78" x2="408.39" y2="95.86"/><text class="cls-4" transform="translate(267.83 110.11)">A<tspan class="cls-5" x="11.44" y="0">ge Line</tspan></text><text class="cls-6" transform="translate(293.07 48.81)"><tspan class="cls-7">A</tspan><tspan class="cls-5" x="11.44" y="0">ge </tspan><tspan class="cls-7" x="36.11" y="0">a</tspan><tspan x="45.65" y="0">t de</tspan><tspan class="cls-7" x="77.17" y="0">a</tspan><tspan x="86.7" y="0">th</tspan></text><text class="cls-6" transform="translate(421.46 104.9)"><tspan class="cls-8">D</tspan><tspan x="12.16" y="0">e</tspan><tspan class="cls-9" x="21.91" y="0">c</tspan><tspan x="29.86" y="0">eased</tspan></text><polyline class="cls-10" points="258.33 83.51 258.33 112.54 337.48 112.54"/><polyline class="cls-10" points="395.97 59.67 395.97 50.42 293.07 50.42"/><polyline class="cls-11" points="401.19 98.25 401.19 102.07 408.04 102.07 414.9 102.07 414.9 98.25"/><polyline class="cls-10" points="408.04 102.07 411.23 107.04 504.69 107.72"/><polyline class="cls-11" points="399.59 63.54 399.59 59.73 382.54 59.73 365.49 59.73 365.49 63.54"/><circle class="cls-12" cx="219.14" cy="84.89" r="16.97"/><line class="cls-1" x1="1.76" y1="19.62" x2="31.85" y2="49.59"/><circle class="cls-13" cx="17.32" cy="35.11" r="13.68"/><circle class="cls-13" cx="15.44" cy="79.59" r="13.68"/><circle class="cls-12" cx="16.88" cy="121.82" r="13.24"/><text class="cls-14" transform="translate(38.81 85.28)"><tspan class="cls-15">A</tspan><tspan class="cls-16" x="9.05" y="0">li</tspan><tspan class="cls-17" x="16.91" y="0">v</tspan><tspan x="23.91" y="0">e</tspan></text><text class="cls-14" transform="translate(48.77 43.3)"><tspan class="cls-18">D</tspan><tspan x="9.49" y="0">e</tspan><tspan class="cls-19" x="17.1" y="0">c</tspan><tspan x="23.3" y="0">eased</tspan></text><text class="cls-14" transform="translate(41.83 126.33)">POI: <tspan class="cls-20" x="29.23" y="0">S</tspan><tspan x="36.9" y="0">uicide</tspan></text><polyline class="cls-21" points="586.02 98.95 604.6 98.95 604.6 114.85 651.22 114.85"/><line class="cls-21" x1="660.4" y1="86.86" x2="660.88" y2="105.92"/><rect class="cls-22" x="648.34" y="65.95" width="24.11" height="23.17"/><line class="cls-23" x1="642.83" y1="60.4" x2="677.44" y2="94.28"/><rect class="cls-13" x="648.34" y="65.95" width="24.11" height="23.17"/><line class="cls-23" x1="646.45" y1="102.3" x2="674.35" y2="130.1"/><circle class="cls-13" cx="660.88" cy="116.67" r="12.69"/><line class="cls-24" x1="684.9" y1="64" x2="684.9" y2="133.9"/><rect class="cls-22" x="695" y="64.03" width="15.98" height="15.36"/><line class="cls-23" x1="691.35" y1="60.35" x2="714.29" y2="82.8"/><rect class="cls-13" x="695" y="64.03" width="15.98" height="15.36"/><line class="cls-23" x1="693.58" y1="103.81" x2="712.05" y2="122.2"/><circle class="cls-13" cx="703.13" cy="113.32" r="8.4"/><rect class="cls-22" x="615.55" y="66.81" width="24.11" height="23.17"/><line class="cls-23" x1="610.04" y1="61.26" x2="644.64" y2="95.14"/><rect class="cls-13" x="615.55" y="65.95" width="24.11" height="23.17"/><line class="cls-23" x1="716" y1="103.81" x2="734.46" y2="122.2"/><circle class="cls-13" cx="725.55" cy="113.32" r="8.4"/><rect class="cls-22" x="717.94" y="64.03" width="15.98" height="15.36"/><line class="cls-23" x1="714.29" y1="60.35" x2="737.22" y2="82.8"/><rect class="cls-13" x="717.94" y="64.03" width="15.98" height="15.36"/><text class="cls-25" transform="translate(611.9 37.96)"><tspan class="cls-26">P</tspan><tspan class="cls-27" x="9.72" y="0">a</tspan><tspan class="cls-28" x="19.19" y="0">r</tspan><tspan x="25.27" y="0">e</tspan><tspan class="cls-29" x="34.71" y="0">n</tspan><tspan x="45.08" y="0">ts</tspan></text><polyline class="cls-10" points="613 52.38 613 40.09 706.55 40.09"/><polyline class="cls-11" points="677.44 57.42 677.44 52.35 641.24 52.35 605.04 52.35 605.04 57.42"/><polyline class="cls-11" points="738.17 136.57 743.24 136.57 743.24 98.46 743.24 60.35 738.17 60.35"/><text class="cls-25" transform="translate(748.37 106.9)"><tspan class="cls-30">C</tspan><tspan x="9.62" y="0">hild</tspan><tspan class="cls-31" x="40.27" y="0">r</tspan><tspan x="46.36" y="0">en</tspan></text><line class="cls-32" x1="181.94" x2="181.94" y2="154.68"/><line class="cls-32" x1="531.36" x2="531.36" y2="154.68"/></svg>