<svg id="Layer_1" data-name="Layer 1" xmlns="http://www.w3.org/2000/svg" viewBox="0 0 552 122"><defs><style>.cls-1,.cls-6,.cls-8{fill:#868687;}.cls-1{opacity:0.14;}.cls-2{fill:#dddede;stroke:#e3e3e5;opacity:0.36;}.cls-13,.cls-15,.cls-2,.cls-20,.cls-22,.cls-23,.cls-3,.cls-5{stroke-miterlimit:10;}.cls-2,.cls-22,.cls-5{stroke-width:2px;}.cls-3{fill:#fff;stroke:#010101;stroke-width:5px;}.cls-4,.cls-5{opacity:0.63;}.cls-4{font-size:17.22px;fill:#303030;font-family:MyriadPro-Bold, Myriad Pro;font-weight:700;}.cls-13,.cls-20,.cls-5{fill:none;}.cls-5{stroke:#b7b7b7;}.cls-6,.cls-8{font-size:12px;font-family:MyriadPro-Cond, Myriad Pro;}.cls-6,.cls-9{letter-spacing:-0.01em;}.cls-7{letter-spacing:0em;}.cls-10{letter-spacing:-0.01em;}.cls-11{letter-spacing:0.01em;}.cls-12{letter-spacing:-0.01em;}.cls-13{stroke:#636364;}.cls-14{fill:#295981;}.cls-15{fill:#ededf1;}.cls-15,.cls-22{stroke:#969696;}.cls-16{letter-spacing:0em;}.cls-17{letter-spacing:-0.01em;}.cls-18{letter-spacing:-0.01em;}.cls-19{letter-spacing:0.01em;}.cls-20{stroke:#6e6d6c;stroke-width:3px;}.cls-21,.cls-22,.cls-23{fill:#e2e2e2;}.cls-23{stroke:#565757;stroke-width:4px;}.cls-24{letter-spacing:-0.02em;}.cls-25{letter-spacing:-0.01em;}.cls-26{letter-spacing:-0.01em;}</style></defs><title>treeLegend</title><rect class="cls-1" x="1" y="0.69" width="104.2" height="120"/><rect class="cls-2" x="1" y="1" width="550" height="120"/><line class="cls-3" x1="127" y1="48.46" x2="152.06" y2="73.43"/><text class="cls-4" transform="translate(192.57 59.53)">26</text><line class="cls-5" x1="150.02" y1="62.52" x2="215.69" y2="62.52"/><line class="cls-5" x1="213.82" y1="54.11" x2="218.73" y2="69.55"/><text class="cls-6" transform="translate(166.17 81.6)">A<tspan class="cls-7" x="5.11" y="0">ge Line</tspan></text><text class="cls-8" transform="translate(154.64 38.66)"><tspan class="cls-9">A</tspan><tspan class="cls-7" x="5.11" y="0">ge </tspan><tspan class="cls-9" x="16.14" y="0">a</tspan><tspan x="20.4" y="0">t de</tspan><tspan class="cls-10" x="34.49" y="0">a</tspan><tspan x="38.75" y="0">th</tspan></text><text class="cls-8" transform="translate(227.1 75.35)"><tspan class="cls-11">D</tspan><tspan class="cls-7" x="5.44" y="0">e</tspan><tspan class="cls-12" x="9.79" y="0">c</tspan><tspan x="13.34" y="0">eased</tspan></text><polyline class="cls-13" points="201.83 46.4 201.83 40.46 152.06 40.46"/><polyline class="cls-13" points="214.11 71.08 214.11 73.53 218.5 73.53 222.9 73.53 222.9 71.08"/><polyline class="cls-13" points="218.5 73.53 219.96 76.72 262.63 77.16"/><polyline class="cls-13" points="213.08 48.83 213.08 46.38 202.15 46.38 191.22 46.38 191.22 48.83"/><circle class="cls-14" cx="139.53" cy="61.89" r="10.88"/><line class="cls-3" x1="24.84" y1="21.68" x2="44.13" y2="40.89"/><circle class="cls-15" cx="34.81" cy="31.61" r="8.77"/><circle class="cls-15" cx="34.49" cy="60.13" r="8.77"/><circle class="cls-14" cx="34.49" cy="87.2" r="8.49"/><text class="cls-8" transform="translate(48.36 63.42)"><tspan class="cls-16">A</tspan><tspan x="5.18" y="0">li</tspan><tspan class="cls-17" x="9.68" y="0">v</tspan><tspan x="13.69" y="0">e</tspan></text><text class="cls-8" transform="translate(48.36 35.51)"><tspan class="cls-11">D</tspan><tspan x="5.44" y="0">e</tspan><tspan class="cls-18" x="9.79" y="0">c</tspan><tspan x="13.34" y="0">eased</tspan></text><text class="cls-8" transform="translate(48.36 91.32)">POI: <tspan class="cls-19" x="16.74" y="0">S</tspan><tspan x="21.13" y="0">uicide</tspan></text><line class="cls-20" x1="319.92" y1="58.68" x2="320.23" y2="70.9"/><rect class="cls-21" x="312.19" y="45.28" width="15.46" height="14.86"/><line class="cls-22" x1="308.66" y1="41.72" x2="330.85" y2="63.44"/><rect class="cls-15" x="312.19" y="45.28" width="15.46" height="14.86"/><line class="cls-22" x1="310.97" y1="68.58" x2="328.87" y2="86.4"/><circle class="cls-15" cx="320.23" cy="77.8" r="8.14"/><line class="cls-23" x1="335.63" y1="44.03" x2="335.63" y2="88.85"/><rect class="cls-21" x="342.11" y="44.05" width="10.24" height="9.85"/><line class="cls-22" x1="339.77" y1="41.69" x2="354.47" y2="56.08"/><rect class="cls-15" x="342.11" y="44.05" width="10.24" height="9.85"/><line class="cls-22" x1="341.2" y1="69.55" x2="353.04" y2="81.34"/><circle class="cls-15" cx="347.32" cy="75.65" r="5.38"/><rect class="cls-21" x="291.16" y="45.83" width="15.46" height="14.86"/><line class="cls-22" x1="287.63" y1="42.27" x2="309.82" y2="63.99"/><rect class="cls-15" x="291.16" y="45.28" width="15.46" height="14.86"/><line class="cls-22" x1="355.57" y1="69.55" x2="367.41" y2="81.34"/><circle class="cls-15" cx="361.69" cy="75.65" r="5.38"/><rect class="cls-21" x="356.81" y="44.05" width="10.24" height="9.85"/><line class="cls-22" x1="354.47" y1="41.69" x2="369.18" y2="56.08"/><rect class="cls-15" x="356.81" y="44.05" width="10.24" height="9.85"/><text class="cls-8" transform="translate(294.85 32.08)"><tspan class="cls-24">P</tspan><tspan x="4.49" y="0">a</tspan><tspan class="cls-25" x="8.86" y="0">r</tspan><tspan x="11.66" y="0">e</tspan><tspan class="cls-12" x="16.02" y="0">n</tspan><tspan x="20.81" y="0">ts</tspan></text><polyline class="cls-13" points="330.85 39.81 330.85 36.56 307.64 36.56 284.43 36.56 284.43 39.81"/><polyline class="cls-13" points="369.79 90.56 373.04 90.56 373.04 66.12 373.04 41.69 369.79 41.69"/><text class="cls-8" transform="translate(376.32 71.53)"><tspan class="cls-16">C</tspan><tspan x="4.44" y="0">hild</tspan><tspan class="cls-26" x="18.59" y="0">r</tspan><tspan x="21.4" y="0">en</tspan></text><line class="cls-13" x1="180.36" y1="63.7" x2="180.36" y2="73.53"/></svg>