<svg id="Layer_1" data-name="Layer 1" xmlns="http://www.w3.org/2000/svg" viewBox="0 0 888.58 190.96"><defs><style>.cls-1,.cls-33{fill:#dddede;}.cls-1{stroke:#e3e3e5;opacity:0.36;}.cls-1,.cls-11,.cls-12,.cls-14,.cls-2,.cls-22,.cls-24,.cls-25,.cls-33,.cls-4{stroke-miterlimit:10;}.cls-1,.cls-24,.cls-33,.cls-4{stroke-width:2px;}.cls-2{fill:#fff;stroke:#010101;stroke-width:5px;}.cls-3,.cls-4{opacity:0.63;}.cls-3,.cls-5,.cls-7{font-size:26.85px;}.cls-3{fill:#303030;font-family:MyriadPro-Bold, Myriad Pro;font-weight:700;}.cls-11,.cls-12,.cls-22,.cls-4{fill:none;}.cls-4{stroke:#b7b7b7;}.cls-15,.cls-26,.cls-5,.cls-7{fill:#868687;font-family:MyriadPro-Cond, Myriad Pro;}.cls-5,.cls-8{letter-spacing:-0.01em;}.cls-6{letter-spacing:0em;}.cls-9{letter-spacing:0.01em;}.cls-10{letter-spacing:-0.01em;}.cls-11,.cls-33{stroke:#b3b3b3;}.cls-11{stroke-width:0.5px;}.cls-12{stroke:#636364;}.cls-13{fill:#295981;}.cls-14,.cls-23,.cls-24,.cls-25{fill:#e2e2e2;}.cls-14,.cls-24{stroke:#969696;}.cls-15{font-size:20.95px;}.cls-16{letter-spacing:0em;}.cls-17{letter-spacing:0em;}.cls-18{letter-spacing:-0.01em;}.cls-19{letter-spacing:0.01em;}.cls-20{letter-spacing:-0.01em;}.cls-21{letter-spacing:0em;}.cls-22{stroke:#6e6d6c;stroke-width:3px;}.cls-25{stroke:#565757;stroke-width:4px;}.cls-26{font-size:26px;}.cls-27{letter-spacing:-0.02em;}.cls-28{letter-spacing:0em;}.cls-29{letter-spacing:-0.01em;}.cls-30{letter-spacing:-0.01em;}.cls-31{letter-spacing:0em;}.cls-32{letter-spacing:-0.01em;}.cls-33{opacity:0.32;}</style></defs><title>treeLegend</title><rect class="cls-1" x="1" y="1" width="886.58" height="188.96"/><line class="cls-2" x1="236.61" y1="77.04" x2="275.71" y2="115.98"/><text class="cls-3" transform="translate(404.62 93.32)">26</text><line class="cls-4" x1="272.2" y1="97.98" x2="440.68" y2="97.98"/><line class="cls-4" x1="437.76" y1="84.86" x2="445.42" y2="108.95"/><text class="cls-5" transform="translate(304.86 123.19)">A<tspan class="cls-6" x="11.44" y="0">ge Line</tspan></text><text class="cls-7" transform="translate(330.09 61.9)"><tspan class="cls-8">A</tspan><tspan class="cls-6" x="11.44" y="0">ge </tspan><tspan class="cls-8" x="36.11" y="0">a</tspan><tspan x="45.65" y="0">t de</tspan><tspan class="cls-8" x="77.17" y="0">a</tspan><tspan x="86.7" y="0">th</tspan></text><text class="cls-7" transform="translate(458.48 117.98)"><tspan class="cls-9">D</tspan><tspan x="12.16" y="0">e</tspan><tspan class="cls-10" x="21.91" y="0">c</tspan><tspan x="29.86" y="0">eased</tspan></text><polyline class="cls-11" points="295.36 96.6 295.36 125.63 374.51 125.63"/><polyline class="cls-11" points="433 72.76 433 63.51 330.09 63.51"/><polyline class="cls-12" points="438.21 111.34 438.21 115.16 445.07 115.16 451.93 115.16 451.93 111.34"/><polyline class="cls-11" points="445.07 115.16 448.25 120.13 541.72 120.81"/><polyline class="cls-12" points="436.61 76.63 436.61 72.81 419.56 72.81 402.51 72.81 402.51 76.63"/><circle class="cls-13" cx="256.16" cy="97.98" r="16.97"/><line class="cls-2" x1="38.79" y1="32.7" x2="68.88" y2="62.67"/><circle class="cls-14" cx="54.35" cy="48.2" r="13.68"/><circle class="cls-14" cx="52.47" cy="92.67" r="13.68"/><circle class="cls-13" cx="53.91" cy="134.9" r="13.24"/><text class="cls-15" transform="translate(75.83 98.37)"><tspan class="cls-16">A</tspan><tspan class="cls-17" x="9.05" y="0">li</tspan><tspan class="cls-18" x="16.91" y="0">v</tspan><tspan x="23.91" y="0">e</tspan></text><text class="cls-15" transform="translate(85.8 56.39)"><tspan class="cls-19">D</tspan><tspan x="9.49" y="0">e</tspan><tspan class="cls-20" x="17.1" y="0">c</tspan><tspan x="23.3" y="0">eased</tspan></text><text class="cls-15" transform="translate(78.86 139.42)">POI: <tspan class="cls-21" x="29.23" y="0">S</tspan><tspan x="36.9" y="0">uicide</tspan></text><polyline class="cls-22" points="623.04 112.04 641.62 112.04 641.62 127.94 688.25 127.94"/><line class="cls-22" x1="697.42" y1="99.95" x2="697.9" y2="119"/><rect class="cls-23" x="685.37" y="79.04" width="24.11" height="23.17"/><line class="cls-24" x1="679.86" y1="73.49" x2="714.47" y2="107.36"/><rect class="cls-14" x="685.37" y="79.04" width="24.11" height="23.17"/><line class="cls-24" x1="683.47" y1="115.39" x2="711.38" y2="143.18"/><circle class="cls-14" cx="697.9" cy="129.76" r="12.69"/><line class="cls-25" x1="721.93" y1="77.09" x2="721.93" y2="146.99"/><rect class="cls-23" x="732.03" y="77.12" width="15.98" height="15.36"/><line class="cls-24" x1="728.38" y1="73.44" x2="751.31" y2="95.89"/><rect class="cls-14" x="732.03" y="77.12" width="15.98" height="15.36"/><line class="cls-24" x1="730.61" y1="116.9" x2="749.08" y2="135.29"/><circle class="cls-14" cx="740.16" cy="126.41" r="8.4"/><rect class="cls-23" x="652.57" y="79.9" width="24.11" height="23.17"/><line class="cls-24" x1="647.06" y1="74.35" x2="681.67" y2="108.23"/><rect class="cls-14" x="652.57" y="79.04" width="24.11" height="23.17"/><line class="cls-24" x1="753.02" y1="116.9" x2="771.49" y2="135.29"/><circle class="cls-14" cx="762.57" cy="126.41" r="8.4"/><rect class="cls-23" x="754.96" y="77.12" width="15.98" height="15.36"/><line class="cls-24" x1="751.31" y1="73.44" x2="774.24" y2="95.89"/><rect class="cls-14" x="754.96" y="77.12" width="15.98" height="15.36"/><text class="cls-26" transform="translate(648.92 51.05)"><tspan class="cls-27">P</tspan><tspan class="cls-28" x="9.72" y="0">a</tspan><tspan class="cls-29" x="19.19" y="0">r</tspan><tspan x="25.27" y="0">e</tspan><tspan class="cls-30" x="34.71" y="0">n</tspan><tspan x="45.08" y="0">ts</tspan></text><polyline class="cls-11" points="650.02 65.46 650.02 53.18 743.58 53.18"/><polyline class="cls-12" points="714.47 70.51 714.47 65.44 678.27 65.44 642.07 65.44 642.07 70.51"/><polyline class="cls-12" points="775.2 149.66 780.26 149.66 780.26 111.55 780.26 73.44 775.2 73.44"/><text class="cls-26" transform="translate(785.39 119.99)"><tspan class="cls-31">C</tspan><tspan x="9.62" y="0">hild</tspan><tspan class="cls-32" x="40.27" y="0">r</tspan><tspan x="46.36" y="0">en</tspan></text><line class="cls-33" x1="218.97" y1="1" x2="218.97" y2="167.76"/><line class="cls-33" x1="568.39" y1="1" x2="568.39" y2="167.76"/></svg>